  0
SECTION
  2
HEADER
  9
$ACADVER
  1
AC1009
  9
$INSBASE
 10
0
 20
0
 30
0
  9
$EXTMIN
 10
0
 20
0
  9
$EXTMAX
 10
841
 20
594
  9
$LIMMIN
 10
0
 20
0
  9
$LIMMAX
 10
841
 20
594
  9
$LTSCALE
 40
1
  0
ENDSEC
  0
SECTION
  2
TABLES
  0
TABLE
  2
LTYPE
 70
     9
  0
LTYPE
  2
CONTINUOUS
 70
    64
  3
実線
 72
    65
 73
     0
 40
0.0
  0
LTYPE
  2
DASHED1
 70
    64
  3
--  --  --  --  --  --  --  --  
 72
    65
 73
     2
 40
2.5
 49
1.25
 49
-1.25
  0
LTYPE
  2
DASHED2
 70
    64
  3
----    ----    ----    ----    
 72
    65
 73
     2
 40
5.0
 49
2.5
 49
-2.5
  0
LTYPE
  2
DASHED3
 70
    64
  3
------  ------  ------  ------  
 72
    65
 73
     2
 40
5.0
 49
3.75
 49
-1.25
  0
LTYPE
  2
CENTER1
 70
    64
  3
----- - ----- - ----- - ----- - 
 72
    65
 73
     4
 40
10.0
 49
6.25
 49
-1.25
 49
1.25
 49
-1.25
  0
LTYPE
  2
CENTER2
 70
    64
  3
----------  --  ----------  --  
 72
    65
 73
     4
 40
20.0
 49
12.5
 49
-2.5
 49
2.5
 49
-2.5
  0
LTYPE
  2
PHANTOM1
 70
    64
  3
--- - - --- - - --- - - --- - - 
 72
    65
 73
     6
 40
10.0
 49
3.25
 49
-1.25
 49
1.25
 49
-1.25
 49
1.25
 49
-1.25
  0
LTYPE
  2
PHANTOM2
 70
    64
  3
--------  -  -  --------  -  -  
 72
    65
 73
     6
 40
20.0
 49
10.0
 49
-2.5
 49
1.25
 49
-2.5
 49
1.25
 49
-2.5
  0
LTYPE
  2
DOT
 70
    64
  3
-   -   -   -   -   -   -   -   
 72
    65
 73
     2
 40
2.5
 49
0.625
 49
-1.875
  0
LTYPE
  2
DUMMY
 70
    64
  3
ダミー
 72
    65
 73
     0
 40
0.0
  0
LTYPE
  2
RAND1
 70
    64
  3
ランダム線1
 72
    65
 73
     4
 40
10.0
 49
1.0
 49
-2.0
 49
3.0
 49
-4.0
  0
LTYPE
  2
RAND2
 70
    64
  3
ランダム線2
 72
    65
 73
     4
 40
14.0
 49
2.0
 49
-3.0
 49
4.0
 49
-5.0
  0
LTYPE
  2
RAND3
 70
    64
  3
ランダム線3
 72
    65
 73
     4
 40
18.0
 49
3.0
 49
-4.0
 49
5.0
 49
-6.0
  0
LTYPE
  2
RAND4
 70
    64
  3
ランダム線4
 72
    65
 73
     4
 40
22.0
 49
4.0
 49
-5.0
 49
6.0
 49
-7.0
  0
LTYPE
  2
RAND5
 70
    64
  3
ランダム線5
 72
    65
 73
     4
 40
26.0
 49
5.0
 49
-6.0
 49
7.0
 49
-8.0
  0
LTYPE
  2
LONG1
 70
    64
  3
----------  --  ----------  --  
 72
    65
 73
     4
 40
40.0
 49
32.5
 49
-2.5
 49
2.5
 49
-2.5
  0
LTYPE
  2
LONG2
 70
    64
  3
--------  -  -  --------  -  -  
 72
    65
 73
     6
 40
40.0
 49
30.0
 49
-2.5
 49
1.25
 49
-2.5
 49
1.25
 49
-2.5
  0
LTYPE
  2
LONG3
 70
    64
  3
+++++++++++++++..+++++++++++++++
 72
    65
 73
     2
 40
40.0
 49
37.5
 49
-2.5
  0
LTYPE
  2
LONG4
 70
    64
  3
+++++++++++++++..+++++++++++++++
 72
    65
 73
     2
 40
80.0
 49
75.0
 49
-5.0
  0
LTYPE
  2
LONG5
 70
    64
  3
----------  --  ----------  --  
 72
    65
 73
     4
 40
60.0
 49
37.5
 49
-7.5
 49
7.5
 49
-7.5
  0
LTYPE
  2
dashed
 70
   64
  3
-------   -------------   ------
 72
   65
 73
    2
 40
7.5
 49
6
 49
-1.5
  0
LTYPE
  2
dashed_spaced
 70
   64
  3
----        --------        ----
 72
   65
 73
    2
 40
12
 49
6
 49
-6
  0
LTYPE
  2
long_dashed_dotted
 70
   64
  3
------------- --- --------------
 72
   65
 73
    4
 40
15.25
 49
12
 49
-1.5
 49
0.25
 49
-1.5
  0
LTYPE
  2
long_dashed_double-dotted
 70
   64
  3
----------- --- --- ------------
 72
   65
 73
    6
 40
17
 49
12
 49
-1.5
 49
0.25
 49
-1.5
 49
0.25
 49
-1.5
  0
LTYPE
  2
long_dashed_triplicate-dotted
 70
   64
  3
--------- --- --- --- ----------
 72
   65
 73
    8
 40
18.75
 49
12
 49
-1.5
 49
0.25
 49
-1.5
 49
0.25
 49
-1.5
 49
0.25
 49
-1.5
  0
LTYPE
  2
dotted
 70
   64
  3
   -       -       -       -    
 72
   65
 73
    2
 40
1.75
 49
0.25
 49
-1.5
  0
LTYPE
  2
chain
 70
   64
  3
-------------- -- --------------
 72
   65
 73
    4
 40
18.5
 49
12
 49
-1.5
 49
3.5
 49
-1.5
  0
LTYPE
  2
chain_double_dash
 70
   64
  3
------------ -- -- -------------
 72
   65
 73
    6
 40
23.5
 49
12
 49
-1.5
 49
3.5
 49
-1.5
 49
3.5
 49
-1.5
  0
LTYPE
  2
dashed_dotted
 70
   64
  3
-----------     -     ----------
 72
   65
 73
    4
 40
9.25
 49
6
 49
-1.5
 49
0.25
 49
-1.5
  0
LTYPE
  2
double-dashed_dotted
 70
   64
  3
------   -----------   -   -----
 72
   65
 73
    6
 40
16.75
 49
6
 49
-1.5
 49
6
 49
-1.5
 49
0.25
 49
-1.5
  0
LTYPE
  2
dashed_double-dotted
 70
   64
  3
---------    -    -    ---------
 72
   65
 73
    6
 40
11
 49
6
 49
-1.5
 49
0.25
 49
-1.5
 49
0.25
 49
-1.5
  0
LTYPE
  2
double-dashed_double-dotted
 70
   64
  3
-----   ---------   -   -   ----
 72
   65
 73
    8
 40
18.5
 49
6
 49
-1.5
 49
6
 49
-1.5
 49
0.25
 49
-1.5
 49
0.25
 49
-1.5
  0
LTYPE
  2
dashed_triplicate-dotted
 70
   64
  3
-------    -    -    -    ------
 72
   65
 73
    8
 40
12.75
 49
6
 49
-1.5
 49
0.25
 49
-1.5
 49
0.25
 49
-1.5
 49
0.25
 49
-1.5
  0
LTYPE
  2
double-dashed_triplicate-dotted
 70
   64
  3
-----  ---------  -  -  -  -----
 72
   65
 73
   10
 40
20.25
 49
6
 49
-1.5
 49
6
 49
-1.5
 49
0.25
 49
-1.5
 49
0.25
 49
-1.5
 49
0.25
 49
-1.5
  0
LTYPE
  2
undefined
 70
   64
  3
--------------------------------
 72
   65
 73
    0
 40
0
  0
LTYPE
  2
_
 70
   64
  3
                                
 72
   65
 73
    0
 40
0
  0
LTYPE
  2
__18
 70
   64
  3
                                
 72
   65
 73
    0
 40
0
  0
LTYPE
  2
__19
 70
   64
  3
                                
 72
   65
 73
    0
 40
0
  0
LTYPE
  2
__20
 70
   64
  3
                                
 72
   65
 73
    0
 40
0
  0
LTYPE
  2
__21
 70
   64
  3
                                
 72
   65
 73
    0
 40
0
  0
LTYPE
  2
__22
 70
   64
  3
                                
 72
   65
 73
    0
 40
0
  0
LTYPE
  2
__23
 70
   64
  3
                                
 72
   65
 73
    0
 40
0
  0
LTYPE
  2
__24
 70
   64
  3
                                
 72
   65
 73
    0
 40
0
  0
LTYPE
  2
__25
 70
   64
  3
                                
 72
   65
 73
    0
 40
0
  0
LTYPE
  2
__26
 70
   64
  3
                                
 72
   65
 73
    0
 40
0
  0
LTYPE
  2
__27
 70
   64
  3
                                
 72
   65
 73
    0
 40
0
  0
LTYPE
  2
__28
 70
   64
  3
                                
 72
   65
 73
    0
 40
0
  0
LTYPE
  2
__29
 70
   64
  3
                                
 72
   65
 73
    0
 40
0
  0
LTYPE
  2
__30
 70
   64
  3
                                
 72
   65
 73
    0
 40
0
  0
LTYPE
  2
__31
 70
   64
  3
                                
 72
   65
 73
    0
 40
0
  0
LTYPE
  2
__32
 70
   64
  3
                                
 72
   65
 73
    0
 40
0
  0
ENDTAB
  0
TABLE
  2
STYLE
  5
3
100
AcDbSymbolTable
 70
     1
  0
STYLE
  5
10
100
AcDbSymbolTableRecord
100
AcDbTextStyleTableRecord
  2
STANDARD
 70
     0
 40
0.0
 41
1.0
 50
0.0
 71
     0
 42
0.2
  3
txt
  4
bigfont.shx
  0
STYLE
  5
26
100
AcDbSymbolTableRecord
100
AcDbTextStyleTableRecord
  2
TATEGAKI
 70
    68
 40
0.0
 41
1.0
 50
0.0
 71
     0
 42
1.0
  3
txt
  4
bigfont.shx
  0
ENDTAB
  0
TABLE
  2
LAYER
 70
    5
  0
LAYER
  2
_0-0_pcb
 70
   64
 62
    7
  6
CONTINUOUS
  0
LAYER
  2
_0-1_top
 70
   64
 62
    7
  6
CONTINUOUS
  0
LAYER
  2
_0-2_bottom
 70
   64
 62
    7
  6
CONTINUOUS
  0
LAYER
  2
_0-3_bottom2
 70
   64
 62
    7
  6
CONTINUOUS
  0
LAYER
  2
ADD_LINE
 70
   64
 62
    7
  6
CONTINUOUS
  0
ENDTAB
  0
ENDSEC
  0
SECTION
  2
BLOCKS
  0
ENDSEC
  0
SECTION
  2
ENTITIES
  0
POINT
  8
_0-3_bottom2
 62
    7
 10
152.65714285714284
 20
377.62063492063493
  0
LINE
  8
_0-0_pcb
  6
CONTINUOUS
 62
    7
 10
162.15714285714284
 20
383.74285714285713
 11
162.15714285714284
 21
307.54285714285714
  0
LINE
  8
_0-0_pcb
  6
CONTINUOUS
 62
    7
 10
183.09714285714284
 20
366.58285714285716
 11
197.09714285714284
 21
366.58285714285716
  0
CIRCLE
  8
_0-0_pcb
  6
CONTINUOUS
 62
    7
 10
256.77214285714285
 20
367.86785714285713
 40
1.6000000000000001
  0
LINE
  8
_0-0_pcb
  6
CONTINUOUS
 62
    7
 10
162.15714285714284
 20
383.74285714285713
 11
219.30714285714285
 21
392.63285714285712
  0
POINT
  8
_0-0_pcb
 62
    7
 10
162.15714285714284
 20
383.74285714285713
  0
LINE
  8
_0-0_pcb
  6
CONTINUOUS
 62
    7
 10
219.30714285714285
 20
392.63285714285712
 11
237.08714285714285
 21
392.63285714285712
  0
LINE
  8
_0-0_pcb
  6
CONTINUOUS
 62
    7
 10
306.93714285714282
 20
307.54285714285714
 11
290.42714285714283
 21
279.60285714285715
  0
LINE
  8
_0-0_pcb
  6
CONTINUOUS
 62
    7
 10
290.42714285714283
 20
279.60285714285715
 11
272.64714285714285
 21
289.76285714285711
  0
LINE
  8
_0-0_pcb
  6
CONTINUOUS
 62
    7
 10
272.64714285714285
 20
289.76285714285711
 11
253.59714285714284
 21
289.76285714285711
  0
LINE
  8
_0-0_pcb
  6
CONTINUOUS
 62
    7
 10
162.15714285714284
 20
307.54285714285714
 11
253.59714285714284
 21
307.54285714285714
  0
LINE
  8
_0-0_pcb
  6
CONTINUOUS
 62
    7
 10
253.59714285714284
 20
307.54285714285714
 11
253.59714285714284
 21
289.76285714285711
  0
LINE
  8
_0-0_pcb
  6
CONTINUOUS
 62
    7
 10
164.04714285714283
 20
366.58285714285716
 11
178.04714285714283
 21
366.58285714285716
  0
LINE
  8
_0-0_pcb
  6
CONTINUOUS
 62
    7
 10
178.04714285714283
 20
366.58285714285716
 11
178.04714285714283
 21
380.58285714285716
  0
LINE
  8
_0-0_pcb
  6
CONTINUOUS
 62
    7
 10
178.04714285714283
 20
380.58285714285716
 11
164.04714285714283
 21
380.58285714285716
  0
LINE
  8
_0-0_pcb
  6
CONTINUOUS
 62
    7
 10
164.04714285714283
 20
380.58285714285716
 11
164.04714285714283
 21
366.58285714285716
  0
LINE
  8
_0-0_pcb
  6
CONTINUOUS
 62
    7
 10
164.04714285714283
 20
347.53285714285715
 11
178.04714285714283
 21
347.53285714285715
  0
LINE
  8
_0-0_pcb
  6
CONTINUOUS
 62
    7
 10
178.04714285714283
 20
347.53285714285715
 11
178.04714285714283
 21
361.53285714285715
  0
LINE
  8
_0-0_pcb
  6
CONTINUOUS
 62
    7
 10
178.04714285714283
 20
361.53285714285715
 11
164.04714285714283
 21
361.53285714285715
  0
LINE
  8
_0-0_pcb
  6
CONTINUOUS
 62
    7
 10
164.04714285714283
 20
361.53285714285715
 11
164.04714285714283
 21
347.53285714285715
  0
LINE
  8
_0-0_pcb
  6
CONTINUOUS
 62
    7
 10
164.04714285714283
 20
328.48285714285714
 11
178.04714285714283
 21
328.48285714285714
  0
LINE
  8
_0-0_pcb
  6
CONTINUOUS
 62
    7
 10
178.04714285714283
 20
328.48285714285714
 11
178.04714285714283
 21
342.48285714285714
  0
LINE
  8
_0-0_pcb
  6
CONTINUOUS
 62
    7
 10
178.04714285714283
 20
342.48285714285714
 11
164.04714285714283
 21
342.48285714285714
  0
LINE
  8
_0-0_pcb
  6
CONTINUOUS
 62
    7
 10
164.04714285714283
 20
342.48285714285714
 11
164.04714285714283
 21
328.48285714285714
  0
LINE
  8
_0-0_pcb
  6
CONTINUOUS
 62
    7
 10
164.04714285714283
 20
309.43285714285713
 11
178.04714285714283
 21
309.43285714285713
  0
LINE
  8
_0-0_pcb
  6
CONTINUOUS
 62
    7
 10
178.04714285714283
 20
309.43285714285713
 11
178.04714285714283
 21
323.43285714285713
  0
LINE
  8
_0-0_pcb
  6
CONTINUOUS
 62
    7
 10
178.04714285714283
 20
323.43285714285713
 11
164.04714285714283
 21
323.43285714285713
  0
LINE
  8
_0-0_pcb
  6
CONTINUOUS
 62
    7
 10
164.04714285714283
 20
323.43285714285713
 11
164.04714285714283
 21
309.43285714285713
  0
LINE
  8
_0-0_pcb
  6
CONTINUOUS
 62
    7
 10
197.09714285714284
 20
366.58285714285716
 11
197.09714285714284
 21
380.58285714285716
  0
LINE
  8
_0-0_pcb
  6
CONTINUOUS
 62
    7
 10
197.09714285714284
 20
380.58285714285716
 11
183.09714285714284
 21
380.58285714285716
  0
LINE
  8
_0-0_pcb
  6
CONTINUOUS
 62
    7
 10
183.09714285714284
 20
380.58285714285716
 11
183.09714285714284
 21
366.58285714285716
  0
LINE
  8
_0-0_pcb
  6
CONTINUOUS
 62
    7
 10
183.09714285714284
 20
347.53285714285715
 11
197.09714285714284
 21
347.53285714285715
  0
LINE
  8
_0-0_pcb
  6
CONTINUOUS
 62
    7
 10
197.09714285714284
 20
347.53285714285715
 11
197.09714285714284
 21
361.53285714285715
  0
LINE
  8
_0-0_pcb
  6
CONTINUOUS
 62
    7
 10
197.09714285714284
 20
361.53285714285715
 11
183.09714285714284
 21
361.53285714285715
  0
LINE
  8
_0-0_pcb
  6
CONTINUOUS
 62
    7
 10
183.09714285714284
 20
361.53285714285715
 11
183.09714285714284
 21
347.53285714285715
  0
LINE
  8
_0-0_pcb
  6
CONTINUOUS
 62
    7
 10
183.09714285714284
 20
328.48285714285714
 11
197.09714285714284
 21
328.48285714285714
  0
LINE
  8
_0-0_pcb
  6
CONTINUOUS
 62
    7
 10
197.09714285714284
 20
328.48285714285714
 11
197.09714285714284
 21
342.48285714285714
  0
LINE
  8
_0-0_pcb
  6
CONTINUOUS
 62
    7
 10
197.09714285714284
 20
342.48285714285714
 11
183.09714285714284
 21
342.48285714285714
  0
LINE
  8
_0-0_pcb
  6
CONTINUOUS
 62
    7
 10
183.09714285714284
 20
342.48285714285714
 11
183.09714285714284
 21
328.48285714285714
  0
LINE
  8
_0-0_pcb
  6
CONTINUOUS
 62
    7
 10
183.09714285714284
 20
309.43285714285713
 11
197.09714285714284
 21
309.43285714285713
  0
LINE
  8
_0-0_pcb
  6
CONTINUOUS
 62
    7
 10
197.09714285714284
 20
309.43285714285713
 11
197.09714285714284
 21
323.43285714285713
  0
LINE
  8
_0-0_pcb
  6
CONTINUOUS
 62
    7
 10
197.09714285714284
 20
323.43285714285713
 11
183.09714285714284
 21
323.43285714285713
  0
LINE
  8
_0-0_pcb
  6
CONTINUOUS
 62
    7
 10
183.09714285714284
 20
323.43285714285713
 11
183.09714285714284
 21
309.43285714285713
  0
LINE
  8
_0-0_pcb
  6
CONTINUOUS
 62
    7
 10
202.14714285714285
 20
372.93285714285713
 11
216.14714285714285
 21
372.93285714285713
  0
LINE
  8
_0-0_pcb
  6
CONTINUOUS
 62
    7
 10
216.14714285714285
 20
372.93285714285713
 11
216.14714285714285
 21
386.93285714285713
  0
LINE
  8
_0-0_pcb
  6
CONTINUOUS
 62
    7
 10
216.14714285714285
 20
386.93285714285713
 11
202.14714285714285
 21
386.93285714285713
  0
LINE
  8
_0-0_pcb
  6
CONTINUOUS
 62
    7
 10
202.14714285714285
 20
386.93285714285713
 11
202.14714285714285
 21
372.93285714285713
  0
LINE
  8
_0-0_pcb
  6
CONTINUOUS
 62
    7
 10
202.14714285714285
 20
353.88285714285712
 11
216.14714285714285
 21
353.88285714285712
  0
LINE
  8
_0-0_pcb
  6
CONTINUOUS
 62
    7
 10
216.14714285714285
 20
353.88285714285712
 11
216.14714285714285
 21
367.88285714285712
  0
LINE
  8
_0-0_pcb
  6
CONTINUOUS
 62
    7
 10
216.14714285714285
 20
367.88285714285712
 11
202.14714285714285
 21
367.88285714285712
  0
LINE
  8
_0-0_pcb
  6
CONTINUOUS
 62
    7
 10
202.14714285714285
 20
367.88285714285712
 11
202.14714285714285
 21
353.88285714285712
  0
LINE
  8
_0-0_pcb
  6
CONTINUOUS
 62
    7
 10
202.14714285714285
 20
315.78285714285715
 11
216.14714285714285
 21
315.78285714285715
  0
LINE
  8
_0-0_pcb
  6
CONTINUOUS
 62
    7
 10
216.14714285714285
 20
315.78285714285715
 11
216.14714285714285
 21
329.78285714285715
  0
LINE
  8
_0-0_pcb
  6
CONTINUOUS
 62
    7
 10
216.14714285714285
 20
329.78285714285715
 11
202.14714285714285
 21
329.78285714285715
  0
LINE
  8
_0-0_pcb
  6
CONTINUOUS
 62
    7
 10
202.14714285714285
 20
329.78285714285715
 11
202.14714285714285
 21
315.78285714285715
  0
LINE
  8
_0-0_pcb
  6
CONTINUOUS
 62
    7
 10
202.14714285714285
 20
334.83285714285716
 11
216.14714285714285
 21
334.83285714285716
  0
LINE
  8
_0-0_pcb
  6
CONTINUOUS
 62
    7
 10
216.14714285714285
 20
334.83285714285716
 11
216.14714285714285
 21
348.83285714285716
  0
LINE
  8
_0-0_pcb
  6
CONTINUOUS
 62
    7
 10
216.14714285714285
 20
348.83285714285716
 11
202.14714285714285
 21
348.83285714285716
  0
LINE
  8
_0-0_pcb
  6
CONTINUOUS
 62
    7
 10
202.14714285714285
 20
348.83285714285716
 11
202.14714285714285
 21
334.83285714285716
  0
LINE
  8
_0-0_pcb
  6
CONTINUOUS
 62
    7
 10
221.19714285714286
 20
375.47285714285715
 11
235.19714285714286
 21
375.47285714285715
  0
LINE
  8
_0-0_pcb
  6
CONTINUOUS
 62
    7
 10
235.19714285714286
 20
375.47285714285715
 11
235.19714285714286
 21
389.47285714285715
  0
LINE
  8
_0-0_pcb
  6
CONTINUOUS
 62
    7
 10
235.19714285714286
 20
389.47285714285715
 11
221.19714285714286
 21
389.47285714285715
  0
LINE
  8
_0-0_pcb
  6
CONTINUOUS
 62
    7
 10
221.19714285714286
 20
389.47285714285715
 11
221.19714285714286
 21
375.47285714285715
  0
LINE
  8
_0-0_pcb
  6
CONTINUOUS
 62
    7
 10
221.19714285714286
 20
356.42285714285714
 11
235.19714285714286
 21
356.42285714285714
  0
LINE
  8
_0-0_pcb
  6
CONTINUOUS
 62
    7
 10
235.19714285714286
 20
356.42285714285714
 11
235.19714285714286
 21
370.42285714285714
  0
LINE
  8
_0-0_pcb
  6
CONTINUOUS
 62
    7
 10
235.19714285714286
 20
370.42285714285714
 11
221.19714285714286
 21
370.42285714285714
  0
LINE
  8
_0-0_pcb
  6
CONTINUOUS
 62
    7
 10
221.19714285714286
 20
370.42285714285714
 11
221.19714285714286
 21
356.42285714285714
  0
LINE
  8
_0-0_pcb
  6
CONTINUOUS
 62
    7
 10
221.19714285714286
 20
337.37285714285713
 11
235.19714285714286
 21
337.37285714285713
  0
LINE
  8
_0-0_pcb
  6
CONTINUOUS
 62
    7
 10
235.19714285714286
 20
337.37285714285713
 11
235.19714285714286
 21
351.37285714285713
  0
LINE
  8
_0-0_pcb
  6
CONTINUOUS
 62
    7
 10
235.19714285714286
 20
351.37285714285713
 11
221.19714285714286
 21
351.37285714285713
  0
LINE
  8
_0-0_pcb
  6
CONTINUOUS
 62
    7
 10
221.19714285714286
 20
351.37285714285713
 11
221.19714285714286
 21
337.37285714285713
  0
LINE
  8
_0-0_pcb
  6
CONTINUOUS
 62
    7
 10
221.19714285714286
 20
318.32285714285717
 11
235.19714285714286
 21
318.32285714285717
  0
LINE
  8
_0-0_pcb
  6
CONTINUOUS
 62
    7
 10
235.19714285714286
 20
318.32285714285717
 11
235.19714285714286
 21
332.32285714285717
  0
LINE
  8
_0-0_pcb
  6
CONTINUOUS
 62
    7
 10
235.19714285714286
 20
332.32285714285717
 11
221.19714285714286
 21
332.32285714285717
  0
LINE
  8
_0-0_pcb
  6
CONTINUOUS
 62
    7
 10
221.19714285714286
 20
332.32285714285717
 11
221.19714285714286
 21
318.32285714285717
  0
LINE
  8
_0-0_pcb
  6
CONTINUOUS
 62
    7
 10
240.24714285714285
 20
371.66285714285715
 11
254.24714285714285
 21
371.66285714285715
  0
LINE
  8
_0-0_pcb
  6
CONTINUOUS
 62
    7
 10
254.24714285714285
 20
371.66285714285715
 11
254.24714285714285
 21
385.66285714285715
  0
LINE
  8
_0-0_pcb
  6
CONTINUOUS
 62
    7
 10
254.24714285714285
 20
385.66285714285715
 11
240.24714285714285
 21
385.66285714285715
  0
LINE
  8
_0-0_pcb
  6
CONTINUOUS
 62
    7
 10
240.24714285714285
 20
385.66285714285715
 11
240.24714285714285
 21
371.66285714285715
  0
LINE
  8
_0-0_pcb
  6
CONTINUOUS
 62
    7
 10
240.24714285714285
 20
352.61285714285714
 11
254.24714285714285
 21
352.61285714285714
  0
LINE
  8
_0-0_pcb
  6
CONTINUOUS
 62
    7
 10
254.24714285714285
 20
352.61285714285714
 11
254.24714285714285
 21
366.61285714285714
  0
LINE
  8
_0-0_pcb
  6
CONTINUOUS
 62
    7
 10
254.24714285714285
 20
366.61285714285714
 11
240.24714285714285
 21
366.61285714285714
  0
LINE
  8
_0-0_pcb
  6
CONTINUOUS
 62
    7
 10
240.24714285714285
 20
366.61285714285714
 11
240.24714285714285
 21
352.61285714285714
  0
LINE
  8
_0-0_pcb
  6
CONTINUOUS
 62
    7
 10
240.24714285714285
 20
333.56285714285718
 11
254.24714285714285
 21
333.56285714285718
  0
LINE
  8
_0-0_pcb
  6
CONTINUOUS
 62
    7
 10
254.24714285714285
 20
333.56285714285718
 11
254.24714285714285
 21
347.56285714285718
  0
LINE
  8
_0-0_pcb
  6
CONTINUOUS
 62
    7
 10
254.24714285714285
 20
347.56285714285718
 11
240.24714285714285
 21
347.56285714285718
  0
LINE
  8
_0-0_pcb
  6
CONTINUOUS
 62
    7
 10
240.24714285714285
 20
347.56285714285718
 11
240.24714285714285
 21
333.56285714285718
  0
LINE
  8
_0-0_pcb
  6
CONTINUOUS
 62
    7
 10
240.24714285714285
 20
314.51285714285717
 11
254.24714285714285
 21
314.51285714285717
  0
LINE
  8
_0-0_pcb
  6
CONTINUOUS
 62
    7
 10
254.24714285714285
 20
314.51285714285717
 11
254.24714285714285
 21
328.51285714285717
  0
LINE
  8
_0-0_pcb
  6
CONTINUOUS
 62
    7
 10
254.24714285714285
 20
328.51285714285717
 11
240.24714285714285
 21
328.51285714285717
  0
LINE
  8
_0-0_pcb
  6
CONTINUOUS
 62
    7
 10
240.24714285714285
 20
328.51285714285717
 11
240.24714285714285
 21
314.51285714285717
  0
LINE
  8
_0-0_pcb
  6
CONTINUOUS
 62
    7
 10
259.29714285714283
 20
369.12285714285713
 11
273.29714285714283
 21
369.12285714285713
  0
LINE
  8
_0-0_pcb
  6
CONTINUOUS
 62
    7
 10
273.29714285714283
 20
369.12285714285713
 11
273.29714285714283
 21
383.12285714285713
  0
LINE
  8
_0-0_pcb
  6
CONTINUOUS
 62
    7
 10
273.29714285714283
 20
383.12285714285713
 11
259.29714285714283
 21
383.12285714285713
  0
LINE
  8
_0-0_pcb
  6
CONTINUOUS
 62
    7
 10
259.29714285714283
 20
383.12285714285713
 11
259.29714285714283
 21
369.12285714285713
  0
LINE
  8
_0-0_pcb
  6
CONTINUOUS
 62
    7
 10
259.29714285714283
 20
350.07285714285717
 11
273.29714285714283
 21
350.07285714285717
  0
LINE
  8
_0-0_pcb
  6
CONTINUOUS
 62
    7
 10
273.29714285714283
 20
350.07285714285717
 11
273.29714285714283
 21
364.07285714285717
  0
LINE
  8
_0-0_pcb
  6
CONTINUOUS
 62
    7
 10
273.29714285714283
 20
364.07285714285717
 11
259.29714285714283
 21
364.07285714285717
  0
LINE
  8
_0-0_pcb
  6
CONTINUOUS
 62
    7
 10
259.29714285714283
 20
364.07285714285717
 11
259.29714285714283
 21
350.07285714285717
  0
LINE
  8
_0-0_pcb
  6
CONTINUOUS
 62
    7
 10
259.29714285714283
 20
331.02285714285716
 11
273.29714285714283
 21
331.02285714285716
  0
LINE
  8
_0-0_pcb
  6
CONTINUOUS
 62
    7
 10
273.29714285714283
 20
331.02285714285716
 11
273.29714285714283
 21
345.02285714285716
  0
LINE
  8
_0-0_pcb
  6
CONTINUOUS
 62
    7
 10
273.29714285714283
 20
345.02285714285716
 11
259.29714285714283
 21
345.02285714285716
  0
LINE
  8
_0-0_pcb
  6
CONTINUOUS
 62
    7
 10
259.29714285714283
 20
345.02285714285716
 11
259.29714285714283
 21
331.02285714285716
  0
LINE
  8
_0-0_pcb
  6
CONTINUOUS
 62
    7
 10
259.29714285714283
 20
311.97285714285715
 11
273.29714285714283
 21
311.97285714285715
  0
LINE
  8
_0-0_pcb
  6
CONTINUOUS
 62
    7
 10
273.29714285714283
 20
311.97285714285715
 11
273.29714285714283
 21
325.97285714285715
  0
LINE
  8
_0-0_pcb
  6
CONTINUOUS
 62
    7
 10
273.29714285714283
 20
325.97285714285715
 11
259.29714285714283
 21
325.97285714285715
  0
LINE
  8
_0-0_pcb
  6
CONTINUOUS
 62
    7
 10
259.29714285714283
 20
325.97285714285715
 11
259.29714285714283
 21
311.97285714285715
  0
LINE
  8
_0-0_pcb
  6
CONTINUOUS
 62
    7
 10
294.23714285714289
 20
383.74285714285713
 11
294.23714285714289
 21
387.55285714285714
  0
LINE
  8
_0-0_pcb
  6
CONTINUOUS
 62
    7
 10
237.08714285714285
 20
392.63285714285712
 11
294.23714285714289
 21
387.55285714285714
  0
LINE
  8
_0-0_pcb
  6
CONTINUOUS
 62
    7
 10
294.23714285714289
 20
383.74285714285713
 11
294.23714285714289
 21
315.16285714285715
  0
LINE
  8
_0-0_pcb
  6
CONTINUOUS
 62
    7
 10
294.23714285714289
 20
315.16285714285715
 11
306.93714285714282
 21
307.54285714285714
  0
POINT
  8
_0-0_pcb
 62
    7
 10
285.34714285714284
 20
383.74285714285713
  0
CIRCLE
  8
_0-0_pcb
  6
CONTINUOUS
 62
    7
 10
285.34714285714284
 20
383.74285714285713
 40
1.6000000000000001
  0
CIRCLE
  8
_0-0_pcb
  6
CONTINUOUS
 62
    7
 10
285.34714285714284
 20
310.08285714285716
 40
1.6000000000000001
  0
POINT
  8
_0-0_pcb
 62
    7
 10
285.34714285714284
 20
310.08285714285716
  0
CIRCLE
  8
_0-0_pcb
  6
CONTINUOUS
 62
    7
 10
275.18714285714282
 20
293.57285714285717
 40
1.6000000000000001
  0
POINT
  8
_0-0_pcb
 62
    7
 10
275.18714285714282
 20
293.57285714285717
  0
CIRCLE
  8
_0-0_pcb
  6
CONTINUOUS
 62
    7
 10
180.57214285714284
 20
364.05785714285719
 40
1.6000000000000001
  0
CIRCLE
  8
_0-0_pcb
  6
CONTINUOUS
 62
    7
 10
180.57214285714284
 20
325.95785714285716
 40
1.6000000000000001
  0
CIRCLE
  8
_0-0_pcb
  6
CONTINUOUS
 62
    7
 10
218.67214285714286
 20
333.57785714285717
 40
1.6000000000000001
  0
CIRCLE
  8
_0-0_pcb
  6
CONTINUOUS
 62
    7
 10
256.77214285714285
 20
329.76785714285717
 40
1.6000000000000001
  0
CIRCLE
  8
_0-0_pcb
  6
CONTINUOUS
 62
    7
 10
218.67214285714286
 20
371.67785714285714
 40
1.6000000000000001
  0
POINT
  8
_0-0_pcb
 62
    7
 10
180.57214285714284
 20
364.05785714285719
  0
POINT
  8
_0-0_pcb
 62
    7
 10
180.57214285714284
 20
325.95785714285716
  0
POINT
  8
_0-0_pcb
 62
    7
 10
218.67214285714286
 20
333.57785714285717
  0
POINT
  8
_0-0_pcb
 62
    7
 10
218.67214285714286
 20
371.67785714285714
  0
POINT
  8
_0-0_pcb
 62
    7
 10
256.77214285714285
 20
367.86785714285713
  0
POINT
  8
_0-0_pcb
 62
    7
 10
256.77214285714285
 20
329.76785714285717
  0
LINE
  8
_0-1_top
  6
CONTINUOUS
 62
    7
 10
178.04714285714283
 20
366.58285714285716
 11
164.04714285714283
 21
366.58285714285716
  0
LINE
  8
_0-1_top
  6
CONTINUOUS
 62
    7
 10
164.04714285714283
 20
366.58285714285716
 11
164.04714285714283
 21
380.58285714285716
  0
LINE
  8
_0-1_top
  6
CONTINUOUS
 62
    7
 10
164.04714285714283
 20
380.58285714285716
 11
178.04714285714283
 21
380.58285714285716
  0
LINE
  8
_0-1_top
  6
CONTINUOUS
 62
    7
 10
178.04714285714283
 20
380.58285714285716
 11
178.04714285714283
 21
366.58285714285716
  0
LINE
  8
_0-1_top
  6
CONTINUOUS
 62
    7
 10
178.04714285714283
 20
347.53285714285715
 11
164.04714285714283
 21
347.53285714285715
  0
LINE
  8
_0-1_top
  6
CONTINUOUS
 62
    7
 10
164.04714285714283
 20
347.53285714285715
 11
164.04714285714283
 21
361.53285714285715
  0
LINE
  8
_0-1_top
  6
CONTINUOUS
 62
    7
 10
164.04714285714283
 20
361.53285714285715
 11
178.04714285714283
 21
361.53285714285715
  0
LINE
  8
_0-1_top
  6
CONTINUOUS
 62
    7
 10
178.04714285714283
 20
361.53285714285715
 11
178.04714285714283
 21
347.53285714285715
  0
LINE
  8
_0-1_top
  6
CONTINUOUS
 62
    7
 10
178.04714285714283
 20
328.48285714285714
 11
164.04714285714283
 21
328.48285714285714
  0
LINE
  8
_0-1_top
  6
CONTINUOUS
 62
    7
 10
164.04714285714283
 20
328.48285714285714
 11
164.04714285714283
 21
342.48285714285714
  0
LINE
  8
_0-1_top
  6
CONTINUOUS
 62
    7
 10
164.04714285714283
 20
342.48285714285714
 11
178.04714285714283
 21
342.48285714285714
  0
LINE
  8
_0-1_top
  6
CONTINUOUS
 62
    7
 10
178.04714285714283
 20
342.48285714285714
 11
178.04714285714283
 21
328.48285714285714
  0
LINE
  8
_0-1_top
  6
CONTINUOUS
 62
    7
 10
178.04714285714283
 20
309.43285714285719
 11
164.04714285714283
 21
309.43285714285719
  0
LINE
  8
_0-1_top
  6
CONTINUOUS
 62
    7
 10
164.04714285714283
 20
309.43285714285719
 11
164.04714285714283
 21
323.43285714285719
  0
LINE
  8
_0-1_top
  6
CONTINUOUS
 62
    7
 10
164.04714285714283
 20
323.43285714285719
 11
178.04714285714283
 21
323.43285714285719
  0
LINE
  8
_0-1_top
  6
CONTINUOUS
 62
    7
 10
178.04714285714283
 20
323.43285714285719
 11
178.04714285714283
 21
309.43285714285719
  0
LINE
  8
_0-1_top
  6
CONTINUOUS
 62
    7
 10
197.09714285714284
 20
309.43285714285719
 11
183.09714285714284
 21
309.43285714285719
  0
LINE
  8
_0-1_top
  6
CONTINUOUS
 62
    7
 10
183.09714285714284
 20
309.43285714285719
 11
183.09714285714284
 21
323.43285714285719
  0
LINE
  8
_0-1_top
  6
CONTINUOUS
 62
    7
 10
183.09714285714284
 20
323.43285714285719
 11
197.09714285714284
 21
323.43285714285719
  0
LINE
  8
_0-1_top
  6
CONTINUOUS
 62
    7
 10
197.09714285714284
 20
323.43285714285719
 11
197.09714285714284
 21
309.43285714285719
  0
LINE
  8
_0-1_top
  6
CONTINUOUS
 62
    7
 10
197.09714285714284
 20
328.48285714285714
 11
183.09714285714284
 21
328.48285714285714
  0
LINE
  8
_0-1_top
  6
CONTINUOUS
 62
    7
 10
183.09714285714284
 20
328.48285714285714
 11
183.09714285714284
 21
342.48285714285714
  0
LINE
  8
_0-1_top
  6
CONTINUOUS
 62
    7
 10
183.09714285714284
 20
342.48285714285714
 11
197.09714285714284
 21
342.48285714285714
  0
LINE
  8
_0-1_top
  6
CONTINUOUS
 62
    7
 10
197.09714285714284
 20
342.48285714285714
 11
197.09714285714284
 21
328.48285714285714
  0
LINE
  8
_0-1_top
  6
CONTINUOUS
 62
    7
 10
197.09714285714284
 20
347.53285714285715
 11
183.09714285714284
 21
347.53285714285715
  0
LINE
  8
_0-1_top
  6
CONTINUOUS
 62
    7
 10
183.09714285714284
 20
347.53285714285715
 11
183.09714285714284
 21
361.53285714285715
  0
LINE
  8
_0-1_top
  6
CONTINUOUS
 62
    7
 10
183.09714285714284
 20
361.53285714285715
 11
197.09714285714284
 21
361.53285714285715
  0
LINE
  8
_0-1_top
  6
CONTINUOUS
 62
    7
 10
197.09714285714284
 20
361.53285714285715
 11
197.09714285714284
 21
347.53285714285715
  0
LINE
  8
_0-1_top
  6
CONTINUOUS
 62
    7
 10
197.09714285714284
 20
366.58285714285716
 11
183.09714285714284
 21
366.58285714285716
  0
LINE
  8
_0-1_top
  6
CONTINUOUS
 62
    7
 10
183.09714285714284
 20
366.58285714285716
 11
183.09714285714284
 21
380.58285714285716
  0
LINE
  8
_0-1_top
  6
CONTINUOUS
 62
    7
 10
183.09714285714284
 20
380.58285714285716
 11
197.09714285714284
 21
380.58285714285716
  0
LINE
  8
_0-1_top
  6
CONTINUOUS
 62
    7
 10
197.09714285714284
 20
380.58285714285716
 11
197.09714285714284
 21
366.58285714285716
  0
LINE
  8
_0-1_top
  6
CONTINUOUS
 62
    7
 10
216.14714285714285
 20
372.93285714285713
 11
202.14714285714285
 21
372.93285714285713
  0
LINE
  8
_0-1_top
  6
CONTINUOUS
 62
    7
 10
202.14714285714285
 20
372.93285714285713
 11
202.14714285714285
 21
386.93285714285713
  0
LINE
  8
_0-1_top
  6
CONTINUOUS
 62
    7
 10
202.14714285714285
 20
386.93285714285713
 11
216.14714285714285
 21
386.93285714285713
  0
LINE
  8
_0-1_top
  6
CONTINUOUS
 62
    7
 10
216.14714285714285
 20
386.93285714285713
 11
216.14714285714285
 21
372.93285714285713
  0
LINE
  8
_0-1_top
  6
CONTINUOUS
 62
    7
 10
216.14714285714285
 20
353.88285714285712
 11
202.14714285714285
 21
353.88285714285712
  0
LINE
  8
_0-1_top
  6
CONTINUOUS
 62
    7
 10
202.14714285714285
 20
353.88285714285712
 11
202.14714285714285
 21
367.88285714285712
  0
LINE
  8
_0-1_top
  6
CONTINUOUS
 62
    7
 10
202.14714285714285
 20
367.88285714285712
 11
216.14714285714285
 21
367.88285714285712
  0
LINE
  8
_0-1_top
  6
CONTINUOUS
 62
    7
 10
216.14714285714285
 20
367.88285714285712
 11
216.14714285714285
 21
353.88285714285712
  0
LINE
  8
_0-1_top
  6
CONTINUOUS
 62
    7
 10
216.14714285714285
 20
334.83285714285716
 11
202.14714285714285
 21
334.83285714285716
  0
LINE
  8
_0-1_top
  6
CONTINUOUS
 62
    7
 10
202.14714285714285
 20
334.83285714285716
 11
202.14714285714285
 21
348.83285714285716
  0
LINE
  8
_0-1_top
  6
CONTINUOUS
 62
    7
 10
202.14714285714285
 20
348.83285714285716
 11
216.14714285714285
 21
348.83285714285716
  0
LINE
  8
_0-1_top
  6
CONTINUOUS
 62
    7
 10
216.14714285714285
 20
348.83285714285716
 11
216.14714285714285
 21
334.83285714285716
  0
LINE
  8
_0-1_top
  6
CONTINUOUS
 62
    7
 10
216.14714285714285
 20
315.78285714285715
 11
202.14714285714285
 21
315.78285714285715
  0
LINE
  8
_0-1_top
  6
CONTINUOUS
 62
    7
 10
202.14714285714285
 20
315.78285714285715
 11
202.14714285714285
 21
329.78285714285715
  0
LINE
  8
_0-1_top
  6
CONTINUOUS
 62
    7
 10
202.14714285714285
 20
329.78285714285715
 11
216.14714285714285
 21
329.78285714285715
  0
LINE
  8
_0-1_top
  6
CONTINUOUS
 62
    7
 10
216.14714285714285
 20
329.78285714285715
 11
216.14714285714285
 21
315.78285714285715
  0
LINE
  8
_0-1_top
  6
CONTINUOUS
 62
    7
 10
235.19714285714286
 20
318.32285714285717
 11
221.19714285714286
 21
318.32285714285717
  0
LINE
  8
_0-1_top
  6
CONTINUOUS
 62
    7
 10
221.19714285714286
 20
318.32285714285717
 11
221.19714285714286
 21
332.32285714285717
  0
LINE
  8
_0-1_top
  6
CONTINUOUS
 62
    7
 10
221.19714285714286
 20
332.32285714285717
 11
235.19714285714286
 21
332.32285714285717
  0
LINE
  8
_0-1_top
  6
CONTINUOUS
 62
    7
 10
235.19714285714286
 20
332.32285714285717
 11
235.19714285714286
 21
318.32285714285717
  0
LINE
  8
_0-1_top
  6
CONTINUOUS
 62
    7
 10
235.19714285714286
 20
337.37285714285713
 11
221.19714285714286
 21
337.37285714285713
  0
LINE
  8
_0-1_top
  6
CONTINUOUS
 62
    7
 10
221.19714285714286
 20
337.37285714285713
 11
221.19714285714286
 21
351.37285714285713
  0
LINE
  8
_0-1_top
  6
CONTINUOUS
 62
    7
 10
221.19714285714286
 20
351.37285714285713
 11
235.19714285714286
 21
351.37285714285713
  0
LINE
  8
_0-1_top
  6
CONTINUOUS
 62
    7
 10
235.19714285714286
 20
351.37285714285713
 11
235.19714285714286
 21
337.37285714285713
  0
LINE
  8
_0-1_top
  6
CONTINUOUS
 62
    7
 10
235.19714285714286
 20
356.42285714285714
 11
221.19714285714286
 21
356.42285714285714
  0
LINE
  8
_0-1_top
  6
CONTINUOUS
 62
    7
 10
221.19714285714286
 20
356.42285714285714
 11
221.19714285714286
 21
370.42285714285714
  0
LINE
  8
_0-1_top
  6
CONTINUOUS
 62
    7
 10
221.19714285714286
 20
370.42285714285714
 11
235.19714285714286
 21
370.42285714285714
  0
LINE
  8
_0-1_top
  6
CONTINUOUS
 62
    7
 10
235.19714285714286
 20
370.42285714285714
 11
235.19714285714286
 21
356.42285714285714
  0
LINE
  8
_0-1_top
  6
CONTINUOUS
 62
    7
 10
235.19714285714286
 20
375.47285714285715
 11
221.19714285714286
 21
375.47285714285715
  0
LINE
  8
_0-1_top
  6
CONTINUOUS
 62
    7
 10
221.19714285714286
 20
375.47285714285715
 11
221.19714285714286
 21
389.47285714285715
  0
LINE
  8
_0-1_top
  6
CONTINUOUS
 62
    7
 10
221.19714285714286
 20
389.47285714285715
 11
235.19714285714286
 21
389.47285714285715
  0
LINE
  8
_0-1_top
  6
CONTINUOUS
 62
    7
 10
235.19714285714286
 20
389.47285714285715
 11
235.19714285714286
 21
375.47285714285715
  0
LINE
  8
_0-1_top
  6
CONTINUOUS
 62
    7
 10
254.24714285714285
 20
371.66285714285715
 11
240.24714285714285
 21
371.66285714285715
  0
LINE
  8
_0-1_top
  6
CONTINUOUS
 62
    7
 10
240.24714285714285
 20
371.66285714285715
 11
240.24714285714285
 21
385.66285714285715
  0
LINE
  8
_0-1_top
  6
CONTINUOUS
 62
    7
 10
240.24714285714285
 20
385.66285714285715
 11
254.24714285714285
 21
385.66285714285715
  0
LINE
  8
_0-1_top
  6
CONTINUOUS
 62
    7
 10
254.24714285714285
 20
385.66285714285715
 11
254.24714285714285
 21
371.66285714285715
  0
LINE
  8
_0-1_top
  6
CONTINUOUS
 62
    7
 10
254.24714285714285
 20
352.61285714285714
 11
240.24714285714285
 21
352.61285714285714
  0
LINE
  8
_0-1_top
  6
CONTINUOUS
 62
    7
 10
240.24714285714285
 20
352.61285714285714
 11
240.24714285714285
 21
366.61285714285714
  0
LINE
  8
_0-1_top
  6
CONTINUOUS
 62
    7
 10
240.24714285714285
 20
366.61285714285714
 11
254.24714285714285
 21
366.61285714285714
  0
LINE
  8
_0-1_top
  6
CONTINUOUS
 62
    7
 10
254.24714285714285
 20
366.61285714285714
 11
254.24714285714285
 21
352.61285714285714
  0
LINE
  8
_0-1_top
  6
CONTINUOUS
 62
    7
 10
254.24714285714285
 20
333.56285714285718
 11
240.24714285714285
 21
333.56285714285718
  0
LINE
  8
_0-1_top
  6
CONTINUOUS
 62
    7
 10
240.24714285714285
 20
333.56285714285718
 11
240.24714285714285
 21
347.56285714285718
  0
LINE
  8
_0-1_top
  6
CONTINUOUS
 62
    7
 10
240.24714285714285
 20
347.56285714285718
 11
254.24714285714285
 21
347.56285714285718
  0
LINE
  8
_0-1_top
  6
CONTINUOUS
 62
    7
 10
254.24714285714285
 20
347.56285714285718
 11
254.24714285714285
 21
333.56285714285718
  0
LINE
  8
_0-1_top
  6
CONTINUOUS
 62
    7
 10
254.24714285714285
 20
314.51285714285717
 11
240.24714285714285
 21
314.51285714285717
  0
LINE
  8
_0-1_top
  6
CONTINUOUS
 62
    7
 10
240.24714285714285
 20
314.51285714285717
 11
240.24714285714285
 21
328.51285714285717
  0
LINE
  8
_0-1_top
  6
CONTINUOUS
 62
    7
 10
240.24714285714285
 20
328.51285714285717
 11
254.24714285714285
 21
328.51285714285717
  0
LINE
  8
_0-1_top
  6
CONTINUOUS
 62
    7
 10
254.24714285714285
 20
328.51285714285717
 11
254.24714285714285
 21
314.51285714285717
  0
LINE
  8
_0-1_top
  6
CONTINUOUS
 62
    7
 10
273.29714285714283
 20
311.97285714285715
 11
259.29714285714283
 21
311.97285714285715
  0
LINE
  8
_0-1_top
  6
CONTINUOUS
 62
    7
 10
259.29714285714283
 20
311.97285714285715
 11
259.29714285714283
 21
325.97285714285715
  0
LINE
  8
_0-1_top
  6
CONTINUOUS
 62
    7
 10
259.29714285714283
 20
325.97285714285715
 11
273.29714285714283
 21
325.97285714285715
  0
LINE
  8
_0-1_top
  6
CONTINUOUS
 62
    7
 10
273.29714285714283
 20
325.97285714285715
 11
273.29714285714283
 21
311.97285714285715
  0
LINE
  8
_0-1_top
  6
CONTINUOUS
 62
    7
 10
273.29714285714283
 20
331.02285714285716
 11
259.29714285714283
 21
331.02285714285716
  0
LINE
  8
_0-1_top
  6
CONTINUOUS
 62
    7
 10
259.29714285714283
 20
331.02285714285716
 11
259.29714285714283
 21
345.02285714285716
  0
LINE
  8
_0-1_top
  6
CONTINUOUS
 62
    7
 10
259.29714285714283
 20
345.02285714285716
 11
273.29714285714283
 21
345.02285714285716
  0
LINE
  8
_0-1_top
  6
CONTINUOUS
 62
    7
 10
273.29714285714283
 20
345.02285714285716
 11
273.29714285714283
 21
331.02285714285716
  0
LINE
  8
_0-1_top
  6
CONTINUOUS
 62
    7
 10
273.29714285714283
 20
350.07285714285717
 11
259.29714285714283
 21
350.07285714285717
  0
LINE
  8
_0-1_top
  6
CONTINUOUS
 62
    7
 10
259.29714285714283
 20
350.07285714285717
 11
259.29714285714283
 21
364.07285714285717
  0
LINE
  8
_0-1_top
  6
CONTINUOUS
 62
    7
 10
259.29714285714283
 20
364.07285714285717
 11
273.29714285714283
 21
364.07285714285717
  0
LINE
  8
_0-1_top
  6
CONTINUOUS
 62
    7
 10
273.29714285714283
 20
364.07285714285717
 11
273.29714285714283
 21
350.07285714285717
  0
LINE
  8
_0-1_top
  6
CONTINUOUS
 62
    7
 10
273.29714285714283
 20
369.12285714285713
 11
259.29714285714283
 21
369.12285714285713
  0
LINE
  8
_0-1_top
  6
CONTINUOUS
 62
    7
 10
259.29714285714283
 20
369.12285714285713
 11
259.29714285714283
 21
383.12285714285713
  0
LINE
  8
_0-1_top
  6
CONTINUOUS
 62
    7
 10
259.29714285714283
 20
383.12285714285713
 11
273.29714285714283
 21
383.12285714285713
  0
LINE
  8
_0-1_top
  6
CONTINUOUS
 62
    7
 10
273.29714285714283
 20
383.12285714285713
 11
273.29714285714283
 21
369.12285714285713
  0
CIRCLE
  8
_0-1_top
  6
CONTINUOUS
 62
    7
 10
180.57214285714284
 20
364.05785714285719
 40
1.6000000000000001
  0
CIRCLE
  8
_0-1_top
  6
CONTINUOUS
 62
    7
 10
180.57214285714284
 20
325.95785714285716
 40
1.6000000000000001
  0
CIRCLE
  8
_0-1_top
  6
CONTINUOUS
 62
    7
 10
218.67214285714286
 20
333.57785714285717
 40
1.6000000000000001
  0
CIRCLE
  8
_0-1_top
  6
CONTINUOUS
 62
    7
 10
218.67214285714286
 20
371.67785714285714
 40
1.6000000000000001
  0
CIRCLE
  8
_0-1_top
  6
CONTINUOUS
 62
    7
 10
256.77214285714285
 20
367.86785714285713
 40
1.6000000000000001
  0
CIRCLE
  8
_0-1_top
  6
CONTINUOUS
 62
    7
 10
256.77214285714285
 20
329.76785714285717
 40
1.6000000000000001
  0
CIRCLE
  8
_0-1_top
  6
CONTINUOUS
 62
    7
 10
285.34714285714284
 20
310.08285714285716
 40
1.6000000000000001
  0
CIRCLE
  8
_0-1_top
  6
CONTINUOUS
 62
    7
 10
275.18714285714282
 20
293.57285714285717
 40
1.6000000000000001
  0
POINT
  8
_0-1_top
 62
    7
 10
275.18714285714282
 20
293.57285714285717
  0
POINT
  8
_0-1_top
 62
    7
 10
285.34714285714284
 20
310.08285714285716
  0
POINT
  8
_0-1_top
 62
    7
 10
256.77214285714285
 20
367.86785714285713
  0
POINT
  8
_0-1_top
 62
    7
 10
256.77214285714285
 20
329.76785714285717
  0
POINT
  8
_0-1_top
 62
    7
 10
218.67214285714286
 20
333.57785714285717
  0
POINT
  8
_0-1_top
 62
    7
 10
218.67214285714286
 20
371.67785714285714
  0
POINT
  8
_0-1_top
 62
    7
 10
180.57214285714284
 20
364.05785714285719
  0
POINT
  8
_0-1_top
 62
    7
 10
180.57214285714284
 20
325.95785714285716
  0
LINE
  8
_0-1_top
  6
CONTINUOUS
 62
    7
 10
253.59714285714284
 20
307.54285714285714
 11
253.59714285714284
 21
289.76285714285711
  0
LINE
  8
_0-1_top
  6
CONTINUOUS
 62
    7
 10
253.59714285714284
 20
289.76285714285711
 11
272.64714285714285
 21
289.76285714285711
  0
LINE
  8
_0-1_top
  6
CONTINUOUS
 62
    7
 10
237.08714285714285
 20
392.63285714285712
 11
219.30714285714285
 21
392.63285714285712
  0
LINE
  8
_0-1_top
  6
CONTINUOUS
 62
    7
 10
272.64714285714285
 20
289.76285714285711
 11
295.63715410224563
 21
276.62570785994126
  0
LINE
  8
_0-1_top
  6
CONTINUOUS
 62
    7
 10
312.08221628231627
 20
304.45581308775309
 11
295.63715410224563
 21
276.62570785994126
  0
LINE
  8
_0-1_top
  6
CONTINUOUS
 62
    7
 10
312.08221628231627
 20
304.45581308775309
 11
294.23714285714289
 21
315.16285714285715
  0
POINT
  8
_0-1_top
 62
    7
 10
305.75172987870894
 20
299.63972794588562
  0
POINT
  8
_0-1_top
 62
    7
 10
296.5936312714183
 20
284.1414072258554
  0
CIRCLE
  8
_0-1_top
  6
CONTINUOUS
 62
    7
 10
305.75172987870894
 20
299.63972794588562
 40
1.6000000000000001
  0
CIRCLE
  8
_0-1_top
  6
CONTINUOUS
 62
    7
 10
296.5936312714183
 20
284.1414072258554
 40
1.6000000000000001
  0
LINE
  8
_0-2_bottom
  6
CONTINUOUS
 62
    7
 10
253.59714285714284
 20
307.54285714285714
 11
253.59714285714284
 21
289.76285714285711
  0
LINE
  8
_0-2_bottom
  6
CONTINUOUS
 62
    7
 10
253.59714285714284
 20
289.76285714285711
 11
272.64714285714285
 21
289.76285714285711
  0
LINE
  8
_0-2_bottom
  6
CONTINUOUS
 62
    7
 10
272.64714285714285
 20
289.76285714285711
 11
295.63715410224563
 21
276.62570785994126
  0
LINE
  8
_0-2_bottom
  6
CONTINUOUS
 62
    7
 10
295.63715410224563
 20
276.62570785994126
 11
312.08221628231627
 21
304.45581308775309
  0
LINE
  8
_0-2_bottom
  6
CONTINUOUS
 62
    7
 10
312.08221628231627
 20
304.45581308775309
 11
294.23714285714289
 21
315.16285714285715
  0
LINE
  8
_0-2_bottom
  6
CONTINUOUS
 62
    7
 10
294.23714285714289
 20
315.16285714285715
 11
294.23714285714289
 21
387.55285714285714
  0
LINE
  8
_0-2_bottom
  6
CONTINUOUS
 62
    7
 10
294.23714285714289
 20
387.55285714285714
 11
237.08714285714285
 21
392.63285714285712
  0
LINE
  8
_0-2_bottom
  6
CONTINUOUS
 62
    7
 10
237.08714285714285
 20
392.63285714285712
 11
219.30714285714285
 21
392.63285714285712
  0
POINT
  8
_0-2_bottom
 62
    7
 10
180.57214285714284
 20
364.05785714285719
  0
POINT
  8
_0-2_bottom
 62
    7
 10
180.57214285714284
 20
325.95785714285716
  0
POINT
  8
_0-2_bottom
 62
    7
 10
218.67214285714286
 20
333.57785714285717
  0
POINT
  8
_0-2_bottom
 62
    7
 10
218.67214285714286
 20
371.67785714285714
  0
POINT
  8
_0-2_bottom
 62
    7
 10
256.77214285714285
 20
367.86785714285713
  0
POINT
  8
_0-2_bottom
 62
    7
 10
256.77214285714285
 20
329.76785714285717
  0
POINT
  8
_0-2_bottom
 62
    7
 10
285.34714285714284
 20
310.08285714285716
  0
POINT
  8
_0-2_bottom
 62
    7
 10
275.18714285714282
 20
293.57285714285717
  0
POINT
  8
_0-2_bottom
 62
    7
 10
305.75172987870894
 20
299.63972794588562
  0
POINT
  8
_0-2_bottom
 62
    7
 10
296.5936312714183
 20
284.1414072258554
  0
POINT
  8
_0-2_bottom
 62
    7
 10
285.34714285714284
 20
383.74285714285713
  0
CIRCLE
  8
_0-2_bottom
  6
CONTINUOUS
 62
    7
 10
285.34714285714284
 20
383.74285714285713
 40
1.6000000000000001
  0
CIRCLE
  8
_0-2_bottom
  6
CONTINUOUS
 62
    7
 10
285.34714285714284
 20
310.08285714285716
 40
1.6000000000000001
  0
CIRCLE
  8
_0-2_bottom
  6
CONTINUOUS
 62
    7
 10
275.18714285714282
 20
293.57285714285717
 40
1.6000000000000001
  0
CIRCLE
  8
_0-2_bottom
  6
CONTINUOUS
 62
    7
 10
305.75172987870894
 20
299.63972794588562
 40
1.6000000000000001
  0
CIRCLE
  8
_0-2_bottom
  6
CONTINUOUS
 62
    7
 10
296.5936312714183
 20
284.1414072258554
 40
1.6000000000000001
  0
LINE
  8
_0-1_top
  6
CONTINUOUS
 62
    7
 10
158.15714285714284
 20
383.12063492063493
 11
158.15714285714284
 21
307.54285714285714
  0
LINE
  8
_0-1_top
  6
CONTINUOUS
 62
    7
 10
219.30714285714285
 20
392.63285714285712
 11
158.15714285714284
 21
383.12063492063493
  0
LINE
  8
_0-1_top
  6
CONTINUOUS
 62
    7
 10
158.15714285714284
 20
307.54285714285714
 11
253.59714285714284
 21
307.54285714285714
  0
CIRCLE
  8
_0-1_top
  6
CONTINUOUS
 62
    7
 10
161.65714285714284
 20
311.43285714285719
 40
1.6000000000000001
  0
CIRCLE
  8
_0-1_top
  6
CONTINUOUS
 62
    7
 10
161.65714285714284
 20
378.58285714285716
 40
1.6000000000000001
  0
POINT
  8
_0-1_top
 62
    7
 10
161.65714285714284
 20
378.58285714285716
  0
POINT
  8
_0-1_top
 62
    7
 10
161.65714285714284
 20
311.43285714285719
  0
LINE
  8
_0-2_bottom
  6
CONTINUOUS
 62
    7
 10
158.15714285714284
 20
307.54285714285714
 11
253.59714285714284
 21
307.54285714285714
  0
LINE
  8
_0-2_bottom
  6
CONTINUOUS
 62
    7
 10
219.30714285714285
 20
392.63285714285712
 11
158.15714285714284
 21
383.12063492063493
  0
LINE
  8
_0-2_bottom
  6
CONTINUOUS
 62
    7
 10
158.15714285714284
 20
383.12063492063493
 11
158.15714285714284
 21
307.54285714285714
  0
CIRCLE
  8
_0-2_bottom
  6
CONTINUOUS
 62
    7
 10
161.65714285714284
 20
311.43285714285719
 40
1.6000000000000001
  0
CIRCLE
  8
_0-2_bottom
  6
CONTINUOUS
 62
    7
 10
161.65714285714284
 20
378.58285714285716
 40
1.6000000000000001
  0
CIRCLE
  8
_0-2_bottom
  6
CONTINUOUS
 62
    7
 10
180.57214285714284
 20
364.05785714285719
 40
1.6000000000000001
  0
CIRCLE
  8
_0-2_bottom
  6
CONTINUOUS
 62
    7
 10
218.67214285714286
 20
333.57785714285717
 40
1.6000000000000001
  0
CIRCLE
  8
_0-2_bottom
  6
CONTINUOUS
 62
    7
 10
180.57214285714284
 20
325.95785714285716
 40
1.6000000000000001
  0
CIRCLE
  8
_0-2_bottom
  6
CONTINUOUS
 62
    7
 10
218.67214285714286
 20
371.67785714285714
 40
1.6000000000000001
  0
CIRCLE
  8
_0-2_bottom
  6
CONTINUOUS
 62
    7
 10
256.77214285714285
 20
367.86785714285713
 40
1.6000000000000001
  0
CIRCLE
  8
_0-2_bottom
  6
CONTINUOUS
 62
    7
 10
256.77214285714285
 20
329.76785714285717
 40
1.6000000000000001
  0
POINT
  8
_0-2_bottom
 62
    7
 10
161.65714285714284
 20
378.58285714285716
  0
POINT
  8
_0-2_bottom
 62
    7
 10
161.65714285714284
 20
311.43285714285719
  0
LINE
  8
_0-3_bottom2
  6
CONTINUOUS
 62
    7
 10
158.15714285714284
 20
383.12063492063493
 11
219.30714285714285
 21
392.63285714285712
  0
LINE
  8
_0-3_bottom2
  6
CONTINUOUS
 62
    7
 10
219.30714285714285
 20
392.63285714285712
 11
237.08714285714285
 21
392.63285714285712
  0
LINE
  8
_0-3_bottom2
  6
CONTINUOUS
 62
    7
 10
237.08714285714285
 20
392.63285714285712
 11
294.23714285714289
 21
387.55285714285714
  0
LINE
  8
_0-3_bottom2
  6
CONTINUOUS
 62
    7
 10
312.08221628231627
 20
304.45581308775309
 11
295.63715410224563
 21
276.62570785994126
  0
LINE
  8
_0-3_bottom2
  6
CONTINUOUS
 62
    7
 10
253.59714285714284
 20
289.76285714285711
 11
253.59714285714284
 21
307.54285714285714
  0
LINE
  8
_0-3_bottom2
  6
CONTINUOUS
 62
    7
 10
253.59714285714284
 20
307.54285714285714
 11
158.15714285714284
 21
307.54285714285714
  0
LINE
  8
_0-3_bottom2
  6
CONTINUOUS
 62
    7
 10
261.88294407761828
 20
289.76285714285711
 11
253.59714285714284
 21
289.76285714285711
  0
CIRCLE
  8
_0-3_bottom2
  6
CONTINUOUS
 62
    7
 10
288.12401438143121
 20
274.61256813912684
 40
3.2000000000000002
  0
CIRCLE
  8
_0-3_bottom2
  6
CONTINUOUS
 62
    7
 10
299.73714285714289
 20
382.05285714285714
 40
3.2000000000000002
  0
CIRCLE
  8
_0-3_bottom2
  6
CONTINUOUS
 62
    7
 10
152.65714285714284
 20
377.62063492063493
 40
3.2000000000000002
  0
CIRCLE
  8
_0-3_bottom2
  6
CONTINUOUS
 62
    7
 10
152.65714285714284
 20
313.04285714285714
 40
3.2000000000000002
  0
POINT
  8
_0-3_bottom2
 62
    7
 10
152.65714285714284
 20
313.04285714285714
  0
POINT
  8
_0-3_bottom2
 62
    7
 10
299.73714285714289
 20
382.05285714285714
  0
POINT
  8
_0-3_bottom2
 62
    7
 10
288.12401438143121
 20
274.61256813912684
  0
LINE
  8
_0-3_bottom2
  6
CONTINUOUS
 62
    7
 10
152.65714285714284
 20
372.12063492063493
 11
152.65714285714284
 21
318.54285714285714
  0
LINE
  8
_0-3_bottom2
  6
CONTINUOUS
 62
    7
 10
299.73714285714289
 20
376.55285714285714
 11
299.73714285714289
 21
311.86285714285714
  0
LINE
  8
_0-3_bottom2
  6
CONTINUOUS
 62
    7
 10
299.73714285714289
 20
311.86285714285714
 11
312.08221628231627
 21
304.45581308775309
  0
LINE
  8
_0-3_bottom2
  6
CONTINUOUS
 62
    7
 10
283.36087466061679
 20
277.36256813912684
 11
261.88294407761828
 21
289.76285714285711
  0
LINE
  8
_0-3_bottom2
  6
CONTINUOUS
 62
    7
 10
150.15714285714284
 20
383.12063492063493
 11
158.15714285714284
 21
383.12063492063493
  0
ARC
  8
_0-3_bottom2
  6
CONTINUOUS
 62
    7
 10
150.15714285714284
 20
380.12063492063493
 40
3
 50
90
 51
180
  0
LINE
  8
_0-3_bottom2
  6
CONTINUOUS
 62
    7
 10
150.15714285714284
 20
372.12063492063493
 11
152.65714285714284
 21
372.12063492063493
  0
LINE
  8
_0-3_bottom2
  6
CONTINUOUS
 62
    7
 10
147.15714285714284
 20
375.12063492063493
 11
147.15714285714284
 21
380.12063492063493
  0
ARC
  8
_0-3_bottom2
  6
CONTINUOUS
 62
    7
 10
150.15714285714284
 20
375.12063492063493
 40
3
 50
180
 51
270
  0
LINE
  8
_0-3_bottom2
  6
CONTINUOUS
 62
    7
 10
150.15714285714284
 20
307.54285714285714
 11
158.15714285714284
 21
307.54285714285714
  0
ARC
  8
_0-3_bottom2
  6
CONTINUOUS
 62
    7
 10
150.15714285714284
 20
310.54285714285714
 40
3
 50
180
 51
270
  0
LINE
  8
_0-3_bottom2
  6
CONTINUOUS
 62
    7
 10
147.15714285714284
 20
315.54285714285714
 11
147.15714285714284
 21
310.54285714285714
  0
LINE
  8
_0-3_bottom2
  6
CONTINUOUS
 62
    7
 10
150.15714285714284
 20
318.54285714285714
 11
152.65714285714284
 21
318.54285714285714
  0
ARC
  8
_0-3_bottom2
  6
CONTINUOUS
 62
    7
 10
150.15714285714284
 20
315.54285714285714
 40
3
 50
90
 51
180
  0
LINE
  8
_0-3_bottom2
  6
CONTINUOUS
 62
    7
 10
291.63715410224563
 20
269.69750462966573
 11
295.63715410224563
 21
276.62570785994126
  0
ARC
  8
_0-3_bottom2
  6
CONTINUOUS
 62
    7
 10
289.03907789089226
 20
271.19750462966573
 40
3
 50
240
 51
329.99999999999994
  0
LINE
  8
_0-3_bottom2
  6
CONTINUOUS
 62
    7
 10
283.2089508719701
 20
271.09942841831241
 11
287.53907789089226
 21
268.59942841831241
  0
LINE
  8
_0-3_bottom2
  6
CONTINUOUS
 62
    7
 10
282.11087466061679
 20
275.19750462966573
 11
283.36087466061679
 21
277.36256813912684
  0
ARC
  8
_0-3_bottom2
  6
CONTINUOUS
 62
    7
 10
284.7089508719701
 20
273.69750462966573
 40
3
 50
150.00000000000003
 51
239.99999999999997
  0
LINE
  8
_0-3_bottom2
  6
CONTINUOUS
 62
    7
 10
302.23714285714289
 20
376.55285714285714
 11
299.73714285714289
 21
376.55285714285714
  0
ARC
  8
_0-3_bottom2
  6
CONTINUOUS
 62
    7
 10
302.23714285714289
 20
379.55285714285714
 40
3
 50
270
 51
0
  0
LINE
  8
_0-3_bottom2
  6
CONTINUOUS
 62
    7
 10
302.23714285714289
 20
387.55285714285714
 11
294.23714285714289
 21
387.55285714285714
  0
LINE
  8
_0-3_bottom2
  6
CONTINUOUS
 62
    7
 10
305.23714285714289
 20
384.55285714285714
 11
305.23714285714289
 21
379.55285714285714
  0
ARC
  8
_0-3_bottom2
  6
CONTINUOUS
 62
    7
 10
302.23714285714289
 20
384.55285714285714
 40
3
 50
0
 51
90
  0
CIRCLE
  8
_0-3_bottom2
  6
CONTINUOUS
 62
    7
 10
161.65714285714284
 20
378.58285714285716
 40
1.6000000000000001
  0
CIRCLE
  8
_0-3_bottom2
  6
CONTINUOUS
 62
    7
 10
161.65714285714284
 20
311.43285714285719
 40
1.6000000000000001
  0
CIRCLE
  8
_0-3_bottom2
  6
CONTINUOUS
 62
    7
 10
180.57214285714284
 20
325.95785714285716
 40
1.6000000000000001
  0
CIRCLE
  8
_0-3_bottom2
  6
CONTINUOUS
 62
    7
 10
180.57214285714284
 20
364.05785714285719
 40
1.6000000000000001
  0
CIRCLE
  8
_0-3_bottom2
  6
CONTINUOUS
 62
    7
 10
218.67214285714286
 20
371.67785714285714
 40
1.6000000000000001
  0
CIRCLE
  8
_0-3_bottom2
  6
CONTINUOUS
 62
    7
 10
218.67214285714286
 20
333.57785714285717
 40
1.6000000000000001
  0
CIRCLE
  8
_0-3_bottom2
  6
CONTINUOUS
 62
    7
 10
256.77214285714285
 20
329.76785714285717
 40
1.6000000000000001
  0
CIRCLE
  8
_0-3_bottom2
  6
CONTINUOUS
 62
    7
 10
256.77214285714285
 20
367.86785714285713
 40
1.6000000000000001
  0
CIRCLE
  8
_0-3_bottom2
  6
CONTINUOUS
 62
    7
 10
285.34714285714284
 20
383.74285714285713
 40
1.6000000000000001
  0
CIRCLE
  8
_0-3_bottom2
  6
CONTINUOUS
 62
    7
 10
285.34714285714284
 20
310.08285714285716
 40
1.6000000000000001
  0
CIRCLE
  8
_0-3_bottom2
  6
CONTINUOUS
 62
    7
 10
275.18714285714282
 20
293.57285714285717
 40
1.6000000000000001
  0
CIRCLE
  8
_0-3_bottom2
  6
CONTINUOUS
 62
    7
 10
305.75172987870894
 20
299.63972794588562
 40
1.6000000000000001
  0
CIRCLE
  8
_0-3_bottom2
  6
CONTINUOUS
 62
    7
 10
296.5936312714183
 20
284.1414072258554
 40
1.6000000000000001
  0
POINT
  8
_0-3_bottom2
 62
    7
 10
161.65714285714284
 20
378.58285714285716
  0
POINT
  8
_0-3_bottom2
 62
    7
 10
161.65714285714284
 20
311.43285714285719
  0
POINT
  8
_0-3_bottom2
 62
    7
 10
180.57214285714284
 20
325.95785714285716
  0
POINT
  8
_0-3_bottom2
 62
    7
 10
180.57214285714284
 20
364.05785714285719
  0
POINT
  8
_0-3_bottom2
 62
    7
 10
218.67214285714286
 20
371.67785714285714
  0
POINT
  8
_0-3_bottom2
 62
    7
 10
218.67214285714286
 20
333.57785714285717
  0
POINT
  8
_0-3_bottom2
 62
    7
 10
256.77214285714285
 20
329.76785714285717
  0
POINT
  8
_0-3_bottom2
 62
    7
 10
256.77214285714285
 20
367.86785714285713
  0
POINT
  8
_0-3_bottom2
 62
    7
 10
285.34714285714284
 20
383.74285714285713
  0
POINT
  8
_0-3_bottom2
 62
    7
 10
285.34714285714284
 20
310.08285714285716
  0
POINT
  8
_0-3_bottom2
 62
    7
 10
275.18714285714282
 20
293.57285714285717
  0
POINT
  8
_0-3_bottom2
 62
    7
 10
296.5936312714183
 20
284.1414072258554
  0
POINT
  8
_0-3_bottom2
 62
    7
 10
305.75172987870894
 20
299.63972794588562
  0
LINE
  8
_0-1_top
  6
CONTINUOUS
 62
    7
 10
275.79714285714283
 20
389.19196825396824
 11
237.08714285714285
 21
392.63285714285712
  0
LINE
  8
_0-1_top
  6
CONTINUOUS
 62
    7
 10
275.79714285714283
 20
315.16285714285715
 11
275.79714285714283
 21
389.19196825396824
  0
LINE
  8
_0-1_top
  6
CONTINUOUS
 62
    7
 10
294.23714285714289
 20
315.16285714285715
 11
275.79714285714283
 21
315.16285714285715
  0
ENDSEC
  0
EOF
