  0
SECTION
  2
HEADER
  9
$ACADVER
  1
AC1009
  9
$INSBASE
 10
0
 20
0
 30
0
  9
$EXTMIN
 10
0
 20
0
  9
$EXTMAX
 10
841
 20
594
  9
$LIMMIN
 10
0
 20
0
  9
$LIMMAX
 10
841
 20
594
  9
$LTSCALE
 40
1
  0
ENDSEC
  0
SECTION
  2
TABLES
  0
TABLE
  2
LTYPE
 70
     9
  0
LTYPE
  2
CONTINUOUS
 70
    64
  3
実線
 72
    65
 73
     0
 40
0.0
  0
LTYPE
  2
DASHED1
 70
    64
  3
--  --  --  --  --  --  --  --  
 72
    65
 73
     2
 40
2.5
 49
1.25
 49
-1.25
  0
LTYPE
  2
DASHED2
 70
    64
  3
----    ----    ----    ----    
 72
    65
 73
     2
 40
5.0
 49
2.5
 49
-2.5
  0
LTYPE
  2
DASHED3
 70
    64
  3
------  ------  ------  ------  
 72
    65
 73
     2
 40
5.0
 49
3.75
 49
-1.25
  0
LTYPE
  2
CENTER1
 70
    64
  3
----- - ----- - ----- - ----- - 
 72
    65
 73
     4
 40
10.0
 49
6.25
 49
-1.25
 49
1.25
 49
-1.25
  0
LTYPE
  2
CENTER2
 70
    64
  3
----------  --  ----------  --  
 72
    65
 73
     4
 40
20.0
 49
12.5
 49
-2.5
 49
2.5
 49
-2.5
  0
LTYPE
  2
PHANTOM1
 70
    64
  3
--- - - --- - - --- - - --- - - 
 72
    65
 73
     6
 40
10.0
 49
3.25
 49
-1.25
 49
1.25
 49
-1.25
 49
1.25
 49
-1.25
  0
LTYPE
  2
PHANTOM2
 70
    64
  3
--------  -  -  --------  -  -  
 72
    65
 73
     6
 40
20.0
 49
10.0
 49
-2.5
 49
1.25
 49
-2.5
 49
1.25
 49
-2.5
  0
LTYPE
  2
DOT
 70
    64
  3
-   -   -   -   -   -   -   -   
 72
    65
 73
     2
 40
2.5
 49
0.625
 49
-1.875
  0
LTYPE
  2
DUMMY
 70
    64
  3
ダミー
 72
    65
 73
     0
 40
0.0
  0
LTYPE
  2
RAND1
 70
    64
  3
ランダム線1
 72
    65
 73
     4
 40
10.0
 49
1.0
 49
-2.0
 49
3.0
 49
-4.0
  0
LTYPE
  2
RAND2
 70
    64
  3
ランダム線2
 72
    65
 73
     4
 40
14.0
 49
2.0
 49
-3.0
 49
4.0
 49
-5.0
  0
LTYPE
  2
RAND3
 70
    64
  3
ランダム線3
 72
    65
 73
     4
 40
18.0
 49
3.0
 49
-4.0
 49
5.0
 49
-6.0
  0
LTYPE
  2
RAND4
 70
    64
  3
ランダム線4
 72
    65
 73
     4
 40
22.0
 49
4.0
 49
-5.0
 49
6.0
 49
-7.0
  0
LTYPE
  2
RAND5
 70
    64
  3
ランダム線5
 72
    65
 73
     4
 40
26.0
 49
5.0
 49
-6.0
 49
7.0
 49
-8.0
  0
LTYPE
  2
LONG1
 70
    64
  3
----------  --  ----------  --  
 72
    65
 73
     4
 40
40.0
 49
32.5
 49
-2.5
 49
2.5
 49
-2.5
  0
LTYPE
  2
LONG2
 70
    64
  3
--------  -  -  --------  -  -  
 72
    65
 73
     6
 40
40.0
 49
30.0
 49
-2.5
 49
1.25
 49
-2.5
 49
1.25
 49
-2.5
  0
LTYPE
  2
LONG3
 70
    64
  3
+++++++++++++++..+++++++++++++++
 72
    65
 73
     2
 40
40.0
 49
37.5
 49
-2.5
  0
LTYPE
  2
LONG4
 70
    64
  3
+++++++++++++++..+++++++++++++++
 72
    65
 73
     2
 40
80.0
 49
75.0
 49
-5.0
  0
LTYPE
  2
LONG5
 70
    64
  3
----------  --  ----------  --  
 72
    65
 73
     4
 40
60.0
 49
37.5
 49
-7.5
 49
7.5
 49
-7.5
  0
LTYPE
  2
dashed
 70
   64
  3
-------   -------------   ------
 72
   65
 73
    2
 40
7.5
 49
6
 49
-1.5
  0
LTYPE
  2
dashed_spaced
 70
   64
  3
----        --------        ----
 72
   65
 73
    2
 40
12
 49
6
 49
-6
  0
LTYPE
  2
long_dashed_dotted
 70
   64
  3
------------- --- --------------
 72
   65
 73
    4
 40
15.25
 49
12
 49
-1.5
 49
0.25
 49
-1.5
  0
LTYPE
  2
long_dashed_double-dotted
 70
   64
  3
----------- --- --- ------------
 72
   65
 73
    6
 40
17
 49
12
 49
-1.5
 49
0.25
 49
-1.5
 49
0.25
 49
-1.5
  0
LTYPE
  2
long_dashed_triplicate-dotted
 70
   64
  3
--------- --- --- --- ----------
 72
   65
 73
    8
 40
18.75
 49
12
 49
-1.5
 49
0.25
 49
-1.5
 49
0.25
 49
-1.5
 49
0.25
 49
-1.5
  0
LTYPE
  2
dotted
 70
   64
  3
   -       -       -       -    
 72
   65
 73
    2
 40
1.75
 49
0.25
 49
-1.5
  0
LTYPE
  2
chain
 70
   64
  3
-------------- -- --------------
 72
   65
 73
    4
 40
18.5
 49
12
 49
-1.5
 49
3.5
 49
-1.5
  0
LTYPE
  2
chain_double_dash
 70
   64
  3
------------ -- -- -------------
 72
   65
 73
    6
 40
23.5
 49
12
 49
-1.5
 49
3.5
 49
-1.5
 49
3.5
 49
-1.5
  0
LTYPE
  2
dashed_dotted
 70
   64
  3
-----------     -     ----------
 72
   65
 73
    4
 40
9.25
 49
6
 49
-1.5
 49
0.25
 49
-1.5
  0
LTYPE
  2
double-dashed_dotted
 70
   64
  3
------   -----------   -   -----
 72
   65
 73
    6
 40
16.75
 49
6
 49
-1.5
 49
6
 49
-1.5
 49
0.25
 49
-1.5
  0
LTYPE
  2
dashed_double-dotted
 70
   64
  3
---------    -    -    ---------
 72
   65
 73
    6
 40
11
 49
6
 49
-1.5
 49
0.25
 49
-1.5
 49
0.25
 49
-1.5
  0
LTYPE
  2
double-dashed_double-dotted
 70
   64
  3
-----   ---------   -   -   ----
 72
   65
 73
    8
 40
18.5
 49
6
 49
-1.5
 49
6
 49
-1.5
 49
0.25
 49
-1.5
 49
0.25
 49
-1.5
  0
LTYPE
  2
dashed_triplicate-dotted
 70
   64
  3
-------    -    -    -    ------
 72
   65
 73
    8
 40
12.75
 49
6
 49
-1.5
 49
0.25
 49
-1.5
 49
0.25
 49
-1.5
 49
0.25
 49
-1.5
  0
LTYPE
  2
double-dashed_triplicate-dotted
 70
   64
  3
-----  ---------  -  -  -  -----
 72
   65
 73
   10
 40
20.25
 49
6
 49
-1.5
 49
6
 49
-1.5
 49
0.25
 49
-1.5
 49
0.25
 49
-1.5
 49
0.25
 49
-1.5
  0
LTYPE
  2
undefined
 70
   64
  3
--------------------------------
 72
   65
 73
    0
 40
0
  0
LTYPE
  2
DOTX2
 70
   64
  3
-               -               
 72
   65
 73
    2
 40
12.709999999999999
 49
0.01
 49
-12.699999999999999
  0
LTYPE
  2
DASHDOTX2
 70
   64
  3
--------        -        -------
 72
   65
 73
    4
 40
50.809999999999988
 49
25.399999999999999
 49
-12.699999999999999
 49
0.01
 49
-12.699999999999999
  0
LTYPE
  2
ACAD_ISO06W100
 70
   64
  3
---------   -   -   -   --------
 72
   65
 73
    8
 40
36.030000000000001
 49
24
 49
-3
 49
0.01
 49
-3
 49
0.01
 49
-3
 49
0.01
 49
-3
  0
LTYPE
  2
DIVIDE
 70
   64
  3
------      -      -      ------
 72
   65
 73
    6
 40
31.769999999999996
 49
12.699999999999999
 49
-6.3499999999999996
 49
0.01
 49
-6.3499999999999996
 49
0.01
 49
-6.3499999999999996
  0
LTYPE
  2
BORDER
 70
   64
  3
----     --------     -     ----
 72
   65
 73
    6
 40
44.459999999999994
 49
12.699999999999999
 49
-6.3499999999999996
 49
12.699999999999999
 49
-6.3499999999999996
 49
0.01
 49
-6.3499999999999996
  0
LTYPE
  2
ACAD_ISO14W100
 70
   64
  3
-------    -    -    -    ------
 72
   65
 73
    8
 40
24.030000000000001
 49
12
 49
-3
 49
0.01
 49
-3
 49
0.01
 49
-3
 49
0.01
 49
-3
  0
LTYPE
  2
BORDER2
 70
   64
  3
----     --------     -     ----
 72
   65
 73
    6
 40
22.234999999999999
 49
6.3499999999999996
 49
-3.1749999999999998
 49
6.3499999999999996
 49
-3.1749999999999998
 49
0.01
 49
-3.1749999999999998
  0
LTYPE
  2
PHANTOM
 70
   64
  3
---------   ---   ---   --------
 72
   65
 73
    6
 40
63.500000000000007
 49
31.75
 49
-6.3499999999999996
 49
6.3499999999999996
 49
-6.3499999999999996
 49
6.3499999999999996
 49
-6.3499999999999996
  0
LTYPE
  2
DIVIDEX2
 70
   64
  3
------      -      -      ------
 72
   65
 73
    6
 40
63.519999999999982
 49
25.399999999999999
 49
-12.699999999999999
 49
0.01
 49
-12.699999999999999
 49
0.01
 49
-12.699999999999999
  0
LTYPE
  2
ACAD_ISO10W100
 70
   64
  3
-----------     -     ----------
 72
   65
 73
    4
 40
18.009999999999998
 49
12
 49
-3
 49
0.01
 49
-3
  0
LTYPE
  2
ACAD_ISO07W100
 70
   64
  3
-               -               
 72
   65
 73
    2
 40
3.0099999999999998
 49
0.01
 49
-3
  0
LTYPE
  2
HIDDENX2
 70
   64
  3
------     -----------     -----
 72
   65
 73
    2
 40
19.049999999999997
 49
12.699999999999999
 49
-6.3499999999999996
  0
LTYPE
  2
HIDDEN
 70
   64
  3
------     -----------     -----
 72
   65
 73
    2
 40
9.5249999999999986
 49
6.3499999999999996
 49
-3.1749999999999998
  0
LTYPE
  2
ACAD_ISO02W100
 70
   64
  3
-------   -------------   ------
 72
   65
 73
    2
 40
15
 49
12
 49
-3
  0
LTYPE
  2
ACAD_ISO13W100
 70
   64
  3
-----   ---------   -   -   ----
 72
   65
 73
    8
 40
36.020000000000003
 49
12
 49
-3
 49
12
 49
-3
 49
0.01
 49
-3
 49
0.01
 49
-3
  0
LTYPE
  2
DASHDOT2
 70
   64
  3
--------        -        -------
 72
   65
 73
    4
 40
12.709999999999997
 49
6.3499999999999996
 49
-3.1749999999999998
 49
0.01
 49
-3.1749999999999998
  0
ENDTAB
  0
TABLE
  2
STYLE
  5
3
100
AcDbSymbolTable
 70
     1
  0
STYLE
  5
10
100
AcDbSymbolTableRecord
100
AcDbTextStyleTableRecord
  2
STANDARD
 70
     0
 40
0.0
 41
1.0
 50
0.0
 71
     0
 42
0.2
  3
txt
  4
bigfont.shx
  0
STYLE
  5
26
100
AcDbSymbolTableRecord
100
AcDbTextStyleTableRecord
  2
TATEGAKI
 70
    68
 40
0.0
 41
1.0
 50
0.0
 71
     0
 42
1.0
  3
txt
  4
bigfont.shx
  0
ENDTAB
  0
TABLE
  2
LAYER
 70
    3
  0
LAYER
  2
_0-0_top
 70
   64
 62
    7
  6
CONTINUOUS
  0
LAYER
  2
_0-1_
 70
   64
 62
    7
  6
CONTINUOUS
  0
LAYER
  2
ADD_LINE
 70
   64
 62
    7
  6
CONTINUOUS
  0
ENDTAB
  0
ENDSEC
  0
SECTION
  2
BLOCKS
  0
ENDSEC
  0
SECTION
  2
ENTITIES
  0
POINT
  8
_0-1_
 62
    7
 10
188.30455830562641
 20
516.66680952380898
  0
CIRCLE
  8
_0-1_
  6
CONTINUOUS
 62
    7
 10
188.30455830562641
 20
516.66680952380898
 40
1.6000000000000001
  0
LINE
  8
_0-1_
  6
CONTINUOUS
 62
    7
 10
57.304558305626415
 20
511.66680952380892
 11
128.30455830562641
 21
520.66680952380898
  0
LINE
  8
_0-0_top
  6
CONTINUOUS
 62
    7
 10
180.30455830562641
 20
478.66680952380892
 11
166.30455830562641
 21
478.66680952380892
  0
LINE
  8
_0-0_top
  6
CONTINUOUS
 62
    7
 10
85.304558305626415
 20
493.66680952380892
 11
71.304558305626415
 21
493.66680952380892
  0
LINE
  8
_0-0_top
  6
CONTINUOUS
 62
    7
 10
71.304558305626415
 20
493.66680952380892
 11
71.304558305626415
 21
507.66680952380892
  0
LINE
  8
_0-0_top
  6
CONTINUOUS
 62
    7
 10
71.304558305626415
 20
507.66680952380892
 11
85.304558305626415
 21
507.66680952380892
  0
LINE
  8
_0-0_top
  6
CONTINUOUS
 62
    7
 10
85.304558305626415
 20
507.66680952380892
 11
85.304558305626415
 21
493.66680952380892
  0
LINE
  8
_0-0_top
  6
CONTINUOUS
 62
    7
 10
85.304558305626415
 20
474.66680952380892
 11
71.304558305626415
 21
474.66680952380892
  0
LINE
  8
_0-0_top
  6
CONTINUOUS
 62
    7
 10
71.304558305626415
 20
474.66680952380892
 11
71.304558305626415
 21
488.66680952380892
  0
LINE
  8
_0-0_top
  6
CONTINUOUS
 62
    7
 10
71.304558305626415
 20
488.66680952380892
 11
85.304558305626415
 21
488.66680952380892
  0
LINE
  8
_0-0_top
  6
CONTINUOUS
 62
    7
 10
85.304558305626415
 20
488.66680952380892
 11
85.304558305626415
 21
474.66680952380892
  0
LINE
  8
_0-0_top
  6
CONTINUOUS
 62
    7
 10
85.304558305626415
 20
455.66680952380892
 11
71.304558305626415
 21
455.66680952380892
  0
LINE
  8
_0-0_top
  6
CONTINUOUS
 62
    7
 10
71.304558305626415
 20
455.66680952380892
 11
71.304558305626415
 21
469.66680952380892
  0
LINE
  8
_0-0_top
  6
CONTINUOUS
 62
    7
 10
71.304558305626415
 20
469.66680952380892
 11
85.304558305626415
 21
469.66680952380892
  0
LINE
  8
_0-0_top
  6
CONTINUOUS
 62
    7
 10
85.304558305626415
 20
469.66680952380892
 11
85.304558305626415
 21
455.66680952380892
  0
LINE
  8
_0-0_top
  6
CONTINUOUS
 62
    7
 10
85.304558305626415
 20
436.66680952380892
 11
71.304558305626415
 21
436.66680952380892
  0
LINE
  8
_0-0_top
  6
CONTINUOUS
 62
    7
 10
71.304558305626415
 20
436.66680952380892
 11
71.304558305626415
 21
450.66680952380892
  0
LINE
  8
_0-0_top
  6
CONTINUOUS
 62
    7
 10
71.304558305626415
 20
450.66680952380892
 11
85.304558305626415
 21
450.66680952380892
  0
LINE
  8
_0-0_top
  6
CONTINUOUS
 62
    7
 10
85.304558305626415
 20
450.66680952380892
 11
85.304558305626415
 21
436.66680952380892
  0
LINE
  8
_0-0_top
  6
CONTINUOUS
 62
    7
 10
104.30455830562641
 20
493.66680952380892
 11
90.304558305626415
 21
493.66680952380892
  0
LINE
  8
_0-0_top
  6
CONTINUOUS
 62
    7
 10
90.304558305626415
 20
493.66680952380892
 11
90.304558305626415
 21
507.66680952380892
  0
LINE
  8
_0-0_top
  6
CONTINUOUS
 62
    7
 10
90.304558305626415
 20
507.66680952380892
 11
104.30455830562641
 21
507.66680952380892
  0
LINE
  8
_0-0_top
  6
CONTINUOUS
 62
    7
 10
104.30455830562641
 20
507.66680952380892
 11
104.30455830562641
 21
493.66680952380892
  0
LINE
  8
_0-0_top
  6
CONTINUOUS
 62
    7
 10
104.30455830562641
 20
474.66680952380892
 11
90.304558305626415
 21
474.66680952380892
  0
LINE
  8
_0-0_top
  6
CONTINUOUS
 62
    7
 10
90.304558305626415
 20
474.66680952380892
 11
90.304558305626415
 21
488.66680952380892
  0
LINE
  8
_0-0_top
  6
CONTINUOUS
 62
    7
 10
90.304558305626415
 20
488.66680952380892
 11
104.30455830562641
 21
488.66680952380892
  0
LINE
  8
_0-0_top
  6
CONTINUOUS
 62
    7
 10
104.30455830562641
 20
488.66680952380892
 11
104.30455830562641
 21
474.66680952380892
  0
LINE
  8
_0-0_top
  6
CONTINUOUS
 62
    7
 10
104.30455830562641
 20
455.66680952380892
 11
90.304558305626415
 21
455.66680952380892
  0
LINE
  8
_0-0_top
  6
CONTINUOUS
 62
    7
 10
90.304558305626415
 20
455.66680952380892
 11
90.304558305626415
 21
469.66680952380892
  0
LINE
  8
_0-0_top
  6
CONTINUOUS
 62
    7
 10
90.304558305626415
 20
469.66680952380892
 11
104.30455830562641
 21
469.66680952380892
  0
LINE
  8
_0-0_top
  6
CONTINUOUS
 62
    7
 10
104.30455830562641
 20
469.66680952380892
 11
104.30455830562641
 21
455.66680952380892
  0
LINE
  8
_0-0_top
  6
CONTINUOUS
 62
    7
 10
104.30455830562641
 20
436.66680952380892
 11
90.304558305626415
 21
436.66680952380892
  0
LINE
  8
_0-0_top
  6
CONTINUOUS
 62
    7
 10
90.304558305626415
 20
436.66680952380892
 11
90.304558305626415
 21
450.66680952380892
  0
LINE
  8
_0-0_top
  6
CONTINUOUS
 62
    7
 10
90.304558305626415
 20
450.66680952380892
 11
104.30455830562641
 21
450.66680952380892
  0
LINE
  8
_0-0_top
  6
CONTINUOUS
 62
    7
 10
104.30455830562641
 20
450.66680952380892
 11
104.30455830562641
 21
436.66680952380892
  0
LINE
  8
_0-0_top
  6
CONTINUOUS
 62
    7
 10
123.30455830562641
 20
498.66680952380892
 11
109.30455830562641
 21
498.66680952380892
  0
LINE
  8
_0-0_top
  6
CONTINUOUS
 62
    7
 10
109.30455830562641
 20
498.66680952380892
 11
109.30455830562641
 21
512.66680952380898
  0
LINE
  8
_0-0_top
  6
CONTINUOUS
 62
    7
 10
109.30455830562641
 20
512.66680952380898
 11
123.30455830562641
 21
512.66680952380898
  0
LINE
  8
_0-0_top
  6
CONTINUOUS
 62
    7
 10
123.30455830562641
 20
512.66680952380898
 11
123.30455830562641
 21
498.66680952380892
  0
LINE
  8
_0-0_top
  6
CONTINUOUS
 62
    7
 10
123.30455830562641
 20
479.66680952380892
 11
109.30455830562641
 21
479.66680952380892
  0
LINE
  8
_0-0_top
  6
CONTINUOUS
 62
    7
 10
109.30455830562641
 20
479.66680952380892
 11
109.30455830562641
 21
493.66680952380892
  0
LINE
  8
_0-0_top
  6
CONTINUOUS
 62
    7
 10
109.30455830562641
 20
493.66680952380892
 11
123.30455830562641
 21
493.66680952380892
  0
LINE
  8
_0-0_top
  6
CONTINUOUS
 62
    7
 10
123.30455830562641
 20
493.66680952380892
 11
123.30455830562641
 21
479.66680952380892
  0
LINE
  8
_0-0_top
  6
CONTINUOUS
 62
    7
 10
123.30455830562641
 20
460.66680952380892
 11
109.30455830562641
 21
460.66680952380892
  0
LINE
  8
_0-0_top
  6
CONTINUOUS
 62
    7
 10
109.30455830562641
 20
460.66680952380892
 11
109.30455830562641
 21
474.66680952380892
  0
LINE
  8
_0-0_top
  6
CONTINUOUS
 62
    7
 10
109.30455830562641
 20
474.66680952380892
 11
123.30455830562641
 21
474.66680952380892
  0
LINE
  8
_0-0_top
  6
CONTINUOUS
 62
    7
 10
123.30455830562641
 20
474.66680952380892
 11
123.30455830562641
 21
460.66680952380892
  0
LINE
  8
_0-0_top
  6
CONTINUOUS
 62
    7
 10
123.30455830562641
 20
441.66680952380892
 11
109.30455830562641
 21
441.66680952380892
  0
LINE
  8
_0-0_top
  6
CONTINUOUS
 62
    7
 10
109.30455830562641
 20
441.66680952380892
 11
109.30455830562641
 21
455.66680952380892
  0
LINE
  8
_0-0_top
  6
CONTINUOUS
 62
    7
 10
109.30455830562641
 20
455.66680952380892
 11
123.30455830562641
 21
455.66680952380892
  0
LINE
  8
_0-0_top
  6
CONTINUOUS
 62
    7
 10
123.30455830562641
 20
455.66680952380892
 11
123.30455830562641
 21
441.66680952380892
  0
LINE
  8
_0-0_top
  6
CONTINUOUS
 62
    7
 10
142.30455830562641
 20
502.66680952380892
 11
128.30455830562641
 21
502.66680952380892
  0
LINE
  8
_0-0_top
  6
CONTINUOUS
 62
    7
 10
142.30455830562641
 20
483.66680952380892
 11
128.30455830562641
 21
483.66680952380892
  0
LINE
  8
_0-0_top
  6
CONTINUOUS
 62
    7
 10
128.30455830562641
 20
483.66680952380892
 11
128.30455830562641
 21
497.66680952380892
  0
LINE
  8
_0-0_top
  6
CONTINUOUS
 62
    7
 10
128.30455830562641
 20
497.66680952380892
 11
142.30455830562641
 21
497.66680952380892
  0
LINE
  8
_0-0_top
  6
CONTINUOUS
 62
    7
 10
142.30455830562641
 20
497.66680952380892
 11
142.30455830562641
 21
483.66680952380892
  0
LINE
  8
_0-0_top
  6
CONTINUOUS
 62
    7
 10
142.30455830562641
 20
464.66680952380892
 11
128.30455830562641
 21
464.66680952380892
  0
LINE
  8
_0-0_top
  6
CONTINUOUS
 62
    7
 10
128.30455830562641
 20
464.66680952380892
 11
128.30455830562641
 21
478.66680952380892
  0
LINE
  8
_0-0_top
  6
CONTINUOUS
 62
    7
 10
128.30455830562641
 20
478.66680952380892
 11
142.30455830562641
 21
478.66680952380892
  0
LINE
  8
_0-0_top
  6
CONTINUOUS
 62
    7
 10
142.30455830562641
 20
478.66680952380892
 11
142.30455830562641
 21
464.66680952380892
  0
LINE
  8
_0-0_top
  6
CONTINUOUS
 62
    7
 10
142.30455830562641
 20
445.66680952380892
 11
128.30455830562641
 21
445.66680952380892
  0
LINE
  8
_0-0_top
  6
CONTINUOUS
 62
    7
 10
128.30455830562641
 20
445.66680952380892
 11
128.30455830562641
 21
459.66680952380892
  0
LINE
  8
_0-0_top
  6
CONTINUOUS
 62
    7
 10
128.30455830562641
 20
459.66680952380892
 11
142.30455830562641
 21
459.66680952380892
  0
LINE
  8
_0-0_top
  6
CONTINUOUS
 62
    7
 10
142.30455830562641
 20
459.66680952380892
 11
142.30455830562641
 21
445.66680952380892
  0
LINE
  8
_0-0_top
  6
CONTINUOUS
 62
    7
 10
128.30455830562641
 20
502.66680952380892
 11
128.30455830562641
 21
516.66680952380898
  0
LINE
  8
_0-0_top
  6
CONTINUOUS
 62
    7
 10
128.30455830562641
 20
516.66680952380898
 11
142.30455830562641
 21
516.66680952380898
  0
LINE
  8
_0-0_top
  6
CONTINUOUS
 62
    7
 10
142.30455830562641
 20
516.66680952380898
 11
142.30455830562641
 21
502.66680952380892
  0
LINE
  8
_0-0_top
  6
CONTINUOUS
 62
    7
 10
147.30455830562641
 20
502.66680952380892
 11
147.30455830562641
 21
499.66680952380892
  0
LINE
  8
_0-0_top
  6
CONTINUOUS
 62
    7
 10
161.30455830562641
 20
499.66680952380892
 11
147.30455830562641
 21
499.66680952380892
  0
LINE
  8
_0-0_top
  6
CONTINUOUS
 62
    7
 10
161.30455830562641
 20
480.66680952380892
 11
147.30455830562641
 21
480.66680952380892
  0
LINE
  8
_0-0_top
  6
CONTINUOUS
 62
    7
 10
147.30455830562641
 20
480.66680952380892
 11
147.30455830562641
 21
494.66680952380892
  0
LINE
  8
_0-0_top
  6
CONTINUOUS
 62
    7
 10
147.30455830562641
 20
494.66680952380892
 11
161.30455830562641
 21
494.66680952380892
  0
LINE
  8
_0-0_top
  6
CONTINUOUS
 62
    7
 10
161.30455830562641
 20
494.66680952380892
 11
161.30455830562641
 21
480.66680952380892
  0
LINE
  8
_0-0_top
  6
CONTINUOUS
 62
    7
 10
161.30455830562641
 20
461.66680952380892
 11
147.30455830562641
 21
461.66680952380892
  0
LINE
  8
_0-0_top
  6
CONTINUOUS
 62
    7
 10
147.30455830562641
 20
461.66680952380892
 11
147.30455830562641
 21
475.66680952380892
  0
LINE
  8
_0-0_top
  6
CONTINUOUS
 62
    7
 10
147.30455830562641
 20
475.66680952380892
 11
161.30455830562641
 21
475.66680952380892
  0
LINE
  8
_0-0_top
  6
CONTINUOUS
 62
    7
 10
161.30455830562641
 20
475.66680952380892
 11
161.30455830562641
 21
461.66680952380892
  0
LINE
  8
_0-0_top
  6
CONTINUOUS
 62
    7
 10
161.30455830562641
 20
442.66680952380892
 11
147.30455830562641
 21
442.66680952380892
  0
LINE
  8
_0-0_top
  6
CONTINUOUS
 62
    7
 10
147.30455830562641
 20
442.66680952380892
 11
147.30455830562641
 21
456.66680952380892
  0
LINE
  8
_0-0_top
  6
CONTINUOUS
 62
    7
 10
147.30455830562641
 20
456.66680952380892
 11
161.30455830562641
 21
456.66680952380892
  0
LINE
  8
_0-0_top
  6
CONTINUOUS
 62
    7
 10
161.30455830562641
 20
456.66680952380892
 11
161.30455830562641
 21
442.66680952380892
  0
LINE
  8
_0-0_top
  6
CONTINUOUS
 62
    7
 10
147.30455830562641
 20
499.66680952380892
 11
147.30455830562641
 21
513.66680952380898
  0
LINE
  8
_0-0_top
  6
CONTINUOUS
 62
    7
 10
147.30455830562641
 20
513.66680952380898
 11
161.30455830562641
 21
513.66680952380898
  0
LINE
  8
_0-0_top
  6
CONTINUOUS
 62
    7
 10
161.30455830562641
 20
513.66680952380898
 11
161.30455830562641
 21
499.66680952380892
  0
LINE
  8
_0-0_top
  6
CONTINUOUS
 62
    7
 10
166.30455830562641
 20
499.66680952380892
 11
166.30455830562641
 21
497.66680952380892
  0
LINE
  8
_0-0_top
  6
CONTINUOUS
 62
    7
 10
166.30455830562641
 20
500.66680952380892
 11
166.30455830562641
 21
497.66680952380892
  0
LINE
  8
_0-0_top
  6
CONTINUOUS
 62
    7
 10
180.30455830562641
 20
497.66680952380892
 11
166.30455830562641
 21
497.66680952380892
  0
LINE
  8
_0-0_top
  6
CONTINUOUS
 62
    7
 10
166.30455830562641
 20
478.66680952380892
 11
166.30455830562641
 21
492.66680952380892
  0
LINE
  8
_0-0_top
  6
CONTINUOUS
 62
    7
 10
166.30455830562641
 20
492.66680952380892
 11
180.30455830562641
 21
492.66680952380892
  0
LINE
  8
_0-0_top
  6
CONTINUOUS
 62
    7
 10
180.30455830562641
 20
492.66680952380892
 11
180.30455830562641
 21
478.66680952380892
  0
LINE
  8
_0-0_top
  6
CONTINUOUS
 62
    7
 10
180.30455830562641
 20
459.66680952380892
 11
166.30455830562641
 21
459.66680952380892
  0
LINE
  8
_0-0_top
  6
CONTINUOUS
 62
    7
 10
166.30455830562641
 20
459.66680952380892
 11
166.30455830562641
 21
473.66680952380892
  0
LINE
  8
_0-0_top
  6
CONTINUOUS
 62
    7
 10
166.30455830562641
 20
473.66680952380892
 11
180.30455830562641
 21
473.66680952380892
  0
LINE
  8
_0-0_top
  6
CONTINUOUS
 62
    7
 10
180.30455830562641
 20
473.66680952380892
 11
180.30455830562641
 21
459.66680952380892
  0
LINE
  8
_0-0_top
  6
CONTINUOUS
 62
    7
 10
180.30455830562641
 20
440.66680952380892
 11
166.30455830562641
 21
440.66680952380892
  0
LINE
  8
_0-0_top
  6
CONTINUOUS
 62
    7
 10
166.30455830562641
 20
440.66680952380892
 11
166.30455830562641
 21
454.66680952380892
  0
LINE
  8
_0-0_top
  6
CONTINUOUS
 62
    7
 10
166.30455830562641
 20
454.66680952380892
 11
180.30455830562641
 21
454.66680952380892
  0
LINE
  8
_0-0_top
  6
CONTINUOUS
 62
    7
 10
180.30455830562641
 20
454.66680952380892
 11
180.30455830562641
 21
440.66680952380892
  0
LINE
  8
_0-0_top
  6
CONTINUOUS
 62
    7
 10
166.30455830562641
 20
497.66680952380892
 11
166.30455830562641
 21
511.66680952380892
  0
LINE
  8
_0-0_top
  6
CONTINUOUS
 62
    7
 10
166.30455830562641
 20
511.66680952380892
 11
180.30455830562641
 21
511.66680952380892
  0
LINE
  8
_0-0_top
  6
CONTINUOUS
 62
    7
 10
180.30455830562641
 20
511.66680952380892
 11
180.30455830562641
 21
497.66680952380892
  0
LINE
  8
_0-0_top
  6
CONTINUOUS
 62
    7
 10
166.30455830562641
 20
435.66680952380892
 11
180.30455830562641
 21
435.66680952380892
  0
LINE
  8
_0-0_top
  6
CONTINUOUS
 62
    7
 10
180.30455830562641
 20
435.66680952380892
 11
180.30455830562641
 21
421.66680952380892
  0
LINE
  8
_0-0_top
  6
CONTINUOUS
 62
    7
 10
180.30455830562641
 20
421.66680952380892
 11
166.30455830562641
 21
421.66680952380892
  0
LINE
  8
_0-0_top
  6
CONTINUOUS
 62
    7
 10
166.30455830562641
 20
421.66680952380892
 11
166.30455830562641
 21
435.66680952380892
  0
LINE
  8
_0-0_top
  6
CONTINUOUS
 62
    7
 10
192.23276153590191
 20
433.66680952380892
 11
185.23276153590191
 21
421.54245387082676
  0
LINE
  8
_0-0_top
  6
CONTINUOUS
 62
    7
 10
185.23276153590191
 20
421.54245387082676
 11
197.35711718888405
 21
414.54245387082676
  0
LINE
  8
_0-0_top
  6
CONTINUOUS
 62
    7
 10
192.23276153590191
 20
433.66680952380892
 11
204.35711718888405
 21
426.66680952380892
  0
LINE
  8
_0-0_top
  6
CONTINUOUS
 62
    7
 10
128.30455830562641
 20
520.66680952380898
 11
184.30455830562641
 21
520.66680952380898
  0
LINE
  8
_0-0_top
  6
CONTINUOUS
 62
    7
 10
197.35711718888405
 20
414.54245387082676
 11
204.35711718888405
 21
426.66680952380892
  0
LINE
  8
_0-0_top
  6
CONTINUOUS
 62
    7
 10
57.304558305626415
 20
432.66680952380892
 11
57.304558305626415
 21
511.66680952380892
  0
POINT
  8
_0-0_top
 62
    7
 10
62.304558305626415
 20
505.66680952380892
  0
POINT
  8
_0-0_top
 62
    7
 10
62.304558305626415
 20
438.66680952380892
  0
LINE
  8
_0-0_top
  6
CONTINUOUS
 62
    7
 10
57.304558305626415
 20
511.66680952380892
 11
128.30455830562641
 21
520.66680952380898
  0
CIRCLE
  8
_0-0_top
  6
CONTINUOUS
 62
    7
 10
62.304558305626415
 20
505.66680952380892
 40
3.1000000000000001
  0
CIRCLE
  8
_0-0_top
  6
CONTINUOUS
 62
    7
 10
62.304558305626415
 20
438.66680952380892
 40
3.1000000000000001
  0
LINE
  8
_0-1_
  6
CONTINUOUS
 62
    7
 10
57.304558305626415
 20
511.66680952380892
 11
57.304558305626415
 21
432.66680952380892
  0
LINE
  8
_0-0_top
  6
CONTINUOUS
 62
    7
 10
200.82121880402181
 20
412.54245387082676
 11
217.70455830562645
 21
441.78525568904064
  0
POINT
  8
_0-1_
 62
    7
 10
211.16455830562643
 20
516.66680952380898
  0
CIRCLE
  8
_0-1_
  6
CONTINUOUS
 62
    7
 10
211.16455830562643
 20
516.66680952380898
 40
1.6000000000000001
  0
POINT
  8
_0-1_
 62
    7
 10
220.91455830562643
 20
514.91680952380898
  0
CIRCLE
  8
_0-1_
  6
CONTINUOUS
 62
    7
 10
220.91455830562643
 20
514.91680952380898
 40
3.1000000000000001
  0
CIRCLE
  8
_0-1_
  6
CONTINUOUS
 62
    7
 10
188.30455830562641
 20
458.24680952380896
 40
1.6000000000000001
  0
POINT
  8
_0-1_
 62
    7
 10
188.30455830562641
 20
458.24680952380896
  0
POINT
  8
_0-1_
 62
    7
 10
211.16455830562643
 20
458.24680952380896
  0
CIRCLE
  8
_0-1_
  6
CONTINUOUS
 62
    7
 10
211.16455830562643
 20
458.24680952380896
 40
1.6000000000000001
  0
LINE
  8
_0-1_
  6
CONTINUOUS
 62
    7
 10
226.66455830562643
 20
520.66680952380898
 11
226.66455830562643
 21
457.3044309248578
  0
LINE
  8
_0-1_
  6
CONTINUOUS
 62
    7
 10
128.30455830562641
 20
520.66680952380898
 11
226.66455830562643
 21
520.66680952380898
  0
LINE
  8
_0-0_top
  6
CONTINUOUS
 62
    7
 10
184.30455830562641
 20
520.66680952380898
 11
184.30455830562641
 21
454.24680952380896
  0
LINE
  8
_0-0_top
  6
CONTINUOUS
 62
    7
 10
184.30455830562641
 20
454.24680952380896
 11
217.70455830562642
 21
454.24680952380896
  0
LINE
  8
_0-0_top
  6
CONTINUOUS
 62
    7
 10
217.70455830562642
 20
454.24680952380896
 11
217.70455830562642
 21
441.78525568904064
  0
POINT
  8
_0-0_top
 62
    7
 10
181.30455830562641
 20
517.66680952380898
  0
CIRCLE
  8
_0-0_top
  6
CONTINUOUS
 62
    7
 10
181.30455830562641
 20
517.66680952380898
 40
1.6000000000000001
  0
POINT
  8
_0-1_
 62
    7
 10
62.304558305626415
 20
505.66680952380892
  0
POINT
  8
_0-1_
 62
    7
 10
62.304558305626415
 20
438.66680952380892
  0
POINT
  8
_0-0_top
 62
    7
 10
135.96481234347073
 20
437.66680952380892
  0
CIRCLE
  8
_0-0_top
  6
CONTINUOUS
 62
    7
 10
135.96481234347073
 20
437.66680952380892
 40
1.6000000000000001
  0
POINT
  8
_0-1_
 62
    7
 10
135.96481234347073
 20
437.66680952380892
  0
POINT
  8
_0-1_
 62
    7
 10
181.30455830562641
 20
517.66680952380898
  0
CIRCLE
  8
_0-1_
  6
CONTINUOUS
 62
    7
 10
181.30455830562641
 20
517.66680952380898
 40
1.6000000000000001
  0
CIRCLE
  8
_0-1_
  6
CONTINUOUS
 62
    7
 10
135.96481234347073
 20
437.66680952380892
 40
1.6000000000000001
  0
CIRCLE
  8
_0-1_
  6
CONTINUOUS
 62
    7
 10
62.304558305626415
 20
438.66680952380892
 40
3.1000000000000001
  0
CIRCLE
  8
_0-1_
  6
CONTINUOUS
 62
    7
 10
62.304558305626415
 20
505.66680952380892
 40
3.1000000000000001
  0
CIRCLE
  8
_0-1_
  6
CONTINUOUS
 62
    7
 10
125.30455830562641
 20
515.66680952380898
 40
1.6000000000000001
  0
POINT
  8
_0-1_
 62
    7
 10
125.30455830562641
 20
515.66680952380898
  0
POINT
  8
_0-0_top
 62
    7
 10
125.30455830562641
 20
515.66680952380898
  0
CIRCLE
  8
_0-0_top
  6
CONTINUOUS
 62
    7
 10
125.30455830562641
 20
515.66680952380898
 40
1.6000000000000001
  0
POINT
  8
_0-0_top
 62
    7
 10
192.35711718888405
 20
405.88219983298239
  0
CIRCLE
  8
_0-0_top
  6
CONTINUOUS
 62
    7
 10
192.35711718888405
 20
405.88219983298239
 40
1.6000000000000001
  0
POINT
  8
_0-0_top
 62
    7
 10
180.23276153590191
 20
412.88219983298239
  0
CIRCLE
  8
_0-0_top
  6
CONTINUOUS
 62
    7
 10
180.23276153590191
 20
412.88219983298239
 40
3.1000000000000001
  0
POINT
  8
_0-1_
 62
    7
 10
180.23276153590191
 20
412.88219983298239
  0
POINT
  8
_0-1_
 62
    7
 10
192.35711718888405
 20
405.88219983298239
  0
CIRCLE
  8
_0-1_
  6
CONTINUOUS
 62
    7
 10
180.23276153590191
 20
412.88219983298239
 40
3.1000000000000001
  0
CIRCLE
  8
_0-1_
  6
CONTINUOUS
 62
    7
 10
192.35711718888405
 20
405.88219983298239
 40
1.6000000000000001
  0
POINT
  8
_0-0_top
 62
    7
 10
207.35711718888408
 20
431.86296194651555
  0
CIRCLE
  8
_0-0_top
  6
CONTINUOUS
 62
    7
 10
207.35711718888408
 20
431.86296194651555
 40
1.6000000000000001
  0
POINT
  8
_0-1_
 62
    7
 10
207.35711718888408
 20
431.86296194651555
  0
CIRCLE
  8
_0-1_
  6
CONTINUOUS
 62
    7
 10
207.35711718888408
 20
431.86296194651555
 40
1.6000000000000001
  0
LINE
  8
_0-0_top
  6
CONTINUOUS
 62
    7
 10
200.82121880402181
 20
412.54245387082676
 11
192.32121880402181
 21
397.82002200649129
  0
LINE
  8
_0-1_
  6
CONTINUOUS
 62
    7
 10
192.32121880402181
 20
397.82002200649129
 11
226.66455830562643
 21
457.3044309248578
  0
LINE
  8
_0-0_top
  6
CONTINUOUS
 62
    7
 10
131.96481234347073
 20
432.66680952380892
 11
57.304558305626415
 21
432.66680952380892
  0
LINE
  8
_0-0_top
  6
CONTINUOUS
 62
    7
 10
192.32121880402181
 20
397.82002200649129
 11
131.96481234347073
 21
432.66680952380892
  0
LINE
  8
_0-1_
  6
CONTINUOUS
 62
    7
 10
57.304558305626415
 20
432.66680952380892
 11
131.96481234347073
 21
432.66680952380892
  0
LINE
  8
_0-1_
  6
CONTINUOUS
 62
    7
 10
131.96481234347073
 20
432.66680952380892
 11
192.32121880402181
 21
397.82002200649129
  0
ENDSEC
  0
EOF
