  0
SECTION
  2
HEADER
  9
$ACADVER
  1
AC1009
  9
$INSBASE
 10
0
 20
0
 30
0
  9
$EXTMIN
 10
0
 20
0
  9
$EXTMAX
 10
841
 20
594
  9
$LIMMIN
 10
0
 20
0
  9
$LIMMAX
 10
841
 20
594
  9
$LTSCALE
 40
1
  0
ENDSEC
  0
SECTION
  2
TABLES
  0
TABLE
  2
LTYPE
 70
     9
  0
LTYPE
  2
CONTINUOUS
 70
    64
  3
実線
 72
    65
 73
     0
 40
0.0
  0
LTYPE
  2
DASHED1
 70
    64
  3
--  --  --  --  --  --  --  --  
 72
    65
 73
     2
 40
2.5
 49
1.25
 49
-1.25
  0
LTYPE
  2
DASHED2
 70
    64
  3
----    ----    ----    ----    
 72
    65
 73
     2
 40
5.0
 49
2.5
 49
-2.5
  0
LTYPE
  2
DASHED3
 70
    64
  3
------  ------  ------  ------  
 72
    65
 73
     2
 40
5.0
 49
3.75
 49
-1.25
  0
LTYPE
  2
CENTER1
 70
    64
  3
----- - ----- - ----- - ----- - 
 72
    65
 73
     4
 40
10.0
 49
6.25
 49
-1.25
 49
1.25
 49
-1.25
  0
LTYPE
  2
CENTER2
 70
    64
  3
----------  --  ----------  --  
 72
    65
 73
     4
 40
20.0
 49
12.5
 49
-2.5
 49
2.5
 49
-2.5
  0
LTYPE
  2
PHANTOM1
 70
    64
  3
--- - - --- - - --- - - --- - - 
 72
    65
 73
     6
 40
10.0
 49
3.25
 49
-1.25
 49
1.25
 49
-1.25
 49
1.25
 49
-1.25
  0
LTYPE
  2
PHANTOM2
 70
    64
  3
--------  -  -  --------  -  -  
 72
    65
 73
     6
 40
20.0
 49
10.0
 49
-2.5
 49
1.25
 49
-2.5
 49
1.25
 49
-2.5
  0
LTYPE
  2
DOT
 70
    64
  3
-   -   -   -   -   -   -   -   
 72
    65
 73
     2
 40
2.5
 49
0.625
 49
-1.875
  0
LTYPE
  2
DUMMY
 70
    64
  3
ダミー
 72
    65
 73
     0
 40
0.0
  0
LTYPE
  2
RAND1
 70
    64
  3
ランダム線1
 72
    65
 73
     4
 40
10.0
 49
1.0
 49
-2.0
 49
3.0
 49
-4.0
  0
LTYPE
  2
RAND2
 70
    64
  3
ランダム線2
 72
    65
 73
     4
 40
14.0
 49
2.0
 49
-3.0
 49
4.0
 49
-5.0
  0
LTYPE
  2
RAND3
 70
    64
  3
ランダム線3
 72
    65
 73
     4
 40
18.0
 49
3.0
 49
-4.0
 49
5.0
 49
-6.0
  0
LTYPE
  2
RAND4
 70
    64
  3
ランダム線4
 72
    65
 73
     4
 40
22.0
 49
4.0
 49
-5.0
 49
6.0
 49
-7.0
  0
LTYPE
  2
RAND5
 70
    64
  3
ランダム線5
 72
    65
 73
     4
 40
26.0
 49
5.0
 49
-6.0
 49
7.0
 49
-8.0
  0
LTYPE
  2
LONG1
 70
    64
  3
----------  --  ----------  --  
 72
    65
 73
     4
 40
40.0
 49
32.5
 49
-2.5
 49
2.5
 49
-2.5
  0
LTYPE
  2
LONG2
 70
    64
  3
--------  -  -  --------  -  -  
 72
    65
 73
     6
 40
40.0
 49
30.0
 49
-2.5
 49
1.25
 49
-2.5
 49
1.25
 49
-2.5
  0
LTYPE
  2
LONG3
 70
    64
  3
+++++++++++++++..+++++++++++++++
 72
    65
 73
     2
 40
40.0
 49
37.5
 49
-2.5
  0
LTYPE
  2
LONG4
 70
    64
  3
+++++++++++++++..+++++++++++++++
 72
    65
 73
     2
 40
80.0
 49
75.0
 49
-5.0
  0
LTYPE
  2
LONG5
 70
    64
  3
----------  --  ----------  --  
 72
    65
 73
     4
 40
60.0
 49
37.5
 49
-7.5
 49
7.5
 49
-7.5
  0
LTYPE
  2
dashed
 70
   64
  3
-------   -------------   ------
 72
   65
 73
    2
 40
7.5
 49
6
 49
-1.5
  0
LTYPE
  2
dashed_spaced
 70
   64
  3
----        --------        ----
 72
   65
 73
    2
 40
12
 49
6
 49
-6
  0
LTYPE
  2
long_dashed_dotted
 70
   64
  3
------------- --- --------------
 72
   65
 73
    4
 40
15.25
 49
12
 49
-1.5
 49
0.25
 49
-1.5
  0
LTYPE
  2
long_dashed_double-dotted
 70
   64
  3
----------- --- --- ------------
 72
   65
 73
    6
 40
17
 49
12
 49
-1.5
 49
0.25
 49
-1.5
 49
0.25
 49
-1.5
  0
LTYPE
  2
long_dashed_triplicate-dotted
 70
   64
  3
--------- --- --- --- ----------
 72
   65
 73
    8
 40
18.75
 49
12
 49
-1.5
 49
0.25
 49
-1.5
 49
0.25
 49
-1.5
 49
0.25
 49
-1.5
  0
LTYPE
  2
dotted
 70
   64
  3
   -       -       -       -    
 72
   65
 73
    2
 40
1.75
 49
0.25
 49
-1.5
  0
LTYPE
  2
chain
 70
   64
  3
-------------- -- --------------
 72
   65
 73
    4
 40
18.5
 49
12
 49
-1.5
 49
3.5
 49
-1.5
  0
LTYPE
  2
chain_double_dash
 70
   64
  3
------------ -- -- -------------
 72
   65
 73
    6
 40
23.5
 49
12
 49
-1.5
 49
3.5
 49
-1.5
 49
3.5
 49
-1.5
  0
LTYPE
  2
dashed_dotted
 70
   64
  3
-----------     -     ----------
 72
   65
 73
    4
 40
9.25
 49
6
 49
-1.5
 49
0.25
 49
-1.5
  0
LTYPE
  2
double-dashed_dotted
 70
   64
  3
------   -----------   -   -----
 72
   65
 73
    6
 40
16.75
 49
6
 49
-1.5
 49
6
 49
-1.5
 49
0.25
 49
-1.5
  0
LTYPE
  2
dashed_double-dotted
 70
   64
  3
---------    -    -    ---------
 72
   65
 73
    6
 40
11
 49
6
 49
-1.5
 49
0.25
 49
-1.5
 49
0.25
 49
-1.5
  0
LTYPE
  2
double-dashed_double-dotted
 70
   64
  3
-----   ---------   -   -   ----
 72
   65
 73
    8
 40
18.5
 49
6
 49
-1.5
 49
6
 49
-1.5
 49
0.25
 49
-1.5
 49
0.25
 49
-1.5
  0
LTYPE
  2
dashed_triplicate-dotted
 70
   64
  3
-------    -    -    -    ------
 72
   65
 73
    8
 40
12.75
 49
6
 49
-1.5
 49
0.25
 49
-1.5
 49
0.25
 49
-1.5
 49
0.25
 49
-1.5
  0
LTYPE
  2
double-dashed_triplicate-dotted
 70
   64
  3
-----  ---------  -  -  -  -----
 72
   65
 73
   10
 40
20.25
 49
6
 49
-1.5
 49
6
 49
-1.5
 49
0.25
 49
-1.5
 49
0.25
 49
-1.5
 49
0.25
 49
-1.5
  0
LTYPE
  2
undefined
 70
   64
  3
--------------------------------
 72
   65
 73
    0
 40
0
  0
LTYPE
  2
_
 70
   64
  3
                                
 72
   65
 73
    0
 40
0
  0
LTYPE
  2
__18
 70
   64
  3
                                
 72
   65
 73
    0
 40
0
  0
LTYPE
  2
__19
 70
   64
  3
                                
 72
   65
 73
    0
 40
0
  0
LTYPE
  2
__20
 70
   64
  3
                                
 72
   65
 73
    0
 40
0
  0
LTYPE
  2
__21
 70
   64
  3
                                
 72
   65
 73
    0
 40
0
  0
LTYPE
  2
__22
 70
   64
  3
                                
 72
   65
 73
    0
 40
0
  0
LTYPE
  2
__23
 70
   64
  3
                                
 72
   65
 73
    0
 40
0
  0
LTYPE
  2
__24
 70
   64
  3
                                
 72
   65
 73
    0
 40
0
  0
LTYPE
  2
__25
 70
   64
  3
                                
 72
   65
 73
    0
 40
0
  0
LTYPE
  2
__26
 70
   64
  3
                                
 72
   65
 73
    0
 40
0
  0
LTYPE
  2
__27
 70
   64
  3
                                
 72
   65
 73
    0
 40
0
  0
LTYPE
  2
__28
 70
   64
  3
                                
 72
   65
 73
    0
 40
0
  0
LTYPE
  2
__29
 70
   64
  3
                                
 72
   65
 73
    0
 40
0
  0
LTYPE
  2
__30
 70
   64
  3
                                
 72
   65
 73
    0
 40
0
  0
LTYPE
  2
__31
 70
   64
  3
                                
 72
   65
 73
    0
 40
0
  0
LTYPE
  2
__32
 70
   64
  3
                                
 72
   65
 73
    0
 40
0
  0
ENDTAB
  0
TABLE
  2
STYLE
  5
3
100
AcDbSymbolTable
 70
     1
  0
STYLE
  5
10
100
AcDbSymbolTableRecord
100
AcDbTextStyleTableRecord
  2
STANDARD
 70
     0
 40
0.0
 41
1.0
 50
0.0
 71
     0
 42
0.2
  3
txt
  4
bigfont.shx
  0
STYLE
  5
26
100
AcDbSymbolTableRecord
100
AcDbTextStyleTableRecord
  2
TATEGAKI
 70
    68
 40
0.0
 41
1.0
 50
0.0
 71
     0
 42
1.0
  3
txt
  4
bigfont.shx
  0
ENDTAB
  0
TABLE
  2
LAYER
 70
   11
  0
LAYER
  2
_0-0_pcb
 70
   64
 62
    7
  6
CONTINUOUS
  0
LAYER
  2
_0-1_
 70
   64
 62
    7
  6
CONTINUOUS
  0
LAYER
  2
_0-2_
 70
   64
 62
    7
  6
CONTINUOUS
  0
LAYER
  2
_0-3_
 70
   64
 62
    7
  6
CONTINUOUS
  0
LAYER
  2
_0-4_
 70
   64
 62
    7
  6
CONTINUOUS
  0
LAYER
  2
_0-5_top2mm
 70
   64
 62
    7
  6
CONTINUOUS
  0
LAYER
  2
_0-6_
 70
   64
 62
    7
  6
CONTINUOUS
  0
LAYER
  2
_0-7_
 70
   64
 62
    7
  6
CONTINUOUS
  0
LAYER
  2
_0-8_top0_5mm
 70
   64
 62
    7
  6
CONTINUOUS
  0
LAYER
  2
_0-9_origin
 70
   64
 62
    7
  6
CONTINUOUS
  0
LAYER
  2
ADD_LINE
 70
   64
 62
    7
  6
CONTINUOUS
  0
ENDTAB
  0
ENDSEC
  0
SECTION
  2
BLOCKS
  0
ENDSEC
  0
SECTION
  2
ENTITIES
  0
LINE
  8
_0-1_
  6
CONTINUOUS
 62
    7
 10
168.43855010348184
 20
346.03756089552195
 11
181.77355010348188
 21
346.03756089552195
  0
LINE
  8
_0-1_
  6
CONTINUOUS
 62
    7
 10
168.43855010348182
 20
346.03756089552195
 11
168.43855010348182
 21
257.13756089552197
  0
LINE
  8
_0-3_
  6
CONTINUOUS
 62
    7
 10
87.333550103481798
 20
372.24756089552193
 11
150.48355010348189
 21
372.24756089552193
  0
LINE
  8
_0-3_
  6
CONTINUOUS
 62
    7
 10
150.48355010348189
 20
372.24756089552193
 11
150.48355010348189
 21
391.75756089552192
  0
POINT
  8
_0-2_
 62
    7
 10
99.223550103481898
 20
263.48756089552194
  0
POINT
  8
_0-2_
 62
    7
 10
99.223550103481898
 20
282.53756089552195
  0
POINT
  8
_0-2_
 62
    7
 10
118.27355010348185
 20
282.53756089552195
  0
POINT
  8
_0-2_
 62
    7
 10
118.27355010348185
 20
263.48756089552194
  0
POINT
  8
_0-2_
 62
    7
 10
137.32355010348181
 20
263.48756089552194
  0
POINT
  8
_0-2_
 62
    7
 10
137.32355010348181
 20
282.53756089552195
  0
POINT
  8
_0-2_
 62
    7
 10
156.37355010348188
 20
282.53756089552195
  0
POINT
  8
_0-2_
 62
    7
 10
156.37355010348188
 20
263.48756089552194
  0
POINT
  8
_0-2_
 62
    7
 10
150.02355010348185
 20
301.58756089552196
  0
POINT
  8
_0-2_
 62
    7
 10
130.9735501034819
 20
301.58756089552196
  0
POINT
  8
_0-2_
 62
    7
 10
111.92355010348183
 20
301.58756089552196
  0
POINT
  8
_0-2_
 62
    7
 10
92.873550103481875
 20
301.58756089552196
  0
POINT
  8
_0-2_
 62
    7
 10
90.333550103481798
 20
320.63756089552197
  0
POINT
  8
_0-2_
 62
    7
 10
109.38355010348187
 20
320.63756089552197
  0
POINT
  8
_0-2_
 62
    7
 10
128.43355010348182
 20
320.63756089552197
  0
POINT
  8
_0-2_
 62
    7
 10
147.48355010348189
 20
320.63756089552197
  0
POINT
  8
_0-2_
 62
    7
 10
96.683550103481821
 20
358.73756089552194
  0
POINT
  8
_0-2_
 62
    7
 10
94.143550103481857
 20
339.68756089552198
  0
POINT
  8
_0-2_
 62
    7
 10
113.19355010348181
 20
339.68756089552198
  0
POINT
  8
_0-2_
 62
    7
 10
115.73355010348189
 20
358.73756089552194
  0
POINT
  8
_0-2_
 62
    7
 10
134.78355010348184
 20
358.73756089552194
  0
POINT
  8
_0-2_
 62
    7
 10
132.24355010348188
 20
339.68756089552198
  0
POINT
  8
_0-2_
 62
    7
 10
151.29355010348183
 20
339.68756089552198
  0
POINT
  8
_0-2_
 62
    7
 10
153.8335501034818
 20
358.73756089552194
  0
POINT
  8
_0-0_pcb
 62
    7
 10
143.03855010348184
 20
349.2125608955219
  0
LINE
  8
_0-0_pcb
  6
CONTINUOUS
 62
    7
 10
92.153550103481848
 20
289.60756089552189
 11
92.153550103481848
 21
275.4675608955219
  0
LINE
  8
_0-0_pcb
  6
CONTINUOUS
 62
    7
 10
157.36355010348177
 20
347.55756089552193
 11
153.86355010348177
 21
347.55756089552193
  0
POINT
  8
_0-0_pcb
 62
    7
 10
172.88355010348184
 20
356.19756089552197
  0
POINT
  8
_0-0_pcb
 62
    7
 10
153.8335501034818
 20
358.73756089552194
  0
POINT
  8
_0-0_pcb
 62
    7
 10
134.78355010348184
 20
358.73756089552194
  0
POINT
  8
_0-0_pcb
 62
    7
 10
96.683550103481821
 20
358.73756089552194
  0
POINT
  8
_0-0_pcb
 62
    7
 10
115.73355010348189
 20
358.73756089552194
  0
POINT
  8
_0-0_pcb
 62
    7
 10
113.19355010348181
 20
339.68756089552198
  0
POINT
  8
_0-0_pcb
 62
    7
 10
94.143550103481857
 20
339.68756089552198
  0
POINT
  8
_0-0_pcb
 62
    7
 10
132.24355010348188
 20
339.68756089552198
  0
POINT
  8
_0-0_pcb
 62
    7
 10
147.48355010348189
 20
320.63756089552197
  0
POINT
  8
_0-0_pcb
 62
    7
 10
151.29355010348183
 20
339.68756089552198
  0
POINT
  8
_0-0_pcb
 62
    7
 10
128.43355010348182
 20
320.63756089552197
  0
POINT
  8
_0-0_pcb
 62
    7
 10
109.38355010348187
 20
320.63756089552197
  0
POINT
  8
_0-0_pcb
 62
    7
 10
90.333550103481798
 20
320.63756089552197
  0
POINT
  8
_0-0_pcb
 62
    7
 10
92.873550103481875
 20
301.58756089552196
  0
POINT
  8
_0-0_pcb
 62
    7
 10
111.92355010348183
 20
301.58756089552196
  0
POINT
  8
_0-0_pcb
 62
    7
 10
130.9735501034819
 20
301.58756089552196
  0
POINT
  8
_0-0_pcb
 62
    7
 10
150.02355010348185
 20
301.58756089552196
  0
POINT
  8
_0-0_pcb
 62
    7
 10
156.37355010348188
 20
282.53756089552195
  0
POINT
  8
_0-0_pcb
 62
    7
 10
118.27355010348185
 20
282.53756089552195
  0
POINT
  8
_0-0_pcb
 62
    7
 10
99.223550103481898
 20
282.53756089552195
  0
POINT
  8
_0-0_pcb
 62
    7
 10
137.32355010348181
 20
282.53756089552195
  0
POINT
  8
_0-0_pcb
 62
    7
 10
156.37355010348188
 20
263.48756089552194
  0
POINT
  8
_0-0_pcb
 62
    7
 10
137.32355010348181
 20
263.48756089552194
  0
POINT
  8
_0-0_pcb
 62
    7
 10
118.27355010348185
 20
263.48756089552194
  0
POINT
  8
_0-0_pcb
 62
    7
 10
99.223550103481898
 20
263.48756089552194
  0
POINT
  8
_0-0_pcb
 62
    7
 10
90.333550103481798
 20
254.59756089552195
  0
LINE
  8
_0-0_pcb
  6
CONTINUOUS
 62
    7
 10
90.333550103481798
 20
257.13756089552197
 11
79.538550103481839
 21
311.11256089552194
  0
LINE
  8
_0-0_pcb
  6
CONTINUOUS
 62
    7
 10
79.538550103481839
 20
311.11256089552194
 11
79.538550103481839
 21
330.16256089552195
  0
LINE
  8
_0-0_pcb
  6
CONTINUOUS
 62
    7
 10
79.538550103481839
 20
330.16256089552195
 11
86.523550103481853
 21
389.21756089552196
  0
LINE
  8
_0-0_pcb
  6
CONTINUOUS
 62
    7
 10
172.88355010348184
 20
391.75756089552192
 11
190.66355010348187
 21
381.59756089552195
  0
LINE
  8
_0-0_pcb
  6
CONTINUOUS
 62
    7
 10
190.66355010348187
 20
381.59756089552195
 11
190.66355010348187
 21
376.51756089552197
  0
LINE
  8
_0-0_pcb
  6
CONTINUOUS
 62
    7
 10
190.66355010348187
 20
376.51756089552197
 11
184.31355010348184
 21
365.08756089552196
  0
LINE
  8
_0-0_pcb
  6
CONTINUOUS
 62
    7
 10
168.43855010348182
 20
346.03756089552195
 11
168.43855010348182
 21
257.13756089552197
  0
LINE
  8
_0-0_pcb
  6
CONTINUOUS
 62
    7
 10
89.063550103481816
 20
391.75756089552192
 11
172.88355010348184
 21
391.75756089552192
  0
ARC
  8
_0-0_pcb
  6
CONTINUOUS
 62
    7
 10
89.063550103481816
 20
389.21756089552196
 40
2.539999999999992
 50
90
 51
179.99999999999744
  0
ARC
  8
_0-0_pcb
  6
CONTINUOUS
 62
    7
 10
181.77355010348188
 20
348.57756089552197
 40
2.539999999999992
 50
270
 51
0
  0
LINE
  8
_0-0_pcb
  6
CONTINUOUS
 62
    7
 10
184.31355010348184
 20
365.08756089552196
 11
184.31355010348184
 21
348.57756089552197
  0
LINE
  8
_0-0_pcb
  6
CONTINUOUS
 62
    7
 10
168.43855010348184
 20
346.03756089552195
 11
181.77355010348188
 21
346.03756089552195
  0
ARC
  8
_0-0_pcb
  6
CONTINUOUS
 62
    7
 10
165.89855010348185
 20
257.13756089552197
 40
2.539999999999992
 50
270
 51
0
  0
ARC
  8
_0-0_pcb
  6
CONTINUOUS
 62
    7
 10
92.873550103481818
 20
257.13756089552197
 40
2.5400000000000063
 50
180
 51
270
  0
LINE
  8
_0-0_pcb
  6
CONTINUOUS
 62
    7
 10
92.873550103481818
 20
254.59756089552195
 11
165.89855010348185
 21
254.59756089552195
  0
LINE
  8
_0-0_pcb
  6
CONTINUOUS
 62
    7
 10
106.29355010348183
 20
256.41756089552189
 11
106.29355010348183
 21
270.55756089552187
  0
LINE
  8
_0-0_pcb
  6
CONTINUOUS
 62
    7
 10
92.153550103481848
 20
270.55756089552187
 11
92.153550103481848
 21
256.41756089552189
  0
LINE
  8
_0-0_pcb
  6
CONTINUOUS
 62
    7
 10
101.79355010348183
 20
255.61756089552188
 11
101.79355010348183
 21
256.41756089552189
  0
LINE
  8
_0-0_pcb
  6
CONTINUOUS
 62
    7
 10
101.79355010348183
 20
270.55756089552187
 11
101.79355010348183
 21
271.35756089552189
  0
LINE
  8
_0-0_pcb
  6
CONTINUOUS
 62
    7
 10
96.653550103481848
 20
271.35756089552189
 11
96.653550103481848
 21
270.55756089552187
  0
LINE
  8
_0-0_pcb
  6
CONTINUOUS
 62
    7
 10
96.653550103481848
 20
256.41756089552189
 11
96.653550103481848
 21
255.61756089552188
  0
LINE
  8
_0-0_pcb
  6
CONTINUOUS
 62
    7
 10
93.153550103481848
 20
255.61756089552188
 11
96.653550103481848
 21
255.61756089552188
  0
LINE
  8
_0-0_pcb
  6
CONTINUOUS
 62
    7
 10
101.79355010348183
 20
255.61756089552188
 11
105.29355010348183
 21
255.61756089552188
  0
LINE
  8
_0-0_pcb
  6
CONTINUOUS
 62
    7
 10
105.29355010348183
 20
271.35756089552189
 11
101.79355010348183
 21
271.35756089552189
  0
LINE
  8
_0-0_pcb
  6
CONTINUOUS
 62
    7
 10
96.653550103481848
 20
271.35756089552189
 11
93.153550103481848
 21
271.35756089552189
  0
LINE
  8
_0-0_pcb
  6
CONTINUOUS
 62
    7
 10
106.29355010348183
 20
270.55756089552187
 11
105.29355010348183
 21
270.55756089552187
  0
LINE
  8
_0-0_pcb
  6
CONTINUOUS
 62
    7
 10
101.79355010348183
 20
270.55756089552187
 11
96.653550103481848
 21
270.55756089552187
  0
LINE
  8
_0-0_pcb
  6
CONTINUOUS
 62
    7
 10
93.153550103481848
 20
270.55756089552187
 11
92.153550103481848
 21
270.55756089552187
  0
LINE
  8
_0-0_pcb
  6
CONTINUOUS
 62
    7
 10
105.29355010348183
 20
256.41756089552189
 11
106.29355010348183
 21
256.41756089552189
  0
LINE
  8
_0-0_pcb
  6
CONTINUOUS
 62
    7
 10
92.153550103481848
 20
256.41756089552189
 11
93.153550103481848
 21
256.41756089552189
  0
LINE
  8
_0-0_pcb
  6
CONTINUOUS
 62
    7
 10
96.653550103481848
 20
256.41756089552189
 11
101.79355010348183
 21
256.41756089552189
  0
LINE
  8
_0-0_pcb
  6
CONTINUOUS
 62
    7
 10
93.153550103481848
 20
271.35756089552189
 11
93.153550103481848
 21
270.55756089552187
  0
LINE
  8
_0-0_pcb
  6
CONTINUOUS
 62
    7
 10
93.153550103481848
 20
256.41756089552189
 11
93.153550103481848
 21
255.61756089552188
  0
LINE
  8
_0-0_pcb
  6
CONTINUOUS
 62
    7
 10
105.29355010348183
 20
255.61756089552188
 11
105.29355010348183
 21
256.41756089552189
  0
LINE
  8
_0-0_pcb
  6
CONTINUOUS
 62
    7
 10
105.29355010348183
 20
270.55756089552187
 11
105.29355010348183
 21
271.35756089552189
  0
LINE
  8
_0-0_pcb
  6
CONTINUOUS
 62
    7
 10
125.34355010348179
 20
256.41756089552189
 11
125.34355010348179
 21
270.55756089552187
  0
LINE
  8
_0-0_pcb
  6
CONTINUOUS
 62
    7
 10
111.2035501034818
 20
270.55756089552187
 11
111.2035501034818
 21
256.41756089552189
  0
LINE
  8
_0-0_pcb
  6
CONTINUOUS
 62
    7
 10
120.84355010348179
 20
255.61756089552188
 11
120.84355010348179
 21
256.41756089552189
  0
LINE
  8
_0-0_pcb
  6
CONTINUOUS
 62
    7
 10
120.84355010348179
 20
270.55756089552187
 11
120.84355010348179
 21
271.35756089552189
  0
LINE
  8
_0-0_pcb
  6
CONTINUOUS
 62
    7
 10
115.7035501034818
 20
271.35756089552189
 11
115.7035501034818
 21
270.55756089552187
  0
LINE
  8
_0-0_pcb
  6
CONTINUOUS
 62
    7
 10
115.7035501034818
 20
256.41756089552189
 11
115.7035501034818
 21
255.61756089552188
  0
LINE
  8
_0-0_pcb
  6
CONTINUOUS
 62
    7
 10
112.2035501034818
 20
255.61756089552188
 11
115.7035501034818
 21
255.61756089552188
  0
LINE
  8
_0-0_pcb
  6
CONTINUOUS
 62
    7
 10
120.84355010348179
 20
255.61756089552188
 11
124.34355010348179
 21
255.61756089552188
  0
LINE
  8
_0-0_pcb
  6
CONTINUOUS
 62
    7
 10
124.34355010348179
 20
271.35756089552189
 11
120.84355010348179
 21
271.35756089552189
  0
LINE
  8
_0-0_pcb
  6
CONTINUOUS
 62
    7
 10
115.7035501034818
 20
271.35756089552189
 11
112.2035501034818
 21
271.35756089552189
  0
LINE
  8
_0-0_pcb
  6
CONTINUOUS
 62
    7
 10
125.34355010348179
 20
270.55756089552187
 11
124.34355010348179
 21
270.55756089552187
  0
LINE
  8
_0-0_pcb
  6
CONTINUOUS
 62
    7
 10
120.84355010348179
 20
270.55756089552187
 11
115.7035501034818
 21
270.55756089552187
  0
LINE
  8
_0-0_pcb
  6
CONTINUOUS
 62
    7
 10
112.2035501034818
 20
270.55756089552187
 11
111.2035501034818
 21
270.55756089552187
  0
LINE
  8
_0-0_pcb
  6
CONTINUOUS
 62
    7
 10
124.34355010348179
 20
256.41756089552189
 11
125.34355010348179
 21
256.41756089552189
  0
LINE
  8
_0-0_pcb
  6
CONTINUOUS
 62
    7
 10
111.2035501034818
 20
256.41756089552189
 11
112.2035501034818
 21
256.41756089552189
  0
LINE
  8
_0-0_pcb
  6
CONTINUOUS
 62
    7
 10
115.7035501034818
 20
256.41756089552189
 11
120.84355010348179
 21
256.41756089552189
  0
LINE
  8
_0-0_pcb
  6
CONTINUOUS
 62
    7
 10
112.2035501034818
 20
271.35756089552189
 11
112.2035501034818
 21
270.55756089552187
  0
LINE
  8
_0-0_pcb
  6
CONTINUOUS
 62
    7
 10
112.2035501034818
 20
256.41756089552189
 11
112.2035501034818
 21
255.61756089552188
  0
LINE
  8
_0-0_pcb
  6
CONTINUOUS
 62
    7
 10
124.34355010348179
 20
255.61756089552188
 11
124.34355010348179
 21
256.41756089552189
  0
LINE
  8
_0-0_pcb
  6
CONTINUOUS
 62
    7
 10
124.34355010348179
 20
270.55756089552187
 11
124.34355010348179
 21
271.35756089552189
  0
LINE
  8
_0-0_pcb
  6
CONTINUOUS
 62
    7
 10
144.39355010348186
 20
256.41756089552189
 11
144.39355010348186
 21
270.55756089552187
  0
LINE
  8
_0-0_pcb
  6
CONTINUOUS
 62
    7
 10
130.25355010348187
 20
270.55756089552187
 11
130.25355010348187
 21
256.41756089552189
  0
LINE
  8
_0-0_pcb
  6
CONTINUOUS
 62
    7
 10
139.89355010348186
 20
255.61756089552188
 11
139.89355010348186
 21
256.41756089552189
  0
LINE
  8
_0-0_pcb
  6
CONTINUOUS
 62
    7
 10
139.89355010348186
 20
270.55756089552187
 11
139.89355010348186
 21
271.35756089552189
  0
LINE
  8
_0-0_pcb
  6
CONTINUOUS
 62
    7
 10
134.75355010348187
 20
271.35756089552189
 11
134.75355010348187
 21
270.55756089552187
  0
LINE
  8
_0-0_pcb
  6
CONTINUOUS
 62
    7
 10
134.75355010348187
 20
256.41756089552189
 11
134.75355010348187
 21
255.61756089552188
  0
LINE
  8
_0-0_pcb
  6
CONTINUOUS
 62
    7
 10
131.25355010348187
 20
255.61756089552188
 11
134.75355010348187
 21
255.61756089552188
  0
LINE
  8
_0-0_pcb
  6
CONTINUOUS
 62
    7
 10
139.89355010348186
 20
255.61756089552188
 11
143.39355010348186
 21
255.61756089552188
  0
LINE
  8
_0-0_pcb
  6
CONTINUOUS
 62
    7
 10
143.39355010348186
 20
271.35756089552189
 11
139.89355010348186
 21
271.35756089552189
  0
LINE
  8
_0-0_pcb
  6
CONTINUOUS
 62
    7
 10
134.75355010348187
 20
271.35756089552189
 11
131.25355010348187
 21
271.35756089552189
  0
LINE
  8
_0-0_pcb
  6
CONTINUOUS
 62
    7
 10
144.39355010348186
 20
270.55756089552187
 11
143.39355010348186
 21
270.55756089552187
  0
LINE
  8
_0-0_pcb
  6
CONTINUOUS
 62
    7
 10
139.89355010348186
 20
270.55756089552187
 11
134.75355010348187
 21
270.55756089552187
  0
LINE
  8
_0-0_pcb
  6
CONTINUOUS
 62
    7
 10
131.25355010348187
 20
270.55756089552187
 11
130.25355010348187
 21
270.55756089552187
  0
LINE
  8
_0-0_pcb
  6
CONTINUOUS
 62
    7
 10
143.39355010348186
 20
256.41756089552189
 11
144.39355010348186
 21
256.41756089552189
  0
LINE
  8
_0-0_pcb
  6
CONTINUOUS
 62
    7
 10
130.25355010348187
 20
256.41756089552189
 11
131.25355010348187
 21
256.41756089552189
  0
LINE
  8
_0-0_pcb
  6
CONTINUOUS
 62
    7
 10
134.75355010348187
 20
256.41756089552189
 11
139.89355010348186
 21
256.41756089552189
  0
LINE
  8
_0-0_pcb
  6
CONTINUOUS
 62
    7
 10
131.25355010348187
 20
271.35756089552189
 11
131.25355010348187
 21
270.55756089552187
  0
LINE
  8
_0-0_pcb
  6
CONTINUOUS
 62
    7
 10
131.25355010348187
 20
256.41756089552189
 11
131.25355010348187
 21
255.61756089552188
  0
LINE
  8
_0-0_pcb
  6
CONTINUOUS
 62
    7
 10
143.39355010348186
 20
255.61756089552188
 11
143.39355010348186
 21
256.41756089552189
  0
LINE
  8
_0-0_pcb
  6
CONTINUOUS
 62
    7
 10
143.39355010348186
 20
270.55756089552187
 11
143.39355010348186
 21
271.35756089552189
  0
LINE
  8
_0-0_pcb
  6
CONTINUOUS
 62
    7
 10
163.44355010348181
 20
256.41756089552189
 11
163.44355010348181
 21
270.55756089552187
  0
LINE
  8
_0-0_pcb
  6
CONTINUOUS
 62
    7
 10
149.30355010348183
 20
270.55756089552187
 11
149.30355010348183
 21
256.41756089552189
  0
LINE
  8
_0-0_pcb
  6
CONTINUOUS
 62
    7
 10
158.94355010348181
 20
255.61756089552188
 11
158.94355010348181
 21
256.41756089552189
  0
LINE
  8
_0-0_pcb
  6
CONTINUOUS
 62
    7
 10
158.94355010348181
 20
270.55756089552187
 11
158.94355010348181
 21
271.35756089552189
  0
LINE
  8
_0-0_pcb
  6
CONTINUOUS
 62
    7
 10
153.80355010348183
 20
271.35756089552189
 11
153.80355010348183
 21
270.55756089552187
  0
LINE
  8
_0-0_pcb
  6
CONTINUOUS
 62
    7
 10
153.80355010348183
 20
256.41756089552189
 11
153.80355010348183
 21
255.61756089552188
  0
LINE
  8
_0-0_pcb
  6
CONTINUOUS
 62
    7
 10
150.30355010348183
 20
255.61756089552188
 11
153.80355010348183
 21
255.61756089552188
  0
LINE
  8
_0-0_pcb
  6
CONTINUOUS
 62
    7
 10
158.94355010348181
 20
255.61756089552188
 11
162.44355010348181
 21
255.61756089552188
  0
LINE
  8
_0-0_pcb
  6
CONTINUOUS
 62
    7
 10
162.44355010348181
 20
271.35756089552189
 11
158.94355010348181
 21
271.35756089552189
  0
LINE
  8
_0-0_pcb
  6
CONTINUOUS
 62
    7
 10
153.80355010348183
 20
271.35756089552189
 11
150.30355010348183
 21
271.35756089552189
  0
LINE
  8
_0-0_pcb
  6
CONTINUOUS
 62
    7
 10
163.44355010348181
 20
270.55756089552187
 11
162.44355010348181
 21
270.55756089552187
  0
LINE
  8
_0-0_pcb
  6
CONTINUOUS
 62
    7
 10
158.94355010348181
 20
270.55756089552187
 11
153.80355010348183
 21
270.55756089552187
  0
LINE
  8
_0-0_pcb
  6
CONTINUOUS
 62
    7
 10
150.30355010348183
 20
270.55756089552187
 11
149.30355010348183
 21
270.55756089552187
  0
LINE
  8
_0-0_pcb
  6
CONTINUOUS
 62
    7
 10
162.44355010348181
 20
256.41756089552189
 11
163.44355010348181
 21
256.41756089552189
  0
LINE
  8
_0-0_pcb
  6
CONTINUOUS
 62
    7
 10
149.30355010348183
 20
256.41756089552189
 11
150.30355010348183
 21
256.41756089552189
  0
LINE
  8
_0-0_pcb
  6
CONTINUOUS
 62
    7
 10
153.80355010348183
 20
256.41756089552189
 11
158.94355010348181
 21
256.41756089552189
  0
LINE
  8
_0-0_pcb
  6
CONTINUOUS
 62
    7
 10
150.30355010348183
 20
271.35756089552189
 11
150.30355010348183
 21
270.55756089552187
  0
LINE
  8
_0-0_pcb
  6
CONTINUOUS
 62
    7
 10
150.30355010348183
 20
256.41756089552189
 11
150.30355010348183
 21
255.61756089552188
  0
LINE
  8
_0-0_pcb
  6
CONTINUOUS
 62
    7
 10
162.44355010348181
 20
255.61756089552188
 11
162.44355010348181
 21
256.41756089552189
  0
LINE
  8
_0-0_pcb
  6
CONTINUOUS
 62
    7
 10
162.44355010348181
 20
270.55756089552187
 11
162.44355010348181
 21
271.35756089552189
  0
LINE
  8
_0-0_pcb
  6
CONTINUOUS
 62
    7
 10
106.29355010348183
 20
275.4675608955219
 11
106.29355010348183
 21
289.60756089552189
  0
LINE
  8
_0-0_pcb
  6
CONTINUOUS
 62
    7
 10
101.79355010348183
 20
274.66756089552189
 11
101.79355010348183
 21
275.4675608955219
  0
LINE
  8
_0-0_pcb
  6
CONTINUOUS
 62
    7
 10
101.79355010348183
 20
289.60756089552189
 11
101.79355010348183
 21
290.4075608955219
  0
LINE
  8
_0-0_pcb
  6
CONTINUOUS
 62
    7
 10
96.653550103481848
 20
290.4075608955219
 11
96.653550103481848
 21
289.60756089552189
  0
LINE
  8
_0-0_pcb
  6
CONTINUOUS
 62
    7
 10
96.653550103481848
 20
275.4675608955219
 11
96.653550103481848
 21
274.66756089552189
  0
LINE
  8
_0-0_pcb
  6
CONTINUOUS
 62
    7
 10
93.153550103481848
 20
274.66756089552189
 11
96.653550103481848
 21
274.66756089552189
  0
LINE
  8
_0-0_pcb
  6
CONTINUOUS
 62
    7
 10
101.79355010348183
 20
274.66756089552189
 11
105.29355010348183
 21
274.66756089552189
  0
LINE
  8
_0-0_pcb
  6
CONTINUOUS
 62
    7
 10
105.29355010348183
 20
290.4075608955219
 11
101.79355010348183
 21
290.4075608955219
  0
LINE
  8
_0-0_pcb
  6
CONTINUOUS
 62
    7
 10
96.653550103481848
 20
290.4075608955219
 11
93.153550103481848
 21
290.4075608955219
  0
LINE
  8
_0-0_pcb
  6
CONTINUOUS
 62
    7
 10
106.29355010348183
 20
289.60756089552189
 11
105.29355010348183
 21
289.60756089552189
  0
LINE
  8
_0-0_pcb
  6
CONTINUOUS
 62
    7
 10
101.79355010348183
 20
289.60756089552189
 11
96.653550103481848
 21
289.60756089552189
  0
LINE
  8
_0-0_pcb
  6
CONTINUOUS
 62
    7
 10
93.153550103481848
 20
289.60756089552189
 11
92.153550103481848
 21
289.60756089552189
  0
LINE
  8
_0-0_pcb
  6
CONTINUOUS
 62
    7
 10
105.29355010348183
 20
275.4675608955219
 11
106.29355010348183
 21
275.4675608955219
  0
LINE
  8
_0-0_pcb
  6
CONTINUOUS
 62
    7
 10
92.153550103481848
 20
275.4675608955219
 11
93.153550103481848
 21
275.4675608955219
  0
LINE
  8
_0-0_pcb
  6
CONTINUOUS
 62
    7
 10
96.653550103481848
 20
275.4675608955219
 11
101.79355010348183
 21
275.4675608955219
  0
LINE
  8
_0-0_pcb
  6
CONTINUOUS
 62
    7
 10
93.153550103481848
 20
290.4075608955219
 11
93.153550103481848
 21
289.60756089552189
  0
LINE
  8
_0-0_pcb
  6
CONTINUOUS
 62
    7
 10
93.153550103481848
 20
275.4675608955219
 11
93.153550103481848
 21
274.66756089552189
  0
LINE
  8
_0-0_pcb
  6
CONTINUOUS
 62
    7
 10
105.29355010348183
 20
274.66756089552189
 11
105.29355010348183
 21
275.4675608955219
  0
LINE
  8
_0-0_pcb
  6
CONTINUOUS
 62
    7
 10
105.29355010348183
 20
289.60756089552189
 11
105.29355010348183
 21
290.4075608955219
  0
LINE
  8
_0-0_pcb
  6
CONTINUOUS
 62
    7
 10
125.34355010348179
 20
275.4675608955219
 11
125.34355010348179
 21
289.60756089552189
  0
LINE
  8
_0-0_pcb
  6
CONTINUOUS
 62
    7
 10
111.2035501034818
 20
289.60756089552189
 11
111.2035501034818
 21
275.4675608955219
  0
LINE
  8
_0-0_pcb
  6
CONTINUOUS
 62
    7
 10
120.84355010348179
 20
274.66756089552189
 11
120.84355010348179
 21
275.4675608955219
  0
LINE
  8
_0-0_pcb
  6
CONTINUOUS
 62
    7
 10
120.84355010348179
 20
289.60756089552189
 11
120.84355010348179
 21
290.4075608955219
  0
LINE
  8
_0-0_pcb
  6
CONTINUOUS
 62
    7
 10
115.7035501034818
 20
290.4075608955219
 11
115.7035501034818
 21
289.60756089552189
  0
LINE
  8
_0-0_pcb
  6
CONTINUOUS
 62
    7
 10
115.7035501034818
 20
275.4675608955219
 11
115.7035501034818
 21
274.66756089552189
  0
LINE
  8
_0-0_pcb
  6
CONTINUOUS
 62
    7
 10
112.2035501034818
 20
274.66756089552189
 11
115.7035501034818
 21
274.66756089552189
  0
LINE
  8
_0-0_pcb
  6
CONTINUOUS
 62
    7
 10
120.84355010348179
 20
274.66756089552189
 11
124.34355010348179
 21
274.66756089552189
  0
LINE
  8
_0-0_pcb
  6
CONTINUOUS
 62
    7
 10
124.34355010348179
 20
290.4075608955219
 11
120.84355010348179
 21
290.4075608955219
  0
LINE
  8
_0-0_pcb
  6
CONTINUOUS
 62
    7
 10
115.7035501034818
 20
290.4075608955219
 11
112.2035501034818
 21
290.4075608955219
  0
LINE
  8
_0-0_pcb
  6
CONTINUOUS
 62
    7
 10
125.34355010348179
 20
289.60756089552189
 11
124.34355010348179
 21
289.60756089552189
  0
LINE
  8
_0-0_pcb
  6
CONTINUOUS
 62
    7
 10
120.84355010348179
 20
289.60756089552189
 11
115.7035501034818
 21
289.60756089552189
  0
LINE
  8
_0-0_pcb
  6
CONTINUOUS
 62
    7
 10
112.2035501034818
 20
289.60756089552189
 11
111.2035501034818
 21
289.60756089552189
  0
LINE
  8
_0-0_pcb
  6
CONTINUOUS
 62
    7
 10
124.34355010348179
 20
275.4675608955219
 11
125.34355010348179
 21
275.4675608955219
  0
LINE
  8
_0-0_pcb
  6
CONTINUOUS
 62
    7
 10
111.2035501034818
 20
275.4675608955219
 11
112.2035501034818
 21
275.4675608955219
  0
LINE
  8
_0-0_pcb
  6
CONTINUOUS
 62
    7
 10
115.7035501034818
 20
275.4675608955219
 11
120.84355010348179
 21
275.4675608955219
  0
LINE
  8
_0-0_pcb
  6
CONTINUOUS
 62
    7
 10
112.2035501034818
 20
290.4075608955219
 11
112.2035501034818
 21
289.60756089552189
  0
LINE
  8
_0-0_pcb
  6
CONTINUOUS
 62
    7
 10
112.2035501034818
 20
275.4675608955219
 11
112.2035501034818
 21
274.66756089552189
  0
LINE
  8
_0-0_pcb
  6
CONTINUOUS
 62
    7
 10
124.34355010348179
 20
274.66756089552189
 11
124.34355010348179
 21
275.4675608955219
  0
LINE
  8
_0-0_pcb
  6
CONTINUOUS
 62
    7
 10
124.34355010348179
 20
289.60756089552189
 11
124.34355010348179
 21
290.4075608955219
  0
LINE
  8
_0-0_pcb
  6
CONTINUOUS
 62
    7
 10
144.39355010348186
 20
275.4675608955219
 11
144.39355010348186
 21
289.60756089552189
  0
LINE
  8
_0-0_pcb
  6
CONTINUOUS
 62
    7
 10
130.25355010348187
 20
289.60756089552189
 11
130.25355010348187
 21
275.4675608955219
  0
LINE
  8
_0-0_pcb
  6
CONTINUOUS
 62
    7
 10
139.89355010348186
 20
274.66756089552189
 11
139.89355010348186
 21
275.4675608955219
  0
LINE
  8
_0-0_pcb
  6
CONTINUOUS
 62
    7
 10
139.89355010348186
 20
289.60756089552189
 11
139.89355010348186
 21
290.4075608955219
  0
LINE
  8
_0-0_pcb
  6
CONTINUOUS
 62
    7
 10
134.75355010348187
 20
290.4075608955219
 11
134.75355010348187
 21
289.60756089552189
  0
LINE
  8
_0-0_pcb
  6
CONTINUOUS
 62
    7
 10
134.75355010348187
 20
275.4675608955219
 11
134.75355010348187
 21
274.66756089552189
  0
LINE
  8
_0-0_pcb
  6
CONTINUOUS
 62
    7
 10
131.25355010348187
 20
274.66756089552189
 11
134.75355010348187
 21
274.66756089552189
  0
LINE
  8
_0-0_pcb
  6
CONTINUOUS
 62
    7
 10
139.89355010348186
 20
274.66756089552189
 11
143.39355010348186
 21
274.66756089552189
  0
LINE
  8
_0-0_pcb
  6
CONTINUOUS
 62
    7
 10
143.39355010348186
 20
290.4075608955219
 11
139.89355010348186
 21
290.4075608955219
  0
LINE
  8
_0-0_pcb
  6
CONTINUOUS
 62
    7
 10
134.75355010348187
 20
290.4075608955219
 11
131.25355010348187
 21
290.4075608955219
  0
LINE
  8
_0-0_pcb
  6
CONTINUOUS
 62
    7
 10
144.39355010348186
 20
289.60756089552189
 11
143.39355010348186
 21
289.60756089552189
  0
LINE
  8
_0-0_pcb
  6
CONTINUOUS
 62
    7
 10
139.89355010348186
 20
289.60756089552189
 11
134.75355010348187
 21
289.60756089552189
  0
LINE
  8
_0-0_pcb
  6
CONTINUOUS
 62
    7
 10
131.25355010348187
 20
289.60756089552189
 11
130.25355010348187
 21
289.60756089552189
  0
LINE
  8
_0-0_pcb
  6
CONTINUOUS
 62
    7
 10
143.39355010348186
 20
275.4675608955219
 11
144.39355010348186
 21
275.4675608955219
  0
LINE
  8
_0-0_pcb
  6
CONTINUOUS
 62
    7
 10
130.25355010348187
 20
275.4675608955219
 11
131.25355010348187
 21
275.4675608955219
  0
LINE
  8
_0-0_pcb
  6
CONTINUOUS
 62
    7
 10
134.75355010348187
 20
275.4675608955219
 11
139.89355010348186
 21
275.4675608955219
  0
LINE
  8
_0-0_pcb
  6
CONTINUOUS
 62
    7
 10
131.25355010348187
 20
290.4075608955219
 11
131.25355010348187
 21
289.60756089552189
  0
LINE
  8
_0-0_pcb
  6
CONTINUOUS
 62
    7
 10
131.25355010348187
 20
275.4675608955219
 11
131.25355010348187
 21
274.66756089552189
  0
LINE
  8
_0-0_pcb
  6
CONTINUOUS
 62
    7
 10
143.39355010348186
 20
274.66756089552189
 11
143.39355010348186
 21
275.4675608955219
  0
LINE
  8
_0-0_pcb
  6
CONTINUOUS
 62
    7
 10
143.39355010348186
 20
289.60756089552189
 11
143.39355010348186
 21
290.4075608955219
  0
LINE
  8
_0-0_pcb
  6
CONTINUOUS
 62
    7
 10
163.44355010348181
 20
275.4675608955219
 11
163.44355010348181
 21
289.60756089552189
  0
LINE
  8
_0-0_pcb
  6
CONTINUOUS
 62
    7
 10
149.30355010348183
 20
289.60756089552189
 11
149.30355010348183
 21
275.4675608955219
  0
LINE
  8
_0-0_pcb
  6
CONTINUOUS
 62
    7
 10
158.94355010348181
 20
274.66756089552189
 11
158.94355010348181
 21
275.4675608955219
  0
LINE
  8
_0-0_pcb
  6
CONTINUOUS
 62
    7
 10
158.94355010348181
 20
289.60756089552189
 11
158.94355010348181
 21
290.4075608955219
  0
LINE
  8
_0-0_pcb
  6
CONTINUOUS
 62
    7
 10
153.80355010348183
 20
290.4075608955219
 11
153.80355010348183
 21
289.60756089552189
  0
LINE
  8
_0-0_pcb
  6
CONTINUOUS
 62
    7
 10
153.80355010348183
 20
275.4675608955219
 11
153.80355010348183
 21
274.66756089552189
  0
LINE
  8
_0-0_pcb
  6
CONTINUOUS
 62
    7
 10
150.30355010348183
 20
274.66756089552189
 11
153.80355010348183
 21
274.66756089552189
  0
LINE
  8
_0-0_pcb
  6
CONTINUOUS
 62
    7
 10
158.94355010348181
 20
274.66756089552189
 11
162.44355010348181
 21
274.66756089552189
  0
LINE
  8
_0-0_pcb
  6
CONTINUOUS
 62
    7
 10
162.44355010348181
 20
290.4075608955219
 11
158.94355010348181
 21
290.4075608955219
  0
LINE
  8
_0-0_pcb
  6
CONTINUOUS
 62
    7
 10
153.80355010348183
 20
290.4075608955219
 11
150.30355010348183
 21
290.4075608955219
  0
LINE
  8
_0-0_pcb
  6
CONTINUOUS
 62
    7
 10
163.44355010348181
 20
289.60756089552189
 11
162.44355010348181
 21
289.60756089552189
  0
LINE
  8
_0-0_pcb
  6
CONTINUOUS
 62
    7
 10
158.94355010348181
 20
289.60756089552189
 11
153.80355010348183
 21
289.60756089552189
  0
LINE
  8
_0-0_pcb
  6
CONTINUOUS
 62
    7
 10
150.30355010348183
 20
289.60756089552189
 11
149.30355010348183
 21
289.60756089552189
  0
LINE
  8
_0-0_pcb
  6
CONTINUOUS
 62
    7
 10
162.44355010348181
 20
275.4675608955219
 11
163.44355010348181
 21
275.4675608955219
  0
LINE
  8
_0-0_pcb
  6
CONTINUOUS
 62
    7
 10
149.30355010348183
 20
275.4675608955219
 11
150.30355010348183
 21
275.4675608955219
  0
LINE
  8
_0-0_pcb
  6
CONTINUOUS
 62
    7
 10
153.80355010348183
 20
275.4675608955219
 11
158.94355010348181
 21
275.4675608955219
  0
LINE
  8
_0-0_pcb
  6
CONTINUOUS
 62
    7
 10
150.30355010348183
 20
290.4075608955219
 11
150.30355010348183
 21
289.60756089552189
  0
LINE
  8
_0-0_pcb
  6
CONTINUOUS
 62
    7
 10
150.30355010348183
 20
275.4675608955219
 11
150.30355010348183
 21
274.66756089552189
  0
LINE
  8
_0-0_pcb
  6
CONTINUOUS
 62
    7
 10
162.44355010348181
 20
274.66756089552189
 11
162.44355010348181
 21
275.4675608955219
  0
LINE
  8
_0-0_pcb
  6
CONTINUOUS
 62
    7
 10
162.44355010348181
 20
289.60756089552189
 11
162.44355010348181
 21
290.4075608955219
  0
LINE
  8
_0-0_pcb
  6
CONTINUOUS
 62
    7
 10
157.09355010348179
 20
294.51756089552191
 11
157.09355010348179
 21
308.6575608955219
  0
LINE
  8
_0-0_pcb
  6
CONTINUOUS
 62
    7
 10
142.9535501034818
 20
308.6575608955219
 11
142.9535501034818
 21
294.51756089552191
  0
LINE
  8
_0-0_pcb
  6
CONTINUOUS
 62
    7
 10
152.59355010348179
 20
293.7175608955219
 11
152.59355010348179
 21
294.51756089552191
  0
LINE
  8
_0-0_pcb
  6
CONTINUOUS
 62
    7
 10
152.59355010348179
 20
308.6575608955219
 11
152.59355010348179
 21
309.45756089552191
  0
LINE
  8
_0-0_pcb
  6
CONTINUOUS
 62
    7
 10
147.4535501034818
 20
309.45756089552191
 11
147.4535501034818
 21
308.6575608955219
  0
LINE
  8
_0-0_pcb
  6
CONTINUOUS
 62
    7
 10
147.4535501034818
 20
294.51756089552191
 11
147.4535501034818
 21
293.7175608955219
  0
LINE
  8
_0-0_pcb
  6
CONTINUOUS
 62
    7
 10
143.9535501034818
 20
293.7175608955219
 11
147.4535501034818
 21
293.7175608955219
  0
LINE
  8
_0-0_pcb
  6
CONTINUOUS
 62
    7
 10
152.59355010348179
 20
293.7175608955219
 11
156.09355010348179
 21
293.7175608955219
  0
LINE
  8
_0-0_pcb
  6
CONTINUOUS
 62
    7
 10
156.09355010348179
 20
309.45756089552191
 11
152.59355010348179
 21
309.45756089552191
  0
LINE
  8
_0-0_pcb
  6
CONTINUOUS
 62
    7
 10
147.4535501034818
 20
309.45756089552191
 11
143.9535501034818
 21
309.45756089552191
  0
LINE
  8
_0-0_pcb
  6
CONTINUOUS
 62
    7
 10
157.09355010348179
 20
308.6575608955219
 11
156.09355010348179
 21
308.6575608955219
  0
LINE
  8
_0-0_pcb
  6
CONTINUOUS
 62
    7
 10
152.59355010348179
 20
308.6575608955219
 11
147.4535501034818
 21
308.6575608955219
  0
LINE
  8
_0-0_pcb
  6
CONTINUOUS
 62
    7
 10
143.9535501034818
 20
308.6575608955219
 11
142.9535501034818
 21
308.6575608955219
  0
LINE
  8
_0-0_pcb
  6
CONTINUOUS
 62
    7
 10
156.09355010348179
 20
294.51756089552191
 11
157.09355010348179
 21
294.51756089552191
  0
LINE
  8
_0-0_pcb
  6
CONTINUOUS
 62
    7
 10
142.9535501034818
 20
294.51756089552191
 11
143.9535501034818
 21
294.51756089552191
  0
LINE
  8
_0-0_pcb
  6
CONTINUOUS
 62
    7
 10
147.4535501034818
 20
294.51756089552191
 11
152.59355010348179
 21
294.51756089552191
  0
LINE
  8
_0-0_pcb
  6
CONTINUOUS
 62
    7
 10
143.9535501034818
 20
309.45756089552191
 11
143.9535501034818
 21
308.6575608955219
  0
LINE
  8
_0-0_pcb
  6
CONTINUOUS
 62
    7
 10
143.9535501034818
 20
294.51756089552191
 11
143.9535501034818
 21
293.7175608955219
  0
LINE
  8
_0-0_pcb
  6
CONTINUOUS
 62
    7
 10
156.09355010348179
 20
293.7175608955219
 11
156.09355010348179
 21
294.51756089552191
  0
LINE
  8
_0-0_pcb
  6
CONTINUOUS
 62
    7
 10
156.09355010348179
 20
308.6575608955219
 11
156.09355010348179
 21
309.45756089552191
  0
LINE
  8
_0-0_pcb
  6
CONTINUOUS
 62
    7
 10
118.99355010348188
 20
294.51756089552191
 11
118.99355010348188
 21
308.6575608955219
  0
LINE
  8
_0-0_pcb
  6
CONTINUOUS
 62
    7
 10
104.85355010348189
 20
308.6575608955219
 11
104.85355010348189
 21
294.51756089552191
  0
LINE
  8
_0-0_pcb
  6
CONTINUOUS
 62
    7
 10
114.49355010348188
 20
293.7175608955219
 11
114.49355010348188
 21
294.51756089552191
  0
LINE
  8
_0-0_pcb
  6
CONTINUOUS
 62
    7
 10
114.49355010348188
 20
308.6575608955219
 11
114.49355010348188
 21
309.45756089552191
  0
LINE
  8
_0-0_pcb
  6
CONTINUOUS
 62
    7
 10
109.35355010348189
 20
309.45756089552191
 11
109.35355010348189
 21
308.6575608955219
  0
LINE
  8
_0-0_pcb
  6
CONTINUOUS
 62
    7
 10
109.35355010348189
 20
294.51756089552191
 11
109.35355010348189
 21
293.7175608955219
  0
LINE
  8
_0-0_pcb
  6
CONTINUOUS
 62
    7
 10
105.85355010348189
 20
293.7175608955219
 11
109.35355010348189
 21
293.7175608955219
  0
LINE
  8
_0-0_pcb
  6
CONTINUOUS
 62
    7
 10
114.49355010348188
 20
293.7175608955219
 11
117.99355010348188
 21
293.7175608955219
  0
LINE
  8
_0-0_pcb
  6
CONTINUOUS
 62
    7
 10
117.99355010348188
 20
309.45756089552191
 11
114.49355010348188
 21
309.45756089552191
  0
LINE
  8
_0-0_pcb
  6
CONTINUOUS
 62
    7
 10
109.35355010348189
 20
309.45756089552191
 11
105.85355010348189
 21
309.45756089552191
  0
LINE
  8
_0-0_pcb
  6
CONTINUOUS
 62
    7
 10
118.99355010348188
 20
308.6575608955219
 11
117.99355010348188
 21
308.6575608955219
  0
LINE
  8
_0-0_pcb
  6
CONTINUOUS
 62
    7
 10
114.49355010348188
 20
308.6575608955219
 11
109.35355010348189
 21
308.6575608955219
  0
LINE
  8
_0-0_pcb
  6
CONTINUOUS
 62
    7
 10
105.85355010348189
 20
308.6575608955219
 11
104.85355010348189
 21
308.6575608955219
  0
LINE
  8
_0-0_pcb
  6
CONTINUOUS
 62
    7
 10
117.99355010348188
 20
294.51756089552191
 11
118.99355010348188
 21
294.51756089552191
  0
LINE
  8
_0-0_pcb
  6
CONTINUOUS
 62
    7
 10
104.85355010348189
 20
294.51756089552191
 11
105.85355010348189
 21
294.51756089552191
  0
LINE
  8
_0-0_pcb
  6
CONTINUOUS
 62
    7
 10
109.35355010348189
 20
294.51756089552191
 11
114.49355010348188
 21
294.51756089552191
  0
LINE
  8
_0-0_pcb
  6
CONTINUOUS
 62
    7
 10
105.85355010348189
 20
309.45756089552191
 11
105.85355010348189
 21
308.6575608955219
  0
LINE
  8
_0-0_pcb
  6
CONTINUOUS
 62
    7
 10
105.85355010348189
 20
294.51756089552191
 11
105.85355010348189
 21
293.7175608955219
  0
LINE
  8
_0-0_pcb
  6
CONTINUOUS
 62
    7
 10
117.99355010348188
 20
293.7175608955219
 11
117.99355010348188
 21
294.51756089552191
  0
LINE
  8
_0-0_pcb
  6
CONTINUOUS
 62
    7
 10
117.99355010348188
 20
308.6575608955219
 11
117.99355010348188
 21
309.45756089552191
  0
LINE
  8
_0-0_pcb
  6
CONTINUOUS
 62
    7
 10
99.943550103481812
 20
294.51756089552191
 11
99.943550103481812
 21
308.6575608955219
  0
LINE
  8
_0-0_pcb
  6
CONTINUOUS
 62
    7
 10
85.803550103481825
 20
308.6575608955219
 11
85.803550103481825
 21
294.51756089552191
  0
LINE
  8
_0-0_pcb
  6
CONTINUOUS
 62
    7
 10
95.443550103481812
 20
293.7175608955219
 11
95.443550103481812
 21
294.51756089552191
  0
LINE
  8
_0-0_pcb
  6
CONTINUOUS
 62
    7
 10
95.443550103481812
 20
308.6575608955219
 11
95.443550103481812
 21
309.45756089552191
  0
LINE
  8
_0-0_pcb
  6
CONTINUOUS
 62
    7
 10
90.303550103481825
 20
309.45756089552191
 11
90.303550103481825
 21
308.6575608955219
  0
LINE
  8
_0-0_pcb
  6
CONTINUOUS
 62
    7
 10
90.303550103481825
 20
294.51756089552191
 11
90.303550103481825
 21
293.7175608955219
  0
LINE
  8
_0-0_pcb
  6
CONTINUOUS
 62
    7
 10
86.803550103481825
 20
293.7175608955219
 11
90.303550103481825
 21
293.7175608955219
  0
LINE
  8
_0-0_pcb
  6
CONTINUOUS
 62
    7
 10
95.443550103481812
 20
293.7175608955219
 11
98.943550103481812
 21
293.7175608955219
  0
LINE
  8
_0-0_pcb
  6
CONTINUOUS
 62
    7
 10
98.943550103481812
 20
309.45756089552191
 11
95.443550103481812
 21
309.45756089552191
  0
LINE
  8
_0-0_pcb
  6
CONTINUOUS
 62
    7
 10
90.303550103481825
 20
309.45756089552191
 11
86.803550103481825
 21
309.45756089552191
  0
LINE
  8
_0-0_pcb
  6
CONTINUOUS
 62
    7
 10
99.943550103481812
 20
308.6575608955219
 11
98.943550103481812
 21
308.6575608955219
  0
LINE
  8
_0-0_pcb
  6
CONTINUOUS
 62
    7
 10
95.443550103481812
 20
308.6575608955219
 11
90.303550103481825
 21
308.6575608955219
  0
LINE
  8
_0-0_pcb
  6
CONTINUOUS
 62
    7
 10
86.803550103481825
 20
308.6575608955219
 11
85.803550103481825
 21
308.6575608955219
  0
LINE
  8
_0-0_pcb
  6
CONTINUOUS
 62
    7
 10
98.943550103481812
 20
294.51756089552191
 11
99.943550103481812
 21
294.51756089552191
  0
LINE
  8
_0-0_pcb
  6
CONTINUOUS
 62
    7
 10
85.803550103481825
 20
294.51756089552191
 11
86.803550103481825
 21
294.51756089552191
  0
LINE
  8
_0-0_pcb
  6
CONTINUOUS
 62
    7
 10
90.303550103481825
 20
294.51756089552191
 11
95.443550103481812
 21
294.51756089552191
  0
LINE
  8
_0-0_pcb
  6
CONTINUOUS
 62
    7
 10
86.803550103481825
 20
309.45756089552191
 11
86.803550103481825
 21
308.6575608955219
  0
LINE
  8
_0-0_pcb
  6
CONTINUOUS
 62
    7
 10
86.803550103481825
 20
294.51756089552191
 11
86.803550103481825
 21
293.7175608955219
  0
LINE
  8
_0-0_pcb
  6
CONTINUOUS
 62
    7
 10
98.943550103481812
 20
293.7175608955219
 11
98.943550103481812
 21
294.51756089552191
  0
LINE
  8
_0-0_pcb
  6
CONTINUOUS
 62
    7
 10
98.943550103481812
 20
308.6575608955219
 11
98.943550103481812
 21
309.45756089552191
  0
LINE
  8
_0-0_pcb
  6
CONTINUOUS
 62
    7
 10
135.50355010348187
 20
313.56756089552192
 11
135.50355010348187
 21
327.70756089552191
  0
LINE
  8
_0-0_pcb
  6
CONTINUOUS
 62
    7
 10
121.36355010348188
 20
327.70756089552191
 11
121.36355010348188
 21
313.56756089552192
  0
LINE
  8
_0-0_pcb
  6
CONTINUOUS
 62
    7
 10
131.00355010348187
 20
312.76756089552191
 11
131.00355010348187
 21
313.56756089552192
  0
LINE
  8
_0-0_pcb
  6
CONTINUOUS
 62
    7
 10
131.00355010348187
 20
327.70756089552191
 11
131.00355010348187
 21
328.50756089552192
  0
LINE
  8
_0-0_pcb
  6
CONTINUOUS
 62
    7
 10
125.86355010348188
 20
328.50756089552192
 11
125.86355010348188
 21
327.70756089552191
  0
LINE
  8
_0-0_pcb
  6
CONTINUOUS
 62
    7
 10
125.86355010348188
 20
313.56756089552192
 11
125.86355010348188
 21
312.76756089552191
  0
LINE
  8
_0-0_pcb
  6
CONTINUOUS
 62
    7
 10
122.36355010348188
 20
312.76756089552191
 11
125.86355010348188
 21
312.76756089552191
  0
LINE
  8
_0-0_pcb
  6
CONTINUOUS
 62
    7
 10
131.00355010348187
 20
312.76756089552191
 11
134.50355010348187
 21
312.76756089552191
  0
LINE
  8
_0-0_pcb
  6
CONTINUOUS
 62
    7
 10
134.50355010348187
 20
328.50756089552192
 11
131.00355010348187
 21
328.50756089552192
  0
LINE
  8
_0-0_pcb
  6
CONTINUOUS
 62
    7
 10
125.86355010348188
 20
328.50756089552192
 11
122.36355010348188
 21
328.50756089552192
  0
LINE
  8
_0-0_pcb
  6
CONTINUOUS
 62
    7
 10
135.50355010348187
 20
327.70756089552191
 11
134.50355010348187
 21
327.70756089552191
  0
LINE
  8
_0-0_pcb
  6
CONTINUOUS
 62
    7
 10
131.00355010348187
 20
327.70756089552191
 11
125.86355010348188
 21
327.70756089552191
  0
LINE
  8
_0-0_pcb
  6
CONTINUOUS
 62
    7
 10
122.36355010348188
 20
327.70756089552191
 11
121.36355010348188
 21
327.70756089552191
  0
LINE
  8
_0-0_pcb
  6
CONTINUOUS
 62
    7
 10
134.50355010348187
 20
313.56756089552192
 11
135.50355010348187
 21
313.56756089552192
  0
LINE
  8
_0-0_pcb
  6
CONTINUOUS
 62
    7
 10
121.36355010348188
 20
313.56756089552192
 11
122.36355010348188
 21
313.56756089552192
  0
LINE
  8
_0-0_pcb
  6
CONTINUOUS
 62
    7
 10
125.86355010348188
 20
313.56756089552192
 11
131.00355010348187
 21
313.56756089552192
  0
LINE
  8
_0-0_pcb
  6
CONTINUOUS
 62
    7
 10
122.36355010348188
 20
328.50756089552192
 11
122.36355010348188
 21
327.70756089552191
  0
LINE
  8
_0-0_pcb
  6
CONTINUOUS
 62
    7
 10
122.36355010348188
 20
313.56756089552192
 11
122.36355010348188
 21
312.76756089552191
  0
LINE
  8
_0-0_pcb
  6
CONTINUOUS
 62
    7
 10
134.50355010348187
 20
312.76756089552191
 11
134.50355010348187
 21
313.56756089552192
  0
LINE
  8
_0-0_pcb
  6
CONTINUOUS
 62
    7
 10
134.50355010348187
 20
327.70756089552191
 11
134.50355010348187
 21
328.50756089552192
  0
LINE
  8
_0-0_pcb
  6
CONTINUOUS
 62
    7
 10
138.04355010348183
 20
294.51756089552191
 11
138.04355010348183
 21
308.6575608955219
  0
LINE
  8
_0-0_pcb
  6
CONTINUOUS
 62
    7
 10
123.90355010348185
 20
308.6575608955219
 11
123.90355010348185
 21
294.51756089552191
  0
LINE
  8
_0-0_pcb
  6
CONTINUOUS
 62
    7
 10
133.54355010348183
 20
293.7175608955219
 11
133.54355010348183
 21
294.51756089552191
  0
LINE
  8
_0-0_pcb
  6
CONTINUOUS
 62
    7
 10
133.54355010348183
 20
308.6575608955219
 11
133.54355010348183
 21
309.45756089552191
  0
LINE
  8
_0-0_pcb
  6
CONTINUOUS
 62
    7
 10
128.40355010348185
 20
309.45756089552191
 11
128.40355010348185
 21
308.6575608955219
  0
LINE
  8
_0-0_pcb
  6
CONTINUOUS
 62
    7
 10
128.40355010348185
 20
294.51756089552191
 11
128.40355010348185
 21
293.7175608955219
  0
LINE
  8
_0-0_pcb
  6
CONTINUOUS
 62
    7
 10
124.90355010348185
 20
293.7175608955219
 11
128.40355010348185
 21
293.7175608955219
  0
LINE
  8
_0-0_pcb
  6
CONTINUOUS
 62
    7
 10
133.54355010348183
 20
293.7175608955219
 11
137.04355010348183
 21
293.7175608955219
  0
LINE
  8
_0-0_pcb
  6
CONTINUOUS
 62
    7
 10
137.04355010348183
 20
309.45756089552191
 11
133.54355010348183
 21
309.45756089552191
  0
LINE
  8
_0-0_pcb
  6
CONTINUOUS
 62
    7
 10
128.40355010348185
 20
309.45756089552191
 11
124.90355010348185
 21
309.45756089552191
  0
LINE
  8
_0-0_pcb
  6
CONTINUOUS
 62
    7
 10
138.04355010348183
 20
308.6575608955219
 11
137.04355010348183
 21
308.6575608955219
  0
LINE
  8
_0-0_pcb
  6
CONTINUOUS
 62
    7
 10
133.54355010348183
 20
308.6575608955219
 11
128.40355010348185
 21
308.6575608955219
  0
LINE
  8
_0-0_pcb
  6
CONTINUOUS
 62
    7
 10
124.90355010348185
 20
308.6575608955219
 11
123.90355010348185
 21
308.6575608955219
  0
LINE
  8
_0-0_pcb
  6
CONTINUOUS
 62
    7
 10
137.04355010348183
 20
294.51756089552191
 11
138.04355010348183
 21
294.51756089552191
  0
LINE
  8
_0-0_pcb
  6
CONTINUOUS
 62
    7
 10
123.90355010348185
 20
294.51756089552191
 11
124.90355010348185
 21
294.51756089552191
  0
LINE
  8
_0-0_pcb
  6
CONTINUOUS
 62
    7
 10
128.40355010348185
 20
294.51756089552191
 11
133.54355010348183
 21
294.51756089552191
  0
LINE
  8
_0-0_pcb
  6
CONTINUOUS
 62
    7
 10
124.90355010348185
 20
309.45756089552191
 11
124.90355010348185
 21
308.6575608955219
  0
LINE
  8
_0-0_pcb
  6
CONTINUOUS
 62
    7
 10
124.90355010348185
 20
294.51756089552191
 11
124.90355010348185
 21
293.7175608955219
  0
LINE
  8
_0-0_pcb
  6
CONTINUOUS
 62
    7
 10
137.04355010348183
 20
293.7175608955219
 11
137.04355010348183
 21
294.51756089552191
  0
LINE
  8
_0-0_pcb
  6
CONTINUOUS
 62
    7
 10
137.04355010348183
 20
308.6575608955219
 11
137.04355010348183
 21
309.45756089552191
  0
LINE
  8
_0-0_pcb
  6
CONTINUOUS
 62
    7
 10
116.4535501034818
 20
313.56756089552192
 11
116.4535501034818
 21
327.70756089552191
  0
LINE
  8
_0-0_pcb
  6
CONTINUOUS
 62
    7
 10
102.31355010348182
 20
327.70756089552191
 11
102.31355010348182
 21
313.56756089552192
  0
LINE
  8
_0-0_pcb
  6
CONTINUOUS
 62
    7
 10
111.9535501034818
 20
312.76756089552191
 11
111.9535501034818
 21
313.56756089552192
  0
LINE
  8
_0-0_pcb
  6
CONTINUOUS
 62
    7
 10
111.9535501034818
 20
327.70756089552191
 11
111.9535501034818
 21
328.50756089552192
  0
LINE
  8
_0-0_pcb
  6
CONTINUOUS
 62
    7
 10
106.81355010348182
 20
328.50756089552192
 11
106.81355010348182
 21
327.70756089552191
  0
LINE
  8
_0-0_pcb
  6
CONTINUOUS
 62
    7
 10
106.81355010348182
 20
313.56756089552192
 11
106.81355010348182
 21
312.76756089552191
  0
LINE
  8
_0-0_pcb
  6
CONTINUOUS
 62
    7
 10
103.31355010348182
 20
312.76756089552191
 11
106.81355010348182
 21
312.76756089552191
  0
LINE
  8
_0-0_pcb
  6
CONTINUOUS
 62
    7
 10
111.9535501034818
 20
312.76756089552191
 11
115.4535501034818
 21
312.76756089552191
  0
LINE
  8
_0-0_pcb
  6
CONTINUOUS
 62
    7
 10
115.4535501034818
 20
328.50756089552192
 11
111.9535501034818
 21
328.50756089552192
  0
LINE
  8
_0-0_pcb
  6
CONTINUOUS
 62
    7
 10
106.81355010348182
 20
328.50756089552192
 11
103.31355010348182
 21
328.50756089552192
  0
LINE
  8
_0-0_pcb
  6
CONTINUOUS
 62
    7
 10
116.4535501034818
 20
327.70756089552191
 11
115.4535501034818
 21
327.70756089552191
  0
LINE
  8
_0-0_pcb
  6
CONTINUOUS
 62
    7
 10
111.9535501034818
 20
327.70756089552191
 11
106.81355010348182
 21
327.70756089552191
  0
LINE
  8
_0-0_pcb
  6
CONTINUOUS
 62
    7
 10
103.31355010348182
 20
327.70756089552191
 11
102.31355010348182
 21
327.70756089552191
  0
LINE
  8
_0-0_pcb
  6
CONTINUOUS
 62
    7
 10
115.4535501034818
 20
313.56756089552192
 11
116.4535501034818
 21
313.56756089552192
  0
LINE
  8
_0-0_pcb
  6
CONTINUOUS
 62
    7
 10
102.31355010348182
 20
313.56756089552192
 11
103.31355010348182
 21
313.56756089552192
  0
LINE
  8
_0-0_pcb
  6
CONTINUOUS
 62
    7
 10
106.81355010348182
 20
313.56756089552192
 11
111.9535501034818
 21
313.56756089552192
  0
LINE
  8
_0-0_pcb
  6
CONTINUOUS
 62
    7
 10
103.31355010348182
 20
328.50756089552192
 11
103.31355010348182
 21
327.70756089552191
  0
LINE
  8
_0-0_pcb
  6
CONTINUOUS
 62
    7
 10
103.31355010348182
 20
313.56756089552192
 11
103.31355010348182
 21
312.76756089552191
  0
LINE
  8
_0-0_pcb
  6
CONTINUOUS
 62
    7
 10
115.4535501034818
 20
312.76756089552191
 11
115.4535501034818
 21
313.56756089552192
  0
LINE
  8
_0-0_pcb
  6
CONTINUOUS
 62
    7
 10
115.4535501034818
 20
327.70756089552191
 11
115.4535501034818
 21
328.50756089552192
  0
LINE
  8
_0-0_pcb
  6
CONTINUOUS
 62
    7
 10
97.403550103481848
 20
313.56756089552192
 11
97.403550103481848
 21
327.70756089552191
  0
LINE
  8
_0-0_pcb
  6
CONTINUOUS
 62
    7
 10
83.263550103481862
 20
327.70756089552191
 11
83.263550103481862
 21
313.56756089552192
  0
LINE
  8
_0-0_pcb
  6
CONTINUOUS
 62
    7
 10
92.903550103481848
 20
312.76756089552191
 11
92.903550103481848
 21
313.56756089552192
  0
LINE
  8
_0-0_pcb
  6
CONTINUOUS
 62
    7
 10
92.903550103481848
 20
327.70756089552191
 11
92.903550103481848
 21
328.50756089552192
  0
LINE
  8
_0-0_pcb
  6
CONTINUOUS
 62
    7
 10
87.763550103481862
 20
328.50756089552192
 11
87.763550103481862
 21
327.70756089552191
  0
LINE
  8
_0-0_pcb
  6
CONTINUOUS
 62
    7
 10
87.763550103481862
 20
313.56756089552192
 11
87.763550103481862
 21
312.76756089552191
  0
LINE
  8
_0-0_pcb
  6
CONTINUOUS
 62
    7
 10
84.263550103481862
 20
312.76756089552191
 11
87.763550103481862
 21
312.76756089552191
  0
LINE
  8
_0-0_pcb
  6
CONTINUOUS
 62
    7
 10
92.903550103481848
 20
312.76756089552191
 11
96.403550103481848
 21
312.76756089552191
  0
LINE
  8
_0-0_pcb
  6
CONTINUOUS
 62
    7
 10
96.403550103481848
 20
328.50756089552192
 11
92.903550103481848
 21
328.50756089552192
  0
LINE
  8
_0-0_pcb
  6
CONTINUOUS
 62
    7
 10
87.763550103481862
 20
328.50756089552192
 11
84.263550103481862
 21
328.50756089552192
  0
LINE
  8
_0-0_pcb
  6
CONTINUOUS
 62
    7
 10
97.403550103481848
 20
327.70756089552191
 11
96.403550103481848
 21
327.70756089552191
  0
LINE
  8
_0-0_pcb
  6
CONTINUOUS
 62
    7
 10
92.903550103481848
 20
327.70756089552191
 11
87.763550103481862
 21
327.70756089552191
  0
LINE
  8
_0-0_pcb
  6
CONTINUOUS
 62
    7
 10
84.263550103481862
 20
327.70756089552191
 11
83.263550103481862
 21
327.70756089552191
  0
LINE
  8
_0-0_pcb
  6
CONTINUOUS
 62
    7
 10
96.403550103481848
 20
313.56756089552192
 11
97.403550103481848
 21
313.56756089552192
  0
LINE
  8
_0-0_pcb
  6
CONTINUOUS
 62
    7
 10
83.263550103481862
 20
313.56756089552192
 11
84.263550103481862
 21
313.56756089552192
  0
LINE
  8
_0-0_pcb
  6
CONTINUOUS
 62
    7
 10
87.763550103481862
 20
313.56756089552192
 11
92.903550103481848
 21
313.56756089552192
  0
LINE
  8
_0-0_pcb
  6
CONTINUOUS
 62
    7
 10
84.263550103481862
 20
328.50756089552192
 11
84.263550103481862
 21
327.70756089552191
  0
LINE
  8
_0-0_pcb
  6
CONTINUOUS
 62
    7
 10
84.263550103481862
 20
313.56756089552192
 11
84.263550103481862
 21
312.76756089552191
  0
LINE
  8
_0-0_pcb
  6
CONTINUOUS
 62
    7
 10
96.403550103481848
 20
312.76756089552191
 11
96.403550103481848
 21
313.56756089552192
  0
LINE
  8
_0-0_pcb
  6
CONTINUOUS
 62
    7
 10
96.403550103481848
 20
327.70756089552191
 11
96.403550103481848
 21
328.50756089552192
  0
LINE
  8
_0-0_pcb
  6
CONTINUOUS
 62
    7
 10
154.55355010348183
 20
313.56756089552192
 11
154.55355010348183
 21
327.70756089552191
  0
LINE
  8
_0-0_pcb
  6
CONTINUOUS
 62
    7
 10
140.41355010348184
 20
327.70756089552191
 11
140.41355010348184
 21
313.56756089552192
  0
LINE
  8
_0-0_pcb
  6
CONTINUOUS
 62
    7
 10
150.05355010348183
 20
312.76756089552191
 11
150.05355010348183
 21
313.56756089552192
  0
LINE
  8
_0-0_pcb
  6
CONTINUOUS
 62
    7
 10
150.05355010348183
 20
327.70756089552191
 11
150.05355010348183
 21
328.50756089552192
  0
LINE
  8
_0-0_pcb
  6
CONTINUOUS
 62
    7
 10
144.91355010348184
 20
328.50756089552192
 11
144.91355010348184
 21
327.70756089552191
  0
LINE
  8
_0-0_pcb
  6
CONTINUOUS
 62
    7
 10
144.91355010348184
 20
313.56756089552192
 11
144.91355010348184
 21
312.76756089552191
  0
LINE
  8
_0-0_pcb
  6
CONTINUOUS
 62
    7
 10
141.41355010348184
 20
312.76756089552191
 11
144.91355010348184
 21
312.76756089552191
  0
LINE
  8
_0-0_pcb
  6
CONTINUOUS
 62
    7
 10
150.05355010348183
 20
312.76756089552191
 11
153.55355010348183
 21
312.76756089552191
  0
LINE
  8
_0-0_pcb
  6
CONTINUOUS
 62
    7
 10
153.55355010348183
 20
328.50756089552192
 11
150.05355010348183
 21
328.50756089552192
  0
LINE
  8
_0-0_pcb
  6
CONTINUOUS
 62
    7
 10
144.91355010348184
 20
328.50756089552192
 11
141.41355010348184
 21
328.50756089552192
  0
LINE
  8
_0-0_pcb
  6
CONTINUOUS
 62
    7
 10
154.55355010348183
 20
327.70756089552191
 11
153.55355010348183
 21
327.70756089552191
  0
LINE
  8
_0-0_pcb
  6
CONTINUOUS
 62
    7
 10
150.05355010348183
 20
327.70756089552191
 11
144.91355010348184
 21
327.70756089552191
  0
LINE
  8
_0-0_pcb
  6
CONTINUOUS
 62
    7
 10
141.41355010348184
 20
327.70756089552191
 11
140.41355010348184
 21
327.70756089552191
  0
LINE
  8
_0-0_pcb
  6
CONTINUOUS
 62
    7
 10
153.55355010348183
 20
313.56756089552192
 11
154.55355010348183
 21
313.56756089552192
  0
LINE
  8
_0-0_pcb
  6
CONTINUOUS
 62
    7
 10
140.41355010348184
 20
313.56756089552192
 11
141.41355010348184
 21
313.56756089552192
  0
LINE
  8
_0-0_pcb
  6
CONTINUOUS
 62
    7
 10
144.91355010348184
 20
313.56756089552192
 11
150.05355010348183
 21
313.56756089552192
  0
LINE
  8
_0-0_pcb
  6
CONTINUOUS
 62
    7
 10
141.41355010348184
 20
328.50756089552192
 11
141.41355010348184
 21
327.70756089552191
  0
LINE
  8
_0-0_pcb
  6
CONTINUOUS
 62
    7
 10
141.41355010348184
 20
313.56756089552192
 11
141.41355010348184
 21
312.76756089552191
  0
LINE
  8
_0-0_pcb
  6
CONTINUOUS
 62
    7
 10
153.55355010348183
 20
312.76756089552191
 11
153.55355010348183
 21
313.56756089552192
  0
LINE
  8
_0-0_pcb
  6
CONTINUOUS
 62
    7
 10
153.55355010348183
 20
327.70756089552191
 11
153.55355010348183
 21
328.50756089552192
  0
LINE
  8
_0-0_pcb
  6
CONTINUOUS
 62
    7
 10
158.36355010348177
 20
332.61756089552193
 11
158.36355010348177
 21
346.75756089552192
  0
LINE
  8
_0-0_pcb
  6
CONTINUOUS
 62
    7
 10
144.22355010348178
 20
346.75756089552192
 11
144.22355010348178
 21
332.61756089552193
  0
LINE
  8
_0-0_pcb
  6
CONTINUOUS
 62
    7
 10
153.86355010348177
 20
331.81756089552192
 11
153.86355010348177
 21
332.61756089552193
  0
LINE
  8
_0-0_pcb
  6
CONTINUOUS
 62
    7
 10
153.86355010348177
 20
346.75756089552192
 11
153.86355010348177
 21
347.55756089552193
  0
LINE
  8
_0-0_pcb
  6
CONTINUOUS
 62
    7
 10
148.72355010348178
 20
347.55756089552193
 11
148.72355010348178
 21
346.75756089552192
  0
LINE
  8
_0-0_pcb
  6
CONTINUOUS
 62
    7
 10
148.72355010348178
 20
332.61756089552193
 11
148.72355010348178
 21
331.81756089552192
  0
LINE
  8
_0-0_pcb
  6
CONTINUOUS
 62
    7
 10
145.22355010348178
 20
331.81756089552192
 11
148.72355010348178
 21
331.81756089552192
  0
LINE
  8
_0-0_pcb
  6
CONTINUOUS
 62
    7
 10
153.86355010348177
 20
331.81756089552192
 11
157.36355010348177
 21
331.81756089552192
  0
LINE
  8
_0-0_pcb
  6
CONTINUOUS
 62
    7
 10
148.72355010348178
 20
347.55756089552193
 11
145.22355010348178
 21
347.55756089552193
  0
LINE
  8
_0-0_pcb
  6
CONTINUOUS
 62
    7
 10
158.36355010348177
 20
346.75756089552192
 11
157.36355010348177
 21
346.75756089552192
  0
LINE
  8
_0-0_pcb
  6
CONTINUOUS
 62
    7
 10
153.86355010348177
 20
346.75756089552192
 11
148.72355010348178
 21
346.75756089552192
  0
LINE
  8
_0-0_pcb
  6
CONTINUOUS
 62
    7
 10
145.22355010348178
 20
346.75756089552192
 11
144.22355010348178
 21
346.75756089552192
  0
LINE
  8
_0-0_pcb
  6
CONTINUOUS
 62
    7
 10
157.36355010348177
 20
332.61756089552193
 11
158.36355010348177
 21
332.61756089552193
  0
LINE
  8
_0-0_pcb
  6
CONTINUOUS
 62
    7
 10
144.22355010348178
 20
332.61756089552193
 11
145.22355010348178
 21
332.61756089552193
  0
LINE
  8
_0-0_pcb
  6
CONTINUOUS
 62
    7
 10
148.72355010348178
 20
332.61756089552193
 11
153.86355010348177
 21
332.61756089552193
  0
LINE
  8
_0-0_pcb
  6
CONTINUOUS
 62
    7
 10
145.22355010348178
 20
347.55756089552193
 11
145.22355010348178
 21
346.75756089552192
  0
LINE
  8
_0-0_pcb
  6
CONTINUOUS
 62
    7
 10
145.22355010348178
 20
332.61756089552193
 11
145.22355010348178
 21
331.81756089552192
  0
LINE
  8
_0-0_pcb
  6
CONTINUOUS
 62
    7
 10
157.36355010348177
 20
331.81756089552192
 11
157.36355010348177
 21
332.61756089552193
  0
LINE
  8
_0-0_pcb
  6
CONTINUOUS
 62
    7
 10
157.36355010348177
 20
346.75756089552192
 11
157.36355010348177
 21
347.55756089552193
  0
LINE
  8
_0-0_pcb
  6
CONTINUOUS
 62
    7
 10
139.31355010348182
 20
332.61756089552193
 11
139.31355010348182
 21
346.75756089552192
  0
LINE
  8
_0-0_pcb
  6
CONTINUOUS
 62
    7
 10
125.17355010348183
 20
346.75756089552192
 11
125.17355010348183
 21
332.61756089552193
  0
LINE
  8
_0-0_pcb
  6
CONTINUOUS
 62
    7
 10
134.81355010348182
 20
331.81756089552192
 11
134.81355010348182
 21
332.61756089552193
  0
LINE
  8
_0-0_pcb
  6
CONTINUOUS
 62
    7
 10
134.81355010348182
 20
346.75756089552192
 11
134.81355010348182
 21
347.55756089552193
  0
LINE
  8
_0-0_pcb
  6
CONTINUOUS
 62
    7
 10
129.67355010348183
 20
347.55756089552193
 11
129.67355010348183
 21
346.75756089552192
  0
LINE
  8
_0-0_pcb
  6
CONTINUOUS
 62
    7
 10
129.67355010348183
 20
332.61756089552193
 11
129.67355010348183
 21
331.81756089552192
  0
LINE
  8
_0-0_pcb
  6
CONTINUOUS
 62
    7
 10
126.17355010348183
 20
331.81756089552192
 11
129.67355010348183
 21
331.81756089552192
  0
LINE
  8
_0-0_pcb
  6
CONTINUOUS
 62
    7
 10
134.81355010348182
 20
331.81756089552192
 11
138.31355010348182
 21
331.81756089552192
  0
LINE
  8
_0-0_pcb
  6
CONTINUOUS
 62
    7
 10
138.31355010348182
 20
347.55756089552193
 11
134.81355010348182
 21
347.55756089552193
  0
LINE
  8
_0-0_pcb
  6
CONTINUOUS
 62
    7
 10
129.67355010348183
 20
347.55756089552193
 11
126.17355010348183
 21
347.55756089552193
  0
LINE
  8
_0-0_pcb
  6
CONTINUOUS
 62
    7
 10
139.31355010348182
 20
346.75756089552192
 11
138.31355010348182
 21
346.75756089552192
  0
LINE
  8
_0-0_pcb
  6
CONTINUOUS
 62
    7
 10
134.81355010348182
 20
346.75756089552192
 11
129.67355010348183
 21
346.75756089552192
  0
LINE
  8
_0-0_pcb
  6
CONTINUOUS
 62
    7
 10
126.17355010348183
 20
346.75756089552192
 11
125.17355010348183
 21
346.75756089552192
  0
LINE
  8
_0-0_pcb
  6
CONTINUOUS
 62
    7
 10
138.31355010348182
 20
332.61756089552193
 11
139.31355010348182
 21
332.61756089552193
  0
LINE
  8
_0-0_pcb
  6
CONTINUOUS
 62
    7
 10
125.17355010348183
 20
332.61756089552193
 11
126.17355010348183
 21
332.61756089552193
  0
LINE
  8
_0-0_pcb
  6
CONTINUOUS
 62
    7
 10
129.67355010348183
 20
332.61756089552193
 11
134.81355010348182
 21
332.61756089552193
  0
LINE
  8
_0-0_pcb
  6
CONTINUOUS
 62
    7
 10
126.17355010348183
 20
347.55756089552193
 11
126.17355010348183
 21
346.75756089552192
  0
LINE
  8
_0-0_pcb
  6
CONTINUOUS
 62
    7
 10
126.17355010348183
 20
332.61756089552193
 11
126.17355010348183
 21
331.81756089552192
  0
LINE
  8
_0-0_pcb
  6
CONTINUOUS
 62
    7
 10
138.31355010348182
 20
331.81756089552192
 11
138.31355010348182
 21
332.61756089552193
  0
LINE
  8
_0-0_pcb
  6
CONTINUOUS
 62
    7
 10
138.31355010348182
 20
346.75756089552192
 11
138.31355010348182
 21
347.55756089552193
  0
LINE
  8
_0-0_pcb
  6
CONTINUOUS
 62
    7
 10
120.26355010348186
 20
332.61756089552193
 11
120.26355010348186
 21
346.75756089552192
  0
LINE
  8
_0-0_pcb
  6
CONTINUOUS
 62
    7
 10
106.12355010348188
 20
346.75756089552192
 11
106.12355010348188
 21
332.61756089552193
  0
LINE
  8
_0-0_pcb
  6
CONTINUOUS
 62
    7
 10
115.76355010348186
 20
331.81756089552192
 11
115.76355010348186
 21
332.61756089552193
  0
LINE
  8
_0-0_pcb
  6
CONTINUOUS
 62
    7
 10
115.76355010348186
 20
346.75756089552192
 11
115.76355010348186
 21
347.55756089552193
  0
LINE
  8
_0-0_pcb
  6
CONTINUOUS
 62
    7
 10
110.62355010348188
 20
347.55756089552193
 11
110.62355010348188
 21
346.75756089552192
  0
LINE
  8
_0-0_pcb
  6
CONTINUOUS
 62
    7
 10
110.62355010348188
 20
332.61756089552193
 11
110.62355010348188
 21
331.81756089552192
  0
LINE
  8
_0-0_pcb
  6
CONTINUOUS
 62
    7
 10
107.12355010348188
 20
331.81756089552192
 11
110.62355010348188
 21
331.81756089552192
  0
LINE
  8
_0-0_pcb
  6
CONTINUOUS
 62
    7
 10
115.76355010348186
 20
331.81756089552192
 11
119.26355010348186
 21
331.81756089552192
  0
LINE
  8
_0-0_pcb
  6
CONTINUOUS
 62
    7
 10
119.26355010348186
 20
347.55756089552193
 11
115.76355010348186
 21
347.55756089552193
  0
LINE
  8
_0-0_pcb
  6
CONTINUOUS
 62
    7
 10
110.62355010348188
 20
347.55756089552193
 11
107.12355010348188
 21
347.55756089552193
  0
LINE
  8
_0-0_pcb
  6
CONTINUOUS
 62
    7
 10
120.26355010348186
 20
346.75756089552192
 11
119.26355010348186
 21
346.75756089552192
  0
LINE
  8
_0-0_pcb
  6
CONTINUOUS
 62
    7
 10
115.76355010348186
 20
346.75756089552192
 11
110.62355010348188
 21
346.75756089552192
  0
LINE
  8
_0-0_pcb
  6
CONTINUOUS
 62
    7
 10
107.12355010348188
 20
346.75756089552192
 11
106.12355010348188
 21
346.75756089552192
  0
LINE
  8
_0-0_pcb
  6
CONTINUOUS
 62
    7
 10
119.26355010348186
 20
332.61756089552193
 11
120.26355010348186
 21
332.61756089552193
  0
LINE
  8
_0-0_pcb
  6
CONTINUOUS
 62
    7
 10
106.12355010348188
 20
332.61756089552193
 11
107.12355010348188
 21
332.61756089552193
  0
LINE
  8
_0-0_pcb
  6
CONTINUOUS
 62
    7
 10
110.62355010348188
 20
332.61756089552193
 11
115.76355010348186
 21
332.61756089552193
  0
LINE
  8
_0-0_pcb
  6
CONTINUOUS
 62
    7
 10
107.12355010348188
 20
347.55756089552193
 11
107.12355010348188
 21
346.75756089552192
  0
LINE
  8
_0-0_pcb
  6
CONTINUOUS
 62
    7
 10
107.12355010348188
 20
332.61756089552193
 11
107.12355010348188
 21
331.81756089552192
  0
LINE
  8
_0-0_pcb
  6
CONTINUOUS
 62
    7
 10
119.26355010348186
 20
331.81756089552192
 11
119.26355010348186
 21
332.61756089552193
  0
LINE
  8
_0-0_pcb
  6
CONTINUOUS
 62
    7
 10
119.26355010348186
 20
346.75756089552192
 11
119.26355010348186
 21
347.55756089552193
  0
LINE
  8
_0-0_pcb
  6
CONTINUOUS
 62
    7
 10
101.21355010348179
 20
332.61756089552193
 11
101.21355010348179
 21
346.75756089552192
  0
LINE
  8
_0-0_pcb
  6
CONTINUOUS
 62
    7
 10
87.073550103481807
 20
346.75756089552192
 11
87.073550103481807
 21
332.61756089552193
  0
LINE
  8
_0-0_pcb
  6
CONTINUOUS
 62
    7
 10
96.713550103481793
 20
331.81756089552192
 11
96.713550103481793
 21
332.61756089552193
  0
LINE
  8
_0-0_pcb
  6
CONTINUOUS
 62
    7
 10
96.713550103481793
 20
346.75756089552192
 11
96.713550103481793
 21
347.55756089552193
  0
LINE
  8
_0-0_pcb
  6
CONTINUOUS
 62
    7
 10
91.573550103481807
 20
347.55756089552193
 11
91.573550103481807
 21
346.75756089552192
  0
LINE
  8
_0-0_pcb
  6
CONTINUOUS
 62
    7
 10
91.573550103481807
 20
332.61756089552193
 11
91.573550103481807
 21
331.81756089552192
  0
LINE
  8
_0-0_pcb
  6
CONTINUOUS
 62
    7
 10
88.073550103481807
 20
331.81756089552192
 11
91.573550103481807
 21
331.81756089552192
  0
LINE
  8
_0-0_pcb
  6
CONTINUOUS
 62
    7
 10
96.713550103481793
 20
331.81756089552192
 11
100.21355010348179
 21
331.81756089552192
  0
LINE
  8
_0-0_pcb
  6
CONTINUOUS
 62
    7
 10
100.21355010348179
 20
347.55756089552193
 11
96.713550103481793
 21
347.55756089552193
  0
LINE
  8
_0-0_pcb
  6
CONTINUOUS
 62
    7
 10
91.573550103481807
 20
347.55756089552193
 11
88.073550103481807
 21
347.55756089552193
  0
LINE
  8
_0-0_pcb
  6
CONTINUOUS
 62
    7
 10
101.21355010348179
 20
346.75756089552192
 11
100.21355010348179
 21
346.75756089552192
  0
LINE
  8
_0-0_pcb
  6
CONTINUOUS
 62
    7
 10
96.713550103481793
 20
346.75756089552192
 11
91.573550103481807
 21
346.75756089552192
  0
LINE
  8
_0-0_pcb
  6
CONTINUOUS
 62
    7
 10
88.073550103481807
 20
346.75756089552192
 11
87.073550103481807
 21
346.75756089552192
  0
LINE
  8
_0-0_pcb
  6
CONTINUOUS
 62
    7
 10
100.21355010348179
 20
332.61756089552193
 11
101.21355010348179
 21
332.61756089552193
  0
LINE
  8
_0-0_pcb
  6
CONTINUOUS
 62
    7
 10
87.073550103481807
 20
332.61756089552193
 11
88.073550103481807
 21
332.61756089552193
  0
LINE
  8
_0-0_pcb
  6
CONTINUOUS
 62
    7
 10
91.573550103481807
 20
332.61756089552193
 11
96.713550103481793
 21
332.61756089552193
  0
LINE
  8
_0-0_pcb
  6
CONTINUOUS
 62
    7
 10
88.073550103481807
 20
347.55756089552193
 11
88.073550103481807
 21
346.75756089552192
  0
LINE
  8
_0-0_pcb
  6
CONTINUOUS
 62
    7
 10
88.073550103481807
 20
332.61756089552193
 11
88.073550103481807
 21
331.81756089552192
  0
LINE
  8
_0-0_pcb
  6
CONTINUOUS
 62
    7
 10
100.21355010348179
 20
331.81756089552192
 11
100.21355010348179
 21
332.61756089552193
  0
LINE
  8
_0-0_pcb
  6
CONTINUOUS
 62
    7
 10
100.21355010348179
 20
346.75756089552192
 11
100.21355010348179
 21
347.55756089552193
  0
LINE
  8
_0-0_pcb
  6
CONTINUOUS
 62
    7
 10
103.75355010348187
 20
351.66756089552189
 11
103.75355010348187
 21
365.80756089552187
  0
LINE
  8
_0-0_pcb
  6
CONTINUOUS
 62
    7
 10
89.613550103481884
 20
365.80756089552187
 11
89.613550103481884
 21
351.66756089552189
  0
LINE
  8
_0-0_pcb
  6
CONTINUOUS
 62
    7
 10
99.253550103481871
 20
350.86756089552188
 11
99.253550103481871
 21
351.66756089552189
  0
LINE
  8
_0-0_pcb
  6
CONTINUOUS
 62
    7
 10
99.253550103481871
 20
365.80756089552187
 11
99.253550103481871
 21
366.60756089552194
  0
LINE
  8
_0-0_pcb
  6
CONTINUOUS
 62
    7
 10
94.113550103481884
 20
366.60756089552194
 11
94.113550103481884
 21
365.80756089552187
  0
LINE
  8
_0-0_pcb
  6
CONTINUOUS
 62
    7
 10
94.113550103481884
 20
351.66756089552189
 11
94.113550103481884
 21
350.86756089552188
  0
LINE
  8
_0-0_pcb
  6
CONTINUOUS
 62
    7
 10
90.613550103481884
 20
350.86756089552188
 11
94.113550103481884
 21
350.86756089552188
  0
LINE
  8
_0-0_pcb
  6
CONTINUOUS
 62
    7
 10
99.253550103481871
 20
350.86756089552188
 11
102.75355010348187
 21
350.86756089552188
  0
LINE
  8
_0-0_pcb
  6
CONTINUOUS
 62
    7
 10
102.75355010348187
 20
366.60756089552194
 11
99.253550103481871
 21
366.60756089552194
  0
LINE
  8
_0-0_pcb
  6
CONTINUOUS
 62
    7
 10
94.113550103481884
 20
366.60756089552194
 11
90.613550103481884
 21
366.60756089552194
  0
LINE
  8
_0-0_pcb
  6
CONTINUOUS
 62
    7
 10
103.75355010348187
 20
365.80756089552187
 11
102.75355010348187
 21
365.80756089552187
  0
LINE
  8
_0-0_pcb
  6
CONTINUOUS
 62
    7
 10
99.253550103481871
 20
365.80756089552187
 11
94.113550103481884
 21
365.80756089552187
  0
LINE
  8
_0-0_pcb
  6
CONTINUOUS
 62
    7
 10
90.613550103481884
 20
365.80756089552187
 11
89.613550103481884
 21
365.80756089552187
  0
LINE
  8
_0-0_pcb
  6
CONTINUOUS
 62
    7
 10
102.75355010348187
 20
351.66756089552189
 11
103.75355010348187
 21
351.66756089552189
  0
LINE
  8
_0-0_pcb
  6
CONTINUOUS
 62
    7
 10
89.613550103481884
 20
351.66756089552189
 11
90.613550103481884
 21
351.66756089552189
  0
LINE
  8
_0-0_pcb
  6
CONTINUOUS
 62
    7
 10
94.113550103481884
 20
351.66756089552189
 11
99.253550103481871
 21
351.66756089552189
  0
LINE
  8
_0-0_pcb
  6
CONTINUOUS
 62
    7
 10
90.613550103481884
 20
366.60756089552194
 11
90.613550103481884
 21
365.80756089552187
  0
LINE
  8
_0-0_pcb
  6
CONTINUOUS
 62
    7
 10
90.613550103481884
 20
351.66756089552189
 11
90.613550103481884
 21
350.86756089552188
  0
LINE
  8
_0-0_pcb
  6
CONTINUOUS
 62
    7
 10
102.75355010348187
 20
350.86756089552188
 11
102.75355010348187
 21
351.66756089552189
  0
LINE
  8
_0-0_pcb
  6
CONTINUOUS
 62
    7
 10
102.75355010348187
 20
365.80756089552187
 11
102.75355010348187
 21
366.60756089552194
  0
LINE
  8
_0-0_pcb
  6
CONTINUOUS
 62
    7
 10
122.80355010348183
 20
351.66756089552189
 11
122.80355010348183
 21
365.80756089552187
  0
LINE
  8
_0-0_pcb
  6
CONTINUOUS
 62
    7
 10
108.66355010348184
 20
365.80756089552187
 11
108.66355010348184
 21
351.66756089552189
  0
LINE
  8
_0-0_pcb
  6
CONTINUOUS
 62
    7
 10
118.30355010348183
 20
350.86756089552188
 11
118.30355010348183
 21
351.66756089552189
  0
LINE
  8
_0-0_pcb
  6
CONTINUOUS
 62
    7
 10
118.30355010348183
 20
365.80756089552187
 11
118.30355010348183
 21
366.60756089552194
  0
LINE
  8
_0-0_pcb
  6
CONTINUOUS
 62
    7
 10
113.16355010348184
 20
366.60756089552194
 11
113.16355010348184
 21
365.80756089552187
  0
LINE
  8
_0-0_pcb
  6
CONTINUOUS
 62
    7
 10
113.16355010348184
 20
351.66756089552189
 11
113.16355010348184
 21
350.86756089552188
  0
LINE
  8
_0-0_pcb
  6
CONTINUOUS
 62
    7
 10
109.66355010348184
 20
350.86756089552188
 11
113.16355010348184
 21
350.86756089552188
  0
LINE
  8
_0-0_pcb
  6
CONTINUOUS
 62
    7
 10
118.30355010348183
 20
350.86756089552188
 11
121.80355010348183
 21
350.86756089552188
  0
LINE
  8
_0-0_pcb
  6
CONTINUOUS
 62
    7
 10
121.80355010348183
 20
366.60756089552194
 11
118.30355010348183
 21
366.60756089552194
  0
LINE
  8
_0-0_pcb
  6
CONTINUOUS
 62
    7
 10
113.16355010348184
 20
366.60756089552194
 11
109.66355010348184
 21
366.60756089552194
  0
LINE
  8
_0-0_pcb
  6
CONTINUOUS
 62
    7
 10
122.80355010348183
 20
365.80756089552187
 11
121.80355010348183
 21
365.80756089552187
  0
LINE
  8
_0-0_pcb
  6
CONTINUOUS
 62
    7
 10
118.30355010348183
 20
365.80756089552187
 11
113.16355010348184
 21
365.80756089552187
  0
LINE
  8
_0-0_pcb
  6
CONTINUOUS
 62
    7
 10
109.66355010348184
 20
365.80756089552187
 11
108.66355010348184
 21
365.80756089552187
  0
LINE
  8
_0-0_pcb
  6
CONTINUOUS
 62
    7
 10
121.80355010348183
 20
351.66756089552189
 11
122.80355010348183
 21
351.66756089552189
  0
LINE
  8
_0-0_pcb
  6
CONTINUOUS
 62
    7
 10
108.66355010348184
 20
351.66756089552189
 11
109.66355010348184
 21
351.66756089552189
  0
LINE
  8
_0-0_pcb
  6
CONTINUOUS
 62
    7
 10
113.16355010348184
 20
351.66756089552189
 11
118.30355010348183
 21
351.66756089552189
  0
LINE
  8
_0-0_pcb
  6
CONTINUOUS
 62
    7
 10
109.66355010348184
 20
366.60756089552194
 11
109.66355010348184
 21
365.80756089552187
  0
LINE
  8
_0-0_pcb
  6
CONTINUOUS
 62
    7
 10
109.66355010348184
 20
351.66756089552189
 11
109.66355010348184
 21
350.86756089552188
  0
LINE
  8
_0-0_pcb
  6
CONTINUOUS
 62
    7
 10
121.80355010348183
 20
350.86756089552188
 11
121.80355010348183
 21
351.66756089552189
  0
LINE
  8
_0-0_pcb
  6
CONTINUOUS
 62
    7
 10
121.80355010348183
 20
365.80756089552187
 11
121.80355010348183
 21
366.60756089552194
  0
LINE
  8
_0-0_pcb
  6
CONTINUOUS
 62
    7
 10
141.85355010348178
 20
351.66756089552189
 11
141.85355010348178
 21
365.80756089552187
  0
LINE
  8
_0-0_pcb
  6
CONTINUOUS
 62
    7
 10
127.71355010348179
 20
365.80756089552187
 11
127.71355010348179
 21
351.66756089552189
  0
LINE
  8
_0-0_pcb
  6
CONTINUOUS
 62
    7
 10
137.35355010348178
 20
350.86756089552188
 11
137.35355010348178
 21
351.66756089552189
  0
LINE
  8
_0-0_pcb
  6
CONTINUOUS
 62
    7
 10
137.35355010348178
 20
365.80756089552187
 11
137.35355010348178
 21
366.60756089552194
  0
LINE
  8
_0-0_pcb
  6
CONTINUOUS
 62
    7
 10
132.21355010348179
 20
366.60756089552194
 11
132.21355010348179
 21
365.80756089552187
  0
LINE
  8
_0-0_pcb
  6
CONTINUOUS
 62
    7
 10
132.21355010348179
 20
351.66756089552189
 11
132.21355010348179
 21
350.86756089552188
  0
LINE
  8
_0-0_pcb
  6
CONTINUOUS
 62
    7
 10
128.71355010348179
 20
350.86756089552188
 11
132.21355010348179
 21
350.86756089552188
  0
LINE
  8
_0-0_pcb
  6
CONTINUOUS
 62
    7
 10
137.35355010348178
 20
350.86756089552188
 11
140.85355010348178
 21
350.86756089552188
  0
LINE
  8
_0-0_pcb
  6
CONTINUOUS
 62
    7
 10
140.85355010348178
 20
366.60756089552194
 11
137.35355010348178
 21
366.60756089552194
  0
LINE
  8
_0-0_pcb
  6
CONTINUOUS
 62
    7
 10
132.21355010348179
 20
366.60756089552194
 11
128.71355010348179
 21
366.60756089552194
  0
LINE
  8
_0-0_pcb
  6
CONTINUOUS
 62
    7
 10
141.85355010348178
 20
365.80756089552187
 11
140.85355010348178
 21
365.80756089552187
  0
LINE
  8
_0-0_pcb
  6
CONTINUOUS
 62
    7
 10
137.35355010348178
 20
365.80756089552187
 11
132.21355010348179
 21
365.80756089552187
  0
LINE
  8
_0-0_pcb
  6
CONTINUOUS
 62
    7
 10
128.71355010348179
 20
365.80756089552187
 11
127.71355010348179
 21
365.80756089552187
  0
LINE
  8
_0-0_pcb
  6
CONTINUOUS
 62
    7
 10
140.85355010348178
 20
351.66756089552189
 11
141.85355010348178
 21
351.66756089552189
  0
LINE
  8
_0-0_pcb
  6
CONTINUOUS
 62
    7
 10
127.71355010348179
 20
351.66756089552189
 11
128.71355010348179
 21
351.66756089552189
  0
LINE
  8
_0-0_pcb
  6
CONTINUOUS
 62
    7
 10
132.21355010348179
 20
351.66756089552189
 11
137.35355010348178
 21
351.66756089552189
  0
LINE
  8
_0-0_pcb
  6
CONTINUOUS
 62
    7
 10
128.71355010348179
 20
366.60756089552194
 11
128.71355010348179
 21
365.80756089552187
  0
LINE
  8
_0-0_pcb
  6
CONTINUOUS
 62
    7
 10
128.71355010348179
 20
351.66756089552189
 11
128.71355010348179
 21
350.86756089552188
  0
LINE
  8
_0-0_pcb
  6
CONTINUOUS
 62
    7
 10
140.85355010348178
 20
350.86756089552188
 11
140.85355010348178
 21
351.66756089552189
  0
LINE
  8
_0-0_pcb
  6
CONTINUOUS
 62
    7
 10
140.85355010348178
 20
365.80756089552187
 11
140.85355010348178
 21
366.60756089552194
  0
LINE
  8
_0-0_pcb
  6
CONTINUOUS
 62
    7
 10
160.90355010348185
 20
351.66756089552189
 11
160.90355010348185
 21
365.80756089552187
  0
LINE
  8
_0-0_pcb
  6
CONTINUOUS
 62
    7
 10
146.76355010348186
 20
365.80756089552187
 11
146.76355010348186
 21
351.66756089552189
  0
LINE
  8
_0-0_pcb
  6
CONTINUOUS
 62
    7
 10
156.40355010348185
 20
350.86756089552188
 11
156.40355010348185
 21
351.66756089552189
  0
LINE
  8
_0-0_pcb
  6
CONTINUOUS
 62
    7
 10
156.40355010348185
 20
365.80756089552187
 11
156.40355010348185
 21
366.60756089552194
  0
LINE
  8
_0-0_pcb
  6
CONTINUOUS
 62
    7
 10
151.26355010348186
 20
366.60756089552194
 11
151.26355010348186
 21
365.80756089552187
  0
LINE
  8
_0-0_pcb
  6
CONTINUOUS
 62
    7
 10
151.26355010348186
 20
351.66756089552189
 11
151.26355010348186
 21
350.86756089552188
  0
LINE
  8
_0-0_pcb
  6
CONTINUOUS
 62
    7
 10
147.76355010348186
 20
350.86756089552188
 11
151.26355010348186
 21
350.86756089552188
  0
LINE
  8
_0-0_pcb
  6
CONTINUOUS
 62
    7
 10
156.40355010348185
 20
350.86756089552188
 11
159.90355010348185
 21
350.86756089552188
  0
LINE
  8
_0-0_pcb
  6
CONTINUOUS
 62
    7
 10
159.90355010348185
 20
366.60756089552194
 11
156.40355010348185
 21
366.60756089552194
  0
LINE
  8
_0-0_pcb
  6
CONTINUOUS
 62
    7
 10
151.26355010348186
 20
366.60756089552194
 11
147.76355010348186
 21
366.60756089552194
  0
LINE
  8
_0-0_pcb
  6
CONTINUOUS
 62
    7
 10
160.90355010348185
 20
365.80756089552187
 11
159.90355010348185
 21
365.80756089552187
  0
LINE
  8
_0-0_pcb
  6
CONTINUOUS
 62
    7
 10
156.40355010348185
 20
365.80756089552187
 11
151.26355010348186
 21
365.80756089552187
  0
LINE
  8
_0-0_pcb
  6
CONTINUOUS
 62
    7
 10
147.76355010348186
 20
365.80756089552187
 11
146.76355010348186
 21
365.80756089552187
  0
LINE
  8
_0-0_pcb
  6
CONTINUOUS
 62
    7
 10
159.90355010348185
 20
351.66756089552189
 11
160.90355010348185
 21
351.66756089552189
  0
LINE
  8
_0-0_pcb
  6
CONTINUOUS
 62
    7
 10
146.76355010348186
 20
351.66756089552189
 11
147.76355010348186
 21
351.66756089552189
  0
LINE
  8
_0-0_pcb
  6
CONTINUOUS
 62
    7
 10
151.26355010348186
 20
351.66756089552189
 11
156.40355010348185
 21
351.66756089552189
  0
LINE
  8
_0-0_pcb
  6
CONTINUOUS
 62
    7
 10
147.76355010348186
 20
366.60756089552194
 11
147.76355010348186
 21
365.80756089552187
  0
LINE
  8
_0-0_pcb
  6
CONTINUOUS
 62
    7
 10
147.76355010348186
 20
351.66756089552189
 11
147.76355010348186
 21
350.86756089552188
  0
LINE
  8
_0-0_pcb
  6
CONTINUOUS
 62
    7
 10
159.90355010348185
 20
350.86756089552188
 11
159.90355010348185
 21
351.66756089552189
  0
LINE
  8
_0-0_pcb
  6
CONTINUOUS
 62
    7
 10
159.90355010348185
 20
365.80756089552187
 11
159.90355010348185
 21
366.60756089552194
  0
LINE
  8
_0-0_pcb
  6
CONTINUOUS
 62
    7
 10
179.95355010348183
 20
349.12756089552192
 11
179.95355010348183
 21
363.26756089552191
  0
LINE
  8
_0-0_pcb
  6
CONTINUOUS
 62
    7
 10
165.81355010348184
 20
363.26756089552191
 11
165.81355010348184
 21
349.12756089552192
  0
LINE
  8
_0-0_pcb
  6
CONTINUOUS
 62
    7
 10
175.45355010348183
 20
348.32756089552191
 11
175.45355010348183
 21
349.12756089552192
  0
LINE
  8
_0-0_pcb
  6
CONTINUOUS
 62
    7
 10
175.45355010348183
 20
363.26756089552191
 11
175.45355010348183
 21
364.06756089552186
  0
LINE
  8
_0-0_pcb
  6
CONTINUOUS
 62
    7
 10
170.31355010348184
 20
364.06756089552186
 11
170.31355010348184
 21
363.26756089552191
  0
LINE
  8
_0-0_pcb
  6
CONTINUOUS
 62
    7
 10
170.31355010348184
 20
349.12756089552192
 11
170.31355010348184
 21
348.32756089552191
  0
LINE
  8
_0-0_pcb
  6
CONTINUOUS
 62
    7
 10
166.81355010348184
 20
348.32756089552191
 11
170.31355010348184
 21
348.32756089552191
  0
LINE
  8
_0-0_pcb
  6
CONTINUOUS
 62
    7
 10
175.45355010348183
 20
348.32756089552191
 11
178.95355010348183
 21
348.32756089552191
  0
LINE
  8
_0-0_pcb
  6
CONTINUOUS
 62
    7
 10
178.95355010348183
 20
364.06756089552186
 11
175.45355010348183
 21
364.06756089552186
  0
LINE
  8
_0-0_pcb
  6
CONTINUOUS
 62
    7
 10
170.31355010348184
 20
364.06756089552186
 11
166.81355010348184
 21
364.06756089552186
  0
LINE
  8
_0-0_pcb
  6
CONTINUOUS
 62
    7
 10
179.95355010348183
 20
363.26756089552191
 11
178.95355010348183
 21
363.26756089552191
  0
LINE
  8
_0-0_pcb
  6
CONTINUOUS
 62
    7
 10
175.45355010348183
 20
363.26756089552191
 11
170.31355010348184
 21
363.26756089552191
  0
LINE
  8
_0-0_pcb
  6
CONTINUOUS
 62
    7
 10
166.81355010348184
 20
363.26756089552191
 11
165.81355010348184
 21
363.26756089552191
  0
LINE
  8
_0-0_pcb
  6
CONTINUOUS
 62
    7
 10
178.95355010348183
 20
349.12756089552192
 11
179.95355010348183
 21
349.12756089552192
  0
LINE
  8
_0-0_pcb
  6
CONTINUOUS
 62
    7
 10
165.81355010348184
 20
349.12756089552192
 11
166.81355010348184
 21
349.12756089552192
  0
LINE
  8
_0-0_pcb
  6
CONTINUOUS
 62
    7
 10
170.31355010348184
 20
349.12756089552192
 11
175.45355010348183
 21
349.12756089552192
  0
LINE
  8
_0-0_pcb
  6
CONTINUOUS
 62
    7
 10
166.81355010348184
 20
364.06756089552186
 11
166.81355010348184
 21
363.26756089552191
  0
LINE
  8
_0-0_pcb
  6
CONTINUOUS
 62
    7
 10
166.81355010348184
 20
349.12756089552192
 11
166.81355010348184
 21
348.32756089552191
  0
LINE
  8
_0-0_pcb
  6
CONTINUOUS
 62
    7
 10
178.95355010348183
 20
348.32756089552191
 11
178.95355010348183
 21
349.12756089552192
  0
LINE
  8
_0-0_pcb
  6
CONTINUOUS
 62
    7
 10
178.95355010348183
 20
363.26756089552191
 11
178.95355010348183
 21
364.06756089552186
  0
POINT
  8
_0-0_pcb
 62
    7
 10
165.89855010348188
 20
273.01256089552197
  0
POINT
  8
_0-0_pcb
 62
    7
 10
158.27855010348185
 20
311.11256089552194
  0
POINT
  8
_0-0_pcb
 62
    7
 10
162.08855010348179
 20
349.21256089552196
  0
POINT
  8
_0-0_pcb
 62
    7
 10
179.23355010348186
 20
367.62756089552192
  0
POINT
  8
_0-0_pcb
 62
    7
 10
89.698550103481807
 20
273.01256089552197
  0
POINT
  8
_0-0_pcb
 62
    7
 10
82.078550103481803
 20
311.11256089552194
  0
POINT
  8
_0-0_pcb
 62
    7
 10
85.888550103481862
 20
349.21256089552196
  0
POINT
  8
_0-0_pcb
 62
    7
 10
90.333550103481798
 20
389.21756089552196
  0
POINT
  8
_0-0_pcb
 62
    7
 10
147.48355010348189
 20
375.24756089552193
  0
POINT
  8
_0-0_pcb
 62
    7
 10
147.48355010348189
 20
389.21756089552196
  0
CIRCLE
  8
_0-0_pcb
  6
CONTINUOUS
 62
    7
 10
89.698550103481807
 20
273.01256089552197
 40
1.6000000000000001
  0
CIRCLE
  8
_0-0_pcb
  6
CONTINUOUS
 62
    7
 10
82.078550103481803
 20
311.11256089552194
 40
1.6000000000000001
  0
CIRCLE
  8
_0-0_pcb
  6
CONTINUOUS
 62
    7
 10
85.888550103481862
 20
349.21256089552196
 40
1.6000000000000001
  0
CIRCLE
  8
_0-0_pcb
  6
CONTINUOUS
 62
    7
 10
90.333550103481798
 20
389.21756089552196
 40
1.6000000000000001
  0
CIRCLE
  8
_0-0_pcb
  6
CONTINUOUS
 62
    7
 10
147.48355010348189
 20
375.24756089552193
 40
1.6000000000000001
  0
CIRCLE
  8
_0-0_pcb
  6
CONTINUOUS
 62
    7
 10
147.48355010348189
 20
389.21756089552196
 40
1.6000000000000001
  0
CIRCLE
  8
_0-0_pcb
  6
CONTINUOUS
 62
    7
 10
179.23355010348186
 20
367.62756089552192
 40
1.6000000000000001
  0
CIRCLE
  8
_0-0_pcb
  6
CONTINUOUS
 62
    7
 10
162.08855010348179
 20
349.21256089552196
 40
1.6000000000000001
  0
CIRCLE
  8
_0-0_pcb
  6
CONTINUOUS
 62
    7
 10
158.27855010348185
 20
311.11256089552194
 40
1.6000000000000001
  0
CIRCLE
  8
_0-0_pcb
  6
CONTINUOUS
 62
    7
 10
165.89855010348188
 20
273.01256089552197
 40
1.6000000000000001
  0
POINT
  8
_0-0_pcb
 62
    7
 10
108.74855010348188
 20
273.01256089552191
  0
POINT
  8
_0-0_pcb
 62
    7
 10
104.93855010348182
 20
349.2125608955219
  0
POINT
  8
_0-0_pcb
 62
    7
 10
139.22855010348178
 20
311.11256089552194
  0
POINT
  8
_0-0_pcb
 62
    7
 10
146.84855010348178
 20
273.01256089552191
  0
CIRCLE
  8
_0-0_pcb
  6
CONTINUOUS
 62
    7
 10
143.03855010348184
 20
349.2125608955219
 40
1.6000000000000001
  0
CIRCLE
  8
_0-0_pcb
  6
CONTINUOUS
 62
    7
 10
104.93855010348182
 20
349.2125608955219
 40
1.6000000000000001
  0
CIRCLE
  8
_0-0_pcb
  6
CONTINUOUS
 62
    7
 10
139.22855010348178
 20
311.11256089552194
 40
1.6000000000000001
  0
CIRCLE
  8
_0-0_pcb
  6
CONTINUOUS
 62
    7
 10
108.74855010348188
 20
273.01256089552191
 40
1.6000000000000001
  0
CIRCLE
  8
_0-0_pcb
  6
CONTINUOUS
 62
    7
 10
146.84855010348178
 20
273.01256089552191
 40
1.6000000000000001
  0
CIRCLE
  8
_0-0_pcb
  6
CONTINUOUS
 62
    7
 10
101.12855010348187
 20
311.11256089552194
 40
1.6000000000000001
  0
POINT
  8
_0-0_pcb
 62
    7
 10
101.12855010348187
 20
311.11256089552194
  0
POINT
  8
_0-1_
 62
    7
 10
143.03855010348184
 20
349.2125608955219
  0
POINT
  8
_0-1_
 62
    7
 10
90.333550103481798
 20
254.59756089552195
  0
LINE
  8
_0-1_
  6
CONTINUOUS
 62
    7
 10
90.333550103481798
 20
257.13756089552197
 11
79.538550103481839
 21
311.11256089552194
  0
LINE
  8
_0-1_
  6
CONTINUOUS
 62
    7
 10
79.538550103481839
 20
311.11256089552194
 11
79.538550103481839
 21
330.16256089552195
  0
LINE
  8
_0-1_
  6
CONTINUOUS
 62
    7
 10
79.538550103481839
 20
330.16256089552195
 11
86.523550103481853
 21
389.21756089552196
  0
ARC
  8
_0-1_
  6
CONTINUOUS
 62
    7
 10
181.77355010348188
 20
348.57756089552197
 40
2.539999999999992
 50
270
 51
0
  0
ARC
  8
_0-1_
  6
CONTINUOUS
 62
    7
 10
165.89855010348185
 20
257.13756089552197
 40
2.539999999999992
 50
270
 51
0
  0
ARC
  8
_0-1_
  6
CONTINUOUS
 62
    7
 10
92.873550103481818
 20
257.13756089552197
 40
2.5400000000000063
 50
180
 51
270
  0
LINE
  8
_0-1_
  6
CONTINUOUS
 62
    7
 10
92.873550103481818
 20
254.59756089552195
 11
165.89855010348185
 21
254.59756089552195
  0
POINT
  8
_0-1_
 62
    7
 10
165.89855010348188
 20
273.01256089552197
  0
POINT
  8
_0-1_
 62
    7
 10
158.27855010348185
 20
311.11256089552194
  0
POINT
  8
_0-1_
 62
    7
 10
162.08855010348179
 20
349.21256089552196
  0
POINT
  8
_0-1_
 62
    7
 10
179.23355010348186
 20
367.62756089552192
  0
POINT
  8
_0-1_
 62
    7
 10
89.698550103481807
 20
273.01256089552197
  0
POINT
  8
_0-1_
 62
    7
 10
82.078550103481803
 20
311.11256089552194
  0
POINT
  8
_0-1_
 62
    7
 10
85.888550103481862
 20
349.21256089552196
  0
POINT
  8
_0-1_
 62
    7
 10
90.333550103481798
 20
389.21756089552196
  0
POINT
  8
_0-1_
 62
    7
 10
147.48355010348189
 20
375.24756089552193
  0
POINT
  8
_0-1_
 62
    7
 10
147.48355010348189
 20
389.21756089552196
  0
CIRCLE
  8
_0-1_
  6
CONTINUOUS
 62
    7
 10
89.698550103481807
 20
273.01256089552197
 40
1.6000000000000001
  0
CIRCLE
  8
_0-1_
  6
CONTINUOUS
 62
    7
 10
82.078550103481803
 20
311.11256089552194
 40
1.6000000000000001
  0
CIRCLE
  8
_0-1_
  6
CONTINUOUS
 62
    7
 10
85.888550103481862
 20
349.21256089552196
 40
1.6000000000000001
  0
CIRCLE
  8
_0-1_
  6
CONTINUOUS
 62
    7
 10
90.333550103481798
 20
389.21756089552196
 40
1.6000000000000001
  0
CIRCLE
  8
_0-1_
  6
CONTINUOUS
 62
    7
 10
147.48355010348189
 20
375.24756089552193
 40
1.6000000000000001
  0
CIRCLE
  8
_0-1_
  6
CONTINUOUS
 62
    7
 10
147.48355010348189
 20
389.21756089552196
 40
1.6000000000000001
  0
CIRCLE
  8
_0-1_
  6
CONTINUOUS
 62
    7
 10
179.23355010348186
 20
367.62756089552192
 40
1.6000000000000001
  0
CIRCLE
  8
_0-1_
  6
CONTINUOUS
 62
    7
 10
162.08855010348179
 20
349.21256089552196
 40
1.6000000000000001
  0
CIRCLE
  8
_0-1_
  6
CONTINUOUS
 62
    7
 10
158.27855010348185
 20
311.11256089552194
 40
1.6000000000000001
  0
CIRCLE
  8
_0-1_
  6
CONTINUOUS
 62
    7
 10
165.89855010348188
 20
273.01256089552197
 40
1.6000000000000001
  0
POINT
  8
_0-1_
 62
    7
 10
108.74855010348188
 20
273.01256089552191
  0
POINT
  8
_0-1_
 62
    7
 10
104.93855010348182
 20
349.2125608955219
  0
POINT
  8
_0-1_
 62
    7
 10
139.22855010348178
 20
311.11256089552194
  0
POINT
  8
_0-1_
 62
    7
 10
146.84855010348178
 20
273.01256089552191
  0
CIRCLE
  8
_0-1_
  6
CONTINUOUS
 62
    7
 10
143.03855010348184
 20
349.2125608955219
 40
1.6000000000000001
  0
CIRCLE
  8
_0-1_
  6
CONTINUOUS
 62
    7
 10
104.93855010348182
 20
349.2125608955219
 40
1.6000000000000001
  0
CIRCLE
  8
_0-1_
  6
CONTINUOUS
 62
    7
 10
139.22855010348178
 20
311.11256089552194
 40
1.6000000000000001
  0
CIRCLE
  8
_0-1_
  6
CONTINUOUS
 62
    7
 10
108.74855010348188
 20
273.01256089552191
 40
1.6000000000000001
  0
CIRCLE
  8
_0-1_
  6
CONTINUOUS
 62
    7
 10
146.84855010348178
 20
273.01256089552191
 40
1.6000000000000001
  0
CIRCLE
  8
_0-1_
  6
CONTINUOUS
 62
    7
 10
101.12855010348187
 20
311.11256089552194
 40
1.6000000000000001
  0
POINT
  8
_0-1_
 62
    7
 10
101.12855010348187
 20
311.11256089552194
  0
POINT
  8
_0-1_
 62
    7
 10
92.273550103481853
 20
397.50756089552192
  0
CIRCLE
  8
_0-1_
  6
CONTINUOUS
 62
    7
 10
92.273550103481853
 20
397.50756089552192
 40
3.2000000000000002
  0
LINE
  8
_0-1_
  6
CONTINUOUS
 62
    7
 10
86.523550103481853
 20
400.71756089552196
 11
86.523550103481853
 21
389.21756089552207
  0
ARC
  8
_0-1_
  6
CONTINUOUS
 62
    7
 10
89.063550103481816
 20
400.71756089552196
 40
2.54
 50
90
 51
180
  0
POINT
  8
_0-1_
 62
    7
 10
189.64164474854923
 20
389.09201345402505
  0
POINT
  8
_0-1_
 62
    7
 10
174.01213393211114
 20
398.02316249198975
  0
CIRCLE
  8
_0-1_
  6
CONTINUOUS
 62
    7
 10
174.01213393211114
 20
398.02316249198975
 40
1.6000000000000001
  0
CIRCLE
  8
_0-1_
  6
CONTINUOUS
 62
    7
 10
189.64164474854923
 20
389.09201345402505
 40
1.6000000000000001
  0
POINT
  8
_0-1_
 62
    7
 10
199.31678388079948
 20
380.39604697733625
  0
CIRCLE
  8
_0-1_
  6
CONTINUOUS
 62
    7
 10
199.31678388079948
 20
380.39604697733625
 40
3.2000000000000002
  0
LINE
  8
_0-1_
  6
CONTINUOUS
 62
    7
 10
196.5842837338553
 20
375.33490676805911
 11
184.31355010348184
 21
353.24758623338693
  0
LINE
  8
_0-1_
  6
CONTINUOUS
 62
    7
 10
184.31355010348184
 20
353.24758623338693
 11
184.31355010348184
 21
348.57756089552197
  0
LINE
  8
_0-1_
  6
CONTINUOUS
 62
    7
 10
199.34497616381893
 20
373.75736823665136
 11
196.5842837338553
 21
375.33490676805911
  0
ARC
  8
_0-1_
  6
CONTINUOUS
 62
    7
 10
200.60516906724527
 20
375.96270581764747
 40
2.54
 50
240.25511870305792
 51
330.9453959009229
  0
LINE
  8
_0-1_
  6
CONTINUOUS
 62
    7
 10
205.94358244883958
 20
380.3416697928958
 11
202.82552854859401
 21
374.72917277245375
  0
ARC
  8
_0-1_
  6
CONTINUOUS
 62
    7
 10
203.7232229674909
 20
381.57520283808947
 40
2.54
 50
330.94539590092279
 51
60.255118703057825
  0
POINT
  8
_0-0_pcb
 62
    7
 10
179.91414110348185
 20
380.32756089552197
  0
LINE
  8
_0-0_pcb
  6
CONTINUOUS
 62
    7
 10
170.25634149872596
 20
377.73976129076595
 11
182.50194070823787
 21
370.66976129076602
  0
LINE
  8
_0-0_pcb
  6
CONTINUOUS
 62
    7
 10
189.57194070823786
 20
382.91536050027798
 11
177.32634149872595
 21
389.98536050027792
  0
LINE
  8
_0-0_pcb
  6
CONTINUOUS
 62
    7
 10
171.81352117569836
 20
382.03687560779599
 11
172.50634149872596
 21
381.63687560779601
  0
LINE
  8
_0-0_pcb
  6
CONTINUOUS
 62
    7
 10
184.75194070823787
 20
374.56687560779596
 11
185.44476103126547
 21
374.16687560779599
  0
LINE
  8
_0-0_pcb
  6
CONTINUOUS
 62
    7
 10
188.01476103126546
 20
378.61824618324795
 11
187.32194070823786
 21
379.01824618324804
  0
LINE
  8
_0-0_pcb
  6
CONTINUOUS
 62
    7
 10
175.07634149872595
 20
386.08824618324797
 11
174.38352117569835
 21
386.48824618324795
  0
LINE
  8
_0-0_pcb
  6
CONTINUOUS
 62
    7
 10
176.13352117569835
 20
389.51933509649348
 11
174.38352117569835
 21
386.48824618324795
  0
LINE
  8
_0-0_pcb
  6
CONTINUOUS
 62
    7
 10
171.81352117569836
 20
382.03687560779599
 11
170.06352117569836
 21
379.00578669455047
  0
LINE
  8
_0-0_pcb
  6
CONTINUOUS
 62
    7
 10
183.69476103126547
 20
371.13578669455046
 11
185.44476103126547
 21
374.16687560779599
  0
LINE
  8
_0-0_pcb
  6
CONTINUOUS
 62
    7
 10
188.01476103126546
 20
378.61824618324795
 11
189.76476103126546
 21
381.64933509649347
  0
LINE
  8
_0-0_pcb
  6
CONTINUOUS
 62
    7
 10
182.50194070823787
 20
370.66976129076602
 11
183.00194070823787
 21
371.53578669455044
  0
LINE
  8
_0-0_pcb
  6
CONTINUOUS
 62
    7
 10
184.75194070823787
 20
374.56687560779596
 11
187.32194070823786
 21
379.01824618324804
  0
LINE
  8
_0-0_pcb
  6
CONTINUOUS
 62
    7
 10
189.07194070823786
 20
382.04933509649351
 11
189.57194070823786
 21
382.91536050027798
  0
LINE
  8
_0-0_pcb
  6
CONTINUOUS
 62
    7
 10
170.75634149872596
 20
378.60578669455049
 11
170.25634149872596
 21
377.73976129076595
  0
LINE
  8
_0-0_pcb
  6
CONTINUOUS
 62
    7
 10
177.32634149872595
 20
389.98536050027792
 11
176.82634149872595
 21
389.1193350964935
  0
LINE
  8
_0-0_pcb
  6
CONTINUOUS
 62
    7
 10
175.07634149872595
 20
386.08824618324797
 11
172.50634149872596
 21
381.63687560779601
  0
LINE
  8
_0-0_pcb
  6
CONTINUOUS
 62
    7
 10
189.76476103126546
 20
381.64933509649347
 11
189.07194070823786
 21
382.04933509649351
  0
LINE
  8
_0-0_pcb
  6
CONTINUOUS
 62
    7
 10
176.82634149872595
 20
389.1193350964935
 11
176.13352117569835
 21
389.51933509649348
  0
LINE
  8
_0-0_pcb
  6
CONTINUOUS
 62
    7
 10
170.06352117569836
 20
379.00578669455047
 11
170.75634149872596
 21
378.60578669455049
  0
LINE
  8
_0-0_pcb
  6
CONTINUOUS
 62
    7
 10
183.00194070823787
 20
371.53578669455044
 11
183.69476103126547
 21
371.13578669455046
  0
POINT
  8
_0-2_
 62
    7
 10
143.03855010348184
 20
349.2125608955219
  0
POINT
  8
_0-2_
 62
    7
 10
172.88355010348184
 20
356.19756089552197
  0
POINT
  8
_0-2_
 62
    7
 10
90.333550103481798
 20
254.59756089552195
  0
LINE
  8
_0-2_
  6
CONTINUOUS
 62
    7
 10
90.333550103481798
 20
257.13756089552197
 11
79.538550103481839
 21
311.11256089552194
  0
LINE
  8
_0-2_
  6
CONTINUOUS
 62
    7
 10
79.538550103481839
 20
311.11256089552194
 11
79.538550103481839
 21
330.16256089552195
  0
LINE
  8
_0-2_
  6
CONTINUOUS
 62
    7
 10
168.43855010348182
 20
346.03756089552195
 11
168.43855010348182
 21
257.13756089552197
  0
ARC
  8
_0-2_
  6
CONTINUOUS
 62
    7
 10
181.77355010348188
 20
348.57756089552197
 40
2.539999999999992
 50
270
 51
0
  0
LINE
  8
_0-2_
  6
CONTINUOUS
 62
    7
 10
168.43855010348184
 20
346.03756089552195
 11
181.77355010348188
 21
346.03756089552195
  0
ARC
  8
_0-2_
  6
CONTINUOUS
 62
    7
 10
165.89855010348185
 20
257.13756089552197
 40
2.539999999999992
 50
270
 51
0
  0
ARC
  8
_0-2_
  6
CONTINUOUS
 62
    7
 10
92.873550103481818
 20
257.13756089552197
 40
2.5400000000000063
 50
180
 51
270
  0
LINE
  8
_0-2_
  6
CONTINUOUS
 62
    7
 10
92.873550103481818
 20
254.59756089552195
 11
165.89855010348185
 21
254.59756089552195
  0
POINT
  8
_0-2_
 62
    7
 10
165.89855010348188
 20
273.01256089552197
  0
POINT
  8
_0-2_
 62
    7
 10
158.27855010348185
 20
311.11256089552194
  0
POINT
  8
_0-2_
 62
    7
 10
162.08855010348179
 20
349.21256089552196
  0
POINT
  8
_0-2_
 62
    7
 10
179.23355010348186
 20
367.62756089552192
  0
POINT
  8
_0-2_
 62
    7
 10
89.698550103481807
 20
273.01256089552197
  0
POINT
  8
_0-2_
 62
    7
 10
82.078550103481803
 20
311.11256089552194
  0
POINT
  8
_0-2_
 62
    7
 10
85.888550103481862
 20
349.21256089552196
  0
CIRCLE
  8
_0-2_
  6
CONTINUOUS
 62
    7
 10
89.698550103481807
 20
273.01256089552197
 40
1.6000000000000001
  0
CIRCLE
  8
_0-2_
  6
CONTINUOUS
 62
    7
 10
82.078550103481803
 20
311.11256089552194
 40
1.6000000000000001
  0
CIRCLE
  8
_0-2_
  6
CONTINUOUS
 62
    7
 10
85.888550103481862
 20
349.21256089552196
 40
1.6000000000000001
  0
CIRCLE
  8
_0-2_
  6
CONTINUOUS
 62
    7
 10
179.23355010348186
 20
367.62756089552192
 40
1.6000000000000001
  0
CIRCLE
  8
_0-2_
  6
CONTINUOUS
 62
    7
 10
162.08855010348179
 20
349.21256089552196
 40
1.6000000000000001
  0
CIRCLE
  8
_0-2_
  6
CONTINUOUS
 62
    7
 10
158.27855010348185
 20
311.11256089552194
 40
1.6000000000000001
  0
CIRCLE
  8
_0-2_
  6
CONTINUOUS
 62
    7
 10
165.89855010348188
 20
273.01256089552197
 40
1.6000000000000001
  0
POINT
  8
_0-2_
 62
    7
 10
108.74855010348188
 20
273.01256089552191
  0
POINT
  8
_0-2_
 62
    7
 10
104.93855010348182
 20
349.2125608955219
  0
POINT
  8
_0-2_
 62
    7
 10
139.22855010348178
 20
311.11256089552194
  0
POINT
  8
_0-2_
 62
    7
 10
146.84855010348178
 20
273.01256089552191
  0
CIRCLE
  8
_0-2_
  6
CONTINUOUS
 62
    7
 10
143.03855010348184
 20
349.2125608955219
 40
1.6000000000000001
  0
CIRCLE
  8
_0-2_
  6
CONTINUOUS
 62
    7
 10
104.93855010348182
 20
349.2125608955219
 40
1.6000000000000001
  0
CIRCLE
  8
_0-2_
  6
CONTINUOUS
 62
    7
 10
139.22855010348178
 20
311.11256089552194
 40
1.6000000000000001
  0
CIRCLE
  8
_0-2_
  6
CONTINUOUS
 62
    7
 10
108.74855010348188
 20
273.01256089552191
 40
1.6000000000000001
  0
CIRCLE
  8
_0-2_
  6
CONTINUOUS
 62
    7
 10
146.84855010348178
 20
273.01256089552191
 40
1.6000000000000001
  0
CIRCLE
  8
_0-2_
  6
CONTINUOUS
 62
    7
 10
101.12855010348187
 20
311.11256089552194
 40
1.6000000000000001
  0
POINT
  8
_0-2_
 62
    7
 10
101.12855010348187
 20
311.11256089552194
  0
POINT
  8
_0-2_
 62
    7
 10
174.01213393211114
 20
398.02316249198975
  0
CIRCLE
  8
_0-2_
  6
CONTINUOUS
 62
    7
 10
174.01213393211114
 20
398.02316249198975
 40
1.6000000000000001
  0
CIRCLE
  8
_0-2_
  6
CONTINUOUS
 62
    7
 10
189.64164474854923
 20
389.09201345402505
 40
1.6000000000000001
  0
POINT
  8
_0-2_
 62
    7
 10
199.31678388079948
 20
380.39604697733625
  0
CIRCLE
  8
_0-2_
  6
CONTINUOUS
 62
    7
 10
199.31678388079948
 20
380.39604697733625
 40
3.2000000000000002
  0
LINE
  8
_0-2_
  6
CONTINUOUS
 62
    7
 10
196.5842837338553
 20
375.33490676805911
 11
184.31355010348184
 21
353.24758623338693
  0
LINE
  8
_0-2_
  6
CONTINUOUS
 62
    7
 10
184.31355010348184
 20
353.24758623338693
 11
184.31355010348184
 21
348.57756089552197
  0
LINE
  8
_0-2_
  6
CONTINUOUS
 62
    7
 10
199.34497616381893
 20
373.75736823665136
 11
196.5842837338553
 21
375.33490676805911
  0
ARC
  8
_0-2_
  6
CONTINUOUS
 62
    7
 10
200.60516906724527
 20
375.96270581764747
 40
2.54
 50
240.25511870305792
 51
330.9453959009229
  0
LINE
  8
_0-2_
  6
CONTINUOUS
 62
    7
 10
205.94358244883958
 20
380.3416697928958
 11
202.82552854859401
 21
374.72917277245375
  0
ARC
  8
_0-2_
  6
CONTINUOUS
 62
    7
 10
203.7232229674909
 20
381.57520283808947
 40
2.54
 50
330.94539590092279
 51
60.255118703057825
  0
POINT
  8
_0-2_
 62
    7
 10
179.91414110348185
 20
380.32756089552197
  0
POINT
  8
_0-3_
 62
    7
 10
90.333550103481798
 20
389.21756089552196
  0
POINT
  8
_0-3_
 62
    7
 10
147.48355010348189
 20
375.24756089552193
  0
POINT
  8
_0-3_
 62
    7
 10
147.48355010348189
 20
389.21756089552196
  0
CIRCLE
  8
_0-3_
  6
CONTINUOUS
 62
    7
 10
90.333550103481798
 20
389.21756089552196
 40
1.6000000000000001
  0
CIRCLE
  8
_0-3_
  6
CONTINUOUS
 62
    7
 10
147.48355010348189
 20
375.24756089552193
 40
1.6000000000000001
  0
CIRCLE
  8
_0-3_
  6
CONTINUOUS
 62
    7
 10
147.48355010348189
 20
389.21756089552196
 40
1.6000000000000001
  0
LINE
  8
_0-2_
  6
CONTINUOUS
 62
    7
 10
79.538550103481839
 20
330.16256089552195
 11
84.51634580240659
 21
372.24756089552193
  0
LINE
  8
_0-2_
  6
CONTINUOUS
 62
    7
 10
84.51634580240659
 20
372.24756089552193
 11
150.48355010348189
 21
372.24756089552193
  0
LINE
  8
_0-1_
  6
CONTINUOUS
 62
    7
 10
98.023550103481853
 20
403.25756089552192
 11
89.063550103481816
 21
403.25756089552192
  0
LINE
  8
_0-1_
  6
CONTINUOUS
 62
    7
 10
98.023550103481853
 20
403.25756089552192
 11
109.52355010348185
 21
391.75756089552192
  0
LINE
  8
_0-1_
  6
CONTINUOUS
 62
    7
 10
109.52355010348185
 20
391.75756089552192
 11
164.25910194147286
 21
391.75756089552192
  0
LINE
  8
_0-2_
  6
CONTINUOUS
 62
    7
 10
164.25910194147286
 20
391.75756089552192
 11
150.48355010348189
 21
391.75756089552192
  0
LINE
  8
_0-2_
  6
CONTINUOUS
 62
    7
 10
150.48355010348189
 20
372.24756089552193
 11
150.48355010348189
 21
391.75756089552192
  0
LINE
  8
_0-2_
  6
CONTINUOUS
 62
    7
 10
173.09416979374444
 20
402.00296674889864
 11
204.98341587091724
 21
383.78054041908564
  0
LINE
  8
_0-2_
  6
CONTINUOUS
 62
    7
 10
169.63427236470559
 20
401.06762916790251
 11
164.25910194147286
 21
391.75756089552192
  0
ARC
  8
_0-2_
  6
CONTINUOUS
 62
    7
 10
171.8339768903181
 20
399.79762916790253
 40
2.54
 50
60.255118703057846
 51
149.99999999999997
  0
LINE
  8
_0-1_
  6
CONTINUOUS
 62
    7
 10
173.09416979374444
 20
402.00296674889864
 11
204.98341587091724
 21
383.78054041908564
  0
LINE
  8
_0-1_
  6
CONTINUOUS
 62
    7
 10
169.63427236470559
 20
401.06762916790251
 11
164.25910194147286
 21
391.75756089552192
  0
ARC
  8
_0-1_
  6
CONTINUOUS
 62
    7
 10
171.8339768903181
 20
399.79762916790253
 40
2.54
 50
60.255118703057846
 51
149.99999999999997
  0
LINE
  8
_0-3_
  6
CONTINUOUS
 62
    7
 10
150.48355010348189
 20
391.75756089552192
 11
87.333550103481798
 21
391.75756089552192
  0
LINE
  8
_0-3_
  6
CONTINUOUS
 62
    7
 10
87.333550103481798
 20
372.24756089552193
 11
87.333550103481798
 21
391.75756089552192
  0
LINE
  8
_0-4_
  6
CONTINUOUS
 62
    7
 10
176.49954657948277
 20
388.15330969270906
 11
175.99954657948277
 21
387.28728428892464
  0
LINE
  8
_0-6_
  6
CONTINUOUS
 62
    7
 10
85.523550103481853
 20
400.71756089552196
 11
85.523550103481853
 21
389.27649527257165
  0
LINE
  8
_0-6_
  6
CONTINUOUS
 62
    7
 10
85.523550103481853
 20
389.27649527257165
 11
78.538550103481839
 21
330.22149527257153
  0
LINE
  8
_0-6_
  6
CONTINUOUS
 62
    7
 10
78.538550103481839
 20
330.22149527257153
 11
78.538550103481839
 21
311.01354138192914
  0
LINE
  8
_0-6_
  6
CONTINUOUS
 62
    7
 10
78.538550103481839
 20
311.01354138192914
 11
89.352969427790924
 21
256.94144476038377
  0
LINE
  8
_0-6_
  6
CONTINUOUS
 62
    7
 10
206.81773972496111
 20
379.85602686171717
 11
203.69968582471554
 21
374.24352984127512
  0
LINE
  8
_0-6_
  6
CONTINUOUS
 62
    7
 10
173.59030873210125
 20
402.87120989102311
 11
205.47955480927405
 21
384.64878356121017
  0
ARC
  8
_0-6_
  6
CONTINUOUS
 62
    7
 10
92.873550103481818
 20
257.13756089552197
 40
3.5400000000000063
 50
180
 51
270
  0
ARC
  8
_0-6_
  6
CONTINUOUS
 62
    7
 10
89.063550103481816
 20
400.71756089552196
 40
3.54
 50
90
 51
180
  0
ARC
  8
_0-6_
  6
CONTINUOUS
 62
    7
 10
171.8339768903181
 20
399.79762916790253
 40
3.54
 50
60.255118703057846
 51
149.99999999999997
  0
ARC
  8
_0-6_
  6
CONTINUOUS
 62
    7
 10
203.7232229674909
 20
381.57520283808947
 40
3.54
 50
330.94539590092279
 51
60.255118703057825
  0
ARC
  8
_0-6_
  6
CONTINUOUS
 62
    7
 10
200.60516906724527
 20
375.96270581764747
 40
3.54
 50
240.25511870305792
 51
330.9453959009229
  0
ARC
  8
_0-6_
  6
CONTINUOUS
 62
    7
 10
181.77355010348188
 20
348.57756089552197
 40
3.539999999999992
 50
270
 51
0
  0
ARC
  8
_0-6_
  6
CONTINUOUS
 62
    7
 10
165.89855010348185
 20
257.13756089552197
 40
3.539999999999992
 50
270
 51
0
  0
LINE
  8
_0-6_
  6
CONTINUOUS
 62
    7
 10
92.873550103481818
 20
253.59756089552195
 11
165.89855010348185
 21
253.59756089552195
  0
LINE
  8
_0-6_
  6
CONTINUOUS
 62
    7
 10
168.76824696092118
 20
401.56762916790251
 11
163.68175167228333
 21
392.75756089552192
  0
LINE
  8
_0-6_
  6
CONTINUOUS
 62
    7
 10
163.68175167228333
 20
392.75756089552192
 11
109.93776366585496
 21
392.75756089552192
  0
LINE
  8
_0-6_
  6
CONTINUOUS
 62
    7
 10
109.93776366585496
 20
392.75756089552192
 11
98.437763665854959
 21
404.25756089552192
  0
LINE
  8
_0-6_
  6
CONTINUOUS
 62
    7
 10
98.437763665854959
 20
404.25756089552192
 11
89.063550103481816
 21
404.25756089552192
  0
LINE
  8
_0-6_
  6
CONTINUOUS
 62
    7
 10
185.31355010348184
 20
348.57756089552197
 11
185.31355010348184
 21
352.98846020518954
  0
LINE
  8
_0-6_
  6
CONTINUOUS
 62
    7
 10
185.31355010348184
 20
352.98846020518954
 11
196.96691171271576
 21
373.9645111018105
  0
LINE
  8
_0-6_
  6
CONTINUOUS
 62
    7
 10
196.96691171271576
 20
373.9645111018105
 11
198.84883722546212
 21
372.88912509452689
  0
LINE
  8
_0-6_
  6
CONTINUOUS
 62
    7
 10
169.43855010348182
 20
257.13756089552197
 11
169.43855010348182
 21
345.03756089552195
  0
LINE
  8
_0-6_
  6
CONTINUOUS
 62
    7
 10
169.43855010348184
 20
345.03756089552195
 11
181.77355010348188
 21
345.03756089552195
  0
CIRCLE
  8
_0-6_
  6
CONTINUOUS
 62
    7
 10
199.31678388079948
 20
380.39604697733625
 40
2.2000000000000002
  0
CIRCLE
  8
_0-6_
  6
CONTINUOUS
 62
    7
 10
92.273550103481853
 20
397.50756089552192
 40
2.2000000000000002
  0
CIRCLE
  8
_0-6_
  6
CONTINUOUS
 62
    7
 10
89.698550103481807
 20
273.01256089552197
 40
0.5999999999999997
  0
CIRCLE
  8
_0-6_
  6
CONTINUOUS
 62
    7
 10
108.74855010348188
 20
273.01256089552191
 40
0.5999999999999997
  0
CIRCLE
  8
_0-6_
  6
CONTINUOUS
 62
    7
 10
146.84855010348178
 20
273.01256089552191
 40
0.5999999999999997
  0
CIRCLE
  8
_0-6_
  6
CONTINUOUS
 62
    7
 10
165.89855010348188
 20
273.01256089552197
 40
0.5999999999999997
  0
CIRCLE
  8
_0-6_
  6
CONTINUOUS
 62
    7
 10
158.27855010348185
 20
311.11256089552194
 40
0.5999999999999997
  0
CIRCLE
  8
_0-6_
  6
CONTINUOUS
 62
    7
 10
139.22855010348178
 20
311.11256089552194
 40
0.5999999999999997
  0
CIRCLE
  8
_0-6_
  6
CONTINUOUS
 62
    7
 10
101.12855010348187
 20
311.11256089552194
 40
0.5999999999999997
  0
CIRCLE
  8
_0-6_
  6
CONTINUOUS
 62
    7
 10
82.078550103481803
 20
311.11256089552194
 40
0.5999999999999997
  0
CIRCLE
  8
_0-6_
  6
CONTINUOUS
 62
    7
 10
85.888550103481862
 20
349.21256089552196
 40
0.5999999999999997
  0
CIRCLE
  8
_0-6_
  6
CONTINUOUS
 62
    7
 10
104.93855010348182
 20
349.2125608955219
 40
0.5999999999999997
  0
CIRCLE
  8
_0-6_
  6
CONTINUOUS
 62
    7
 10
90.333550103481798
 20
389.21756089552196
 40
0.5999999999999997
  0
CIRCLE
  8
_0-6_
  6
CONTINUOUS
 62
    7
 10
147.48355010348189
 20
375.24756089552193
 40
0.5999999999999997
  0
CIRCLE
  8
_0-6_
  6
CONTINUOUS
 62
    7
 10
147.48355010348189
 20
389.21756089552196
 40
0.5999999999999997
  0
CIRCLE
  8
_0-6_
  6
CONTINUOUS
 62
    7
 10
143.03855010348184
 20
349.2125608955219
 40
0.5999999999999997
  0
CIRCLE
  8
_0-6_
  6
CONTINUOUS
 62
    7
 10
162.08855010348179
 20
349.21256089552196
 40
0.5999999999999997
  0
CIRCLE
  8
_0-6_
  6
CONTINUOUS
 62
    7
 10
179.23355010348186
 20
367.62756089552192
 40
0.5999999999999997
  0
CIRCLE
  8
_0-6_
  6
CONTINUOUS
 62
    7
 10
189.64164474854923
 20
389.09201345402505
 40
0.5999999999999997
  0
CIRCLE
  8
_0-6_
  6
CONTINUOUS
 62
    7
 10
174.01213393211114
 20
398.02316249198975
 40
0.5999999999999997
  0
LINE
  8
_0-7_
  6
CONTINUOUS
 62
    7
 10
86.333550103481798
 20
371.24756089552193
 11
86.333550103481798
 21
392.75756089552192
  0
LINE
  8
_0-7_
  6
CONTINUOUS
 62
    7
 10
86.333550103481798
 20
392.75756089552192
 11
151.48355010348189
 21
392.75756089552192
  0
LINE
  8
_0-7_
  6
CONTINUOUS
 62
    7
 10
151.48355010348189
 20
371.24756089552193
 11
86.333550103481798
 21
371.24756089552193
  0
LINE
  8
_0-7_
  6
CONTINUOUS
 62
    7
 10
151.48355010348189
 20
392.75756089552192
 11
151.48355010348189
 21
371.24756089552193
  0
CIRCLE
  8
_0-7_
  6
CONTINUOUS
 62
    7
 10
90.333550103481798
 20
389.21756089552196
 40
0.5999999999999997
  0
CIRCLE
  8
_0-7_
  6
CONTINUOUS
 62
    7
 10
147.48355010348189
 20
389.21756089552196
 40
0.5999999999999997
  0
CIRCLE
  8
_0-7_
  6
CONTINUOUS
 62
    7
 10
147.48355010348189
 20
375.24756089552193
 40
0.5999999999999997
  0
LINE
  8
_0-5_top2mm
  6
CONTINUOUS
 62
    7
 10
168.76824696092115
 20
401.56762916790251
 11
163.68175167228327
 21
392.75756089552192
  0
LINE
  8
_0-5_top2mm
  6
CONTINUOUS
 62
    7
 10
163.68175167228327
 20
392.75756089552192
 11
149.48355010348189
 21
392.75756089552192
  0
LINE
  8
_0-5_top2mm
  6
CONTINUOUS
 62
    7
 10
149.48355010348189
 20
392.75756089552192
 11
149.48355010348189
 21
373.24756089552193
  0
LINE
  8
_0-5_top2mm
  6
CONTINUOUS
 62
    7
 10
149.48355010348189
 20
373.24756089552193
 11
83.627654639529737
 21
373.24756089552193
  0
LINE
  8
_0-5_top2mm
  6
CONTINUOUS
 62
    7
 10
83.627654639529737
 20
373.24756089552193
 11
78.538550103481839
 21
330.22149527257153
  0
LINE
  8
_0-5_top2mm
  6
CONTINUOUS
 62
    7
 10
78.538550103481839
 20
330.22149527257153
 11
78.538550103481839
 21
311.0135413819292
  0
LINE
  8
_0-5_top2mm
  6
CONTINUOUS
 62
    7
 10
78.538550103481839
 20
311.0135413819292
 11
89.352969427790867
 21
256.94144476038377
  0
LINE
  8
_0-5_top2mm
  6
CONTINUOUS
 62
    7
 10
173.59030873210128
 20
402.87120989102311
 11
205.47955480927408
 21
384.64878356121017
  0
LINE
  8
_0-5_top2mm
  6
CONTINUOUS
 62
    7
 10
206.81773972496111
 20
379.85602686171717
 11
203.69968582471554
 21
374.24352984127512
  0
ARC
  8
_0-5_top2mm
  6
CONTINUOUS
 62
    7
 10
92.873550103481818
 20
257.13756089552197
 40
3.5400000000000063
 50
180
 51
270
  0
ARC
  8
_0-5_top2mm
  6
CONTINUOUS
 62
    7
 10
171.8339768903181
 20
399.79762916790253
 40
3.54
 50
60.255118703057846
 51
149.99999999999997
  0
ARC
  8
_0-5_top2mm
  6
CONTINUOUS
 62
    7
 10
203.7232229674909
 20
381.57520283808947
 40
3.54
 50
330.94539590092279
 51
60.255118703057825
  0
ARC
  8
_0-5_top2mm
  6
CONTINUOUS
 62
    7
 10
200.60516906724527
 20
375.96270581764747
 40
3.54
 50
240.25511870305792
 51
330.9453959009229
  0
ARC
  8
_0-5_top2mm
  6
CONTINUOUS
 62
    7
 10
181.77355010348188
 20
348.57756089552197
 40
3.539999999999992
 50
270
 51
0
  0
ARC
  8
_0-5_top2mm
  6
CONTINUOUS
 62
    7
 10
165.89855010348185
 20
257.13756089552197
 40
3.539999999999992
 50
270
 51
0
  0
LINE
  8
_0-5_top2mm
  6
CONTINUOUS
 62
    7
 10
92.873550103481818
 20
253.59756089552195
 11
165.89855010348185
 21
253.59756089552195
  0
LINE
  8
_0-5_top2mm
  6
CONTINUOUS
 62
    7
 10
181.77355010348188
 20
345.03756089552195
 11
169.43855010348184
 21
345.03756089552195
  0
LINE
  8
_0-5_top2mm
  6
CONTINUOUS
 62
    7
 10
169.43855010348182
 20
345.03756089552195
 11
169.43855010348182
 21
257.13756089552197
  0
LINE
  8
_0-5_top2mm
  6
CONTINUOUS
 62
    7
 10
198.84883722546209
 20
372.88912509452689
 11
196.96691171271573
 21
373.9645111018105
  0
LINE
  8
_0-5_top2mm
  6
CONTINUOUS
 62
    7
 10
196.96691171271573
 20
373.9645111018105
 11
185.31355010348184
 21
352.98846020518948
  0
LINE
  8
_0-5_top2mm
  6
CONTINUOUS
 62
    7
 10
185.31355010348184
 20
352.98846020518948
 11
185.31355010348184
 21
348.57756089552197
  0
LINE
  8
_0-5_top2mm
  6
CONTINUOUS
 62
    7
 10
105.2235501034819
 20
257.48756089552194
 11
105.2235501034819
 21
269.48756089552194
  0
LINE
  8
_0-5_top2mm
  6
CONTINUOUS
 62
    7
 10
105.2235501034819
 20
269.48756089552194
 11
93.223550103481898
 21
269.48756089552194
  0
LINE
  8
_0-5_top2mm
  6
CONTINUOUS
 62
    7
 10
93.223550103481898
 20
269.48756089552194
 11
93.223550103481898
 21
257.48756089552194
  0
LINE
  8
_0-5_top2mm
  6
CONTINUOUS
 62
    7
 10
93.223550103481841
 20
257.48756089552194
 11
105.2235501034819
 21
257.48756089552194
  0
LINE
  8
_0-5_top2mm
  6
CONTINUOUS
 62
    7
 10
92.223550103481841
 20
256.48756089552194
 11
93.223550103481841
 21
257.48756089552194
  0
LINE
  8
_0-5_top2mm
  6
CONTINUOUS
 62
    7
 10
93.223550103481898
 20
269.48756089552194
 11
92.223550103481898
 21
270.48756089552194
  0
LINE
  8
_0-5_top2mm
  6
CONTINUOUS
 62
    7
 10
105.2235501034819
 20
269.48756089552194
 11
106.2235501034819
 21
270.48756089552194
  0
LINE
  8
_0-5_top2mm
  6
CONTINUOUS
 62
    7
 10
105.2235501034819
 20
257.48756089552194
 11
106.2235501034819
 21
256.48756089552194
  0
LINE
  8
_0-5_top2mm
  6
CONTINUOUS
 62
    7
 10
124.27355010348185
 20
257.48756089552194
 11
124.27355010348185
 21
269.48756089552194
  0
LINE
  8
_0-5_top2mm
  6
CONTINUOUS
 62
    7
 10
124.27355010348185
 20
269.48756089552194
 11
112.27355010348185
 21
269.48756089552194
  0
LINE
  8
_0-5_top2mm
  6
CONTINUOUS
 62
    7
 10
112.27355010348185
 20
269.48756089552194
 11
112.27355010348185
 21
257.48756089552194
  0
LINE
  8
_0-5_top2mm
  6
CONTINUOUS
 62
    7
 10
112.27355010348185
 20
257.48756089552194
 11
124.27355010348185
 21
257.48756089552194
  0
LINE
  8
_0-5_top2mm
  6
CONTINUOUS
 62
    7
 10
111.27355010348185
 20
256.48756089552194
 11
112.27355010348185
 21
257.48756089552194
  0
LINE
  8
_0-5_top2mm
  6
CONTINUOUS
 62
    7
 10
112.27355010348185
 20
269.48756089552194
 11
111.27355010348185
 21
270.48756089552194
  0
LINE
  8
_0-5_top2mm
  6
CONTINUOUS
 62
    7
 10
124.27355010348185
 20
269.48756089552194
 11
125.27355010348185
 21
270.48756089552194
  0
LINE
  8
_0-5_top2mm
  6
CONTINUOUS
 62
    7
 10
124.27355010348185
 20
257.48756089552194
 11
125.27355010348185
 21
256.48756089552194
  0
LINE
  8
_0-5_top2mm
  6
CONTINUOUS
 62
    7
 10
143.32355010348181
 20
257.48756089552194
 11
143.32355010348181
 21
269.48756089552194
  0
LINE
  8
_0-5_top2mm
  6
CONTINUOUS
 62
    7
 10
143.32355010348181
 20
269.48756089552194
 11
131.32355010348181
 21
269.48756089552194
  0
LINE
  8
_0-5_top2mm
  6
CONTINUOUS
 62
    7
 10
131.32355010348181
 20
269.48756089552194
 11
131.32355010348181
 21
257.48756089552194
  0
LINE
  8
_0-5_top2mm
  6
CONTINUOUS
 62
    7
 10
131.32355010348181
 20
257.48756089552194
 11
143.32355010348181
 21
257.48756089552194
  0
LINE
  8
_0-5_top2mm
  6
CONTINUOUS
 62
    7
 10
130.32355010348181
 20
256.48756089552194
 11
131.32355010348181
 21
257.48756089552194
  0
LINE
  8
_0-5_top2mm
  6
CONTINUOUS
 62
    7
 10
131.32355010348181
 20
269.48756089552194
 11
130.32355010348181
 21
270.48756089552194
  0
LINE
  8
_0-5_top2mm
  6
CONTINUOUS
 62
    7
 10
143.32355010348181
 20
269.48756089552194
 11
144.32355010348181
 21
270.48756089552194
  0
LINE
  8
_0-5_top2mm
  6
CONTINUOUS
 62
    7
 10
143.32355010348181
 20
257.48756089552194
 11
144.32355010348181
 21
256.48756089552194
  0
LINE
  8
_0-5_top2mm
  6
CONTINUOUS
 62
    7
 10
162.37355010348188
 20
257.48756089552194
 11
162.37355010348188
 21
269.48756089552194
  0
LINE
  8
_0-5_top2mm
  6
CONTINUOUS
 62
    7
 10
162.37355010348188
 20
269.48756089552194
 11
150.37355010348188
 21
269.48756089552194
  0
LINE
  8
_0-5_top2mm
  6
CONTINUOUS
 62
    7
 10
150.37355010348188
 20
269.48756089552194
 11
150.37355010348188
 21
257.48756089552194
  0
LINE
  8
_0-5_top2mm
  6
CONTINUOUS
 62
    7
 10
150.37355010348188
 20
257.48756089552194
 11
162.37355010348182
 21
257.48756089552194
  0
LINE
  8
_0-5_top2mm
  6
CONTINUOUS
 62
    7
 10
149.37355010348188
 20
256.48756089552194
 11
150.37355010348188
 21
257.48756089552194
  0
LINE
  8
_0-5_top2mm
  6
CONTINUOUS
 62
    7
 10
150.37355010348188
 20
269.48756089552194
 11
149.37355010348188
 21
270.48756089552194
  0
LINE
  8
_0-5_top2mm
  6
CONTINUOUS
 62
    7
 10
162.37355010348188
 20
269.48756089552194
 11
163.37355010348188
 21
270.48756089552194
  0
LINE
  8
_0-5_top2mm
  6
CONTINUOUS
 62
    7
 10
162.37355010348182
 20
257.48756089552194
 11
163.37355010348182
 21
256.48756089552194
  0
LINE
  8
_0-5_top2mm
  6
CONTINUOUS
 62
    7
 10
162.37355010348188
 20
276.53756089552195
 11
162.37355010348188
 21
288.53756089552195
  0
LINE
  8
_0-5_top2mm
  6
CONTINUOUS
 62
    7
 10
162.37355010348188
 20
288.53756089552195
 11
150.37355010348188
 21
288.53756089552195
  0
LINE
  8
_0-5_top2mm
  6
CONTINUOUS
 62
    7
 10
150.37355010348188
 20
288.53756089552195
 11
150.37355010348188
 21
276.53756089552195
  0
LINE
  8
_0-5_top2mm
  6
CONTINUOUS
 62
    7
 10
150.37355010348188
 20
276.53756089552195
 11
162.37355010348188
 21
276.53756089552195
  0
LINE
  8
_0-5_top2mm
  6
CONTINUOUS
 62
    7
 10
149.37355010348188
 20
275.53756089552195
 11
150.37355010348188
 21
276.53756089552195
  0
LINE
  8
_0-5_top2mm
  6
CONTINUOUS
 62
    7
 10
150.37355010348188
 20
288.53756089552195
 11
149.37355010348188
 21
289.53756089552195
  0
LINE
  8
_0-5_top2mm
  6
CONTINUOUS
 62
    7
 10
162.37355010348188
 20
288.53756089552195
 11
163.37355010348188
 21
289.53756089552195
  0
LINE
  8
_0-5_top2mm
  6
CONTINUOUS
 62
    7
 10
162.37355010348188
 20
276.53756089552195
 11
163.37355010348188
 21
275.53756089552195
  0
LINE
  8
_0-5_top2mm
  6
CONTINUOUS
 62
    7
 10
143.32355010348181
 20
276.53756089552195
 11
143.32355010348181
 21
288.53756089552195
  0
LINE
  8
_0-5_top2mm
  6
CONTINUOUS
 62
    7
 10
143.32355010348181
 20
288.53756089552195
 11
131.32355010348181
 21
288.53756089552195
  0
LINE
  8
_0-5_top2mm
  6
CONTINUOUS
 62
    7
 10
131.32355010348181
 20
288.53756089552195
 11
131.32355010348181
 21
276.53756089552195
  0
LINE
  8
_0-5_top2mm
  6
CONTINUOUS
 62
    7
 10
131.32355010348181
 20
276.53756089552195
 11
143.32355010348181
 21
276.53756089552195
  0
LINE
  8
_0-5_top2mm
  6
CONTINUOUS
 62
    7
 10
130.32355010348181
 20
275.53756089552195
 11
131.32355010348181
 21
276.53756089552195
  0
LINE
  8
_0-5_top2mm
  6
CONTINUOUS
 62
    7
 10
131.32355010348181
 20
288.53756089552195
 11
130.32355010348181
 21
289.53756089552195
  0
LINE
  8
_0-5_top2mm
  6
CONTINUOUS
 62
    7
 10
143.32355010348181
 20
288.53756089552195
 11
144.32355010348181
 21
289.53756089552195
  0
LINE
  8
_0-5_top2mm
  6
CONTINUOUS
 62
    7
 10
143.32355010348181
 20
276.53756089552195
 11
144.32355010348181
 21
275.53756089552195
  0
LINE
  8
_0-5_top2mm
  6
CONTINUOUS
 62
    7
 10
124.27355010348185
 20
276.53756089552195
 11
124.27355010348185
 21
288.53756089552195
  0
LINE
  8
_0-5_top2mm
  6
CONTINUOUS
 62
    7
 10
124.27355010348185
 20
288.53756089552195
 11
112.27355010348185
 21
288.53756089552195
  0
LINE
  8
_0-5_top2mm
  6
CONTINUOUS
 62
    7
 10
112.27355010348185
 20
288.53756089552195
 11
112.27355010348185
 21
276.53756089552195
  0
LINE
  8
_0-5_top2mm
  6
CONTINUOUS
 62
    7
 10
112.27355010348185
 20
276.53756089552195
 11
124.27355010348185
 21
276.53756089552195
  0
LINE
  8
_0-5_top2mm
  6
CONTINUOUS
 62
    7
 10
111.27355010348185
 20
275.53756089552195
 11
112.27355010348185
 21
276.53756089552195
  0
LINE
  8
_0-5_top2mm
  6
CONTINUOUS
 62
    7
 10
112.27355010348185
 20
288.53756089552195
 11
111.27355010348185
 21
289.53756089552195
  0
LINE
  8
_0-5_top2mm
  6
CONTINUOUS
 62
    7
 10
124.27355010348185
 20
288.53756089552195
 11
125.27355010348185
 21
289.53756089552195
  0
LINE
  8
_0-5_top2mm
  6
CONTINUOUS
 62
    7
 10
124.27355010348185
 20
276.53756089552195
 11
125.27355010348185
 21
275.53756089552195
  0
LINE
  8
_0-5_top2mm
  6
CONTINUOUS
 62
    7
 10
105.2235501034819
 20
276.53756089552195
 11
105.2235501034819
 21
288.53756089552195
  0
LINE
  8
_0-5_top2mm
  6
CONTINUOUS
 62
    7
 10
105.2235501034819
 20
288.53756089552195
 11
93.223550103481898
 21
288.53756089552195
  0
LINE
  8
_0-5_top2mm
  6
CONTINUOUS
 62
    7
 10
93.223550103481898
 20
288.53756089552195
 11
93.223550103481898
 21
276.53756089552195
  0
LINE
  8
_0-5_top2mm
  6
CONTINUOUS
 62
    7
 10
93.223550103481898
 20
276.53756089552195
 11
105.2235501034819
 21
276.53756089552195
  0
LINE
  8
_0-5_top2mm
  6
CONTINUOUS
 62
    7
 10
92.223550103481898
 20
275.53756089552195
 11
93.223550103481898
 21
276.53756089552195
  0
LINE
  8
_0-5_top2mm
  6
CONTINUOUS
 62
    7
 10
93.223550103481898
 20
288.53756089552195
 11
92.223550103481898
 21
289.53756089552195
  0
LINE
  8
_0-5_top2mm
  6
CONTINUOUS
 62
    7
 10
105.2235501034819
 20
288.53756089552195
 11
106.2235501034819
 21
289.53756089552195
  0
LINE
  8
_0-5_top2mm
  6
CONTINUOUS
 62
    7
 10
105.2235501034819
 20
276.53756089552195
 11
106.2235501034819
 21
275.53756089552195
  0
LINE
  8
_0-5_top2mm
  6
CONTINUOUS
 62
    7
 10
98.873550103481875
 20
295.58756089552196
 11
98.873550103481875
 21
307.58756089552196
  0
LINE
  8
_0-5_top2mm
  6
CONTINUOUS
 62
    7
 10
98.873550103481875
 20
307.58756089552196
 11
86.873550103481875
 21
307.58756089552196
  0
LINE
  8
_0-5_top2mm
  6
CONTINUOUS
 62
    7
 10
86.873550103481875
 20
307.58756089552196
 11
86.873550103481875
 21
295.58756089552196
  0
LINE
  8
_0-5_top2mm
  6
CONTINUOUS
 62
    7
 10
86.873550103481875
 20
295.58756089552196
 11
98.873550103481875
 21
295.58756089552196
  0
LINE
  8
_0-5_top2mm
  6
CONTINUOUS
 62
    7
 10
85.873550103481875
 20
294.58756089552196
 11
86.873550103481875
 21
295.58756089552196
  0
LINE
  8
_0-5_top2mm
  6
CONTINUOUS
 62
    7
 10
86.873550103481875
 20
307.58756089552196
 11
85.873550103481875
 21
308.58756089552196
  0
LINE
  8
_0-5_top2mm
  6
CONTINUOUS
 62
    7
 10
98.873550103481875
 20
307.58756089552196
 11
99.873550103481875
 21
308.58756089552196
  0
LINE
  8
_0-5_top2mm
  6
CONTINUOUS
 62
    7
 10
98.873550103481875
 20
295.58756089552196
 11
99.873550103481875
 21
294.58756089552196
  0
LINE
  8
_0-5_top2mm
  6
CONTINUOUS
 62
    7
 10
117.92355010348183
 20
295.58756089552196
 11
117.92355010348183
 21
307.58756089552196
  0
LINE
  8
_0-5_top2mm
  6
CONTINUOUS
 62
    7
 10
117.92355010348183
 20
307.58756089552196
 11
105.92355010348183
 21
307.58756089552196
  0
LINE
  8
_0-5_top2mm
  6
CONTINUOUS
 62
    7
 10
105.92355010348183
 20
307.58756089552196
 11
105.92355010348183
 21
295.58756089552196
  0
LINE
  8
_0-5_top2mm
  6
CONTINUOUS
 62
    7
 10
105.92355010348183
 20
295.58756089552196
 11
117.92355010348183
 21
295.58756089552196
  0
LINE
  8
_0-5_top2mm
  6
CONTINUOUS
 62
    7
 10
104.92355010348183
 20
294.58756089552196
 11
105.92355010348183
 21
295.58756089552196
  0
LINE
  8
_0-5_top2mm
  6
CONTINUOUS
 62
    7
 10
105.92355010348183
 20
307.58756089552196
 11
104.92355010348183
 21
308.58756089552196
  0
LINE
  8
_0-5_top2mm
  6
CONTINUOUS
 62
    7
 10
117.92355010348183
 20
307.58756089552196
 11
118.92355010348183
 21
308.58756089552196
  0
LINE
  8
_0-5_top2mm
  6
CONTINUOUS
 62
    7
 10
117.92355010348183
 20
295.58756089552196
 11
118.92355010348183
 21
294.58756089552196
  0
LINE
  8
_0-5_top2mm
  6
CONTINUOUS
 62
    7
 10
136.9735501034819
 20
295.58756089552196
 11
136.9735501034819
 21
307.58756089552196
  0
LINE
  8
_0-5_top2mm
  6
CONTINUOUS
 62
    7
 10
136.9735501034819
 20
307.58756089552196
 11
124.9735501034819
 21
307.58756089552196
  0
LINE
  8
_0-5_top2mm
  6
CONTINUOUS
 62
    7
 10
124.9735501034819
 20
307.58756089552196
 11
124.9735501034819
 21
295.58756089552196
  0
LINE
  8
_0-5_top2mm
  6
CONTINUOUS
 62
    7
 10
124.9735501034819
 20
295.58756089552196
 11
136.9735501034819
 21
295.58756089552196
  0
LINE
  8
_0-5_top2mm
  6
CONTINUOUS
 62
    7
 10
123.9735501034819
 20
294.58756089552196
 11
124.9735501034819
 21
295.58756089552196
  0
LINE
  8
_0-5_top2mm
  6
CONTINUOUS
 62
    7
 10
124.9735501034819
 20
307.58756089552196
 11
123.9735501034819
 21
308.58756089552196
  0
LINE
  8
_0-5_top2mm
  6
CONTINUOUS
 62
    7
 10
136.9735501034819
 20
307.58756089552196
 11
137.9735501034819
 21
308.58756089552196
  0
LINE
  8
_0-5_top2mm
  6
CONTINUOUS
 62
    7
 10
136.9735501034819
 20
295.58756089552196
 11
137.9735501034819
 21
294.58756089552196
  0
LINE
  8
_0-5_top2mm
  6
CONTINUOUS
 62
    7
 10
156.02355010348185
 20
295.58756089552196
 11
156.02355010348185
 21
307.58756089552196
  0
LINE
  8
_0-5_top2mm
  6
CONTINUOUS
 62
    7
 10
156.02355010348185
 20
307.58756089552196
 11
144.02355010348185
 21
307.58756089552196
  0
LINE
  8
_0-5_top2mm
  6
CONTINUOUS
 62
    7
 10
144.02355010348185
 20
307.58756089552196
 11
144.02355010348185
 21
295.58756089552196
  0
LINE
  8
_0-5_top2mm
  6
CONTINUOUS
 62
    7
 10
144.02355010348185
 20
295.58756089552196
 11
156.02355010348185
 21
295.58756089552196
  0
LINE
  8
_0-5_top2mm
  6
CONTINUOUS
 62
    7
 10
143.02355010348185
 20
294.58756089552196
 11
144.02355010348185
 21
295.58756089552196
  0
LINE
  8
_0-5_top2mm
  6
CONTINUOUS
 62
    7
 10
144.02355010348185
 20
307.58756089552196
 11
143.02355010348185
 21
308.58756089552196
  0
LINE
  8
_0-5_top2mm
  6
CONTINUOUS
 62
    7
 10
156.02355010348185
 20
307.58756089552196
 11
157.02355010348185
 21
308.58756089552196
  0
LINE
  8
_0-5_top2mm
  6
CONTINUOUS
 62
    7
 10
156.02355010348185
 20
295.58756089552196
 11
157.02355010348185
 21
294.58756089552196
  0
LINE
  8
_0-5_top2mm
  6
CONTINUOUS
 62
    7
 10
153.48355010348189
 20
314.63756089552197
 11
153.48355010348189
 21
326.63756089552197
  0
LINE
  8
_0-5_top2mm
  6
CONTINUOUS
 62
    7
 10
153.48355010348189
 20
326.63756089552197
 11
141.48355010348189
 21
326.63756089552197
  0
LINE
  8
_0-5_top2mm
  6
CONTINUOUS
 62
    7
 10
141.48355010348189
 20
326.63756089552197
 11
141.48355010348189
 21
314.63756089552197
  0
LINE
  8
_0-5_top2mm
  6
CONTINUOUS
 62
    7
 10
141.48355010348189
 20
314.63756089552197
 11
153.48355010348189
 21
314.63756089552197
  0
LINE
  8
_0-5_top2mm
  6
CONTINUOUS
 62
    7
 10
140.48355010348189
 20
313.63756089552197
 11
141.48355010348189
 21
314.63756089552197
  0
LINE
  8
_0-5_top2mm
  6
CONTINUOUS
 62
    7
 10
141.48355010348189
 20
326.63756089552197
 11
140.48355010348189
 21
327.63756089552197
  0
LINE
  8
_0-5_top2mm
  6
CONTINUOUS
 62
    7
 10
153.48355010348189
 20
326.63756089552197
 11
154.48355010348189
 21
327.63756089552197
  0
LINE
  8
_0-5_top2mm
  6
CONTINUOUS
 62
    7
 10
153.48355010348189
 20
314.63756089552197
 11
154.48355010348189
 21
313.63756089552197
  0
LINE
  8
_0-5_top2mm
  6
CONTINUOUS
 62
    7
 10
134.43355010348182
 20
314.63756089552197
 11
134.43355010348182
 21
326.63756089552197
  0
LINE
  8
_0-5_top2mm
  6
CONTINUOUS
 62
    7
 10
134.43355010348182
 20
326.63756089552197
 11
122.43355010348182
 21
326.63756089552197
  0
LINE
  8
_0-5_top2mm
  6
CONTINUOUS
 62
    7
 10
122.43355010348182
 20
326.63756089552197
 11
122.43355010348182
 21
314.63756089552197
  0
LINE
  8
_0-5_top2mm
  6
CONTINUOUS
 62
    7
 10
122.43355010348182
 20
314.63756089552197
 11
134.43355010348182
 21
314.63756089552197
  0
LINE
  8
_0-5_top2mm
  6
CONTINUOUS
 62
    7
 10
121.43355010348182
 20
313.63756089552197
 11
122.43355010348182
 21
314.63756089552197
  0
LINE
  8
_0-5_top2mm
  6
CONTINUOUS
 62
    7
 10
122.43355010348182
 20
326.63756089552197
 11
121.43355010348182
 21
327.63756089552197
  0
LINE
  8
_0-5_top2mm
  6
CONTINUOUS
 62
    7
 10
134.43355010348182
 20
326.63756089552197
 11
135.43355010348182
 21
327.63756089552197
  0
LINE
  8
_0-5_top2mm
  6
CONTINUOUS
 62
    7
 10
134.43355010348182
 20
314.63756089552197
 11
135.43355010348182
 21
313.63756089552197
  0
LINE
  8
_0-5_top2mm
  6
CONTINUOUS
 62
    7
 10
115.38355010348187
 20
314.63756089552197
 11
115.38355010348187
 21
326.63756089552197
  0
LINE
  8
_0-5_top2mm
  6
CONTINUOUS
 62
    7
 10
115.38355010348187
 20
326.63756089552197
 11
103.38355010348187
 21
326.63756089552197
  0
LINE
  8
_0-5_top2mm
  6
CONTINUOUS
 62
    7
 10
103.38355010348187
 20
326.63756089552197
 11
103.38355010348187
 21
314.63756089552197
  0
LINE
  8
_0-5_top2mm
  6
CONTINUOUS
 62
    7
 10
103.38355010348187
 20
314.63756089552197
 11
115.38355010348187
 21
314.63756089552197
  0
LINE
  8
_0-5_top2mm
  6
CONTINUOUS
 62
    7
 10
102.38355010348187
 20
313.63756089552197
 11
103.38355010348187
 21
314.63756089552197
  0
LINE
  8
_0-5_top2mm
  6
CONTINUOUS
 62
    7
 10
103.38355010348187
 20
326.63756089552197
 11
102.38355010348187
 21
327.63756089552197
  0
LINE
  8
_0-5_top2mm
  6
CONTINUOUS
 62
    7
 10
115.38355010348187
 20
326.63756089552197
 11
116.38355010348187
 21
327.63756089552197
  0
LINE
  8
_0-5_top2mm
  6
CONTINUOUS
 62
    7
 10
115.38355010348187
 20
314.63756089552197
 11
116.38355010348187
 21
313.63756089552197
  0
LINE
  8
_0-5_top2mm
  6
CONTINUOUS
 62
    7
 10
96.333550103481798
 20
314.63756089552197
 11
96.333550103481798
 21
326.63756089552197
  0
LINE
  8
_0-5_top2mm
  6
CONTINUOUS
 62
    7
 10
96.333550103481798
 20
326.63756089552197
 11
84.333550103481798
 21
326.63756089552197
  0
LINE
  8
_0-5_top2mm
  6
CONTINUOUS
 62
    7
 10
84.333550103481798
 20
326.63756089552197
 11
84.333550103481798
 21
314.63756089552197
  0
LINE
  8
_0-5_top2mm
  6
CONTINUOUS
 62
    7
 10
84.333550103481798
 20
314.63756089552197
 11
96.333550103481798
 21
314.63756089552197
  0
LINE
  8
_0-5_top2mm
  6
CONTINUOUS
 62
    7
 10
83.333550103481798
 20
313.63756089552197
 11
84.333550103481798
 21
314.63756089552197
  0
LINE
  8
_0-5_top2mm
  6
CONTINUOUS
 62
    7
 10
84.333550103481798
 20
326.63756089552197
 11
83.333550103481798
 21
327.63756089552197
  0
LINE
  8
_0-5_top2mm
  6
CONTINUOUS
 62
    7
 10
96.333550103481798
 20
326.63756089552197
 11
97.333550103481798
 21
327.63756089552197
  0
LINE
  8
_0-5_top2mm
  6
CONTINUOUS
 62
    7
 10
96.333550103481798
 20
314.63756089552197
 11
97.333550103481798
 21
313.63756089552197
  0
LINE
  8
_0-5_top2mm
  6
CONTINUOUS
 62
    7
 10
100.14355010348186
 20
333.68756089552198
 11
100.14355010348186
 21
345.68756089552198
  0
LINE
  8
_0-5_top2mm
  6
CONTINUOUS
 62
    7
 10
100.14355010348186
 20
345.68756089552198
 11
88.143550103481857
 21
345.68756089552198
  0
LINE
  8
_0-5_top2mm
  6
CONTINUOUS
 62
    7
 10
88.143550103481857
 20
345.68756089552198
 11
88.143550103481857
 21
333.68756089552198
  0
LINE
  8
_0-5_top2mm
  6
CONTINUOUS
 62
    7
 10
88.143550103481857
 20
333.68756089552198
 11
100.14355010348186
 21
333.68756089552198
  0
LINE
  8
_0-5_top2mm
  6
CONTINUOUS
 62
    7
 10
87.143550103481857
 20
332.68756089552198
 11
88.143550103481857
 21
333.68756089552198
  0
LINE
  8
_0-5_top2mm
  6
CONTINUOUS
 62
    7
 10
88.143550103481857
 20
345.68756089552198
 11
87.143550103481857
 21
346.68756089552198
  0
LINE
  8
_0-5_top2mm
  6
CONTINUOUS
 62
    7
 10
100.14355010348186
 20
345.68756089552198
 11
101.14355010348186
 21
346.68756089552198
  0
LINE
  8
_0-5_top2mm
  6
CONTINUOUS
 62
    7
 10
100.14355010348186
 20
333.68756089552198
 11
101.14355010348186
 21
332.68756089552198
  0
LINE
  8
_0-5_top2mm
  6
CONTINUOUS
 62
    7
 10
119.19355010348181
 20
333.68756089552198
 11
119.19355010348181
 21
345.68756089552198
  0
LINE
  8
_0-5_top2mm
  6
CONTINUOUS
 62
    7
 10
119.19355010348181
 20
345.68756089552198
 11
107.19355010348181
 21
345.68756089552198
  0
LINE
  8
_0-5_top2mm
  6
CONTINUOUS
 62
    7
 10
107.19355010348181
 20
345.68756089552198
 11
107.19355010348181
 21
333.68756089552198
  0
LINE
  8
_0-5_top2mm
  6
CONTINUOUS
 62
    7
 10
107.19355010348181
 20
333.68756089552198
 11
119.19355010348181
 21
333.68756089552198
  0
LINE
  8
_0-5_top2mm
  6
CONTINUOUS
 62
    7
 10
106.19355010348181
 20
332.68756089552198
 11
107.19355010348181
 21
333.68756089552198
  0
LINE
  8
_0-5_top2mm
  6
CONTINUOUS
 62
    7
 10
107.19355010348181
 20
345.68756089552198
 11
106.19355010348181
 21
346.68756089552198
  0
LINE
  8
_0-5_top2mm
  6
CONTINUOUS
 62
    7
 10
119.19355010348181
 20
345.68756089552198
 11
120.19355010348181
 21
346.68756089552198
  0
LINE
  8
_0-5_top2mm
  6
CONTINUOUS
 62
    7
 10
119.19355010348181
 20
333.68756089552198
 11
120.19355010348181
 21
332.68756089552198
  0
LINE
  8
_0-5_top2mm
  6
CONTINUOUS
 62
    7
 10
138.24355010348188
 20
333.68756089552198
 11
138.24355010348188
 21
345.68756089552198
  0
LINE
  8
_0-5_top2mm
  6
CONTINUOUS
 62
    7
 10
138.24355010348188
 20
345.68756089552198
 11
126.24355010348188
 21
345.68756089552198
  0
LINE
  8
_0-5_top2mm
  6
CONTINUOUS
 62
    7
 10
126.24355010348188
 20
345.68756089552198
 11
126.24355010348188
 21
333.68756089552198
  0
LINE
  8
_0-5_top2mm
  6
CONTINUOUS
 62
    7
 10
126.24355010348188
 20
333.68756089552198
 11
138.24355010348188
 21
333.68756089552198
  0
LINE
  8
_0-5_top2mm
  6
CONTINUOUS
 62
    7
 10
125.24355010348188
 20
332.68756089552198
 11
126.24355010348188
 21
333.68756089552198
  0
LINE
  8
_0-5_top2mm
  6
CONTINUOUS
 62
    7
 10
126.24355010348188
 20
345.68756089552198
 11
125.24355010348188
 21
346.68756089552198
  0
LINE
  8
_0-5_top2mm
  6
CONTINUOUS
 62
    7
 10
138.24355010348188
 20
345.68756089552198
 11
139.24355010348188
 21
346.68756089552198
  0
LINE
  8
_0-5_top2mm
  6
CONTINUOUS
 62
    7
 10
138.24355010348188
 20
333.68756089552198
 11
139.24355010348188
 21
332.68756089552198
  0
LINE
  8
_0-5_top2mm
  6
CONTINUOUS
 62
    7
 10
157.29355010348183
 20
333.68756089552198
 11
157.29355010348183
 21
345.68756089552198
  0
LINE
  8
_0-5_top2mm
  6
CONTINUOUS
 62
    7
 10
157.29355010348183
 20
345.68756089552198
 11
145.29355010348183
 21
345.68756089552198
  0
LINE
  8
_0-5_top2mm
  6
CONTINUOUS
 62
    7
 10
145.29355010348183
 20
345.68756089552198
 11
145.29355010348183
 21
333.68756089552198
  0
LINE
  8
_0-5_top2mm
  6
CONTINUOUS
 62
    7
 10
145.29355010348183
 20
333.68756089552198
 11
157.29355010348183
 21
333.68756089552198
  0
LINE
  8
_0-5_top2mm
  6
CONTINUOUS
 62
    7
 10
144.29355010348183
 20
332.68756089552198
 11
145.29355010348183
 21
333.68756089552198
  0
LINE
  8
_0-5_top2mm
  6
CONTINUOUS
 62
    7
 10
145.29355010348183
 20
345.68756089552198
 11
144.29355010348183
 21
346.68756089552198
  0
LINE
  8
_0-5_top2mm
  6
CONTINUOUS
 62
    7
 10
157.29355010348183
 20
345.68756089552198
 11
158.29355010348183
 21
346.68756089552198
  0
LINE
  8
_0-5_top2mm
  6
CONTINUOUS
 62
    7
 10
157.29355010348183
 20
333.68756089552198
 11
158.29355010348183
 21
332.68756089552198
  0
LINE
  8
_0-5_top2mm
  6
CONTINUOUS
 62
    7
 10
159.8335501034818
 20
352.73756089552194
 11
159.8335501034818
 21
364.73756089552194
  0
LINE
  8
_0-5_top2mm
  6
CONTINUOUS
 62
    7
 10
159.8335501034818
 20
364.73756089552194
 11
147.8335501034818
 21
364.73756089552194
  0
LINE
  8
_0-5_top2mm
  6
CONTINUOUS
 62
    7
 10
147.8335501034818
 20
364.73756089552194
 11
147.8335501034818
 21
352.73756089552194
  0
LINE
  8
_0-5_top2mm
  6
CONTINUOUS
 62
    7
 10
147.8335501034818
 20
352.73756089552194
 11
159.8335501034818
 21
352.73756089552194
  0
LINE
  8
_0-5_top2mm
  6
CONTINUOUS
 62
    7
 10
146.8335501034818
 20
351.73756089552194
 11
147.8335501034818
 21
352.73756089552194
  0
LINE
  8
_0-5_top2mm
  6
CONTINUOUS
 62
    7
 10
147.8335501034818
 20
364.73756089552194
 11
146.8335501034818
 21
365.73756089552194
  0
LINE
  8
_0-5_top2mm
  6
CONTINUOUS
 62
    7
 10
159.8335501034818
 20
364.73756089552194
 11
160.8335501034818
 21
365.73756089552194
  0
LINE
  8
_0-5_top2mm
  6
CONTINUOUS
 62
    7
 10
159.8335501034818
 20
352.73756089552194
 11
160.8335501034818
 21
351.73756089552194
  0
LINE
  8
_0-5_top2mm
  6
CONTINUOUS
 62
    7
 10
140.78355010348184
 20
352.73756089552194
 11
140.78355010348184
 21
364.73756089552194
  0
LINE
  8
_0-5_top2mm
  6
CONTINUOUS
 62
    7
 10
140.78355010348184
 20
364.73756089552194
 11
128.78355010348184
 21
364.73756089552194
  0
LINE
  8
_0-5_top2mm
  6
CONTINUOUS
 62
    7
 10
128.78355010348184
 20
364.73756089552194
 11
128.78355010348184
 21
352.73756089552194
  0
LINE
  8
_0-5_top2mm
  6
CONTINUOUS
 62
    7
 10
128.78355010348184
 20
352.73756089552194
 11
140.78355010348184
 21
352.73756089552194
  0
LINE
  8
_0-5_top2mm
  6
CONTINUOUS
 62
    7
 10
127.78355010348184
 20
351.73756089552194
 11
128.78355010348184
 21
352.73756089552194
  0
LINE
  8
_0-5_top2mm
  6
CONTINUOUS
 62
    7
 10
128.78355010348184
 20
364.73756089552194
 11
127.78355010348184
 21
365.73756089552194
  0
LINE
  8
_0-5_top2mm
  6
CONTINUOUS
 62
    7
 10
140.78355010348184
 20
364.73756089552194
 11
141.78355010348184
 21
365.73756089552194
  0
LINE
  8
_0-5_top2mm
  6
CONTINUOUS
 62
    7
 10
140.78355010348184
 20
352.73756089552194
 11
141.78355010348184
 21
351.73756089552194
  0
LINE
  8
_0-5_top2mm
  6
CONTINUOUS
 62
    7
 10
121.73355010348189
 20
352.73756089552194
 11
121.73355010348189
 21
364.73756089552194
  0
LINE
  8
_0-5_top2mm
  6
CONTINUOUS
 62
    7
 10
121.73355010348189
 20
364.73756089552194
 11
109.73355010348189
 21
364.73756089552194
  0
LINE
  8
_0-5_top2mm
  6
CONTINUOUS
 62
    7
 10
109.73355010348189
 20
364.73756089552194
 11
109.73355010348189
 21
352.73756089552194
  0
LINE
  8
_0-5_top2mm
  6
CONTINUOUS
 62
    7
 10
109.73355010348189
 20
352.73756089552194
 11
121.73355010348189
 21
352.73756089552194
  0
LINE
  8
_0-5_top2mm
  6
CONTINUOUS
 62
    7
 10
108.73355010348189
 20
351.73756089552194
 11
109.73355010348189
 21
352.73756089552194
  0
LINE
  8
_0-5_top2mm
  6
CONTINUOUS
 62
    7
 10
109.73355010348189
 20
364.73756089552194
 11
108.73355010348189
 21
365.73756089552194
  0
LINE
  8
_0-5_top2mm
  6
CONTINUOUS
 62
    7
 10
121.73355010348189
 20
364.73756089552194
 11
122.73355010348189
 21
365.73756089552194
  0
LINE
  8
_0-5_top2mm
  6
CONTINUOUS
 62
    7
 10
121.73355010348189
 20
352.73756089552194
 11
122.73355010348189
 21
351.73756089552194
  0
LINE
  8
_0-5_top2mm
  6
CONTINUOUS
 62
    7
 10
102.68355010348182
 20
352.73756089552194
 11
102.68355010348182
 21
364.73756089552194
  0
LINE
  8
_0-5_top2mm
  6
CONTINUOUS
 62
    7
 10
102.68355010348182
 20
364.73756089552194
 11
90.683550103481821
 21
364.73756089552194
  0
LINE
  8
_0-5_top2mm
  6
CONTINUOUS
 62
    7
 10
90.683550103481821
 20
364.73756089552194
 11
90.683550103481821
 21
352.73756089552194
  0
LINE
  8
_0-5_top2mm
  6
CONTINUOUS
 62
    7
 10
90.683550103481821
 20
352.73756089552194
 11
102.68355010348182
 21
352.73756089552194
  0
LINE
  8
_0-5_top2mm
  6
CONTINUOUS
 62
    7
 10
89.683550103481821
 20
351.73756089552194
 11
90.683550103481821
 21
352.73756089552194
  0
LINE
  8
_0-5_top2mm
  6
CONTINUOUS
 62
    7
 10
90.683550103481821
 20
364.73756089552194
 11
89.683550103481821
 21
365.73756089552194
  0
LINE
  8
_0-5_top2mm
  6
CONTINUOUS
 62
    7
 10
102.68355010348182
 20
364.73756089552194
 11
103.68355010348182
 21
365.73756089552194
  0
LINE
  8
_0-5_top2mm
  6
CONTINUOUS
 62
    7
 10
102.68355010348182
 20
352.73756089552194
 11
103.68355010348182
 21
351.73756089552194
  0
LINE
  8
_0-5_top2mm
  6
CONTINUOUS
 62
    7
 10
188.11029352618849
 20
382.5237133182286
 11
177.71798868077522
 21
388.5237133182286
  0
LINE
  8
_0-5_top2mm
  6
CONTINUOUS
 62
    7
 10
177.71798868077522
 20
388.5237133182286
 11
171.71798868077522
 21
378.13140847281534
  0
LINE
  8
_0-5_top2mm
  6
CONTINUOUS
 62
    7
 10
171.71798868077522
 20
378.13140847281534
 11
182.11029352618849
 21
372.13140847281534
  0
LINE
  8
_0-5_top2mm
  6
CONTINUOUS
 62
    7
 10
182.11029352618849
 20
372.13140847281534
 11
188.11029352618849
 21
382.5237133182286
  0
LINE
  8
_0-5_top2mm
  6
CONTINUOUS
 62
    7
 10
182.4763189299729
 20
370.76538306903092
 11
182.11029352618849
 21
372.13140847281534
  0
LINE
  8
_0-5_top2mm
  6
CONTINUOUS
 62
    7
 10
171.71798868077522
 20
378.13140847281534
 11
170.35196327699077
 21
377.76538306903092
  0
LINE
  8
_0-5_top2mm
  6
CONTINUOUS
 62
    7
 10
177.71798868077522
 20
388.5237133182286
 11
177.35196327699077
 21
389.88973872201308
  0
LINE
  8
_0-5_top2mm
  6
CONTINUOUS
 62
    7
 10
188.11029352618849
 20
382.5237133182286
 11
189.47631892997293
 21
382.88973872201302
  0
LINE
  8
_0-5_top2mm
  6
CONTINUOUS
 62
    7
 10
178.88355010348184
 20
350.19756089552197
 11
178.88355010348184
 21
362.19756089552197
  0
LINE
  8
_0-5_top2mm
  6
CONTINUOUS
 62
    7
 10
178.88355010348184
 20
362.19756089552197
 11
166.88355010348184
 21
362.19756089552197
  0
LINE
  8
_0-5_top2mm
  6
CONTINUOUS
 62
    7
 10
166.88355010348184
 20
362.19756089552197
 11
166.88355010348184
 21
350.19756089552197
  0
LINE
  8
_0-5_top2mm
  6
CONTINUOUS
 62
    7
 10
166.88355010348184
 20
350.19756089552197
 11
178.88355010348184
 21
350.19756089552197
  0
LINE
  8
_0-5_top2mm
  6
CONTINUOUS
 62
    7
 10
165.88355010348184
 20
349.19756089552197
 11
166.88355010348184
 21
350.19756089552197
  0
LINE
  8
_0-5_top2mm
  6
CONTINUOUS
 62
    7
 10
166.88355010348184
 20
362.19756089552197
 11
165.88355010348184
 21
363.19756089552197
  0
LINE
  8
_0-5_top2mm
  6
CONTINUOUS
 62
    7
 10
178.88355010348184
 20
362.19756089552197
 11
179.88355010348184
 21
363.19756089552197
  0
LINE
  8
_0-5_top2mm
  6
CONTINUOUS
 62
    7
 10
178.88355010348184
 20
350.19756089552197
 11
179.88355010348184
 21
349.19756089552197
  0
LINE
  8
_0-8_top0_5mm
  6
CONTINUOUS
 62
    7
 10
88.683550103481821
 20
350.73756089552194
 11
104.68355010348182
 21
350.73756089552194
  0
LINE
  8
_0-8_top0_5mm
  6
CONTINUOUS
 62
    7
 10
104.68355010348182
 20
350.73756089552194
 11
104.68355010348182
 21
366.73756089552194
  0
LINE
  8
_0-8_top0_5mm
  6
CONTINUOUS
 62
    7
 10
104.68355010348182
 20
366.73756089552194
 11
88.683550103481821
 21
366.73756089552194
  0
LINE
  8
_0-8_top0_5mm
  6
CONTINUOUS
 62
    7
 10
88.683550103481821
 20
366.73756089552194
 11
88.683550103481821
 21
350.73756089552194
  0
LINE
  8
_0-8_top0_5mm
  6
CONTINUOUS
 62
    7
 10
107.73355010348189
 20
350.73756089552194
 11
123.73355010348189
 21
350.73756089552194
  0
LINE
  8
_0-8_top0_5mm
  6
CONTINUOUS
 62
    7
 10
123.73355010348189
 20
350.73756089552194
 11
123.73355010348189
 21
366.73756089552194
  0
LINE
  8
_0-8_top0_5mm
  6
CONTINUOUS
 62
    7
 10
123.73355010348189
 20
366.73756089552194
 11
107.73355010348189
 21
366.73756089552194
  0
LINE
  8
_0-8_top0_5mm
  6
CONTINUOUS
 62
    7
 10
107.73355010348189
 20
366.73756089552194
 11
107.73355010348189
 21
350.73756089552194
  0
LINE
  8
_0-8_top0_5mm
  6
CONTINUOUS
 62
    7
 10
145.8335501034818
 20
350.73756089552194
 11
161.8335501034818
 21
350.73756089552194
  0
LINE
  8
_0-8_top0_5mm
  6
CONTINUOUS
 62
    7
 10
161.8335501034818
 20
350.73756089552194
 11
161.8335501034818
 21
366.73756089552194
  0
LINE
  8
_0-8_top0_5mm
  6
CONTINUOUS
 62
    7
 10
161.8335501034818
 20
366.73756089552194
 11
145.8335501034818
 21
366.73756089552194
  0
LINE
  8
_0-8_top0_5mm
  6
CONTINUOUS
 62
    7
 10
145.8335501034818
 20
366.73756089552194
 11
145.8335501034818
 21
350.73756089552194
  0
LINE
  8
_0-8_top0_5mm
  6
CONTINUOUS
 62
    7
 10
126.78355010348184
 20
350.73756089552194
 11
142.78355010348184
 21
350.73756089552194
  0
LINE
  8
_0-8_top0_5mm
  6
CONTINUOUS
 62
    7
 10
142.78355010348184
 20
350.73756089552194
 11
142.78355010348184
 21
366.73756089552194
  0
LINE
  8
_0-8_top0_5mm
  6
CONTINUOUS
 62
    7
 10
142.78355010348184
 20
366.73756089552194
 11
126.78355010348184
 21
366.73756089552194
  0
LINE
  8
_0-8_top0_5mm
  6
CONTINUOUS
 62
    7
 10
126.78355010348184
 20
366.73756089552194
 11
126.78355010348184
 21
350.73756089552194
  0
LINE
  8
_0-8_top0_5mm
  6
CONTINUOUS
 62
    7
 10
164.88355010348184
 20
348.19756089552197
 11
180.88355010348184
 21
348.19756089552197
  0
LINE
  8
_0-8_top0_5mm
  6
CONTINUOUS
 62
    7
 10
180.88355010348184
 20
348.19756089552197
 11
180.88355010348184
 21
364.19756089552197
  0
LINE
  8
_0-8_top0_5mm
  6
CONTINUOUS
 62
    7
 10
180.88355010348184
 20
364.19756089552197
 11
164.88355010348184
 21
364.19756089552197
  0
LINE
  8
_0-8_top0_5mm
  6
CONTINUOUS
 62
    7
 10
164.88355010348184
 20
364.19756089552197
 11
164.88355010348184
 21
348.19756089552197
  0
LINE
  8
_0-8_top0_5mm
  6
CONTINUOUS
 62
    7
 10
143.29355010348183
 20
331.68756089552198
 11
159.29355010348183
 21
331.68756089552198
  0
LINE
  8
_0-8_top0_5mm
  6
CONTINUOUS
 62
    7
 10
159.29355010348183
 20
331.68756089552198
 11
159.29355010348183
 21
347.68756089552198
  0
LINE
  8
_0-8_top0_5mm
  6
CONTINUOUS
 62
    7
 10
159.29355010348183
 20
347.68756089552198
 11
143.29355010348183
 21
347.68756089552198
  0
LINE
  8
_0-8_top0_5mm
  6
CONTINUOUS
 62
    7
 10
143.29355010348183
 20
347.68756089552198
 11
143.29355010348183
 21
331.68756089552198
  0
LINE
  8
_0-8_top0_5mm
  6
CONTINUOUS
 62
    7
 10
124.24355010348188
 20
331.68756089552198
 11
140.24355010348188
 21
331.68756089552198
  0
LINE
  8
_0-8_top0_5mm
  6
CONTINUOUS
 62
    7
 10
140.24355010348188
 20
331.68756089552198
 11
140.24355010348188
 21
347.68756089552198
  0
LINE
  8
_0-8_top0_5mm
  6
CONTINUOUS
 62
    7
 10
140.24355010348188
 20
347.68756089552198
 11
124.24355010348188
 21
347.68756089552198
  0
LINE
  8
_0-8_top0_5mm
  6
CONTINUOUS
 62
    7
 10
124.24355010348188
 20
347.68756089552198
 11
124.24355010348188
 21
331.68756089552198
  0
LINE
  8
_0-8_top0_5mm
  6
CONTINUOUS
 62
    7
 10
105.19355010348181
 20
331.68756089552198
 11
121.19355010348181
 21
331.68756089552198
  0
LINE
  8
_0-8_top0_5mm
  6
CONTINUOUS
 62
    7
 10
121.19355010348181
 20
331.68756089552198
 11
121.19355010348181
 21
347.68756089552198
  0
LINE
  8
_0-8_top0_5mm
  6
CONTINUOUS
 62
    7
 10
121.19355010348181
 20
347.68756089552198
 11
105.19355010348181
 21
347.68756089552198
  0
LINE
  8
_0-8_top0_5mm
  6
CONTINUOUS
 62
    7
 10
105.19355010348181
 20
347.68756089552198
 11
105.19355010348181
 21
331.68756089552198
  0
LINE
  8
_0-8_top0_5mm
  6
CONTINUOUS
 62
    7
 10
86.143550103481857
 20
331.68756089552198
 11
102.14355010348186
 21
331.68756089552198
  0
LINE
  8
_0-8_top0_5mm
  6
CONTINUOUS
 62
    7
 10
102.14355010348186
 20
331.68756089552198
 11
102.14355010348186
 21
347.68756089552198
  0
LINE
  8
_0-8_top0_5mm
  6
CONTINUOUS
 62
    7
 10
102.14355010348186
 20
347.68756089552198
 11
86.143550103481857
 21
347.68756089552198
  0
LINE
  8
_0-8_top0_5mm
  6
CONTINUOUS
 62
    7
 10
86.143550103481857
 20
347.68756089552198
 11
86.143550103481857
 21
331.68756089552198
  0
LINE
  8
_0-8_top0_5mm
  6
CONTINUOUS
 62
    7
 10
82.333550103481798
 20
312.63756089552197
 11
98.333550103481798
 21
312.63756089552197
  0
LINE
  8
_0-8_top0_5mm
  6
CONTINUOUS
 62
    7
 10
98.333550103481798
 20
312.63756089552197
 11
98.333550103481798
 21
328.63756089552197
  0
LINE
  8
_0-8_top0_5mm
  6
CONTINUOUS
 62
    7
 10
98.333550103481798
 20
328.63756089552197
 11
82.333550103481798
 21
328.63756089552197
  0
LINE
  8
_0-8_top0_5mm
  6
CONTINUOUS
 62
    7
 10
82.333550103481798
 20
328.63756089552197
 11
82.333550103481798
 21
312.63756089552197
  0
LINE
  8
_0-8_top0_5mm
  6
CONTINUOUS
 62
    7
 10
101.38355010348187
 20
312.63756089552197
 11
117.38355010348187
 21
312.63756089552197
  0
LINE
  8
_0-8_top0_5mm
  6
CONTINUOUS
 62
    7
 10
117.38355010348187
 20
312.63756089552197
 11
117.38355010348187
 21
328.63756089552197
  0
LINE
  8
_0-8_top0_5mm
  6
CONTINUOUS
 62
    7
 10
117.38355010348187
 20
328.63756089552197
 11
101.38355010348187
 21
328.63756089552197
  0
LINE
  8
_0-8_top0_5mm
  6
CONTINUOUS
 62
    7
 10
101.38355010348187
 20
328.63756089552197
 11
101.38355010348187
 21
312.63756089552197
  0
LINE
  8
_0-8_top0_5mm
  6
CONTINUOUS
 62
    7
 10
120.43355010348182
 20
312.63756089552197
 11
136.43355010348182
 21
312.63756089552197
  0
LINE
  8
_0-8_top0_5mm
  6
CONTINUOUS
 62
    7
 10
136.43355010348182
 20
312.63756089552197
 11
136.43355010348182
 21
328.63756089552197
  0
LINE
  8
_0-8_top0_5mm
  6
CONTINUOUS
 62
    7
 10
136.43355010348182
 20
328.63756089552197
 11
120.43355010348182
 21
328.63756089552197
  0
LINE
  8
_0-8_top0_5mm
  6
CONTINUOUS
 62
    7
 10
120.43355010348182
 20
328.63756089552197
 11
120.43355010348182
 21
312.63756089552197
  0
LINE
  8
_0-8_top0_5mm
  6
CONTINUOUS
 62
    7
 10
139.48355010348189
 20
312.63756089552197
 11
155.48355010348189
 21
312.63756089552197
  0
LINE
  8
_0-8_top0_5mm
  6
CONTINUOUS
 62
    7
 10
155.48355010348189
 20
312.63756089552197
 11
155.48355010348189
 21
328.63756089552197
  0
LINE
  8
_0-8_top0_5mm
  6
CONTINUOUS
 62
    7
 10
155.48355010348189
 20
328.63756089552197
 11
139.48355010348189
 21
328.63756089552197
  0
LINE
  8
_0-8_top0_5mm
  6
CONTINUOUS
 62
    7
 10
139.48355010348189
 20
328.63756089552197
 11
139.48355010348189
 21
312.63756089552197
  0
LINE
  8
_0-8_top0_5mm
  6
CONTINUOUS
 62
    7
 10
142.02355010348185
 20
293.58756089552196
 11
158.02355010348185
 21
293.58756089552196
  0
LINE
  8
_0-8_top0_5mm
  6
CONTINUOUS
 62
    7
 10
158.02355010348185
 20
293.58756089552196
 11
158.02355010348185
 21
309.58756089552196
  0
LINE
  8
_0-8_top0_5mm
  6
CONTINUOUS
 62
    7
 10
158.02355010348185
 20
309.58756089552196
 11
142.02355010348185
 21
309.58756089552196
  0
LINE
  8
_0-8_top0_5mm
  6
CONTINUOUS
 62
    7
 10
142.02355010348185
 20
309.58756089552196
 11
142.02355010348185
 21
293.58756089552196
  0
LINE
  8
_0-8_top0_5mm
  6
CONTINUOUS
 62
    7
 10
122.9735501034819
 20
293.58756089552196
 11
138.9735501034819
 21
293.58756089552196
  0
LINE
  8
_0-8_top0_5mm
  6
CONTINUOUS
 62
    7
 10
138.9735501034819
 20
293.58756089552196
 11
138.9735501034819
 21
309.58756089552196
  0
LINE
  8
_0-8_top0_5mm
  6
CONTINUOUS
 62
    7
 10
138.9735501034819
 20
309.58756089552196
 11
122.9735501034819
 21
309.58756089552196
  0
LINE
  8
_0-8_top0_5mm
  6
CONTINUOUS
 62
    7
 10
122.9735501034819
 20
309.58756089552196
 11
122.9735501034819
 21
293.58756089552196
  0
LINE
  8
_0-8_top0_5mm
  6
CONTINUOUS
 62
    7
 10
103.92355010348183
 20
293.58756089552196
 11
119.92355010348183
 21
293.58756089552196
  0
LINE
  8
_0-8_top0_5mm
  6
CONTINUOUS
 62
    7
 10
119.92355010348183
 20
293.58756089552196
 11
119.92355010348183
 21
309.58756089552196
  0
LINE
  8
_0-8_top0_5mm
  6
CONTINUOUS
 62
    7
 10
119.92355010348183
 20
309.58756089552196
 11
103.92355010348183
 21
309.58756089552196
  0
LINE
  8
_0-8_top0_5mm
  6
CONTINUOUS
 62
    7
 10
103.92355010348183
 20
309.58756089552196
 11
103.92355010348183
 21
293.58756089552196
  0
LINE
  8
_0-8_top0_5mm
  6
CONTINUOUS
 62
    7
 10
84.873550103481875
 20
293.58756089552196
 11
100.87355010348188
 21
293.58756089552196
  0
LINE
  8
_0-8_top0_5mm
  6
CONTINUOUS
 62
    7
 10
100.87355010348188
 20
293.58756089552196
 11
100.87355010348188
 21
309.58756089552196
  0
LINE
  8
_0-8_top0_5mm
  6
CONTINUOUS
 62
    7
 10
100.87355010348188
 20
309.58756089552196
 11
84.873550103481875
 21
309.58756089552196
  0
LINE
  8
_0-8_top0_5mm
  6
CONTINUOUS
 62
    7
 10
84.873550103481875
 20
309.58756089552196
 11
84.873550103481875
 21
293.58756089552196
  0
LINE
  8
_0-8_top0_5mm
  6
CONTINUOUS
 62
    7
 10
91.223550103481898
 20
274.53756089552195
 11
107.2235501034819
 21
274.53756089552195
  0
LINE
  8
_0-8_top0_5mm
  6
CONTINUOUS
 62
    7
 10
107.2235501034819
 20
274.53756089552195
 11
107.2235501034819
 21
290.53756089552195
  0
LINE
  8
_0-8_top0_5mm
  6
CONTINUOUS
 62
    7
 10
107.2235501034819
 20
290.53756089552195
 11
91.223550103481898
 21
290.53756089552195
  0
LINE
  8
_0-8_top0_5mm
  6
CONTINUOUS
 62
    7
 10
91.223550103481898
 20
290.53756089552195
 11
91.223550103481898
 21
274.53756089552195
  0
LINE
  8
_0-8_top0_5mm
  6
CONTINUOUS
 62
    7
 10
110.27355010348185
 20
274.53756089552195
 11
126.27355010348185
 21
274.53756089552195
  0
LINE
  8
_0-8_top0_5mm
  6
CONTINUOUS
 62
    7
 10
126.27355010348185
 20
274.53756089552195
 11
126.27355010348185
 21
290.53756089552195
  0
LINE
  8
_0-8_top0_5mm
  6
CONTINUOUS
 62
    7
 10
126.27355010348185
 20
290.53756089552195
 11
110.27355010348185
 21
290.53756089552195
  0
LINE
  8
_0-8_top0_5mm
  6
CONTINUOUS
 62
    7
 10
110.27355010348185
 20
290.53756089552195
 11
110.27355010348185
 21
274.53756089552195
  0
LINE
  8
_0-8_top0_5mm
  6
CONTINUOUS
 62
    7
 10
129.32355010348181
 20
274.53756089552195
 11
145.32355010348181
 21
274.53756089552195
  0
LINE
  8
_0-8_top0_5mm
  6
CONTINUOUS
 62
    7
 10
145.32355010348181
 20
274.53756089552195
 11
145.32355010348181
 21
290.53756089552195
  0
LINE
  8
_0-8_top0_5mm
  6
CONTINUOUS
 62
    7
 10
145.32355010348181
 20
290.53756089552195
 11
129.32355010348181
 21
290.53756089552195
  0
LINE
  8
_0-8_top0_5mm
  6
CONTINUOUS
 62
    7
 10
129.32355010348181
 20
290.53756089552195
 11
129.32355010348181
 21
274.53756089552195
  0
LINE
  8
_0-8_top0_5mm
  6
CONTINUOUS
 62
    7
 10
148.37355010348188
 20
274.53756089552195
 11
164.37355010348188
 21
274.53756089552195
  0
LINE
  8
_0-8_top0_5mm
  6
CONTINUOUS
 62
    7
 10
164.37355010348188
 20
274.53756089552195
 11
164.37355010348188
 21
290.53756089552195
  0
LINE
  8
_0-8_top0_5mm
  6
CONTINUOUS
 62
    7
 10
164.37355010348188
 20
290.53756089552195
 11
148.37355010348188
 21
290.53756089552195
  0
LINE
  8
_0-8_top0_5mm
  6
CONTINUOUS
 62
    7
 10
148.37355010348188
 20
290.53756089552195
 11
148.37355010348188
 21
274.53756089552195
  0
LINE
  8
_0-8_top0_5mm
  6
CONTINUOUS
 62
    7
 10
148.37355010348188
 20
255.48756089552194
 11
164.37355010348188
 21
255.48756089552194
  0
LINE
  8
_0-8_top0_5mm
  6
CONTINUOUS
 62
    7
 10
164.37355010348188
 20
255.48756089552194
 11
164.37355010348188
 21
271.48756089552194
  0
LINE
  8
_0-8_top0_5mm
  6
CONTINUOUS
 62
    7
 10
164.37355010348188
 20
271.48756089552194
 11
148.37355010348188
 21
271.48756089552194
  0
LINE
  8
_0-8_top0_5mm
  6
CONTINUOUS
 62
    7
 10
148.37355010348188
 20
271.48756089552194
 11
148.37355010348188
 21
255.48756089552194
  0
LINE
  8
_0-8_top0_5mm
  6
CONTINUOUS
 62
    7
 10
129.32355010348181
 20
255.48756089552194
 11
145.32355010348181
 21
255.48756089552194
  0
LINE
  8
_0-8_top0_5mm
  6
CONTINUOUS
 62
    7
 10
145.32355010348181
 20
255.48756089552194
 11
145.32355010348181
 21
271.48756089552194
  0
LINE
  8
_0-8_top0_5mm
  6
CONTINUOUS
 62
    7
 10
145.32355010348181
 20
271.48756089552194
 11
129.32355010348181
 21
271.48756089552194
  0
LINE
  8
_0-8_top0_5mm
  6
CONTINUOUS
 62
    7
 10
129.32355010348181
 20
271.48756089552194
 11
129.32355010348181
 21
255.48756089552194
  0
LINE
  8
_0-8_top0_5mm
  6
CONTINUOUS
 62
    7
 10
110.27355010348185
 20
255.48756089552194
 11
126.27355010348185
 21
255.48756089552194
  0
LINE
  8
_0-8_top0_5mm
  6
CONTINUOUS
 62
    7
 10
126.27355010348185
 20
255.48756089552194
 11
126.27355010348185
 21
271.48756089552194
  0
LINE
  8
_0-8_top0_5mm
  6
CONTINUOUS
 62
    7
 10
126.27355010348185
 20
271.48756089552194
 11
110.27355010348185
 21
271.48756089552194
  0
LINE
  8
_0-8_top0_5mm
  6
CONTINUOUS
 62
    7
 10
110.27355010348185
 20
271.48756089552194
 11
110.27355010348185
 21
255.48756089552194
  0
LINE
  8
_0-8_top0_5mm
  6
CONTINUOUS
 62
    7
 10
91.223550103481898
 20
255.48756089552194
 11
107.2235501034819
 21
255.48756089552194
  0
LINE
  8
_0-8_top0_5mm
  6
CONTINUOUS
 62
    7
 10
107.2235501034819
 20
255.48756089552194
 11
107.2235501034819
 21
271.48756089552194
  0
LINE
  8
_0-8_top0_5mm
  6
CONTINUOUS
 62
    7
 10
107.2235501034819
 20
271.48756089552194
 11
91.223550103481898
 21
271.48756089552194
  0
LINE
  8
_0-8_top0_5mm
  6
CONTINUOUS
 62
    7
 10
91.223550103481898
 20
271.48756089552194
 11
91.223550103481898
 21
255.48756089552194
  0
LINE
  8
_0-8_top0_5mm
  6
CONTINUOUS
 62
    7
 10
182.84234433375735
 20
369.39935766524644
 11
190.84234433375735
 21
383.2557641257975
  0
LINE
  8
_0-8_top0_5mm
  6
CONTINUOUS
 62
    7
 10
190.84234433375735
 20
383.2557641257975
 11
176.98593787320635
 21
391.2557641257975
  0
LINE
  8
_0-8_top0_5mm
  6
CONTINUOUS
 62
    7
 10
176.98593787320635
 20
391.2557641257975
 11
168.98593787320635
 21
377.39935766524644
  0
LINE
  8
_0-8_top0_5mm
  6
CONTINUOUS
 62
    7
 10
168.98593787320635
 20
377.39935766524644
 11
182.84234433375735
 21
369.39935766524644
  0
LINE
  8
_0-2_
  6
CONTINUOUS
 62
    7
 10
89.683550103481821
 20
351.73756089552194
 11
103.68355010348182
 21
351.73756089552194
  0
LINE
  8
_0-2_
  6
CONTINUOUS
 62
    7
 10
103.68355010348182
 20
351.73756089552194
 11
103.68355010348182
 21
365.73756089552194
  0
LINE
  8
_0-2_
  6
CONTINUOUS
 62
    7
 10
103.68355010348182
 20
365.73756089552194
 11
89.683550103481821
 21
365.73756089552194
  0
LINE
  8
_0-2_
  6
CONTINUOUS
 62
    7
 10
89.683550103481821
 20
365.73756089552194
 11
89.683550103481821
 21
351.73756089552194
  0
POINT
  8
_0-2_
 62
    7
 10
115.73355010348189
 20
358.73756089552194
  0
LINE
  8
_0-2_
  6
CONTINUOUS
 62
    7
 10
108.73355010348189
 20
351.73756089552194
 11
122.73355010348189
 21
351.73756089552194
  0
LINE
  8
_0-2_
  6
CONTINUOUS
 62
    7
 10
122.73355010348189
 20
351.73756089552194
 11
122.73355010348189
 21
365.73756089552194
  0
LINE
  8
_0-2_
  6
CONTINUOUS
 62
    7
 10
122.73355010348189
 20
365.73756089552194
 11
108.73355010348189
 21
365.73756089552194
  0
LINE
  8
_0-2_
  6
CONTINUOUS
 62
    7
 10
108.73355010348189
 20
365.73756089552194
 11
108.73355010348189
 21
351.73756089552194
  0
POINT
  8
_0-2_
 62
    7
 10
134.78355010348184
 20
358.73756089552194
  0
LINE
  8
_0-2_
  6
CONTINUOUS
 62
    7
 10
127.78355010348184
 20
351.73756089552194
 11
141.78355010348184
 21
351.73756089552194
  0
LINE
  8
_0-2_
  6
CONTINUOUS
 62
    7
 10
141.78355010348184
 20
351.73756089552194
 11
141.78355010348184
 21
365.73756089552194
  0
LINE
  8
_0-2_
  6
CONTINUOUS
 62
    7
 10
141.78355010348184
 20
365.73756089552194
 11
127.78355010348184
 21
365.73756089552194
  0
LINE
  8
_0-2_
  6
CONTINUOUS
 62
    7
 10
127.78355010348184
 20
365.73756089552194
 11
127.78355010348184
 21
351.73756089552194
  0
POINT
  8
_0-2_
 62
    7
 10
153.8335501034818
 20
358.73756089552194
  0
LINE
  8
_0-2_
  6
CONTINUOUS
 62
    7
 10
146.8335501034818
 20
351.73756089552194
 11
160.8335501034818
 21
351.73756089552194
  0
LINE
  8
_0-2_
  6
CONTINUOUS
 62
    7
 10
160.8335501034818
 20
351.73756089552194
 11
160.8335501034818
 21
365.73756089552194
  0
LINE
  8
_0-2_
  6
CONTINUOUS
 62
    7
 10
160.8335501034818
 20
365.73756089552194
 11
146.8335501034818
 21
365.73756089552194
  0
LINE
  8
_0-2_
  6
CONTINUOUS
 62
    7
 10
146.8335501034818
 20
365.73756089552194
 11
146.8335501034818
 21
351.73756089552194
  0
POINT
  8
_0-2_
 62
    7
 10
172.88355010348184
 20
356.19756089552197
  0
LINE
  8
_0-2_
  6
CONTINUOUS
 62
    7
 10
165.88355010348184
 20
349.19756089552197
 11
179.88355010348184
 21
349.19756089552197
  0
LINE
  8
_0-2_
  6
CONTINUOUS
 62
    7
 10
179.88355010348184
 20
349.19756089552197
 11
179.88355010348184
 21
363.19756089552197
  0
LINE
  8
_0-2_
  6
CONTINUOUS
 62
    7
 10
179.88355010348184
 20
363.19756089552197
 11
165.88355010348184
 21
363.19756089552197
  0
LINE
  8
_0-2_
  6
CONTINUOUS
 62
    7
 10
165.88355010348184
 20
363.19756089552197
 11
165.88355010348184
 21
349.19756089552197
  0
POINT
  8
_0-2_
 62
    7
 10
151.29355010348183
 20
339.68756089552198
  0
LINE
  8
_0-2_
  6
CONTINUOUS
 62
    7
 10
144.29355010348183
 20
332.68756089552198
 11
158.29355010348183
 21
332.68756089552198
  0
LINE
  8
_0-2_
  6
CONTINUOUS
 62
    7
 10
158.29355010348183
 20
332.68756089552198
 11
158.29355010348183
 21
346.68756089552198
  0
LINE
  8
_0-2_
  6
CONTINUOUS
 62
    7
 10
158.29355010348183
 20
346.68756089552198
 11
144.29355010348183
 21
346.68756089552198
  0
LINE
  8
_0-2_
  6
CONTINUOUS
 62
    7
 10
144.29355010348183
 20
346.68756089552198
 11
144.29355010348183
 21
332.68756089552198
  0
POINT
  8
_0-2_
 62
    7
 10
132.24355010348188
 20
339.68756089552198
  0
LINE
  8
_0-2_
  6
CONTINUOUS
 62
    7
 10
125.24355010348188
 20
332.68756089552198
 11
139.24355010348188
 21
332.68756089552198
  0
LINE
  8
_0-2_
  6
CONTINUOUS
 62
    7
 10
139.24355010348188
 20
332.68756089552198
 11
139.24355010348188
 21
346.68756089552198
  0
LINE
  8
_0-2_
  6
CONTINUOUS
 62
    7
 10
139.24355010348188
 20
346.68756089552198
 11
125.24355010348188
 21
346.68756089552198
  0
LINE
  8
_0-2_
  6
CONTINUOUS
 62
    7
 10
125.24355010348188
 20
346.68756089552198
 11
125.24355010348188
 21
332.68756089552198
  0
POINT
  8
_0-2_
 62
    7
 10
113.19355010348181
 20
339.68756089552198
  0
LINE
  8
_0-2_
  6
CONTINUOUS
 62
    7
 10
106.19355010348181
 20
332.68756089552198
 11
120.19355010348181
 21
332.68756089552198
  0
LINE
  8
_0-2_
  6
CONTINUOUS
 62
    7
 10
120.19355010348181
 20
332.68756089552198
 11
120.19355010348181
 21
346.68756089552198
  0
LINE
  8
_0-2_
  6
CONTINUOUS
 62
    7
 10
120.19355010348181
 20
346.68756089552198
 11
106.19355010348181
 21
346.68756089552198
  0
LINE
  8
_0-2_
  6
CONTINUOUS
 62
    7
 10
106.19355010348181
 20
346.68756089552198
 11
106.19355010348181
 21
332.68756089552198
  0
POINT
  8
_0-2_
 62
    7
 10
94.143550103481857
 20
339.68756089552198
  0
LINE
  8
_0-2_
  6
CONTINUOUS
 62
    7
 10
87.143550103481857
 20
332.68756089552198
 11
101.14355010348186
 21
332.68756089552198
  0
LINE
  8
_0-2_
  6
CONTINUOUS
 62
    7
 10
101.14355010348186
 20
332.68756089552198
 11
101.14355010348186
 21
346.68756089552198
  0
LINE
  8
_0-2_
  6
CONTINUOUS
 62
    7
 10
101.14355010348186
 20
346.68756089552198
 11
87.143550103481857
 21
346.68756089552198
  0
LINE
  8
_0-2_
  6
CONTINUOUS
 62
    7
 10
87.143550103481857
 20
346.68756089552198
 11
87.143550103481857
 21
332.68756089552198
  0
POINT
  8
_0-2_
 62
    7
 10
90.333550103481798
 20
320.63756089552197
  0
LINE
  8
_0-2_
  6
CONTINUOUS
 62
    7
 10
83.333550103481798
 20
313.63756089552197
 11
97.333550103481798
 21
313.63756089552197
  0
LINE
  8
_0-2_
  6
CONTINUOUS
 62
    7
 10
97.333550103481798
 20
313.63756089552197
 11
97.333550103481798
 21
327.63756089552197
  0
LINE
  8
_0-2_
  6
CONTINUOUS
 62
    7
 10
97.333550103481798
 20
327.63756089552197
 11
83.333550103481798
 21
327.63756089552197
  0
LINE
  8
_0-2_
  6
CONTINUOUS
 62
    7
 10
83.333550103481798
 20
327.63756089552197
 11
83.333550103481798
 21
313.63756089552197
  0
POINT
  8
_0-2_
 62
    7
 10
109.38355010348187
 20
320.63756089552197
  0
LINE
  8
_0-2_
  6
CONTINUOUS
 62
    7
 10
102.38355010348187
 20
313.63756089552197
 11
116.38355010348187
 21
313.63756089552197
  0
LINE
  8
_0-2_
  6
CONTINUOUS
 62
    7
 10
116.38355010348187
 20
313.63756089552197
 11
116.38355010348187
 21
327.63756089552197
  0
LINE
  8
_0-2_
  6
CONTINUOUS
 62
    7
 10
116.38355010348187
 20
327.63756089552197
 11
102.38355010348187
 21
327.63756089552197
  0
LINE
  8
_0-2_
  6
CONTINUOUS
 62
    7
 10
102.38355010348187
 20
327.63756089552197
 11
102.38355010348187
 21
313.63756089552197
  0
POINT
  8
_0-2_
 62
    7
 10
128.43355010348182
 20
320.63756089552197
  0
LINE
  8
_0-2_
  6
CONTINUOUS
 62
    7
 10
121.43355010348182
 20
313.63756089552197
 11
135.43355010348182
 21
313.63756089552197
  0
LINE
  8
_0-2_
  6
CONTINUOUS
 62
    7
 10
135.43355010348182
 20
313.63756089552197
 11
135.43355010348182
 21
327.63756089552197
  0
LINE
  8
_0-2_
  6
CONTINUOUS
 62
    7
 10
135.43355010348182
 20
327.63756089552197
 11
121.43355010348182
 21
327.63756089552197
  0
LINE
  8
_0-2_
  6
CONTINUOUS
 62
    7
 10
121.43355010348182
 20
327.63756089552197
 11
121.43355010348182
 21
313.63756089552197
  0
POINT
  8
_0-2_
 62
    7
 10
147.48355010348189
 20
320.63756089552197
  0
LINE
  8
_0-2_
  6
CONTINUOUS
 62
    7
 10
140.48355010348189
 20
313.63756089552197
 11
154.48355010348189
 21
313.63756089552197
  0
LINE
  8
_0-2_
  6
CONTINUOUS
 62
    7
 10
154.48355010348189
 20
313.63756089552197
 11
154.48355010348189
 21
327.63756089552197
  0
LINE
  8
_0-2_
  6
CONTINUOUS
 62
    7
 10
154.48355010348189
 20
327.63756089552197
 11
140.48355010348189
 21
327.63756089552197
  0
LINE
  8
_0-2_
  6
CONTINUOUS
 62
    7
 10
140.48355010348189
 20
327.63756089552197
 11
140.48355010348189
 21
313.63756089552197
  0
POINT
  8
_0-2_
 62
    7
 10
150.02355010348185
 20
301.58756089552196
  0
LINE
  8
_0-2_
  6
CONTINUOUS
 62
    7
 10
143.02355010348185
 20
294.58756089552196
 11
157.02355010348185
 21
294.58756089552196
  0
LINE
  8
_0-2_
  6
CONTINUOUS
 62
    7
 10
157.02355010348185
 20
294.58756089552196
 11
157.02355010348185
 21
308.58756089552196
  0
LINE
  8
_0-2_
  6
CONTINUOUS
 62
    7
 10
157.02355010348185
 20
308.58756089552196
 11
143.02355010348185
 21
308.58756089552196
  0
LINE
  8
_0-2_
  6
CONTINUOUS
 62
    7
 10
143.02355010348185
 20
308.58756089552196
 11
143.02355010348185
 21
294.58756089552196
  0
POINT
  8
_0-2_
 62
    7
 10
130.9735501034819
 20
301.58756089552196
  0
LINE
  8
_0-2_
  6
CONTINUOUS
 62
    7
 10
123.9735501034819
 20
294.58756089552196
 11
137.9735501034819
 21
294.58756089552196
  0
LINE
  8
_0-2_
  6
CONTINUOUS
 62
    7
 10
137.9735501034819
 20
294.58756089552196
 11
137.9735501034819
 21
308.58756089552196
  0
LINE
  8
_0-2_
  6
CONTINUOUS
 62
    7
 10
137.9735501034819
 20
308.58756089552196
 11
123.9735501034819
 21
308.58756089552196
  0
LINE
  8
_0-2_
  6
CONTINUOUS
 62
    7
 10
123.9735501034819
 20
308.58756089552196
 11
123.9735501034819
 21
294.58756089552196
  0
POINT
  8
_0-2_
 62
    7
 10
111.92355010348183
 20
301.58756089552196
  0
LINE
  8
_0-2_
  6
CONTINUOUS
 62
    7
 10
104.92355010348183
 20
294.58756089552196
 11
118.92355010348183
 21
294.58756089552196
  0
LINE
  8
_0-2_
  6
CONTINUOUS
 62
    7
 10
118.92355010348183
 20
294.58756089552196
 11
118.92355010348183
 21
308.58756089552196
  0
LINE
  8
_0-2_
  6
CONTINUOUS
 62
    7
 10
118.92355010348183
 20
308.58756089552196
 11
104.92355010348183
 21
308.58756089552196
  0
LINE
  8
_0-2_
  6
CONTINUOUS
 62
    7
 10
104.92355010348183
 20
308.58756089552196
 11
104.92355010348183
 21
294.58756089552196
  0
POINT
  8
_0-2_
 62
    7
 10
92.873550103481875
 20
301.58756089552196
  0
LINE
  8
_0-2_
  6
CONTINUOUS
 62
    7
 10
85.873550103481875
 20
294.58756089552196
 11
99.873550103481875
 21
294.58756089552196
  0
LINE
  8
_0-2_
  6
CONTINUOUS
 62
    7
 10
99.873550103481875
 20
294.58756089552196
 11
99.873550103481875
 21
308.58756089552196
  0
LINE
  8
_0-2_
  6
CONTINUOUS
 62
    7
 10
99.873550103481875
 20
308.58756089552196
 11
85.873550103481875
 21
308.58756089552196
  0
LINE
  8
_0-2_
  6
CONTINUOUS
 62
    7
 10
85.873550103481875
 20
308.58756089552196
 11
85.873550103481875
 21
294.58756089552196
  0
POINT
  8
_0-2_
 62
    7
 10
99.223550103481898
 20
282.53756089552195
  0
LINE
  8
_0-2_
  6
CONTINUOUS
 62
    7
 10
92.223550103481898
 20
275.53756089552195
 11
106.2235501034819
 21
275.53756089552195
  0
LINE
  8
_0-2_
  6
CONTINUOUS
 62
    7
 10
106.2235501034819
 20
275.53756089552195
 11
106.2235501034819
 21
289.53756089552195
  0
LINE
  8
_0-2_
  6
CONTINUOUS
 62
    7
 10
106.2235501034819
 20
289.53756089552195
 11
92.223550103481898
 21
289.53756089552195
  0
LINE
  8
_0-2_
  6
CONTINUOUS
 62
    7
 10
92.223550103481898
 20
289.53756089552195
 11
92.223550103481898
 21
275.53756089552195
  0
POINT
  8
_0-2_
 62
    7
 10
118.27355010348185
 20
282.53756089552195
  0
LINE
  8
_0-2_
  6
CONTINUOUS
 62
    7
 10
111.27355010348185
 20
275.53756089552195
 11
125.27355010348185
 21
275.53756089552195
  0
LINE
  8
_0-2_
  6
CONTINUOUS
 62
    7
 10
125.27355010348185
 20
275.53756089552195
 11
125.27355010348185
 21
289.53756089552195
  0
LINE
  8
_0-2_
  6
CONTINUOUS
 62
    7
 10
125.27355010348185
 20
289.53756089552195
 11
111.27355010348185
 21
289.53756089552195
  0
LINE
  8
_0-2_
  6
CONTINUOUS
 62
    7
 10
111.27355010348185
 20
289.53756089552195
 11
111.27355010348185
 21
275.53756089552195
  0
POINT
  8
_0-2_
 62
    7
 10
137.32355010348181
 20
282.53756089552195
  0
LINE
  8
_0-2_
  6
CONTINUOUS
 62
    7
 10
130.32355010348181
 20
275.53756089552195
 11
144.32355010348181
 21
275.53756089552195
  0
LINE
  8
_0-2_
  6
CONTINUOUS
 62
    7
 10
144.32355010348181
 20
275.53756089552195
 11
144.32355010348181
 21
289.53756089552195
  0
LINE
  8
_0-2_
  6
CONTINUOUS
 62
    7
 10
144.32355010348181
 20
289.53756089552195
 11
130.32355010348181
 21
289.53756089552195
  0
LINE
  8
_0-2_
  6
CONTINUOUS
 62
    7
 10
130.32355010348181
 20
289.53756089552195
 11
130.32355010348181
 21
275.53756089552195
  0
POINT
  8
_0-2_
 62
    7
 10
156.37355010348188
 20
282.53756089552195
  0
LINE
  8
_0-2_
  6
CONTINUOUS
 62
    7
 10
149.37355010348188
 20
275.53756089552195
 11
163.37355010348188
 21
275.53756089552195
  0
LINE
  8
_0-2_
  6
CONTINUOUS
 62
    7
 10
163.37355010348188
 20
275.53756089552195
 11
163.37355010348188
 21
289.53756089552195
  0
LINE
  8
_0-2_
  6
CONTINUOUS
 62
    7
 10
163.37355010348188
 20
289.53756089552195
 11
149.37355010348188
 21
289.53756089552195
  0
LINE
  8
_0-2_
  6
CONTINUOUS
 62
    7
 10
149.37355010348188
 20
289.53756089552195
 11
149.37355010348188
 21
275.53756089552195
  0
POINT
  8
_0-2_
 62
    7
 10
156.37355010348188
 20
263.48756089552194
  0
LINE
  8
_0-2_
  6
CONTINUOUS
 62
    7
 10
149.37355010348188
 20
256.48756089552194
 11
163.37355010348188
 21
256.48756089552194
  0
LINE
  8
_0-2_
  6
CONTINUOUS
 62
    7
 10
163.37355010348188
 20
256.48756089552194
 11
163.37355010348188
 21
270.48756089552194
  0
LINE
  8
_0-2_
  6
CONTINUOUS
 62
    7
 10
163.37355010348188
 20
270.48756089552194
 11
149.37355010348188
 21
270.48756089552194
  0
LINE
  8
_0-2_
  6
CONTINUOUS
 62
    7
 10
149.37355010348188
 20
270.48756089552194
 11
149.37355010348188
 21
256.48756089552194
  0
POINT
  8
_0-2_
 62
    7
 10
137.32355010348181
 20
263.48756089552194
  0
LINE
  8
_0-2_
  6
CONTINUOUS
 62
    7
 10
130.32355010348181
 20
256.48756089552194
 11
144.32355010348181
 21
256.48756089552194
  0
LINE
  8
_0-2_
  6
CONTINUOUS
 62
    7
 10
144.32355010348181
 20
256.48756089552194
 11
144.32355010348181
 21
270.48756089552194
  0
LINE
  8
_0-2_
  6
CONTINUOUS
 62
    7
 10
144.32355010348181
 20
270.48756089552194
 11
130.32355010348181
 21
270.48756089552194
  0
LINE
  8
_0-2_
  6
CONTINUOUS
 62
    7
 10
130.32355010348181
 20
270.48756089552194
 11
130.32355010348181
 21
256.48756089552194
  0
POINT
  8
_0-2_
 62
    7
 10
118.27355010348185
 20
263.48756089552194
  0
LINE
  8
_0-2_
  6
CONTINUOUS
 62
    7
 10
111.27355010348185
 20
256.48756089552194
 11
125.27355010348185
 21
256.48756089552194
  0
LINE
  8
_0-2_
  6
CONTINUOUS
 62
    7
 10
125.27355010348185
 20
256.48756089552194
 11
125.27355010348185
 21
270.48756089552194
  0
LINE
  8
_0-2_
  6
CONTINUOUS
 62
    7
 10
125.27355010348185
 20
270.48756089552194
 11
111.27355010348185
 21
270.48756089552194
  0
LINE
  8
_0-2_
  6
CONTINUOUS
 62
    7
 10
111.27355010348185
 20
270.48756089552194
 11
111.27355010348185
 21
256.48756089552194
  0
POINT
  8
_0-2_
 62
    7
 10
99.223550103481898
 20
263.48756089552194
  0
LINE
  8
_0-2_
  6
CONTINUOUS
 62
    7
 10
92.223550103481898
 20
256.48756089552194
 11
106.2235501034819
 21
256.48756089552194
  0
LINE
  8
_0-2_
  6
CONTINUOUS
 62
    7
 10
106.2235501034819
 20
256.48756089552194
 11
106.2235501034819
 21
270.48756089552194
  0
LINE
  8
_0-2_
  6
CONTINUOUS
 62
    7
 10
106.2235501034819
 20
270.48756089552194
 11
92.223550103481898
 21
270.48756089552194
  0
LINE
  8
_0-2_
  6
CONTINUOUS
 62
    7
 10
92.223550103481898
 20
270.48756089552194
 11
92.223550103481898
 21
256.48756089552194
  0
POINT
  8
_0-2_
 62
    7
 10
179.91414110348185
 20
380.32756089552197
  0
LINE
  8
_0-2_
  6
CONTINUOUS
 62
    7
 10
182.4763189299729
 20
370.76538306903092
 11
189.4763189299729
 21
382.88973872201302
  0
LINE
  8
_0-2_
  6
CONTINUOUS
 62
    7
 10
189.4763189299729
 20
382.88973872201302
 11
177.3519632769908
 21
389.88973872201302
  0
LINE
  8
_0-2_
  6
CONTINUOUS
 62
    7
 10
177.3519632769908
 20
389.88973872201302
 11
170.3519632769908
 21
377.76538306903092
  0
LINE
  8
_0-2_
  6
CONTINUOUS
 62
    7
 10
170.3519632769908
 20
377.76538306903092
 11
182.4763189299729
 21
370.76538306903092
  0
CIRCLE
  8
_0-5_top2mm
  6
CONTINUOUS
 62
    7
 10
85.888550103481862
 20
349.21256089552196
 40
0.5
  0
CIRCLE
  8
_0-5_top2mm
  6
CONTINUOUS
 62
    7
 10
104.93855010348182
 20
349.2125608955219
 40
0.5
  0
CIRCLE
  8
_0-5_top2mm
  6
CONTINUOUS
 62
    7
 10
143.03855010348184
 20
349.2125608955219
 40
0.5
  0
CIRCLE
  8
_0-5_top2mm
  6
CONTINUOUS
 62
    7
 10
162.08855010348179
 20
349.21256089552196
 40
0.5
  0
CIRCLE
  8
_0-5_top2mm
  6
CONTINUOUS
 62
    7
 10
179.23355010348186
 20
367.62756089552192
 40
0.5
  0
CIRCLE
  8
_0-5_top2mm
  6
CONTINUOUS
 62
    7
 10
189.64164474854923
 20
389.09201345402505
 40
0.5
  0
CIRCLE
  8
_0-5_top2mm
  6
CONTINUOUS
 62
    7
 10
174.01213393211114
 20
398.02316249198975
 40
0.5
  0
CIRCLE
  8
_0-5_top2mm
  6
CONTINUOUS
 62
    7
 10
158.27855010348185
 20
311.11256089552194
 40
0.5
  0
CIRCLE
  8
_0-5_top2mm
  6
CONTINUOUS
 62
    7
 10
139.22855010348178
 20
311.11256089552194
 40
0.5
  0
CIRCLE
  8
_0-5_top2mm
  6
CONTINUOUS
 62
    7
 10
101.12855010348187
 20
311.11256089552194
 40
0.5
  0
CIRCLE
  8
_0-5_top2mm
  6
CONTINUOUS
 62
    7
 10
82.078550103481803
 20
311.11256089552194
 40
0.5
  0
CIRCLE
  8
_0-5_top2mm
  6
CONTINUOUS
 62
    7
 10
89.698550103481807
 20
273.01256089552197
 40
0.5
  0
CIRCLE
  8
_0-5_top2mm
  6
CONTINUOUS
 62
    7
 10
108.74855010348188
 20
273.01256089552191
 40
0.5
  0
CIRCLE
  8
_0-5_top2mm
  6
CONTINUOUS
 62
    7
 10
146.84855010348178
 20
273.01256089552191
 40
0.5
  0
CIRCLE
  8
_0-5_top2mm
  6
CONTINUOUS
 62
    7
 10
165.89855010348188
 20
273.01256089552197
 40
0.5
  0
CIRCLE
  8
_0-5_top2mm
  6
CONTINUOUS
 62
    7
 10
199.31678388079948
 20
380.39604697733625
 40
2
  0
CIRCLE
  8
_0-9_origin
  6
CONTINUOUS
 62
    7
 10
78.538550103481839
 20
253.59756089552195
 40
2
  0
ENDSEC
  0
EOF
