  0
SECTION
  2
HEADER
  9
$ACADVER
  1
AC1009
  9
$INSBASE
 10
0
 20
0
 30
0
  9
$EXTMIN
 10
0
 20
0
  9
$EXTMAX
 10
841
 20
594
  9
$LIMMIN
 10
0
 20
0
  9
$LIMMAX
 10
841
 20
594
  9
$LTSCALE
 40
1
  0
ENDSEC
  0
SECTION
  2
TABLES
  0
TABLE
  2
LTYPE
 70
     9
  0
LTYPE
  2
CONTINUOUS
 70
    64
  3
実線
 72
    65
 73
     0
 40
0.0
  0
LTYPE
  2
DASHED1
 70
    64
  3
--  --  --  --  --  --  --  --  
 72
    65
 73
     2
 40
2.5
 49
1.25
 49
-1.25
  0
LTYPE
  2
DASHED2
 70
    64
  3
----    ----    ----    ----    
 72
    65
 73
     2
 40
5.0
 49
2.5
 49
-2.5
  0
LTYPE
  2
DASHED3
 70
    64
  3
------  ------  ------  ------  
 72
    65
 73
     2
 40
5.0
 49
3.75
 49
-1.25
  0
LTYPE
  2
CENTER1
 70
    64
  3
----- - ----- - ----- - ----- - 
 72
    65
 73
     4
 40
10.0
 49
6.25
 49
-1.25
 49
1.25
 49
-1.25
  0
LTYPE
  2
CENTER2
 70
    64
  3
----------  --  ----------  --  
 72
    65
 73
     4
 40
20.0
 49
12.5
 49
-2.5
 49
2.5
 49
-2.5
  0
LTYPE
  2
PHANTOM1
 70
    64
  3
--- - - --- - - --- - - --- - - 
 72
    65
 73
     6
 40
10.0
 49
3.25
 49
-1.25
 49
1.25
 49
-1.25
 49
1.25
 49
-1.25
  0
LTYPE
  2
PHANTOM2
 70
    64
  3
--------  -  -  --------  -  -  
 72
    65
 73
     6
 40
20.0
 49
10.0
 49
-2.5
 49
1.25
 49
-2.5
 49
1.25
 49
-2.5
  0
LTYPE
  2
DOT
 70
    64
  3
-   -   -   -   -   -   -   -   
 72
    65
 73
     2
 40
2.5
 49
0.625
 49
-1.875
  0
LTYPE
  2
DUMMY
 70
    64
  3
ダミー
 72
    65
 73
     0
 40
0.0
  0
LTYPE
  2
RAND1
 70
    64
  3
ランダム線1
 72
    65
 73
     4
 40
10.0
 49
1.0
 49
-2.0
 49
3.0
 49
-4.0
  0
LTYPE
  2
RAND2
 70
    64
  3
ランダム線2
 72
    65
 73
     4
 40
14.0
 49
2.0
 49
-3.0
 49
4.0
 49
-5.0
  0
LTYPE
  2
RAND3
 70
    64
  3
ランダム線3
 72
    65
 73
     4
 40
18.0
 49
3.0
 49
-4.0
 49
5.0
 49
-6.0
  0
LTYPE
  2
RAND4
 70
    64
  3
ランダム線4
 72
    65
 73
     4
 40
22.0
 49
4.0
 49
-5.0
 49
6.0
 49
-7.0
  0
LTYPE
  2
RAND5
 70
    64
  3
ランダム線5
 72
    65
 73
     4
 40
26.0
 49
5.0
 49
-6.0
 49
7.0
 49
-8.0
  0
LTYPE
  2
LONG1
 70
    64
  3
----------  --  ----------  --  
 72
    65
 73
     4
 40
40.0
 49
32.5
 49
-2.5
 49
2.5
 49
-2.5
  0
LTYPE
  2
LONG2
 70
    64
  3
--------  -  -  --------  -  -  
 72
    65
 73
     6
 40
40.0
 49
30.0
 49
-2.5
 49
1.25
 49
-2.5
 49
1.25
 49
-2.5
  0
LTYPE
  2
LONG3
 70
    64
  3
+++++++++++++++..+++++++++++++++
 72
    65
 73
     2
 40
40.0
 49
37.5
 49
-2.5
  0
LTYPE
  2
LONG4
 70
    64
  3
+++++++++++++++..+++++++++++++++
 72
    65
 73
     2
 40
80.0
 49
75.0
 49
-5.0
  0
LTYPE
  2
LONG5
 70
    64
  3
----------  --  ----------  --  
 72
    65
 73
     4
 40
60.0
 49
37.5
 49
-7.5
 49
7.5
 49
-7.5
  0
LTYPE
  2
dashed
 70
   64
  3
-------   -------------   ------
 72
   65
 73
    2
 40
7.5
 49
6
 49
-1.5
  0
LTYPE
  2
dashed_spaced
 70
   64
  3
----        --------        ----
 72
   65
 73
    2
 40
12
 49
6
 49
-6
  0
LTYPE
  2
long_dashed_dotted
 70
   64
  3
------------- --- --------------
 72
   65
 73
    4
 40
15.25
 49
12
 49
-1.5
 49
0.25
 49
-1.5
  0
LTYPE
  2
long_dashed_double-dotted
 70
   64
  3
----------- --- --- ------------
 72
   65
 73
    6
 40
17
 49
12
 49
-1.5
 49
0.25
 49
-1.5
 49
0.25
 49
-1.5
  0
LTYPE
  2
long_dashed_triplicate-dotted
 70
   64
  3
--------- --- --- --- ----------
 72
   65
 73
    8
 40
18.75
 49
12
 49
-1.5
 49
0.25
 49
-1.5
 49
0.25
 49
-1.5
 49
0.25
 49
-1.5
  0
LTYPE
  2
dotted
 70
   64
  3
   -       -       -       -    
 72
   65
 73
    2
 40
1.75
 49
0.25
 49
-1.5
  0
LTYPE
  2
chain
 70
   64
  3
-------------- -- --------------
 72
   65
 73
    4
 40
18.5
 49
12
 49
-1.5
 49
3.5
 49
-1.5
  0
LTYPE
  2
chain_double_dash
 70
   64
  3
------------ -- -- -------------
 72
   65
 73
    6
 40
23.5
 49
12
 49
-1.5
 49
3.5
 49
-1.5
 49
3.5
 49
-1.5
  0
LTYPE
  2
dashed_dotted
 70
   64
  3
-----------     -     ----------
 72
   65
 73
    4
 40
9.25
 49
6
 49
-1.5
 49
0.25
 49
-1.5
  0
LTYPE
  2
double-dashed_dotted
 70
   64
  3
------   -----------   -   -----
 72
   65
 73
    6
 40
16.75
 49
6
 49
-1.5
 49
6
 49
-1.5
 49
0.25
 49
-1.5
  0
LTYPE
  2
dashed_double-dotted
 70
   64
  3
---------    -    -    ---------
 72
   65
 73
    6
 40
11
 49
6
 49
-1.5
 49
0.25
 49
-1.5
 49
0.25
 49
-1.5
  0
LTYPE
  2
double-dashed_double-dotted
 70
   64
  3
-----   ---------   -   -   ----
 72
   65
 73
    8
 40
18.5
 49
6
 49
-1.5
 49
6
 49
-1.5
 49
0.25
 49
-1.5
 49
0.25
 49
-1.5
  0
LTYPE
  2
dashed_triplicate-dotted
 70
   64
  3
-------    -    -    -    ------
 72
   65
 73
    8
 40
12.75
 49
6
 49
-1.5
 49
0.25
 49
-1.5
 49
0.25
 49
-1.5
 49
0.25
 49
-1.5
  0
LTYPE
  2
double-dashed_triplicate-dotted
 70
   64
  3
-----  ---------  -  -  -  -----
 72
   65
 73
   10
 40
20.25
 49
6
 49
-1.5
 49
6
 49
-1.5
 49
0.25
 49
-1.5
 49
0.25
 49
-1.5
 49
0.25
 49
-1.5
  0
LTYPE
  2
undefined
 70
   64
  3
--------------------------------
 72
   65
 73
    0
 40
0
  0
LTYPE
  2
DOTX2
 70
   64
  3
-               -               
 72
   65
 73
    2
 40
12.709999999999999
 49
0.01
 49
-12.699999999999999
  0
LTYPE
  2
DASHDOTX2
 70
   64
  3
--------        -        -------
 72
   65
 73
    4
 40
50.809999999999988
 49
25.399999999999999
 49
-12.699999999999999
 49
0.01
 49
-12.699999999999999
  0
LTYPE
  2
ACAD_ISO06W100
 70
   64
  3
---------   -   -   -   --------
 72
   65
 73
    8
 40
36.030000000000001
 49
24
 49
-3
 49
0.01
 49
-3
 49
0.01
 49
-3
 49
0.01
 49
-3
  0
LTYPE
  2
DIVIDE
 70
   64
  3
------      -      -      ------
 72
   65
 73
    6
 40
31.769999999999996
 49
12.699999999999999
 49
-6.3499999999999996
 49
0.01
 49
-6.3499999999999996
 49
0.01
 49
-6.3499999999999996
  0
LTYPE
  2
BORDER
 70
   64
  3
----     --------     -     ----
 72
   65
 73
    6
 40
44.459999999999994
 49
12.699999999999999
 49
-6.3499999999999996
 49
12.699999999999999
 49
-6.3499999999999996
 49
0.01
 49
-6.3499999999999996
  0
LTYPE
  2
ACAD_ISO14W100
 70
   64
  3
-------    -    -    -    ------
 72
   65
 73
    8
 40
24.030000000000001
 49
12
 49
-3
 49
0.01
 49
-3
 49
0.01
 49
-3
 49
0.01
 49
-3
  0
LTYPE
  2
BORDER2
 70
   64
  3
----     --------     -     ----
 72
   65
 73
    6
 40
22.234999999999999
 49
6.3499999999999996
 49
-3.1749999999999998
 49
6.3499999999999996
 49
-3.1749999999999998
 49
0.01
 49
-3.1749999999999998
  0
LTYPE
  2
PHANTOM
 70
   64
  3
---------   ---   ---   --------
 72
   65
 73
    6
 40
63.500000000000007
 49
31.75
 49
-6.3499999999999996
 49
6.3499999999999996
 49
-6.3499999999999996
 49
6.3499999999999996
 49
-6.3499999999999996
  0
LTYPE
  2
DIVIDEX2
 70
   64
  3
------      -      -      ------
 72
   65
 73
    6
 40
63.519999999999982
 49
25.399999999999999
 49
-12.699999999999999
 49
0.01
 49
-12.699999999999999
 49
0.01
 49
-12.699999999999999
  0
LTYPE
  2
ACAD_ISO10W100
 70
   64
  3
-----------     -     ----------
 72
   65
 73
    4
 40
18.009999999999998
 49
12
 49
-3
 49
0.01
 49
-3
  0
LTYPE
  2
ACAD_ISO07W100
 70
   64
  3
-               -               
 72
   65
 73
    2
 40
3.0099999999999998
 49
0.01
 49
-3
  0
LTYPE
  2
HIDDENX2
 70
   64
  3
------     -----------     -----
 72
   65
 73
    2
 40
19.049999999999997
 49
12.699999999999999
 49
-6.3499999999999996
  0
LTYPE
  2
HIDDEN
 70
   64
  3
------     -----------     -----
 72
   65
 73
    2
 40
9.5249999999999986
 49
6.3499999999999996
 49
-3.1749999999999998
  0
LTYPE
  2
ACAD_ISO02W100
 70
   64
  3
-------   -------------   ------
 72
   65
 73
    2
 40
15
 49
12
 49
-3
  0
LTYPE
  2
ACAD_ISO13W100
 70
   64
  3
-----   ---------   -   -   ----
 72
   65
 73
    8
 40
36.020000000000003
 49
12
 49
-3
 49
12
 49
-3
 49
0.01
 49
-3
 49
0.01
 49
-3
  0
LTYPE
  2
DASHDOT2
 70
   64
  3
--------        -        -------
 72
   65
 73
    4
 40
12.709999999999997
 49
6.3499999999999996
 49
-3.1749999999999998
 49
0.01
 49
-3.1749999999999998
  0
ENDTAB
  0
TABLE
  2
STYLE
  5
3
100
AcDbSymbolTable
 70
     1
  0
STYLE
  5
10
100
AcDbSymbolTableRecord
100
AcDbTextStyleTableRecord
  2
STANDARD
 70
     0
 40
0.0
 41
1.0
 50
0.0
 71
     0
 42
0.2
  3
txt
  4
bigfont.shx
  0
STYLE
  5
26
100
AcDbSymbolTableRecord
100
AcDbTextStyleTableRecord
  2
TATEGAKI
 70
    68
 40
0.0
 41
1.0
 50
0.0
 71
     0
 42
1.0
  3
txt
  4
bigfont.shx
  0
ENDTAB
  0
TABLE
  2
LAYER
 70
    4
  0
LAYER
  2
_0-0_pcb
 70
   64
 62
    7
  6
CONTINUOUS
  0
LAYER
  2
_0-1_top
 70
   64
 62
    7
  6
CONTINUOUS
  0
LAYER
  2
_0-2_bottom
 70
   64
 62
    7
  6
CONTINUOUS
  0
LAYER
  2
ADD_LINE
 70
   64
 62
    7
  6
CONTINUOUS
  0
ENDTAB
  0
ENDSEC
  0
SECTION
  2
BLOCKS
  0
ENDSEC
  0
SECTION
  2
ENTITIES
  0
CIRCLE
  8
_0-1_top
  6
CONTINUOUS
 62
    7
 10
80.022879843115675
 20
322.80581239383571
 40
3.2000000000000002
  0
CIRCLE
  8
_0-1_top
  6
CONTINUOUS
 62
    7
 10
80.022879843115675
 20
262.51445127494941
 40
3.2000000000000002
  0
POINT
  8
_0-0_pcb
 62
    7
 10
85.772879843115675
 20
332.9644512749494
  0
LINE
  8
_0-0_pcb
  6
CONTINUOUS
 62
    7
 10
139.76287984311568
 20
324.69445127494942
 11
139.76287984311568
 21
338.69445127494942
  0
LINE
  8
_0-0_pcb
  6
CONTINUOUS
 62
    7
 10
125.76287984311568
 20
338.69445127494942
 11
125.76287984311568
 21
324.69445127494942
  0
LINE
  8
_0-0_pcb
  6
CONTINUOUS
 62
    7
 10
230.55287984311568
 20
259.30445127494943
 11
214.04287984311566
 21
231.36445127494943
  0
LINE
  8
_0-0_pcb
  6
CONTINUOUS
 62
    7
 10
85.772879843115675
 20
332.9644512749494
 11
142.92287984311565
 21
344.3944512749494
  0
LINE
  8
_0-0_pcb
  6
CONTINUOUS
 62
    7
 10
142.92287984311565
 20
344.3944512749494
 11
160.70287984311568
 21
344.3944512749494
  0
LINE
  8
_0-0_pcb
  6
CONTINUOUS
 62
    7
 10
160.70287984311568
 20
344.3944512749494
 11
230.55287984311568
 21
339.31445127494942
  0
LINE
  8
_0-0_pcb
  6
CONTINUOUS
 62
    7
 10
230.55287984311568
 20
259.30445127494943
 11
230.55287984311568
 21
339.31445127494942
  0
LINE
  8
_0-0_pcb
  6
CONTINUOUS
 62
    7
 10
214.04287984311566
 20
231.36445127494943
 11
196.26287984311568
 21
241.5244512749494
  0
LINE
  8
_0-0_pcb
  6
CONTINUOUS
 62
    7
 10
85.772879843115675
 20
256.76445127494941
 11
177.21287984311567
 21
256.76445127494941
  0
LINE
  8
_0-0_pcb
  6
CONTINUOUS
 62
    7
 10
177.21287984311567
 20
256.76445127494941
 11
177.21287984311567
 21
241.5244512749494
  0
LINE
  8
_0-0_pcb
  6
CONTINUOUS
 62
    7
 10
196.26287984311568
 20
241.5244512749494
 11
177.21287984311567
 21
241.5244512749494
  0
LINE
  8
_0-0_pcb
  6
CONTINUOUS
 62
    7
 10
87.662879843115661
 20
296.75445127494942
 11
101.66287984311566
 21
296.75445127494942
  0
LINE
  8
_0-0_pcb
  6
CONTINUOUS
 62
    7
 10
101.66287984311566
 20
296.75445127494942
 11
101.66287984311566
 21
310.75445127494942
  0
LINE
  8
_0-0_pcb
  6
CONTINUOUS
 62
    7
 10
101.66287984311566
 20
310.75445127494942
 11
87.662879843115661
 21
310.75445127494942
  0
LINE
  8
_0-0_pcb
  6
CONTINUOUS
 62
    7
 10
87.662879843115661
 20
310.75445127494942
 11
87.662879843115661
 21
296.75445127494942
  0
LINE
  8
_0-0_pcb
  6
CONTINUOUS
 62
    7
 10
87.662879843115661
 20
315.80445127494943
 11
101.66287984311566
 21
315.80445127494943
  0
LINE
  8
_0-0_pcb
  6
CONTINUOUS
 62
    7
 10
101.66287984311566
 20
315.80445127494943
 11
101.66287984311566
 21
329.80445127494943
  0
LINE
  8
_0-0_pcb
  6
CONTINUOUS
 62
    7
 10
101.66287984311566
 20
329.80445127494943
 11
87.662879843115661
 21
329.80445127494943
  0
LINE
  8
_0-0_pcb
  6
CONTINUOUS
 62
    7
 10
87.662879843115661
 20
329.80445127494943
 11
87.662879843115661
 21
315.80445127494943
  0
LINE
  8
_0-0_pcb
  6
CONTINUOUS
 62
    7
 10
87.662879843115661
 20
277.70445127494941
 11
101.66287984311566
 21
277.70445127494941
  0
LINE
  8
_0-0_pcb
  6
CONTINUOUS
 62
    7
 10
101.66287984311566
 20
277.70445127494941
 11
101.66287984311566
 21
291.70445127494941
  0
LINE
  8
_0-0_pcb
  6
CONTINUOUS
 62
    7
 10
101.66287984311566
 20
291.70445127494941
 11
87.662879843115661
 21
291.70445127494941
  0
LINE
  8
_0-0_pcb
  6
CONTINUOUS
 62
    7
 10
87.662879843115661
 20
291.70445127494941
 11
87.662879843115661
 21
277.70445127494941
  0
LINE
  8
_0-0_pcb
  6
CONTINUOUS
 62
    7
 10
87.662879843115661
 20
258.65445127494939
 11
101.66287984311566
 21
258.65445127494939
  0
LINE
  8
_0-0_pcb
  6
CONTINUOUS
 62
    7
 10
101.66287984311566
 20
258.65445127494939
 11
101.66287984311566
 21
272.65445127494939
  0
LINE
  8
_0-0_pcb
  6
CONTINUOUS
 62
    7
 10
101.66287984311566
 20
272.65445127494939
 11
87.662879843115661
 21
272.65445127494939
  0
LINE
  8
_0-0_pcb
  6
CONTINUOUS
 62
    7
 10
87.662879843115661
 20
272.65445127494939
 11
87.662879843115661
 21
258.65445127494939
  0
LINE
  8
_0-0_pcb
  6
CONTINUOUS
 62
    7
 10
106.71287984311567
 20
315.80445127494943
 11
120.71287984311567
 21
315.80445127494943
  0
LINE
  8
_0-0_pcb
  6
CONTINUOUS
 62
    7
 10
120.71287984311567
 20
315.80445127494943
 11
120.71287984311567
 21
329.80445127494943
  0
LINE
  8
_0-0_pcb
  6
CONTINUOUS
 62
    7
 10
120.71287984311567
 20
329.80445127494943
 11
106.71287984311567
 21
329.80445127494943
  0
LINE
  8
_0-0_pcb
  6
CONTINUOUS
 62
    7
 10
106.71287984311567
 20
329.80445127494943
 11
106.71287984311567
 21
315.80445127494943
  0
LINE
  8
_0-0_pcb
  6
CONTINUOUS
 62
    7
 10
106.71287984311567
 20
296.75445127494942
 11
120.71287984311567
 21
296.75445127494942
  0
LINE
  8
_0-0_pcb
  6
CONTINUOUS
 62
    7
 10
120.71287984311567
 20
296.75445127494942
 11
120.71287984311567
 21
310.75445127494942
  0
LINE
  8
_0-0_pcb
  6
CONTINUOUS
 62
    7
 10
120.71287984311567
 20
310.75445127494942
 11
106.71287984311567
 21
310.75445127494942
  0
LINE
  8
_0-0_pcb
  6
CONTINUOUS
 62
    7
 10
106.71287984311567
 20
310.75445127494942
 11
106.71287984311567
 21
296.75445127494942
  0
LINE
  8
_0-0_pcb
  6
CONTINUOUS
 62
    7
 10
106.71287984311567
 20
277.70445127494941
 11
120.71287984311567
 21
277.70445127494941
  0
LINE
  8
_0-0_pcb
  6
CONTINUOUS
 62
    7
 10
120.71287984311567
 20
277.70445127494941
 11
120.71287984311567
 21
291.70445127494941
  0
LINE
  8
_0-0_pcb
  6
CONTINUOUS
 62
    7
 10
120.71287984311567
 20
291.70445127494941
 11
106.71287984311567
 21
291.70445127494941
  0
LINE
  8
_0-0_pcb
  6
CONTINUOUS
 62
    7
 10
106.71287984311567
 20
291.70445127494941
 11
106.71287984311567
 21
277.70445127494941
  0
LINE
  8
_0-0_pcb
  6
CONTINUOUS
 62
    7
 10
106.71287984311567
 20
258.65445127494939
 11
120.71287984311567
 21
258.65445127494939
  0
LINE
  8
_0-0_pcb
  6
CONTINUOUS
 62
    7
 10
120.71287984311567
 20
258.65445127494939
 11
120.71287984311567
 21
272.65445127494939
  0
LINE
  8
_0-0_pcb
  6
CONTINUOUS
 62
    7
 10
120.71287984311567
 20
272.65445127494939
 11
106.71287984311567
 21
272.65445127494939
  0
LINE
  8
_0-0_pcb
  6
CONTINUOUS
 62
    7
 10
106.71287984311567
 20
272.65445127494939
 11
106.71287984311567
 21
258.65445127494939
  0
LINE
  8
_0-0_pcb
  6
CONTINUOUS
 62
    7
 10
125.76287984311568
 20
324.69445127494942
 11
139.76287984311568
 21
324.69445127494942
  0
LINE
  8
_0-0_pcb
  6
CONTINUOUS
 62
    7
 10
139.76287984311568
 20
338.69445127494942
 11
125.76287984311568
 21
338.69445127494942
  0
LINE
  8
_0-0_pcb
  6
CONTINUOUS
 62
    7
 10
125.76287984311568
 20
305.6444512749494
 11
139.76287984311568
 21
305.6444512749494
  0
LINE
  8
_0-0_pcb
  6
CONTINUOUS
 62
    7
 10
139.76287984311568
 20
305.6444512749494
 11
139.76287984311568
 21
319.6444512749494
  0
LINE
  8
_0-0_pcb
  6
CONTINUOUS
 62
    7
 10
139.76287984311568
 20
319.6444512749494
 11
125.76287984311568
 21
319.6444512749494
  0
LINE
  8
_0-0_pcb
  6
CONTINUOUS
 62
    7
 10
125.76287984311568
 20
319.6444512749494
 11
125.76287984311568
 21
305.6444512749494
  0
LINE
  8
_0-0_pcb
  6
CONTINUOUS
 62
    7
 10
125.76287984311568
 20
286.59445127494939
 11
139.76287984311568
 21
286.59445127494939
  0
LINE
  8
_0-0_pcb
  6
CONTINUOUS
 62
    7
 10
139.76287984311568
 20
286.59445127494939
 11
139.76287984311568
 21
300.59445127494939
  0
LINE
  8
_0-0_pcb
  6
CONTINUOUS
 62
    7
 10
139.76287984311568
 20
300.59445127494939
 11
125.76287984311568
 21
300.59445127494939
  0
LINE
  8
_0-0_pcb
  6
CONTINUOUS
 62
    7
 10
125.76287984311568
 20
300.59445127494939
 11
125.76287984311568
 21
286.59445127494939
  0
LINE
  8
_0-0_pcb
  6
CONTINUOUS
 62
    7
 10
125.76287984311568
 20
267.54445127494938
 11
139.76287984311568
 21
267.54445127494938
  0
LINE
  8
_0-0_pcb
  6
CONTINUOUS
 62
    7
 10
139.76287984311568
 20
267.54445127494938
 11
139.76287984311568
 21
281.54445127494938
  0
LINE
  8
_0-0_pcb
  6
CONTINUOUS
 62
    7
 10
139.76287984311568
 20
281.54445127494938
 11
125.76287984311568
 21
281.54445127494938
  0
LINE
  8
_0-0_pcb
  6
CONTINUOUS
 62
    7
 10
125.76287984311568
 20
281.54445127494938
 11
125.76287984311568
 21
267.54445127494938
  0
LINE
  8
_0-0_pcb
  6
CONTINUOUS
 62
    7
 10
144.8128798431157
 20
327.23445127494944
 11
158.8128798431157
 21
327.23445127494944
  0
LINE
  8
_0-0_pcb
  6
CONTINUOUS
 62
    7
 10
158.8128798431157
 20
327.23445127494944
 11
158.8128798431157
 21
341.23445127494944
  0
LINE
  8
_0-0_pcb
  6
CONTINUOUS
 62
    7
 10
158.8128798431157
 20
341.23445127494944
 11
144.8128798431157
 21
341.23445127494944
  0
LINE
  8
_0-0_pcb
  6
CONTINUOUS
 62
    7
 10
144.8128798431157
 20
341.23445127494944
 11
144.8128798431157
 21
327.23445127494944
  0
LINE
  8
_0-0_pcb
  6
CONTINUOUS
 62
    7
 10
144.8128798431157
 20
308.18445127494942
 11
158.8128798431157
 21
308.18445127494942
  0
LINE
  8
_0-0_pcb
  6
CONTINUOUS
 62
    7
 10
158.8128798431157
 20
308.18445127494942
 11
158.8128798431157
 21
322.18445127494942
  0
LINE
  8
_0-0_pcb
  6
CONTINUOUS
 62
    7
 10
158.8128798431157
 20
322.18445127494942
 11
144.8128798431157
 21
322.18445127494942
  0
LINE
  8
_0-0_pcb
  6
CONTINUOUS
 62
    7
 10
144.8128798431157
 20
322.18445127494942
 11
144.8128798431157
 21
308.18445127494942
  0
LINE
  8
_0-0_pcb
  6
CONTINUOUS
 62
    7
 10
144.8128798431157
 20
289.13445127494941
 11
158.8128798431157
 21
289.13445127494941
  0
LINE
  8
_0-0_pcb
  6
CONTINUOUS
 62
    7
 10
158.8128798431157
 20
289.13445127494941
 11
158.8128798431157
 21
303.13445127494941
  0
LINE
  8
_0-0_pcb
  6
CONTINUOUS
 62
    7
 10
158.8128798431157
 20
303.13445127494941
 11
144.8128798431157
 21
303.13445127494941
  0
LINE
  8
_0-0_pcb
  6
CONTINUOUS
 62
    7
 10
144.8128798431157
 20
303.13445127494941
 11
144.8128798431157
 21
289.13445127494941
  0
LINE
  8
_0-0_pcb
  6
CONTINUOUS
 62
    7
 10
144.8128798431157
 20
270.0844512749494
 11
158.8128798431157
 21
270.0844512749494
  0
LINE
  8
_0-0_pcb
  6
CONTINUOUS
 62
    7
 10
158.8128798431157
 20
270.0844512749494
 11
158.8128798431157
 21
284.0844512749494
  0
LINE
  8
_0-0_pcb
  6
CONTINUOUS
 62
    7
 10
158.8128798431157
 20
284.0844512749494
 11
144.8128798431157
 21
284.0844512749494
  0
LINE
  8
_0-0_pcb
  6
CONTINUOUS
 62
    7
 10
144.8128798431157
 20
284.0844512749494
 11
144.8128798431157
 21
270.0844512749494
  0
LINE
  8
_0-0_pcb
  6
CONTINUOUS
 62
    7
 10
163.90287984311567
 20
323.42445127494943
 11
177.90287984311567
 21
323.42445127494943
  0
LINE
  8
_0-0_pcb
  6
CONTINUOUS
 62
    7
 10
177.90287984311567
 20
323.42445127494943
 11
177.90287984311567
 21
337.42445127494943
  0
LINE
  8
_0-0_pcb
  6
CONTINUOUS
 62
    7
 10
177.90287984311567
 20
337.42445127494943
 11
163.90287984311567
 21
337.42445127494943
  0
LINE
  8
_0-0_pcb
  6
CONTINUOUS
 62
    7
 10
163.90287984311567
 20
337.42445127494943
 11
163.90287984311567
 21
323.42445127494943
  0
LINE
  8
_0-0_pcb
  6
CONTINUOUS
 62
    7
 10
163.90287984311567
 20
304.37445127494942
 11
177.90287984311567
 21
304.37445127494942
  0
LINE
  8
_0-0_pcb
  6
CONTINUOUS
 62
    7
 10
177.90287984311567
 20
304.37445127494942
 11
177.90287984311567
 21
318.37445127494942
  0
LINE
  8
_0-0_pcb
  6
CONTINUOUS
 62
    7
 10
177.90287984311567
 20
318.37445127494942
 11
163.90287984311567
 21
318.37445127494942
  0
LINE
  8
_0-0_pcb
  6
CONTINUOUS
 62
    7
 10
163.90287984311567
 20
318.37445127494942
 11
163.90287984311567
 21
304.37445127494942
  0
LINE
  8
_0-0_pcb
  6
CONTINUOUS
 62
    7
 10
163.90287984311567
 20
285.32445127494941
 11
177.90287984311567
 21
285.32445127494941
  0
LINE
  8
_0-0_pcb
  6
CONTINUOUS
 62
    7
 10
177.90287984311567
 20
285.32445127494941
 11
177.90287984311567
 21
299.32445127494941
  0
LINE
  8
_0-0_pcb
  6
CONTINUOUS
 62
    7
 10
177.90287984311567
 20
299.32445127494941
 11
163.90287984311567
 21
299.32445127494941
  0
LINE
  8
_0-0_pcb
  6
CONTINUOUS
 62
    7
 10
163.90287984311567
 20
299.32445127494941
 11
163.90287984311567
 21
285.32445127494941
  0
LINE
  8
_0-0_pcb
  6
CONTINUOUS
 62
    7
 10
163.90287984311567
 20
266.2744512749494
 11
177.90287984311567
 21
266.2744512749494
  0
LINE
  8
_0-0_pcb
  6
CONTINUOUS
 62
    7
 10
177.90287984311567
 20
266.2744512749494
 11
177.90287984311567
 21
280.2744512749494
  0
LINE
  8
_0-0_pcb
  6
CONTINUOUS
 62
    7
 10
177.90287984311567
 20
280.2744512749494
 11
163.90287984311567
 21
280.2744512749494
  0
LINE
  8
_0-0_pcb
  6
CONTINUOUS
 62
    7
 10
163.90287984311567
 20
280.2744512749494
 11
163.90287984311567
 21
266.2744512749494
  0
LINE
  8
_0-0_pcb
  6
CONTINUOUS
 62
    7
 10
182.91287984311566
 20
320.88445127494941
 11
196.91287984311566
 21
320.88445127494941
  0
LINE
  8
_0-0_pcb
  6
CONTINUOUS
 62
    7
 10
196.91287984311566
 20
320.88445127494941
 11
196.91287984311566
 21
334.88445127494941
  0
LINE
  8
_0-0_pcb
  6
CONTINUOUS
 62
    7
 10
196.91287984311566
 20
334.88445127494941
 11
182.91287984311566
 21
334.88445127494941
  0
LINE
  8
_0-0_pcb
  6
CONTINUOUS
 62
    7
 10
182.91287984311566
 20
334.88445127494941
 11
182.91287984311566
 21
320.88445127494941
  0
LINE
  8
_0-0_pcb
  6
CONTINUOUS
 62
    7
 10
182.91287984311566
 20
301.8344512749494
 11
196.91287984311566
 21
301.8344512749494
  0
LINE
  8
_0-0_pcb
  6
CONTINUOUS
 62
    7
 10
196.91287984311566
 20
301.8344512749494
 11
196.91287984311566
 21
315.8344512749494
  0
LINE
  8
_0-0_pcb
  6
CONTINUOUS
 62
    7
 10
196.91287984311566
 20
315.8344512749494
 11
182.91287984311566
 21
315.8344512749494
  0
LINE
  8
_0-0_pcb
  6
CONTINUOUS
 62
    7
 10
182.91287984311566
 20
315.8344512749494
 11
182.91287984311566
 21
301.8344512749494
  0
LINE
  8
_0-0_pcb
  6
CONTINUOUS
 62
    7
 10
182.91287984311566
 20
282.78445127494939
 11
196.91287984311566
 21
282.78445127494939
  0
LINE
  8
_0-0_pcb
  6
CONTINUOUS
 62
    7
 10
196.91287984311566
 20
282.78445127494939
 11
196.91287984311566
 21
296.78445127494939
  0
LINE
  8
_0-0_pcb
  6
CONTINUOUS
 62
    7
 10
196.91287984311566
 20
296.78445127494939
 11
182.91287984311566
 21
296.78445127494939
  0
LINE
  8
_0-0_pcb
  6
CONTINUOUS
 62
    7
 10
182.91287984311566
 20
296.78445127494939
 11
182.91287984311566
 21
282.78445127494939
  0
LINE
  8
_0-0_pcb
  6
CONTINUOUS
 62
    7
 10
182.91287984311566
 20
263.73445127494938
 11
196.91287984311566
 21
263.73445127494938
  0
LINE
  8
_0-0_pcb
  6
CONTINUOUS
 62
    7
 10
196.91287984311566
 20
263.73445127494938
 11
196.91287984311566
 21
277.73445127494938
  0
LINE
  8
_0-0_pcb
  6
CONTINUOUS
 62
    7
 10
196.91287984311566
 20
277.73445127494938
 11
182.91287984311566
 21
277.73445127494938
  0
LINE
  8
_0-0_pcb
  6
CONTINUOUS
 62
    7
 10
182.91287984311566
 20
277.73445127494938
 11
182.91287984311566
 21
263.73445127494938
  0
POINT
  8
_0-0_pcb
 62
    7
 10
104.1878798431157
 20
313.27945127494939
  0
CIRCLE
  8
_0-0_pcb
  6
CONTINUOUS
 62
    7
 10
104.1878798431157
 20
313.27945127494939
 40
1.6000000000000001
  0
CIRCLE
  8
_0-0_pcb
  6
CONTINUOUS
 62
    7
 10
104.1878798431157
 20
275.17945127494943
 40
1.6000000000000001
  0
POINT
  8
_0-0_pcb
 62
    7
 10
104.1878798431157
 20
275.17945127494943
  0
POINT
  8
_0-0_pcb
 62
    7
 10
142.28787984311566
 20
323.43945127494942
  0
CIRCLE
  8
_0-0_pcb
  6
CONTINUOUS
 62
    7
 10
142.28787984311566
 20
323.43945127494942
 40
1.6000000000000001
  0
CIRCLE
  8
_0-0_pcb
  6
CONTINUOUS
 62
    7
 10
142.28787984311566
 20
285.3394512749494
 40
1.6000000000000001
  0
POINT
  8
_0-0_pcb
 62
    7
 10
142.28787984311566
 20
285.3394512749494
  0
POINT
  8
_0-0_pcb
 62
    7
 10
180.38787984311568
 20
319.62945127494942
  0
CIRCLE
  8
_0-0_pcb
  6
CONTINUOUS
 62
    7
 10
180.38787984311568
 20
319.62945127494942
 40
1.6000000000000001
  0
LINE
  8
_0-0_pcb
  6
CONTINUOUS
 62
    7
 10
85.772879843115675
 20
256.76445127494941
 11
85.772879843115675
 21
332.9644512749494
  0
CIRCLE
  8
_0-0_pcb
  6
CONTINUOUS
 62
    7
 10
180.38787984311568
 20
281.52945127494939
 40
1.6000000000000001
  0
POINT
  8
_0-0_pcb
 62
    7
 10
180.38787984311568
 20
281.52945127494939
  0
POINT
  8
_0-0_pcb
 62
    7
 10
224.20287984311568
 20
332.9644512749494
  0
POINT
  8
_0-0_pcb
 62
    7
 10
224.20287984311568
 20
322.80445127494943
  0
CIRCLE
  8
_0-0_pcb
  6
CONTINUOUS
 62
    7
 10
224.20287984311568
 20
322.80445127494943
 40
1.6000000000000001
  0
CIRCLE
  8
_0-0_pcb
  6
CONTINUOUS
 62
    7
 10
224.20287984311568
 20
332.9644512749494
 40
3.2000000000000002
  0
POINT
  8
_0-0_pcb
 62
    7
 10
198.80287984311568
 20
245.3344512749494
  0
CIRCLE
  8
_0-0_pcb
  6
CONTINUOUS
 62
    7
 10
198.80287984311568
 20
245.3344512749494
 40
3.2000000000000002
  0
POINT
  8
_0-0_pcb
 62
    7
 10
224.20287984311568
 20
272.00445127494942
  0
LINE
  8
_0-1_top
  6
CONTINUOUS
 62
    7
 10
74.272879843115675
 20
256.76445127494941
 11
177.21287984311567
 21
256.76445127494941
  0
POINT
  8
_0-1_top
 62
    7
 10
80.022879843115675
 20
327.2144512749494
  0
POINT
  8
_0-1_top
 62
    7
 10
80.022879843115675
 20
262.51445127494941
  0
LINE
  8
_0-1_top
  6
CONTINUOUS
 62
    7
 10
142.92287984311565
 20
344.3944512749494
 11
160.70287984311568
 21
344.3944512749494
  0
LINE
  8
_0-1_top
  6
CONTINUOUS
 62
    7
 10
160.70287984311568
 20
344.3944512749494
 11
230.55287984311568
 21
339.31445127494942
  0
LINE
  8
_0-1_top
  6
CONTINUOUS
 62
    7
 10
230.55287984311568
 20
339.31445127494942
 11
230.55287984311568
 21
259.30445127494943
  0
LINE
  8
_0-1_top
  6
CONTINUOUS
 62
    7
 10
74.272879843115675
 20
330.66445127494944
 11
142.92287984311565
 21
344.3944512749494
  0
LINE
  8
_0-1_top
  6
CONTINUOUS
 62
    7
 10
74.272879843115675
 20
256.76445127494941
 11
74.272879843115675
 21
330.66445127494944
  0
POINT
  8
_0-1_top
 62
    7
 10
80.022879843115675
 20
322.80581239383571
  0
POINT
  8
_0-1_top
 62
    7
 10
224.20287984311568
 20
272.00445127494942
  0
POINT
  8
_0-1_top
 62
    7
 10
198.80287984311568
 20
245.3344512749494
  0
POINT
  8
_0-1_top
 62
    7
 10
224.20287984311568
 20
332.9644512749494
  0
POINT
  8
_0-1_top
 62
    7
 10
224.20287984311568
 20
322.80445127494943
  0
POINT
  8
_0-1_top
 62
    7
 10
180.38787984311568
 20
319.62945127494942
  0
POINT
  8
_0-1_top
 62
    7
 10
180.38787984311568
 20
281.52945127494939
  0
POINT
  8
_0-1_top
 62
    7
 10
142.28787984311566
 20
285.3394512749494
  0
POINT
  8
_0-1_top
 62
    7
 10
142.28787984311566
 20
323.43945127494942
  0
POINT
  8
_0-1_top
 62
    7
 10
104.1878798431157
 20
313.27945127494939
  0
POINT
  8
_0-1_top
 62
    7
 10
104.1878798431157
 20
275.17945127494943
  0
CIRCLE
  8
_0-1_top
  6
CONTINUOUS
 62
    7
 10
224.20287984311568
 20
332.9644512749494
 40
3.2000000000000002
  0
CIRCLE
  8
_0-1_top
  6
CONTINUOUS
 62
    7
 10
198.80287984311568
 20
245.3344512749494
 40
3.2000000000000002
  0
CIRCLE
  8
_0-0_pcb
  6
CONTINUOUS
 62
    7
 10
224.20287984311568
 20
272.00445127494942
 40
1.6000000000000001
  0
CIRCLE
  8
_0-1_top
  6
CONTINUOUS
 62
    7
 10
104.1878798431157
 20
313.27945127494939
 40
1.6000000000000001
  0
CIRCLE
  8
_0-1_top
  6
CONTINUOUS
 62
    7
 10
104.1878798431157
 20
275.17945127494943
 40
1.6000000000000001
  0
CIRCLE
  8
_0-1_top
  6
CONTINUOUS
 62
    7
 10
142.28787984311566
 20
285.3394512749494
 40
1.6000000000000001
  0
CIRCLE
  8
_0-1_top
  6
CONTINUOUS
 62
    7
 10
142.28787984311566
 20
323.43945127494942
 40
1.6000000000000001
  0
CIRCLE
  8
_0-1_top
  6
CONTINUOUS
 62
    7
 10
180.38787984311568
 20
281.52945127494939
 40
1.6000000000000001
  0
CIRCLE
  8
_0-1_top
  6
CONTINUOUS
 62
    7
 10
180.38787984311568
 20
319.62945127494942
 40
1.6000000000000001
  0
LINE
  8
_0-1_top
  6
CONTINUOUS
 62
    7
 10
177.21287984311567
 20
256.76445127494941
 11
177.21287984311567
 21
241.5244512749494
  0
LINE
  8
_0-1_top
  6
CONTINUOUS
 62
    7
 10
177.21287984311567
 20
241.5244512749494
 11
196.26287984311568
 21
241.5244512749494
  0
CIRCLE
  8
_0-1_top
  6
CONTINUOUS
 62
    7
 10
224.20287984311568
 20
322.80445127494943
 40
1.6000000000000001
  0
CIRCLE
  8
_0-1_top
  6
CONTINUOUS
 62
    7
 10
224.20287984311568
 20
272.00445127494942
 40
1.6000000000000001
  0
LINE
  8
_0-1_top
  6
CONTINUOUS
 62
    7
 10
196.26287984311568
 20
241.5244512749494
 11
219.25178636207389
 21
228.38793326411616
  0
LINE
  8
_0-1_top
  6
CONTINUOUS
 62
    7
 10
235.71843901240157
 20
256.25207540218958
 11
219.25288166263988
 21
228.38728604105444
  0
LINE
  8
_0-1_top
  6
CONTINUOUS
 62
    7
 10
230.55287984311568
 20
259.30445127494943
 11
235.71843901240157
 21
256.25207540218958
  0
LINE
  8
_0-1_top
  6
CONTINUOUS
 62
    7
 10
214.02983539257545
 20
231.34162348650409
 11
196.24983539257551
 21
241.50162348650406
  0
POINT
  8
_0-1_top
 62
    7
 10
220.20936825739116
 20
235.90300135794769
  0
POINT
  8
_0-1_top
 62
    7
 10
229.36746686468175
 20
251.40132207797791
  0
CIRCLE
  8
_0-1_top
  6
CONTINUOUS
 62
    7
 10
229.36746686468175
 20
251.40132207797791
 40
1.6000000000000001
  0
CIRCLE
  8
_0-1_top
  6
CONTINUOUS
 62
    7
 10
220.20936825739116
 20
235.90300135794769
 40
1.6000000000000001
  0
LINE
  8
_0-1_top
  6
CONTINUOUS
 62
    7
 10
87.662879843115661
 20
315.80445127494943
 11
101.66287984311566
 21
315.80445127494943
  0
LINE
  8
_0-1_top
  6
CONTINUOUS
 62
    7
 10
101.66287984311566
 20
315.80445127494943
 11
101.66287984311566
 21
329.80445127494943
  0
LINE
  8
_0-1_top
  6
CONTINUOUS
 62
    7
 10
101.66287984311566
 20
329.80445127494943
 11
87.662879843115661
 21
329.80445127494943
  0
LINE
  8
_0-1_top
  6
CONTINUOUS
 62
    7
 10
87.662879843115661
 20
329.80445127494943
 11
87.662879843115661
 21
315.80445127494943
  0
LINE
  8
_0-1_top
  6
CONTINUOUS
 62
    7
 10
87.662879843115661
 20
296.75445127494942
 11
101.66287984311566
 21
296.75445127494942
  0
LINE
  8
_0-1_top
  6
CONTINUOUS
 62
    7
 10
101.66287984311566
 20
296.75445127494942
 11
101.66287984311566
 21
310.75445127494942
  0
LINE
  8
_0-1_top
  6
CONTINUOUS
 62
    7
 10
101.66287984311566
 20
310.75445127494942
 11
87.662879843115661
 21
310.75445127494942
  0
LINE
  8
_0-1_top
  6
CONTINUOUS
 62
    7
 10
87.662879843115661
 20
310.75445127494942
 11
87.662879843115661
 21
296.75445127494942
  0
LINE
  8
_0-1_top
  6
CONTINUOUS
 62
    7
 10
87.662879843115661
 20
258.65445127494939
 11
101.66287984311566
 21
258.65445127494939
  0
LINE
  8
_0-1_top
  6
CONTINUOUS
 62
    7
 10
101.66287984311566
 20
258.65445127494939
 11
101.66287984311566
 21
272.65445127494939
  0
LINE
  8
_0-1_top
  6
CONTINUOUS
 62
    7
 10
101.66287984311566
 20
272.65445127494939
 11
87.662879843115661
 21
272.65445127494939
  0
LINE
  8
_0-1_top
  6
CONTINUOUS
 62
    7
 10
87.662879843115661
 20
272.65445127494939
 11
87.662879843115661
 21
258.65445127494939
  0
LINE
  8
_0-1_top
  6
CONTINUOUS
 62
    7
 10
87.662879843115661
 20
277.70445127494941
 11
101.66287984311566
 21
277.70445127494941
  0
LINE
  8
_0-1_top
  6
CONTINUOUS
 62
    7
 10
101.66287984311566
 20
277.70445127494941
 11
101.66287984311566
 21
291.70445127494941
  0
LINE
  8
_0-1_top
  6
CONTINUOUS
 62
    7
 10
101.66287984311566
 20
291.70445127494941
 11
87.662879843115661
 21
291.70445127494941
  0
LINE
  8
_0-1_top
  6
CONTINUOUS
 62
    7
 10
87.662879843115661
 20
291.70445127494941
 11
87.662879843115661
 21
277.70445127494941
  0
LINE
  8
_0-1_top
  6
CONTINUOUS
 62
    7
 10
106.71287984311567
 20
277.70445127494941
 11
120.71287984311567
 21
277.70445127494941
  0
LINE
  8
_0-1_top
  6
CONTINUOUS
 62
    7
 10
120.71287984311567
 20
277.70445127494941
 11
120.71287984311567
 21
291.70445127494941
  0
LINE
  8
_0-1_top
  6
CONTINUOUS
 62
    7
 10
120.71287984311567
 20
291.70445127494941
 11
106.71287984311567
 21
291.70445127494941
  0
LINE
  8
_0-1_top
  6
CONTINUOUS
 62
    7
 10
106.71287984311567
 20
291.70445127494941
 11
106.71287984311567
 21
277.70445127494941
  0
LINE
  8
_0-1_top
  6
CONTINUOUS
 62
    7
 10
106.71287984311567
 20
258.65445127494939
 11
120.71287984311567
 21
258.65445127494939
  0
LINE
  8
_0-1_top
  6
CONTINUOUS
 62
    7
 10
120.71287984311567
 20
258.65445127494939
 11
120.71287984311567
 21
272.65445127494939
  0
LINE
  8
_0-1_top
  6
CONTINUOUS
 62
    7
 10
120.71287984311567
 20
272.65445127494939
 11
106.71287984311567
 21
272.65445127494939
  0
LINE
  8
_0-1_top
  6
CONTINUOUS
 62
    7
 10
106.71287984311567
 20
272.65445127494939
 11
106.71287984311567
 21
258.65445127494939
  0
LINE
  8
_0-1_top
  6
CONTINUOUS
 62
    7
 10
106.71287984311567
 20
315.80445127494943
 11
120.71287984311567
 21
315.80445127494943
  0
LINE
  8
_0-1_top
  6
CONTINUOUS
 62
    7
 10
120.71287984311567
 20
315.80445127494943
 11
120.71287984311567
 21
329.80445127494943
  0
LINE
  8
_0-1_top
  6
CONTINUOUS
 62
    7
 10
120.71287984311567
 20
329.80445127494943
 11
106.71287984311567
 21
329.80445127494943
  0
LINE
  8
_0-1_top
  6
CONTINUOUS
 62
    7
 10
106.71287984311567
 20
329.80445127494943
 11
106.71287984311567
 21
315.80445127494943
  0
LINE
  8
_0-1_top
  6
CONTINUOUS
 62
    7
 10
106.71287984311567
 20
296.75445127494942
 11
120.71287984311567
 21
296.75445127494942
  0
LINE
  8
_0-1_top
  6
CONTINUOUS
 62
    7
 10
120.71287984311567
 20
296.75445127494942
 11
120.71287984311567
 21
310.75445127494942
  0
LINE
  8
_0-1_top
  6
CONTINUOUS
 62
    7
 10
120.71287984311567
 20
310.75445127494942
 11
106.71287984311567
 21
310.75445127494942
  0
LINE
  8
_0-1_top
  6
CONTINUOUS
 62
    7
 10
106.71287984311567
 20
310.75445127494942
 11
106.71287984311567
 21
296.75445127494942
  0
LINE
  8
_0-1_top
  6
CONTINUOUS
 62
    7
 10
125.76287984311568
 20
324.69445127494942
 11
139.76287984311568
 21
324.69445127494942
  0
LINE
  8
_0-1_top
  6
CONTINUOUS
 62
    7
 10
139.76287984311568
 20
324.69445127494942
 11
139.76287984311568
 21
338.69445127494942
  0
LINE
  8
_0-1_top
  6
CONTINUOUS
 62
    7
 10
139.76287984311568
 20
338.69445127494942
 11
125.76287984311568
 21
338.69445127494942
  0
LINE
  8
_0-1_top
  6
CONTINUOUS
 62
    7
 10
125.76287984311568
 20
338.69445127494942
 11
125.76287984311568
 21
324.69445127494942
  0
LINE
  8
_0-1_top
  6
CONTINUOUS
 62
    7
 10
125.76287984311568
 20
305.6444512749494
 11
139.76287984311568
 21
305.6444512749494
  0
LINE
  8
_0-1_top
  6
CONTINUOUS
 62
    7
 10
139.76287984311568
 20
305.6444512749494
 11
139.76287984311568
 21
319.6444512749494
  0
LINE
  8
_0-1_top
  6
CONTINUOUS
 62
    7
 10
139.76287984311568
 20
319.6444512749494
 11
125.76287984311568
 21
319.6444512749494
  0
LINE
  8
_0-1_top
  6
CONTINUOUS
 62
    7
 10
125.76287984311568
 20
319.6444512749494
 11
125.76287984311568
 21
305.6444512749494
  0
LINE
  8
_0-1_top
  6
CONTINUOUS
 62
    7
 10
125.76287984311568
 20
286.59445127494939
 11
139.76287984311568
 21
286.59445127494939
  0
LINE
  8
_0-1_top
  6
CONTINUOUS
 62
    7
 10
139.76287984311568
 20
286.59445127494939
 11
139.76287984311568
 21
300.59445127494939
  0
LINE
  8
_0-1_top
  6
CONTINUOUS
 62
    7
 10
139.76287984311568
 20
300.59445127494939
 11
125.76287984311568
 21
300.59445127494939
  0
LINE
  8
_0-1_top
  6
CONTINUOUS
 62
    7
 10
125.76287984311568
 20
300.59445127494939
 11
125.76287984311568
 21
286.59445127494939
  0
LINE
  8
_0-1_top
  6
CONTINUOUS
 62
    7
 10
125.76287984311568
 20
267.54445127494938
 11
139.76287984311568
 21
267.54445127494938
  0
LINE
  8
_0-1_top
  6
CONTINUOUS
 62
    7
 10
139.76287984311568
 20
267.54445127494938
 11
139.76287984311568
 21
281.54445127494938
  0
LINE
  8
_0-1_top
  6
CONTINUOUS
 62
    7
 10
139.76287984311568
 20
281.54445127494938
 11
125.76287984311568
 21
281.54445127494938
  0
LINE
  8
_0-1_top
  6
CONTINUOUS
 62
    7
 10
125.76287984311568
 20
281.54445127494938
 11
125.76287984311568
 21
267.54445127494938
  0
LINE
  8
_0-1_top
  6
CONTINUOUS
 62
    7
 10
144.8128798431157
 20
270.0844512749494
 11
158.8128798431157
 21
270.0844512749494
  0
LINE
  8
_0-1_top
  6
CONTINUOUS
 62
    7
 10
158.8128798431157
 20
270.0844512749494
 11
158.8128798431157
 21
284.0844512749494
  0
LINE
  8
_0-1_top
  6
CONTINUOUS
 62
    7
 10
158.8128798431157
 20
284.0844512749494
 11
144.8128798431157
 21
284.0844512749494
  0
LINE
  8
_0-1_top
  6
CONTINUOUS
 62
    7
 10
144.8128798431157
 20
284.0844512749494
 11
144.8128798431157
 21
270.0844512749494
  0
LINE
  8
_0-1_top
  6
CONTINUOUS
 62
    7
 10
144.8128798431157
 20
289.13445127494941
 11
158.8128798431157
 21
289.13445127494941
  0
LINE
  8
_0-1_top
  6
CONTINUOUS
 62
    7
 10
158.8128798431157
 20
289.13445127494941
 11
158.8128798431157
 21
303.13445127494941
  0
LINE
  8
_0-1_top
  6
CONTINUOUS
 62
    7
 10
158.8128798431157
 20
303.13445127494941
 11
144.8128798431157
 21
303.13445127494941
  0
LINE
  8
_0-1_top
  6
CONTINUOUS
 62
    7
 10
144.8128798431157
 20
303.13445127494941
 11
144.8128798431157
 21
289.13445127494941
  0
LINE
  8
_0-1_top
  6
CONTINUOUS
 62
    7
 10
144.8128798431157
 20
308.18445127494942
 11
158.8128798431157
 21
308.18445127494942
  0
LINE
  8
_0-1_top
  6
CONTINUOUS
 62
    7
 10
158.8128798431157
 20
308.18445127494942
 11
158.8128798431157
 21
322.18445127494942
  0
LINE
  8
_0-1_top
  6
CONTINUOUS
 62
    7
 10
158.8128798431157
 20
322.18445127494942
 11
144.8128798431157
 21
322.18445127494942
  0
LINE
  8
_0-1_top
  6
CONTINUOUS
 62
    7
 10
144.8128798431157
 20
322.18445127494942
 11
144.8128798431157
 21
308.18445127494942
  0
LINE
  8
_0-1_top
  6
CONTINUOUS
 62
    7
 10
144.8128798431157
 20
327.23445127494944
 11
158.8128798431157
 21
327.23445127494944
  0
LINE
  8
_0-1_top
  6
CONTINUOUS
 62
    7
 10
158.8128798431157
 20
327.23445127494944
 11
158.8128798431157
 21
341.23445127494944
  0
LINE
  8
_0-1_top
  6
CONTINUOUS
 62
    7
 10
158.8128798431157
 20
341.23445127494944
 11
144.8128798431157
 21
341.23445127494944
  0
LINE
  8
_0-1_top
  6
CONTINUOUS
 62
    7
 10
144.8128798431157
 20
341.23445127494944
 11
144.8128798431157
 21
327.23445127494944
  0
LINE
  8
_0-1_top
  6
CONTINUOUS
 62
    7
 10
163.90287984311567
 20
323.42445127494943
 11
177.90287984311567
 21
323.42445127494943
  0
LINE
  8
_0-1_top
  6
CONTINUOUS
 62
    7
 10
177.90287984311567
 20
323.42445127494943
 11
177.90287984311567
 21
337.42445127494943
  0
LINE
  8
_0-1_top
  6
CONTINUOUS
 62
    7
 10
177.90287984311567
 20
337.42445127494943
 11
163.90287984311567
 21
337.42445127494943
  0
LINE
  8
_0-1_top
  6
CONTINUOUS
 62
    7
 10
163.90287984311567
 20
337.42445127494943
 11
163.90287984311567
 21
323.42445127494943
  0
LINE
  8
_0-1_top
  6
CONTINUOUS
 62
    7
 10
182.91287984311566
 20
320.88445127494941
 11
196.91287984311566
 21
320.88445127494941
  0
LINE
  8
_0-1_top
  6
CONTINUOUS
 62
    7
 10
196.91287984311566
 20
320.88445127494941
 11
196.91287984311566
 21
334.88445127494941
  0
LINE
  8
_0-1_top
  6
CONTINUOUS
 62
    7
 10
196.91287984311566
 20
334.88445127494941
 11
182.91287984311566
 21
334.88445127494941
  0
LINE
  8
_0-1_top
  6
CONTINUOUS
 62
    7
 10
182.91287984311566
 20
334.88445127494941
 11
182.91287984311566
 21
320.88445127494941
  0
LINE
  8
_0-1_top
  6
CONTINUOUS
 62
    7
 10
163.90287984311567
 20
304.37445127494942
 11
177.90287984311567
 21
304.37445127494942
  0
LINE
  8
_0-1_top
  6
CONTINUOUS
 62
    7
 10
177.90287984311567
 20
304.37445127494942
 11
177.90287984311567
 21
318.37445127494942
  0
LINE
  8
_0-1_top
  6
CONTINUOUS
 62
    7
 10
177.90287984311567
 20
318.37445127494942
 11
163.90287984311567
 21
318.37445127494942
  0
LINE
  8
_0-1_top
  6
CONTINUOUS
 62
    7
 10
163.90287984311567
 20
318.37445127494942
 11
163.90287984311567
 21
304.37445127494942
  0
LINE
  8
_0-1_top
  6
CONTINUOUS
 62
    7
 10
163.90287984311567
 20
285.32445127494941
 11
177.90287984311567
 21
285.32445127494941
  0
LINE
  8
_0-1_top
  6
CONTINUOUS
 62
    7
 10
177.90287984311567
 20
285.32445127494941
 11
177.90287984311567
 21
299.32445127494941
  0
LINE
  8
_0-1_top
  6
CONTINUOUS
 62
    7
 10
177.90287984311567
 20
299.32445127494941
 11
163.90287984311567
 21
299.32445127494941
  0
LINE
  8
_0-1_top
  6
CONTINUOUS
 62
    7
 10
163.90287984311567
 20
299.32445127494941
 11
163.90287984311567
 21
285.32445127494941
  0
LINE
  8
_0-1_top
  6
CONTINUOUS
 62
    7
 10
182.91287984311566
 20
282.78445127494939
 11
196.91287984311566
 21
282.78445127494939
  0
LINE
  8
_0-1_top
  6
CONTINUOUS
 62
    7
 10
196.91287984311566
 20
282.78445127494939
 11
196.91287984311566
 21
296.78445127494939
  0
LINE
  8
_0-1_top
  6
CONTINUOUS
 62
    7
 10
196.91287984311566
 20
296.78445127494939
 11
182.91287984311566
 21
296.78445127494939
  0
LINE
  8
_0-1_top
  6
CONTINUOUS
 62
    7
 10
182.91287984311566
 20
296.78445127494939
 11
182.91287984311566
 21
282.78445127494939
  0
LINE
  8
_0-1_top
  6
CONTINUOUS
 62
    7
 10
182.91287984311566
 20
301.8344512749494
 11
196.91287984311566
 21
301.8344512749494
  0
LINE
  8
_0-1_top
  6
CONTINUOUS
 62
    7
 10
196.91287984311566
 20
301.8344512749494
 11
196.91287984311566
 21
315.8344512749494
  0
LINE
  8
_0-1_top
  6
CONTINUOUS
 62
    7
 10
196.91287984311566
 20
315.8344512749494
 11
182.91287984311566
 21
315.8344512749494
  0
LINE
  8
_0-1_top
  6
CONTINUOUS
 62
    7
 10
182.91287984311566
 20
315.8344512749494
 11
182.91287984311566
 21
301.8344512749494
  0
LINE
  8
_0-1_top
  6
CONTINUOUS
 62
    7
 10
163.90287984311567
 20
266.2744512749494
 11
177.90287984311567
 21
266.2744512749494
  0
LINE
  8
_0-1_top
  6
CONTINUOUS
 62
    7
 10
177.90287984311567
 20
266.2744512749494
 11
177.90287984311567
 21
280.2744512749494
  0
LINE
  8
_0-1_top
  6
CONTINUOUS
 62
    7
 10
177.90287984311567
 20
280.2744512749494
 11
163.90287984311567
 21
280.2744512749494
  0
LINE
  8
_0-1_top
  6
CONTINUOUS
 62
    7
 10
163.90287984311567
 20
280.2744512749494
 11
163.90287984311567
 21
266.2744512749494
  0
LINE
  8
_0-1_top
  6
CONTINUOUS
 62
    7
 10
182.91287984311566
 20
263.73445127494938
 11
196.91287984311566
 21
263.73445127494938
  0
LINE
  8
_0-1_top
  6
CONTINUOUS
 62
    7
 10
196.91287984311566
 20
263.73445127494938
 11
196.91287984311566
 21
277.73445127494938
  0
LINE
  8
_0-1_top
  6
CONTINUOUS
 62
    7
 10
196.91287984311566
 20
277.73445127494938
 11
182.91287984311566
 21
277.73445127494938
  0
LINE
  8
_0-1_top
  6
CONTINUOUS
 62
    7
 10
182.91287984311566
 20
277.73445127494938
 11
182.91287984311566
 21
263.73445127494938
  0
LINE
  8
_0-2_bottom
  6
CONTINUOUS
 62
    7
 10
74.272879843115675
 20
330.66445127494944
 11
142.92287984311565
 21
344.3944512749494
  0
LINE
  8
_0-2_bottom
  6
CONTINUOUS
 62
    7
 10
142.92287984311565
 20
344.3944512749494
 11
160.70287984311568
 21
344.3944512749494
  0
LINE
  8
_0-2_bottom
  6
CONTINUOUS
 62
    7
 10
160.70287984311568
 20
344.3944512749494
 11
230.55287984311568
 21
339.31445127494942
  0
LINE
  8
_0-2_bottom
  6
CONTINUOUS
 62
    7
 10
230.55287984311568
 20
339.31445127494942
 11
230.55287984311568
 21
259.30445127494943
  0
LINE
  8
_0-2_bottom
  6
CONTINUOUS
 62
    7
 10
230.55287984311568
 20
259.30445127494943
 11
235.71843901240157
 21
256.25207540218958
  0
LINE
  8
_0-2_bottom
  6
CONTINUOUS
 62
    7
 10
235.71843901240157
 20
256.25207540218958
 11
219.25178636207389
 21
228.38793326411616
  0
LINE
  8
_0-2_bottom
  6
CONTINUOUS
 62
    7
 10
219.25178636207389
 20
228.38793326411616
 11
196.24983539257551
 21
241.50162348650406
  0
LINE
  8
_0-2_bottom
  6
CONTINUOUS
 62
    7
 10
196.24983539257551
 20
241.50162348650406
 11
177.21287984311567
 21
241.5244512749494
  0
LINE
  8
_0-2_bottom
  6
CONTINUOUS
 62
    7
 10
177.21287984311567
 20
241.5244512749494
 11
177.21287984311567
 21
256.76445127494941
  0
LINE
  8
_0-2_bottom
  6
CONTINUOUS
 62
    7
 10
177.21287984311567
 20
256.76445127494941
 11
74.272879843115675
 21
256.76445127494941
  0
LINE
  8
_0-2_bottom
  6
CONTINUOUS
 62
    7
 10
74.272879843115675
 20
256.76445127494941
 11
74.272879843115675
 21
330.66445127494944
  0
CIRCLE
  8
_0-2_bottom
  6
CONTINUOUS
 62
    7
 10
220.20936825739116
 20
235.90300135794769
 40
1.6000000000000001
  0
CIRCLE
  8
_0-2_bottom
  6
CONTINUOUS
 62
    7
 10
229.36746686468175
 20
251.40132207797791
 40
1.6000000000000001
  0
CIRCLE
  8
_0-2_bottom
  6
CONTINUOUS
 62
    7
 10
224.20287984311568
 20
272.00445127494942
 40
1.6000000000000001
  0
CIRCLE
  8
_0-2_bottom
  6
CONTINUOUS
 62
    7
 10
224.20287984311568
 20
322.80445127494943
 40
1.6000000000000001
  0
CIRCLE
  8
_0-2_bottom
  6
CONTINUOUS
 62
    7
 10
180.38787984311568
 20
319.62945127494942
 40
1.6000000000000001
  0
CIRCLE
  8
_0-2_bottom
  6
CONTINUOUS
 62
    7
 10
180.38787984311568
 20
281.52945127494939
 40
1.6000000000000001
  0
CIRCLE
  8
_0-2_bottom
  6
CONTINUOUS
 62
    7
 10
142.28787984311566
 20
285.3394512749494
 40
1.6000000000000001
  0
CIRCLE
  8
_0-2_bottom
  6
CONTINUOUS
 62
    7
 10
142.28787984311566
 20
323.43945127494942
 40
1.6000000000000001
  0
CIRCLE
  8
_0-2_bottom
  6
CONTINUOUS
 62
    7
 10
104.1878798431157
 20
313.27945127494939
 40
1.6000000000000001
  0
CIRCLE
  8
_0-2_bottom
  6
CONTINUOUS
 62
    7
 10
104.1878798431157
 20
275.17945127494943
 40
1.6000000000000001
  0
CIRCLE
  8
_0-2_bottom
  6
CONTINUOUS
 62
    7
 10
80.022879843115675
 20
322.80581239383571
 40
3.2000000000000002
  0
CIRCLE
  8
_0-2_bottom
  6
CONTINUOUS
 62
    7
 10
80.022879843115675
 20
262.51445127494941
 40
3.2000000000000002
  0
CIRCLE
  8
_0-2_bottom
  6
CONTINUOUS
 62
    7
 10
198.80287984311568
 20
245.3344512749494
 40
3.2000000000000002
  0
CIRCLE
  8
_0-2_bottom
  6
CONTINUOUS
 62
    7
 10
224.20287984311568
 20
332.9644512749494
 40
3.2000000000000002
  0
POINT
  8
_0-2_bottom
 62
    7
 10
80.022879843115675
 20
322.80581239383571
  0
POINT
  8
_0-2_bottom
 62
    7
 10
80.022879843115675
 20
262.51445127494941
  0
POINT
  8
_0-2_bottom
 62
    7
 10
104.1878798431157
 20
275.17945127494943
  0
POINT
  8
_0-2_bottom
 62
    7
 10
104.1878798431157
 20
313.27945127494939
  0
POINT
  8
_0-2_bottom
 62
    7
 10
142.28787984311566
 20
323.43945127494942
  0
POINT
  8
_0-2_bottom
 62
    7
 10
142.28787984311566
 20
285.3394512749494
  0
POINT
  8
_0-2_bottom
 62
    7
 10
180.38787984311568
 20
281.52945127494939
  0
POINT
  8
_0-2_bottom
 62
    7
 10
180.38787984311568
 20
319.62945127494942
  0
POINT
  8
_0-2_bottom
 62
    7
 10
198.80287984311568
 20
245.3344512749494
  0
POINT
  8
_0-2_bottom
 62
    7
 10
224.20287984311568
 20
322.80445127494943
  0
POINT
  8
_0-2_bottom
 62
    7
 10
224.20287984311568
 20
332.9644512749494
  0
POINT
  8
_0-2_bottom
 62
    7
 10
224.20287984311568
 20
272.00445127494942
  0
POINT
  8
_0-2_bottom
 62
    7
 10
229.36746686468175
 20
251.40132207797791
  0
POINT
  8
_0-2_bottom
 62
    7
 10
220.20936825739116
 20
235.90300135794769
  0
ENDSEC
  0
EOF
