solid OpenSCAD_Model
  facet normal 0.994522 0.104529 0
    outer loop
      vertex 3 0 2
      vertex 2.93444 0.623734 -2
      vertex 2.93444 0.623734 2
    endloop
  endfacet
  facet normal 0.994522 0.104529 0
    outer loop
      vertex 2.93444 0.623734 -2
      vertex 3 0 2
      vertex 3 0 -2
    endloop
  endfacet
  facet normal -0.994522 0.104529 0
    outer loop
      vertex -3 0 -2
      vertex -2.93444 0.623734 2
      vertex -2.93444 0.623734 -2
    endloop
  endfacet
  facet normal -0.994522 0.104529 0
    outer loop
      vertex -2.93444 0.623734 2
      vertex -3 0 -2
      vertex -3 0 2
    endloop
  endfacet
  facet normal 0 1 -0
    outer loop
      vertex 0.313585 2.98357 -2
      vertex -0.313585 2.98357 2
      vertex 0.313585 2.98357 2
    endloop
  endfacet
  facet normal 0 1 0
    outer loop
      vertex -0.313585 2.98357 2
      vertex 0.313585 2.98357 -2
      vertex -0.313585 2.98357 -2
    endloop
  endfacet
  facet normal 0.587786 0.809016 -0
    outer loop
      vertex 2.00739 2.22943 -2
      vertex 1.5 2.59808 2
      vertex 2.00739 2.22943 2
    endloop
  endfacet
  facet normal 0.587786 0.809016 0
    outer loop
      vertex 1.5 2.59808 2
      vertex 2.00739 2.22943 -2
      vertex 1.5 2.59808 -2
    endloop
  endfacet
  facet normal 0.406737 0.913545 -0
    outer loop
      vertex 1.5 2.59808 -2
      vertex 0.927051 2.85317 2
      vertex 1.5 2.59808 2
    endloop
  endfacet
  facet normal 0.406737 0.913545 0
    outer loop
      vertex 0.927051 2.85317 2
      vertex 1.5 2.59808 -2
      vertex 0.927051 2.85317 -2
    endloop
  endfacet
  facet normal -0.743144 0.669131 0
    outer loop
      vertex -2.42705 1.76336 -2
      vertex -2.00739 2.22943 2
      vertex -2.00739 2.22943 -2
    endloop
  endfacet
  facet normal -0.743144 0.669131 0
    outer loop
      vertex -2.00739 2.22943 2
      vertex -2.42705 1.76336 -2
      vertex -2.42705 1.76336 2
    endloop
  endfacet
  facet normal 0 0 1
    outer loop
      vertex 1.75 0 2
      vertex 3 0 2
      vertex 2.93444 0.623734 2
    endloop
  endfacet
  facet normal 0 0 1
    outer loop
      vertex 1.71176 0.363845 2
      vertex 2.93444 0.623734 2
      vertex 2.74064 1.22021 2
    endloop
  endfacet
  facet normal 0 0 1
    outer loop
      vertex 3 0 2
      vertex 1.75 0 2
      vertex 2.93444 -0.623734 2
    endloop
  endfacet
  facet normal 0 0 1
    outer loop
      vertex 1.5987 0.711788 2
      vertex 2.74064 1.22021 2
      vertex 2.42705 1.76336 2
    endloop
  endfacet
  facet normal -0 0 1
    outer loop
      vertex 1.71176 -0.363845 2
      vertex 2.93444 -0.623734 2
      vertex 1.75 0 2
    endloop
  endfacet
  facet normal 0 0 1
    outer loop
      vertex 1.41578 1.02862 2
      vertex 2.42705 1.76336 2
      vertex 2.00739 2.22943 2
    endloop
  endfacet
  facet normal 0 0 1
    outer loop
      vertex 2.93444 -0.623734 2
      vertex 1.71176 -0.363845 2
      vertex 2.74064 -1.22021 2
    endloop
  endfacet
  facet normal -0 0 1
    outer loop
      vertex 1.5987 -0.711788 2
      vertex 2.74064 -1.22021 2
      vertex 1.71176 -0.363845 2
    endloop
  endfacet
  facet normal 0 0 1
    outer loop
      vertex 2.93444 0.623734 2
      vertex 1.71176 0.363845 2
      vertex 1.75 0 2
    endloop
  endfacet
  facet normal 0 0 1
    outer loop
      vertex 2.74064 1.22021 2
      vertex 1.5987 0.711788 2
      vertex 1.71176 0.363845 2
    endloop
  endfacet
  facet normal 0 0 1
    outer loop
      vertex 1.17098 1.3005 2
      vertex 2.00739 2.22943 2
      vertex 1.5 2.59808 2
    endloop
  endfacet
  facet normal 0 0 1
    outer loop
      vertex 2.42705 1.76336 2
      vertex 1.41578 1.02862 2
      vertex 1.5987 0.711788 2
    endloop
  endfacet
  facet normal 0 0 1
    outer loop
      vertex 2.00739 2.22943 2
      vertex 1.17098 1.3005 2
      vertex 1.41578 1.02862 2
    endloop
  endfacet
  facet normal 0 0 1
    outer loop
      vertex 0.875 1.51554 2
      vertex 1.5 2.59808 2
      vertex 0.927051 2.85317 2
    endloop
  endfacet
  facet normal 0 0 1
    outer loop
      vertex 1.5 2.59808 2
      vertex 0.875 1.51554 2
      vertex 1.17098 1.3005 2
    endloop
  endfacet
  facet normal 0 0 1
    outer loop
      vertex 0.927051 2.85317 2
      vertex 0.540779 1.66435 2
      vertex 0.875 1.51554 2
    endloop
  endfacet
  facet normal 0 0 1
    outer loop
      vertex 0.313585 2.98357 2
      vertex 0.540779 1.66435 2
      vertex 0.927051 2.85317 2
    endloop
  endfacet
  facet normal 0 0 1
    outer loop
      vertex 0.313585 2.98357 2
      vertex 0.182924 1.74041 2
      vertex 0.540779 1.66435 2
    endloop
  endfacet
  facet normal 0 0 1
    outer loop
      vertex 0.313585 2.98357 2
      vertex -0.182924 1.74041 2
      vertex 0.182924 1.74041 2
    endloop
  endfacet
  facet normal -0 0 1
    outer loop
      vertex -0.313585 2.98357 2
      vertex -0.182924 1.74041 2
      vertex 0.313585 2.98357 2
    endloop
  endfacet
  facet normal 0 0 1
    outer loop
      vertex -0.313585 2.98357 2
      vertex -0.540779 1.66435 2
      vertex -0.182924 1.74041 2
    endloop
  endfacet
  facet normal -0 0 1
    outer loop
      vertex -0.927051 2.85317 2
      vertex -0.540779 1.66435 2
      vertex -0.313585 2.98357 2
    endloop
  endfacet
  facet normal 0 0 1
    outer loop
      vertex -0.540779 1.66435 2
      vertex -0.927051 2.85317 2
      vertex -0.874999 1.51554 2
    endloop
  endfacet
  facet normal -0 0 1
    outer loop
      vertex -1.5 2.59808 2
      vertex -0.874999 1.51554 2
      vertex -0.927051 2.85317 2
    endloop
  endfacet
  facet normal 0 0 1
    outer loop
      vertex -0.874999 1.51554 2
      vertex -1.5 2.59808 2
      vertex -1.17098 1.3005 2
    endloop
  endfacet
  facet normal -0 0 1
    outer loop
      vertex -2.00739 2.22943 2
      vertex -1.17098 1.3005 2
      vertex -1.5 2.59808 2
    endloop
  endfacet
  facet normal 0 0 1
    outer loop
      vertex -1.17098 1.3005 2
      vertex -2.00739 2.22943 2
      vertex -1.41578 1.02862 2
    endloop
  endfacet
  facet normal -0 0 1
    outer loop
      vertex -2.42705 1.76336 2
      vertex -1.41578 1.02862 2
      vertex -2.00739 2.22943 2
    endloop
  endfacet
  facet normal 0 0 1
    outer loop
      vertex -1.41578 1.02862 2
      vertex -2.42705 1.76336 2
      vertex -1.5987 0.711788 2
    endloop
  endfacet
  facet normal -0 0 1
    outer loop
      vertex -2.74064 1.22021 2
      vertex -1.5987 0.711788 2
      vertex -2.42705 1.76336 2
    endloop
  endfacet
  facet normal 0 0 1
    outer loop
      vertex 2.74064 -1.22021 2
      vertex 1.5987 -0.711788 2
      vertex 2.42705 -1.76336 2
    endloop
  endfacet
  facet normal -0 0 1
    outer loop
      vertex 1.41578 -1.02862 2
      vertex 2.42705 -1.76336 2
      vertex 1.5987 -0.711788 2
    endloop
  endfacet
  facet normal 0 0 1
    outer loop
      vertex 2.42705 -1.76336 2
      vertex 1.41578 -1.02862 2
      vertex 2.00739 -2.22943 2
    endloop
  endfacet
  facet normal -0 0 1
    outer loop
      vertex 1.17098 -1.3005 2
      vertex 2.00739 -2.22943 2
      vertex 1.41578 -1.02862 2
    endloop
  endfacet
  facet normal 0 0 1
    outer loop
      vertex 2.00739 -2.22943 2
      vertex 1.17098 -1.3005 2
      vertex 1.5 -2.59808 2
    endloop
  endfacet
  facet normal -0 0 1
    outer loop
      vertex 0.875 -1.51554 2
      vertex 1.5 -2.59808 2
      vertex 1.17098 -1.3005 2
    endloop
  endfacet
  facet normal 0 0 1
    outer loop
      vertex 1.5 -2.59808 2
      vertex 0.875 -1.51554 2
      vertex 0.927051 -2.85317 2
    endloop
  endfacet
  facet normal -0 0 1
    outer loop
      vertex 0.540779 -1.66435 2
      vertex 0.927051 -2.85317 2
      vertex 0.875 -1.51554 2
    endloop
  endfacet
  facet normal 0 0 1
    outer loop
      vertex 0.540779 -1.66435 2
      vertex 0.313585 -2.98357 2
      vertex 0.927051 -2.85317 2
    endloop
  endfacet
  facet normal -0 0 1
    outer loop
      vertex 0.182924 -1.74041 2
      vertex 0.313585 -2.98357 2
      vertex 0.540779 -1.66435 2
    endloop
  endfacet
  facet normal -0 0 1
    outer loop
      vertex -0.182924 -1.74041 2
      vertex 0.313585 -2.98357 2
      vertex 0.182924 -1.74041 2
    endloop
  endfacet
  facet normal 0 0 1
    outer loop
      vertex -0.182924 -1.74041 2
      vertex -0.313585 -2.98357 2
      vertex 0.313585 -2.98357 2
    endloop
  endfacet
  facet normal 0 0 1
    outer loop
      vertex -0.540779 -1.66435 2
      vertex -0.313585 -2.98357 2
      vertex -0.182924 -1.74041 2
    endloop
  endfacet
  facet normal 0 0 1
    outer loop
      vertex -0.927051 -2.85317 2
      vertex -0.540779 -1.66435 2
      vertex -0.875 -1.51554 2
    endloop
  endfacet
  facet normal 0 0 1
    outer loop
      vertex -0.540779 -1.66435 2
      vertex -0.927051 -2.85317 2
      vertex -0.313585 -2.98357 2
    endloop
  endfacet
  facet normal 0 0 1
    outer loop
      vertex -1.5 -2.59808 2
      vertex -0.875 -1.51554 2
      vertex -1.17098 -1.3005 2
    endloop
  endfacet
  facet normal 0 0 1
    outer loop
      vertex -2.00739 -2.22943 2
      vertex -1.17098 -1.3005 2
      vertex -1.41578 -1.02862 2
    endloop
  endfacet
  facet normal 0 0 1
    outer loop
      vertex -0.875 -1.51554 2
      vertex -1.5 -2.59808 2
      vertex -0.927051 -2.85317 2
    endloop
  endfacet
  facet normal 0 0 1
    outer loop
      vertex -2.42705 -1.76336 2
      vertex -1.41578 -1.02862 2
      vertex -1.5987 -0.711788 2
    endloop
  endfacet
  facet normal 0 0 1
    outer loop
      vertex -2.74064 -1.22021 2
      vertex -1.5987 -0.711788 2
      vertex -1.71176 -0.363845 2
    endloop
  endfacet
  facet normal 0 0 1
    outer loop
      vertex -2.93444 -0.623734 2
      vertex -1.71176 -0.363845 2
      vertex -1.75 0 2
    endloop
  endfacet
  facet normal 0 0 1
    outer loop
      vertex -1.5987 0.711788 2
      vertex -2.74064 1.22021 2
      vertex -1.71176 0.363845 2
    endloop
  endfacet
  facet normal 0 0 1
    outer loop
      vertex -1.17098 -1.3005 2
      vertex -2.00739 -2.22943 2
      vertex -1.5 -2.59808 2
    endloop
  endfacet
  facet normal -0 0 1
    outer loop
      vertex -2.93444 0.623734 2
      vertex -1.71176 0.363845 2
      vertex -2.74064 1.22021 2
    endloop
  endfacet
  facet normal 0 0 1
    outer loop
      vertex -1.41578 -1.02862 2
      vertex -2.42705 -1.76336 2
      vertex -2.00739 -2.22943 2
    endloop
  endfacet
  facet normal 0 0 1
    outer loop
      vertex -1.71176 0.363845 2
      vertex -2.93444 0.623734 2
      vertex -1.75 0 2
    endloop
  endfacet
  facet normal 0 0 1
    outer loop
      vertex -1.5987 -0.711788 2
      vertex -2.74064 -1.22021 2
      vertex -2.42705 -1.76336 2
    endloop
  endfacet
  facet normal 0 0 1
    outer loop
      vertex -3 0 2
      vertex -1.75 0 2
      vertex -2.93444 0.623734 2
    endloop
  endfacet
  facet normal 0 0 1
    outer loop
      vertex -1.71176 -0.363845 2
      vertex -2.93444 -0.623734 2
      vertex -2.74064 -1.22021 2
    endloop
  endfacet
  facet normal 0 0 1
    outer loop
      vertex -1.75 0 2
      vertex -3 0 2
      vertex -2.93444 -0.623734 2
    endloop
  endfacet
  facet normal -0.406737 0.913545 0
    outer loop
      vertex -0.927051 2.85317 -2
      vertex -1.5 2.59808 2
      vertex -0.927051 2.85317 2
    endloop
  endfacet
  facet normal -0.406737 0.913545 0
    outer loop
      vertex -1.5 2.59808 2
      vertex -0.927051 2.85317 -2
      vertex -1.5 2.59808 -2
    endloop
  endfacet
  facet normal 0.866026 0.5 0
    outer loop
      vertex 2.74064 1.22021 2
      vertex 2.42705 1.76336 -2
      vertex 2.42705 1.76336 2
    endloop
  endfacet
  facet normal 0.866026 0.5 0
    outer loop
      vertex 2.42705 1.76336 -2
      vertex 2.74064 1.22021 2
      vertex 2.74064 1.22021 -2
    endloop
  endfacet
  facet normal 0.951056 0.309017 0
    outer loop
      vertex 2.93444 0.623734 2
      vertex 2.74064 1.22021 -2
      vertex 2.74064 1.22021 2
    endloop
  endfacet
  facet normal 0.951056 0.309017 0
    outer loop
      vertex 2.74064 1.22021 -2
      vertex 2.93444 0.623734 2
      vertex 2.93444 0.623734 -2
    endloop
  endfacet
  facet normal 0.743144 0.669131 0
    outer loop
      vertex 2.42705 1.76336 2
      vertex 2.00739 2.22943 -2
      vertex 2.00739 2.22943 2
    endloop
  endfacet
  facet normal 0.743144 0.669131 0
    outer loop
      vertex 2.00739 2.22943 -2
      vertex 2.42705 1.76336 2
      vertex 2.42705 1.76336 -2
    endloop
  endfacet
  facet normal 0.207911 0.978148 -0
    outer loop
      vertex 0.927051 2.85317 -2
      vertex 0.313585 2.98357 2
      vertex 0.927051 2.85317 2
    endloop
  endfacet
  facet normal 0.207911 0.978148 0
    outer loop
      vertex 0.313585 2.98357 2
      vertex 0.927051 2.85317 -2
      vertex 0.313585 2.98357 -2
    endloop
  endfacet
  facet normal -0.866026 0.5 0
    outer loop
      vertex -2.74064 1.22021 -2
      vertex -2.42705 1.76336 2
      vertex -2.42705 1.76336 -2
    endloop
  endfacet
  facet normal -0.866026 0.5 0
    outer loop
      vertex -2.42705 1.76336 2
      vertex -2.74064 1.22021 -2
      vertex -2.74064 1.22021 2
    endloop
  endfacet
  facet normal -0.951056 0.309017 0
    outer loop
      vertex -2.93444 0.623734 -2
      vertex -2.74064 1.22021 2
      vertex -2.74064 1.22021 -2
    endloop
  endfacet
  facet normal -0.951056 0.309017 0
    outer loop
      vertex -2.74064 1.22021 2
      vertex -2.93444 0.623734 -2
      vertex -2.93444 0.623734 2
    endloop
  endfacet
  facet normal -0.587785 0.809017 0
    outer loop
      vertex -1.5 2.59808 -2
      vertex -2.00739 2.22943 2
      vertex -1.5 2.59808 2
    endloop
  endfacet
  facet normal -0.587785 0.809017 0
    outer loop
      vertex -2.00739 2.22943 2
      vertex -1.5 2.59808 -2
      vertex -2.00739 2.22943 -2
    endloop
  endfacet
  facet normal -0.207911 0.978148 0
    outer loop
      vertex -0.313585 2.98357 -2
      vertex -0.927051 2.85317 2
      vertex -0.313585 2.98357 2
    endloop
  endfacet
  facet normal -0.207911 0.978148 0
    outer loop
      vertex -0.927051 2.85317 2
      vertex -0.313585 2.98357 -2
      vertex -0.927051 2.85317 -2
    endloop
  endfacet
  facet normal 0.994522 -0.104529 0
    outer loop
      vertex 2.93444 -0.623734 2
      vertex 3 0 -2
      vertex 3 0 2
    endloop
  endfacet
  facet normal 0.994522 -0.104529 0
    outer loop
      vertex 3 0 -2
      vertex 2.93444 -0.623734 2
      vertex 2.93444 -0.623734 -2
    endloop
  endfacet
  facet normal -0.207911 -0.978148 0
    outer loop
      vertex -0.927051 -2.85317 -2
      vertex -0.313585 -2.98357 2
      vertex -0.927051 -2.85317 2
    endloop
  endfacet
  facet normal -0.207911 -0.978148 -0
    outer loop
      vertex -0.313585 -2.98357 2
      vertex -0.927051 -2.85317 -2
      vertex -0.313585 -2.98357 -2
    endloop
  endfacet
  facet normal -0.994522 -0.104529 0
    outer loop
      vertex -2.93444 -0.623734 -2
      vertex -3 0 2
      vertex -3 0 -2
    endloop
  endfacet
  facet normal -0.994522 -0.104529 0
    outer loop
      vertex -3 0 2
      vertex -2.93444 -0.623734 -2
      vertex -2.93444 -0.623734 2
    endloop
  endfacet
  facet normal 0.207911 -0.978148 0
    outer loop
      vertex 0.313585 -2.98357 -2
      vertex 0.927051 -2.85317 2
      vertex 0.313585 -2.98357 2
    endloop
  endfacet
  facet normal 0.207911 -0.978148 0
    outer loop
      vertex 0.927051 -2.85317 2
      vertex 0.313585 -2.98357 -2
      vertex 0.927051 -2.85317 -2
    endloop
  endfacet
  facet normal 0.743144 -0.669131 0
    outer loop
      vertex 2.00739 -2.22943 2
      vertex 2.42705 -1.76336 -2
      vertex 2.42705 -1.76336 2
    endloop
  endfacet
  facet normal 0.743144 -0.669131 0
    outer loop
      vertex 2.42705 -1.76336 -2
      vertex 2.00739 -2.22943 2
      vertex 2.00739 -2.22943 -2
    endloop
  endfacet
  facet normal 0.951056 -0.309017 0
    outer loop
      vertex 2.74064 -1.22021 2
      vertex 2.93444 -0.623734 -2
      vertex 2.93444 -0.623734 2
    endloop
  endfacet
  facet normal 0.951056 -0.309017 0
    outer loop
      vertex 2.93444 -0.623734 -2
      vertex 2.74064 -1.22021 2
      vertex 2.74064 -1.22021 -2
    endloop
  endfacet
  facet normal 0.866026 -0.5 0
    outer loop
      vertex 2.42705 -1.76336 2
      vertex 2.74064 -1.22021 -2
      vertex 2.74064 -1.22021 2
    endloop
  endfacet
  facet normal 0.866026 -0.5 0
    outer loop
      vertex 2.74064 -1.22021 -2
      vertex 2.42705 -1.76336 2
      vertex 2.42705 -1.76336 -2
    endloop
  endfacet
  facet normal -0.866026 -0.5 0
    outer loop
      vertex -2.42705 -1.76336 -2
      vertex -2.74064 -1.22021 2
      vertex -2.74064 -1.22021 -2
    endloop
  endfacet
  facet normal -0.866026 -0.5 0
    outer loop
      vertex -2.74064 -1.22021 2
      vertex -2.42705 -1.76336 -2
      vertex -2.42705 -1.76336 2
    endloop
  endfacet
  facet normal -0.951056 -0.309017 0
    outer loop
      vertex -2.74064 -1.22021 -2
      vertex -2.93444 -0.623734 2
      vertex -2.93444 -0.623734 -2
    endloop
  endfacet
  facet normal -0.951056 -0.309017 0
    outer loop
      vertex -2.93444 -0.623734 2
      vertex -2.74064 -1.22021 -2
      vertex -2.74064 -1.22021 2
    endloop
  endfacet
  facet normal 0.587786 -0.809016 0
    outer loop
      vertex 1.5 -2.59808 -2
      vertex 2.00739 -2.22943 2
      vertex 1.5 -2.59808 2
    endloop
  endfacet
  facet normal 0.587786 -0.809016 0
    outer loop
      vertex 2.00739 -2.22943 2
      vertex 1.5 -2.59808 -2
      vertex 2.00739 -2.22943 -2
    endloop
  endfacet
  facet normal 0.406737 -0.913545 0
    outer loop
      vertex 0.927051 -2.85317 -2
      vertex 1.5 -2.59808 2
      vertex 0.927051 -2.85317 2
    endloop
  endfacet
  facet normal 0.406737 -0.913545 0
    outer loop
      vertex 1.5 -2.59808 2
      vertex 0.927051 -2.85317 -2
      vertex 1.5 -2.59808 -2
    endloop
  endfacet
  facet normal 0 -1 0
    outer loop
      vertex -0.313585 -2.98357 -2
      vertex 0.313585 -2.98357 2
      vertex -0.313585 -2.98357 2
    endloop
  endfacet
  facet normal 0 -1 -0
    outer loop
      vertex 0.313585 -2.98357 2
      vertex -0.313585 -2.98357 -2
      vertex 0.313585 -2.98357 -2
    endloop
  endfacet
  facet normal -0.406737 -0.913545 0
    outer loop
      vertex -1.5 -2.59808 -2
      vertex -0.927051 -2.85317 2
      vertex -1.5 -2.59808 2
    endloop
  endfacet
  facet normal -0.406737 -0.913545 -0
    outer loop
      vertex -0.927051 -2.85317 2
      vertex -1.5 -2.59808 -2
      vertex -0.927051 -2.85317 -2
    endloop
  endfacet
  facet normal -0.743144 -0.669131 0
    outer loop
      vertex -2.00739 -2.22943 -2
      vertex -2.42705 -1.76336 2
      vertex -2.42705 -1.76336 -2
    endloop
  endfacet
  facet normal -0.743144 -0.669131 0
    outer loop
      vertex -2.42705 -1.76336 2
      vertex -2.00739 -2.22943 -2
      vertex -2.00739 -2.22943 2
    endloop
  endfacet
  facet normal 0 0 -1
    outer loop
      vertex 1.75 0 -2
      vertex 3 0 -2
      vertex 2.93444 -0.623734 -2
    endloop
  endfacet
  facet normal 0 0 -1
    outer loop
      vertex 1.71176 -0.363845 -2
      vertex 2.93444 -0.623734 -2
      vertex 2.74064 -1.22021 -2
    endloop
  endfacet
  facet normal 0 0 -1
    outer loop
      vertex 3 0 -2
      vertex 1.75 0 -2
      vertex 2.93444 0.623734 -2
    endloop
  endfacet
  facet normal 0 0 -1
    outer loop
      vertex 1.5987 -0.711788 -2
      vertex 2.74064 -1.22021 -2
      vertex 2.42705 -1.76336 -2
    endloop
  endfacet
  facet normal 0 0 -1
    outer loop
      vertex 1.71176 0.363845 -2
      vertex 2.93444 0.623734 -2
      vertex 1.75 0 -2
    endloop
  endfacet
  facet normal 0 0 -1
    outer loop
      vertex 1.41578 -1.02862 -2
      vertex 2.42705 -1.76336 -2
      vertex 2.00739 -2.22943 -2
    endloop
  endfacet
  facet normal -0 0 -1
    outer loop
      vertex 2.93444 0.623734 -2
      vertex 1.71176 0.363845 -2
      vertex 2.74064 1.22021 -2
    endloop
  endfacet
  facet normal 0 0 -1
    outer loop
      vertex 1.5987 0.711788 -2
      vertex 2.74064 1.22021 -2
      vertex 1.71176 0.363845 -2
    endloop
  endfacet
  facet normal 0 0 -1
    outer loop
      vertex 2.93444 -0.623734 -2
      vertex 1.71176 -0.363845 -2
      vertex 1.75 0 -2
    endloop
  endfacet
  facet normal 0 0 -1
    outer loop
      vertex 2.74064 -1.22021 -2
      vertex 1.5987 -0.711788 -2
      vertex 1.71176 -0.363845 -2
    endloop
  endfacet
  facet normal 0 0 -1
    outer loop
      vertex 1.17098 -1.3005 -2
      vertex 2.00739 -2.22943 -2
      vertex 1.5 -2.59808 -2
    endloop
  endfacet
  facet normal 0 0 -1
    outer loop
      vertex 2.42705 -1.76336 -2
      vertex 1.41578 -1.02862 -2
      vertex 1.5987 -0.711788 -2
    endloop
  endfacet
  facet normal 0 0 -1
    outer loop
      vertex 2.00739 -2.22943 -2
      vertex 1.17098 -1.3005 -2
      vertex 1.41578 -1.02862 -2
    endloop
  endfacet
  facet normal 0 0 -1
    outer loop
      vertex 0.875 -1.51554 -2
      vertex 1.5 -2.59808 -2
      vertex 0.927051 -2.85317 -2
    endloop
  endfacet
  facet normal 0 0 -1
    outer loop
      vertex 1.5 -2.59808 -2
      vertex 0.875 -1.51554 -2
      vertex 1.17098 -1.3005 -2
    endloop
  endfacet
  facet normal 0 0 -1
    outer loop
      vertex 0.927051 -2.85317 -2
      vertex 0.540779 -1.66435 -2
      vertex 0.875 -1.51554 -2
    endloop
  endfacet
  facet normal 0 0 -1
    outer loop
      vertex 0.313585 -2.98357 -2
      vertex 0.540779 -1.66435 -2
      vertex 0.927051 -2.85317 -2
    endloop
  endfacet
  facet normal 0 0 -1
    outer loop
      vertex 0.313585 -2.98357 -2
      vertex 0.182924 -1.74041 -2
      vertex 0.540779 -1.66435 -2
    endloop
  endfacet
  facet normal 0 0 -1
    outer loop
      vertex 0.313585 -2.98357 -2
      vertex -0.182924 -1.74041 -2
      vertex 0.182924 -1.74041 -2
    endloop
  endfacet
  facet normal 0 0 -1
    outer loop
      vertex -0.313585 -2.98357 -2
      vertex -0.182924 -1.74041 -2
      vertex 0.313585 -2.98357 -2
    endloop
  endfacet
  facet normal 0 0 -1
    outer loop
      vertex -0.313585 -2.98357 -2
      vertex -0.540779 -1.66435 -2
      vertex -0.182924 -1.74041 -2
    endloop
  endfacet
  facet normal 0 0 -1
    outer loop
      vertex -0.927051 -2.85317 -2
      vertex -0.540779 -1.66435 -2
      vertex -0.313585 -2.98357 -2
    endloop
  endfacet
  facet normal -0 0 -1
    outer loop
      vertex -0.540779 -1.66435 -2
      vertex -0.927051 -2.85317 -2
      vertex -0.875 -1.51554 -2
    endloop
  endfacet
  facet normal 0 0 -1
    outer loop
      vertex -1.5 -2.59808 -2
      vertex -0.875 -1.51554 -2
      vertex -0.927051 -2.85317 -2
    endloop
  endfacet
  facet normal -0 0 -1
    outer loop
      vertex -0.875 -1.51554 -2
      vertex -1.5 -2.59808 -2
      vertex -1.17098 -1.3005 -2
    endloop
  endfacet
  facet normal 0 0 -1
    outer loop
      vertex -2.00739 -2.22943 -2
      vertex -1.17098 -1.3005 -2
      vertex -1.5 -2.59808 -2
    endloop
  endfacet
  facet normal -0 0 -1
    outer loop
      vertex -1.17098 -1.3005 -2
      vertex -2.00739 -2.22943 -2
      vertex -1.41578 -1.02862 -2
    endloop
  endfacet
  facet normal 0 0 -1
    outer loop
      vertex -2.42705 -1.76336 -2
      vertex -1.41578 -1.02862 -2
      vertex -2.00739 -2.22943 -2
    endloop
  endfacet
  facet normal -0 0 -1
    outer loop
      vertex -1.41578 -1.02862 -2
      vertex -2.42705 -1.76336 -2
      vertex -1.5987 -0.711788 -2
    endloop
  endfacet
  facet normal 0 0 -1
    outer loop
      vertex -2.74064 -1.22021 -2
      vertex -1.5987 -0.711788 -2
      vertex -2.42705 -1.76336 -2
    endloop
  endfacet
  facet normal -0 0 -1
    outer loop
      vertex 2.74064 1.22021 -2
      vertex 1.5987 0.711788 -2
      vertex 2.42705 1.76336 -2
    endloop
  endfacet
  facet normal 0 0 -1
    outer loop
      vertex 1.41578 1.02862 -2
      vertex 2.42705 1.76336 -2
      vertex 1.5987 0.711788 -2
    endloop
  endfacet
  facet normal -0 0 -1
    outer loop
      vertex 2.42705 1.76336 -2
      vertex 1.41578 1.02862 -2
      vertex 2.00739 2.22943 -2
    endloop
  endfacet
  facet normal 0 0 -1
    outer loop
      vertex 1.17098 1.3005 -2
      vertex 2.00739 2.22943 -2
      vertex 1.41578 1.02862 -2
    endloop
  endfacet
  facet normal -0 0 -1
    outer loop
      vertex 2.00739 2.22943 -2
      vertex 1.17098 1.3005 -2
      vertex 1.5 2.59808 -2
    endloop
  endfacet
  facet normal 0 0 -1
    outer loop
      vertex 0.875 1.51554 -2
      vertex 1.5 2.59808 -2
      vertex 1.17098 1.3005 -2
    endloop
  endfacet
  facet normal -0 0 -1
    outer loop
      vertex 1.5 2.59808 -2
      vertex 0.875 1.51554 -2
      vertex 0.927051 2.85317 -2
    endloop
  endfacet
  facet normal 0 0 -1
    outer loop
      vertex 0.540779 1.66435 -2
      vertex 0.927051 2.85317 -2
      vertex 0.875 1.51554 -2
    endloop
  endfacet
  facet normal 0 0 -1
    outer loop
      vertex 0.540779 1.66435 -2
      vertex 0.313585 2.98357 -2
      vertex 0.927051 2.85317 -2
    endloop
  endfacet
  facet normal 0 0 -1
    outer loop
      vertex 0.182924 1.74041 -2
      vertex 0.313585 2.98357 -2
      vertex 0.540779 1.66435 -2
    endloop
  endfacet
  facet normal 0 0 -1
    outer loop
      vertex -0.182924 1.74041 -2
      vertex 0.313585 2.98357 -2
      vertex 0.182924 1.74041 -2
    endloop
  endfacet
  facet normal 0 0 -1
    outer loop
      vertex -0.182924 1.74041 -2
      vertex -0.313585 2.98357 -2
      vertex 0.313585 2.98357 -2
    endloop
  endfacet
  facet normal 0 0 -1
    outer loop
      vertex -0.540779 1.66435 -2
      vertex -0.313585 2.98357 -2
      vertex -0.182924 1.74041 -2
    endloop
  endfacet
  facet normal 0 0 -1
    outer loop
      vertex -0.927051 2.85317 -2
      vertex -0.540779 1.66435 -2
      vertex -0.874999 1.51554 -2
    endloop
  endfacet
  facet normal 0 0 -1
    outer loop
      vertex -0.540779 1.66435 -2
      vertex -0.927051 2.85317 -2
      vertex -0.313585 2.98357 -2
    endloop
  endfacet
  facet normal 0 0 -1
    outer loop
      vertex -1.5 2.59808 -2
      vertex -0.874999 1.51554 -2
      vertex -1.17098 1.3005 -2
    endloop
  endfacet
  facet normal 0 0 -1
    outer loop
      vertex -2.00739 2.22943 -2
      vertex -1.17098 1.3005 -2
      vertex -1.41578 1.02862 -2
    endloop
  endfacet
  facet normal 0 0 -1
    outer loop
      vertex -0.874999 1.51554 -2
      vertex -1.5 2.59808 -2
      vertex -0.927051 2.85317 -2
    endloop
  endfacet
  facet normal 0 0 -1
    outer loop
      vertex -2.42705 1.76336 -2
      vertex -1.41578 1.02862 -2
      vertex -1.5987 0.711788 -2
    endloop
  endfacet
  facet normal 0 0 -1
    outer loop
      vertex -2.74064 1.22021 -2
      vertex -1.5987 0.711788 -2
      vertex -1.71176 0.363845 -2
    endloop
  endfacet
  facet normal 0 0 -1
    outer loop
      vertex -2.93444 0.623734 -2
      vertex -1.71176 0.363845 -2
      vertex -1.75 0 -2
    endloop
  endfacet
  facet normal -0 0 -1
    outer loop
      vertex -1.5987 -0.711788 -2
      vertex -2.74064 -1.22021 -2
      vertex -1.71176 -0.363845 -2
    endloop
  endfacet
  facet normal 0 0 -1
    outer loop
      vertex -1.17098 1.3005 -2
      vertex -2.00739 2.22943 -2
      vertex -1.5 2.59808 -2
    endloop
  endfacet
  facet normal 0 0 -1
    outer loop
      vertex -2.93444 -0.623734 -2
      vertex -1.71176 -0.363845 -2
      vertex -2.74064 -1.22021 -2
    endloop
  endfacet
  facet normal 0 0 -1
    outer loop
      vertex -1.41578 1.02862 -2
      vertex -2.42705 1.76336 -2
      vertex -2.00739 2.22943 -2
    endloop
  endfacet
  facet normal -0 0 -1
    outer loop
      vertex -1.71176 -0.363845 -2
      vertex -2.93444 -0.623734 -2
      vertex -1.75 0 -2
    endloop
  endfacet
  facet normal 0 0 -1
    outer loop
      vertex -1.5987 0.711788 -2
      vertex -2.74064 1.22021 -2
      vertex -2.42705 1.76336 -2
    endloop
  endfacet
  facet normal 0 0 -1
    outer loop
      vertex -3 0 -2
      vertex -1.75 0 -2
      vertex -2.93444 -0.623734 -2
    endloop
  endfacet
  facet normal 0 0 -1
    outer loop
      vertex -1.71176 0.363845 -2
      vertex -2.93444 0.623734 -2
      vertex -2.74064 1.22021 -2
    endloop
  endfacet
  facet normal 0 0 -1
    outer loop
      vertex -1.75 0 -2
      vertex -3 0 -2
      vertex -2.93444 0.623734 -2
    endloop
  endfacet
  facet normal -0.587786 -0.809016 0
    outer loop
      vertex -2.00739 -2.22943 -2
      vertex -1.5 -2.59808 2
      vertex -2.00739 -2.22943 2
    endloop
  endfacet
  facet normal -0.587786 -0.809016 -0
    outer loop
      vertex -1.5 -2.59808 2
      vertex -2.00739 -2.22943 -2
      vertex -1.5 -2.59808 -2
    endloop
  endfacet
  facet normal -0.994522 -0.10453 0
    outer loop
      vertex 1.75 0 -2
      vertex 1.71176 0.363845 2
      vertex 1.71176 0.363845 -2
    endloop
  endfacet
  facet normal -0.994522 -0.10453 0
    outer loop
      vertex 1.71176 0.363845 2
      vertex 1.75 0 -2
      vertex 1.75 0 2
    endloop
  endfacet
  facet normal 0.994522 -0.10453 0
    outer loop
      vertex -1.75 0 2
      vertex -1.71176 0.363845 -2
      vertex -1.71176 0.363845 2
    endloop
  endfacet
  facet normal 0.994522 -0.10453 0
    outer loop
      vertex -1.71176 0.363845 -2
      vertex -1.75 0 2
      vertex -1.75 0 -2
    endloop
  endfacet
  facet normal 0 -1 0
    outer loop
      vertex -0.182924 1.74041 -2
      vertex 0.182924 1.74041 2
      vertex -0.182924 1.74041 2
    endloop
  endfacet
  facet normal 0 -1 -0
    outer loop
      vertex 0.182924 1.74041 2
      vertex -0.182924 1.74041 -2
      vertex 0.182924 1.74041 -2
    endloop
  endfacet
  facet normal -0.587786 -0.809017 0
    outer loop
      vertex 0.875 1.51554 -2
      vertex 1.17098 1.3005 2
      vertex 0.875 1.51554 2
    endloop
  endfacet
  facet normal -0.587786 -0.809017 -0
    outer loop
      vertex 1.17098 1.3005 2
      vertex 0.875 1.51554 -2
      vertex 1.17098 1.3005 -2
    endloop
  endfacet
  facet normal -0.406737 -0.913546 0
    outer loop
      vertex 0.540779 1.66435 -2
      vertex 0.875 1.51554 2
      vertex 0.540779 1.66435 2
    endloop
  endfacet
  facet normal -0.406737 -0.913546 -0
    outer loop
      vertex 0.875 1.51554 2
      vertex 0.540779 1.66435 -2
      vertex 0.875 1.51554 -2
    endloop
  endfacet
  facet normal 0.587784 -0.809018 0
    outer loop
      vertex -1.17098 1.3005 -2
      vertex -0.874999 1.51554 2
      vertex -1.17098 1.3005 2
    endloop
  endfacet
  facet normal 0.587784 -0.809018 0
    outer loop
      vertex -0.874999 1.51554 2
      vertex -1.17098 1.3005 -2
      vertex -0.874999 1.51554 -2
    endloop
  endfacet
  facet normal 0.207911 -0.978148 0
    outer loop
      vertex -0.540779 1.66435 -2
      vertex -0.182924 1.74041 2
      vertex -0.540779 1.66435 2
    endloop
  endfacet
  facet normal 0.207911 -0.978148 0
    outer loop
      vertex -0.182924 1.74041 2
      vertex -0.540779 1.66435 -2
      vertex -0.182924 1.74041 -2
    endloop
  endfacet
  facet normal -0.866025 -0.5 0
    outer loop
      vertex 1.5987 0.711788 -2
      vertex 1.41578 1.02862 2
      vertex 1.41578 1.02862 -2
    endloop
  endfacet
  facet normal -0.866025 -0.5 0
    outer loop
      vertex 1.41578 1.02862 2
      vertex 1.5987 0.711788 -2
      vertex 1.5987 0.711788 2
    endloop
  endfacet
  facet normal -0.951057 -0.309016 0
    outer loop
      vertex 1.71176 0.363845 -2
      vertex 1.5987 0.711788 2
      vertex 1.5987 0.711788 -2
    endloop
  endfacet
  facet normal -0.951057 -0.309016 0
    outer loop
      vertex 1.5987 0.711788 2
      vertex 1.71176 0.363845 -2
      vertex 1.71176 0.363845 2
    endloop
  endfacet
  facet normal -0.743146 -0.66913 0
    outer loop
      vertex 1.41578 1.02862 -2
      vertex 1.17098 1.3005 2
      vertex 1.17098 1.3005 -2
    endloop
  endfacet
  facet normal -0.743146 -0.66913 0
    outer loop
      vertex 1.17098 1.3005 2
      vertex 1.41578 1.02862 -2
      vertex 1.41578 1.02862 2
    endloop
  endfacet
  facet normal -0.207911 -0.978148 0
    outer loop
      vertex 0.182924 1.74041 -2
      vertex 0.540779 1.66435 2
      vertex 0.182924 1.74041 2
    endloop
  endfacet
  facet normal -0.207911 -0.978148 -0
    outer loop
      vertex 0.540779 1.66435 2
      vertex 0.182924 1.74041 -2
      vertex 0.540779 1.66435 -2
    endloop
  endfacet
  facet normal 0.866025 -0.5 0
    outer loop
      vertex -1.5987 0.711788 2
      vertex -1.41578 1.02862 -2
      vertex -1.41578 1.02862 2
    endloop
  endfacet
  facet normal 0.866025 -0.5 0
    outer loop
      vertex -1.41578 1.02862 -2
      vertex -1.5987 0.711788 2
      vertex -1.5987 0.711788 -2
    endloop
  endfacet
  facet normal 0.743146 -0.66913 0
    outer loop
      vertex -1.41578 1.02862 2
      vertex -1.17098 1.3005 -2
      vertex -1.17098 1.3005 2
    endloop
  endfacet
  facet normal 0.743146 -0.66913 0
    outer loop
      vertex -1.17098 1.3005 -2
      vertex -1.41578 1.02862 2
      vertex -1.41578 1.02862 -2
    endloop
  endfacet
  facet normal 0.951057 -0.309016 0
    outer loop
      vertex -1.71176 0.363845 2
      vertex -1.5987 0.711788 -2
      vertex -1.5987 0.711788 2
    endloop
  endfacet
  facet normal 0.951057 -0.309016 0
    outer loop
      vertex -1.5987 0.711788 -2
      vertex -1.71176 0.363845 2
      vertex -1.71176 0.363845 -2
    endloop
  endfacet
  facet normal 0.406737 -0.913545 0
    outer loop
      vertex -0.874999 1.51554 -2
      vertex -0.540779 1.66435 2
      vertex -0.874999 1.51554 2
    endloop
  endfacet
  facet normal 0.406737 -0.913545 0
    outer loop
      vertex -0.540779 1.66435 2
      vertex -0.874999 1.51554 -2
      vertex -0.540779 1.66435 -2
    endloop
  endfacet
  facet normal -0.994522 0.10453 0
    outer loop
      vertex 1.71176 -0.363845 -2
      vertex 1.75 0 2
      vertex 1.75 0 -2
    endloop
  endfacet
  facet normal -0.994522 0.10453 0
    outer loop
      vertex 1.75 0 2
      vertex 1.71176 -0.363845 -2
      vertex 1.71176 -0.363845 2
    endloop
  endfacet
  facet normal 0.207911 0.978148 -0
    outer loop
      vertex -0.182924 -1.74041 -2
      vertex -0.540779 -1.66435 2
      vertex -0.182924 -1.74041 2
    endloop
  endfacet
  facet normal 0.207911 0.978148 0
    outer loop
      vertex -0.540779 -1.66435 2
      vertex -0.182924 -1.74041 -2
      vertex -0.540779 -1.66435 -2
    endloop
  endfacet
  facet normal -0.207911 0.978148 0
    outer loop
      vertex 0.540779 -1.66435 -2
      vertex 0.182924 -1.74041 2
      vertex 0.540779 -1.66435 2
    endloop
  endfacet
  facet normal -0.207911 0.978148 0
    outer loop
      vertex 0.182924 -1.74041 2
      vertex 0.540779 -1.66435 -2
      vertex 0.182924 -1.74041 -2
    endloop
  endfacet
  facet normal -0.743146 0.66913 0
    outer loop
      vertex 1.17098 -1.3005 -2
      vertex 1.41578 -1.02862 2
      vertex 1.41578 -1.02862 -2
    endloop
  endfacet
  facet normal -0.743146 0.66913 0
    outer loop
      vertex 1.41578 -1.02862 2
      vertex 1.17098 -1.3005 -2
      vertex 1.17098 -1.3005 2
    endloop
  endfacet
  facet normal -0.951057 0.309016 0
    outer loop
      vertex 1.5987 -0.711788 -2
      vertex 1.71176 -0.363845 2
      vertex 1.71176 -0.363845 -2
    endloop
  endfacet
  facet normal -0.951057 0.309016 0
    outer loop
      vertex 1.71176 -0.363845 2
      vertex 1.5987 -0.711788 -2
      vertex 1.5987 -0.711788 2
    endloop
  endfacet
  facet normal -0.866025 0.5 0
    outer loop
      vertex 1.41578 -1.02862 -2
      vertex 1.5987 -0.711788 2
      vertex 1.5987 -0.711788 -2
    endloop
  endfacet
  facet normal -0.866025 0.5 0
    outer loop
      vertex 1.5987 -0.711788 2
      vertex 1.41578 -1.02862 -2
      vertex 1.41578 -1.02862 2
    endloop
  endfacet
  facet normal 0.866025 0.5 0
    outer loop
      vertex -1.41578 -1.02862 2
      vertex -1.5987 -0.711788 -2
      vertex -1.5987 -0.711788 2
    endloop
  endfacet
  facet normal 0.866025 0.5 0
    outer loop
      vertex -1.5987 -0.711788 -2
      vertex -1.41578 -1.02862 2
      vertex -1.41578 -1.02862 -2
    endloop
  endfacet
  facet normal 0.994522 0.10453 0
    outer loop
      vertex -1.71176 -0.363845 2
      vertex -1.75 0 -2
      vertex -1.75 0 2
    endloop
  endfacet
  facet normal 0.994522 0.10453 0
    outer loop
      vertex -1.75 0 -2
      vertex -1.71176 -0.363845 2
      vertex -1.71176 -0.363845 -2
    endloop
  endfacet
  facet normal 0.951057 0.309016 0
    outer loop
      vertex -1.5987 -0.711788 2
      vertex -1.71176 -0.363845 -2
      vertex -1.71176 -0.363845 2
    endloop
  endfacet
  facet normal 0.951057 0.309016 0
    outer loop
      vertex -1.71176 -0.363845 -2
      vertex -1.5987 -0.711788 2
      vertex -1.5987 -0.711788 -2
    endloop
  endfacet
  facet normal -0.587786 0.809017 0
    outer loop
      vertex 1.17098 -1.3005 -2
      vertex 0.875 -1.51554 2
      vertex 1.17098 -1.3005 2
    endloop
  endfacet
  facet normal -0.587786 0.809017 0
    outer loop
      vertex 0.875 -1.51554 2
      vertex 1.17098 -1.3005 -2
      vertex 0.875 -1.51554 -2
    endloop
  endfacet
  facet normal -0.406737 0.913546 0
    outer loop
      vertex 0.875 -1.51554 -2
      vertex 0.540779 -1.66435 2
      vertex 0.875 -1.51554 2
    endloop
  endfacet
  facet normal -0.406737 0.913546 0
    outer loop
      vertex 0.540779 -1.66435 2
      vertex 0.875 -1.51554 -2
      vertex 0.540779 -1.66435 -2
    endloop
  endfacet
  facet normal 0 1 -0
    outer loop
      vertex 0.182924 -1.74041 -2
      vertex -0.182924 -1.74041 2
      vertex 0.182924 -1.74041 2
    endloop
  endfacet
  facet normal 0 1 0
    outer loop
      vertex -0.182924 -1.74041 2
      vertex 0.182924 -1.74041 -2
      vertex -0.182924 -1.74041 -2
    endloop
  endfacet
  facet normal 0.587786 0.809017 -0
    outer loop
      vertex -0.875 -1.51554 -2
      vertex -1.17098 -1.3005 2
      vertex -0.875 -1.51554 2
    endloop
  endfacet
  facet normal 0.587786 0.809017 0
    outer loop
      vertex -1.17098 -1.3005 2
      vertex -0.875 -1.51554 -2
      vertex -1.17098 -1.3005 -2
    endloop
  endfacet
  facet normal 0.406737 0.913546 -0
    outer loop
      vertex -0.540779 -1.66435 -2
      vertex -0.875 -1.51554 2
      vertex -0.540779 -1.66435 2
    endloop
  endfacet
  facet normal 0.406737 0.913546 0
    outer loop
      vertex -0.875 -1.51554 2
      vertex -0.540779 -1.66435 -2
      vertex -0.875 -1.51554 -2
    endloop
  endfacet
  facet normal 0.743146 0.66913 0
    outer loop
      vertex -1.17098 -1.3005 2
      vertex -1.41578 -1.02862 -2
      vertex -1.41578 -1.02862 2
    endloop
  endfacet
  facet normal 0.743146 0.66913 0
    outer loop
      vertex -1.41578 -1.02862 -2
      vertex -1.17098 -1.3005 2
      vertex -1.17098 -1.3005 -2
    endloop
  endfacet
endsolid OpenSCAD_Model
