solid OpenSCAD_Model
  facet normal 0.994522 0.104529 0
    outer loop
      vertex 3 0 1.5
      vertex 2.93444 0.623734 -1.5
      vertex 2.93444 0.623734 1.5
    endloop
  endfacet
  facet normal 0.994522 0.104529 0
    outer loop
      vertex 2.93444 0.623734 -1.5
      vertex 3 0 1.5
      vertex 3 0 -1.5
    endloop
  endfacet
  facet normal -0.994522 0.104529 0
    outer loop
      vertex -3 0 -1.5
      vertex -2.93444 0.623734 1.5
      vertex -2.93444 0.623734 -1.5
    endloop
  endfacet
  facet normal -0.994522 0.104529 0
    outer loop
      vertex -2.93444 0.623734 1.5
      vertex -3 0 -1.5
      vertex -3 0 1.5
    endloop
  endfacet
  facet normal 0 1 -0
    outer loop
      vertex 0.313585 2.98357 -1.5
      vertex -0.313585 2.98357 1.5
      vertex 0.313585 2.98357 1.5
    endloop
  endfacet
  facet normal 0 1 0
    outer loop
      vertex -0.313585 2.98357 1.5
      vertex 0.313585 2.98357 -1.5
      vertex -0.313585 2.98357 -1.5
    endloop
  endfacet
  facet normal 0.587786 0.809016 -0
    outer loop
      vertex 2.00739 2.22943 -1.5
      vertex 1.5 2.59808 1.5
      vertex 2.00739 2.22943 1.5
    endloop
  endfacet
  facet normal 0.587786 0.809016 0
    outer loop
      vertex 1.5 2.59808 1.5
      vertex 2.00739 2.22943 -1.5
      vertex 1.5 2.59808 -1.5
    endloop
  endfacet
  facet normal 0.406737 0.913545 -0
    outer loop
      vertex 1.5 2.59808 -1.5
      vertex 0.927051 2.85317 1.5
      vertex 1.5 2.59808 1.5
    endloop
  endfacet
  facet normal 0.406737 0.913545 0
    outer loop
      vertex 0.927051 2.85317 1.5
      vertex 1.5 2.59808 -1.5
      vertex 0.927051 2.85317 -1.5
    endloop
  endfacet
  facet normal -0.743144 0.669131 0
    outer loop
      vertex -2.42705 1.76336 -1.5
      vertex -2.00739 2.22943 1.5
      vertex -2.00739 2.22943 -1.5
    endloop
  endfacet
  facet normal -0.743144 0.669131 0
    outer loop
      vertex -2.00739 2.22943 1.5
      vertex -2.42705 1.76336 -1.5
      vertex -2.42705 1.76336 1.5
    endloop
  endfacet
  facet normal 0 0 1
    outer loop
      vertex 1.75 0 1.5
      vertex 3 0 1.5
      vertex 2.93444 0.623734 1.5
    endloop
  endfacet
  facet normal 0 0 1
    outer loop
      vertex 1.71176 0.363845 1.5
      vertex 2.93444 0.623734 1.5
      vertex 2.74064 1.22021 1.5
    endloop
  endfacet
  facet normal 0 0 1
    outer loop
      vertex 3 0 1.5
      vertex 1.75 0 1.5
      vertex 2.93444 -0.623734 1.5
    endloop
  endfacet
  facet normal 0 0 1
    outer loop
      vertex 1.5987 0.711788 1.5
      vertex 2.74064 1.22021 1.5
      vertex 2.42705 1.76336 1.5
    endloop
  endfacet
  facet normal -0 0 1
    outer loop
      vertex 1.71176 -0.363845 1.5
      vertex 2.93444 -0.623734 1.5
      vertex 1.75 0 1.5
    endloop
  endfacet
  facet normal 0 0 1
    outer loop
      vertex 1.41578 1.02862 1.5
      vertex 2.42705 1.76336 1.5
      vertex 2.00739 2.22943 1.5
    endloop
  endfacet
  facet normal 0 0 1
    outer loop
      vertex 2.93444 -0.623734 1.5
      vertex 1.71176 -0.363845 1.5
      vertex 2.74064 -1.22021 1.5
    endloop
  endfacet
  facet normal -0 0 1
    outer loop
      vertex 1.5987 -0.711788 1.5
      vertex 2.74064 -1.22021 1.5
      vertex 1.71176 -0.363845 1.5
    endloop
  endfacet
  facet normal 0 0 1
    outer loop
      vertex 2.93444 0.623734 1.5
      vertex 1.71176 0.363845 1.5
      vertex 1.75 0 1.5
    endloop
  endfacet
  facet normal 0 0 1
    outer loop
      vertex 2.74064 1.22021 1.5
      vertex 1.5987 0.711788 1.5
      vertex 1.71176 0.363845 1.5
    endloop
  endfacet
  facet normal 0 0 1
    outer loop
      vertex 1.17098 1.3005 1.5
      vertex 2.00739 2.22943 1.5
      vertex 1.5 2.59808 1.5
    endloop
  endfacet
  facet normal 0 0 1
    outer loop
      vertex 2.42705 1.76336 1.5
      vertex 1.41578 1.02862 1.5
      vertex 1.5987 0.711788 1.5
    endloop
  endfacet
  facet normal 0 0 1
    outer loop
      vertex 2.00739 2.22943 1.5
      vertex 1.17098 1.3005 1.5
      vertex 1.41578 1.02862 1.5
    endloop
  endfacet
  facet normal 0 0 1
    outer loop
      vertex 0.875 1.51554 1.5
      vertex 1.5 2.59808 1.5
      vertex 0.927051 2.85317 1.5
    endloop
  endfacet
  facet normal 0 0 1
    outer loop
      vertex 1.5 2.59808 1.5
      vertex 0.875 1.51554 1.5
      vertex 1.17098 1.3005 1.5
    endloop
  endfacet
  facet normal 0 0 1
    outer loop
      vertex 0.927051 2.85317 1.5
      vertex 0.540779 1.66435 1.5
      vertex 0.875 1.51554 1.5
    endloop
  endfacet
  facet normal 0 0 1
    outer loop
      vertex 0.313585 2.98357 1.5
      vertex 0.540779 1.66435 1.5
      vertex 0.927051 2.85317 1.5
    endloop
  endfacet
  facet normal 0 0 1
    outer loop
      vertex 0.313585 2.98357 1.5
      vertex 0.182924 1.74041 1.5
      vertex 0.540779 1.66435 1.5
    endloop
  endfacet
  facet normal 0 0 1
    outer loop
      vertex 0.313585 2.98357 1.5
      vertex -0.182924 1.74041 1.5
      vertex 0.182924 1.74041 1.5
    endloop
  endfacet
  facet normal -0 0 1
    outer loop
      vertex -0.313585 2.98357 1.5
      vertex -0.182924 1.74041 1.5
      vertex 0.313585 2.98357 1.5
    endloop
  endfacet
  facet normal 0 0 1
    outer loop
      vertex -0.313585 2.98357 1.5
      vertex -0.540779 1.66435 1.5
      vertex -0.182924 1.74041 1.5
    endloop
  endfacet
  facet normal -0 0 1
    outer loop
      vertex -0.927051 2.85317 1.5
      vertex -0.540779 1.66435 1.5
      vertex -0.313585 2.98357 1.5
    endloop
  endfacet
  facet normal 0 0 1
    outer loop
      vertex -0.540779 1.66435 1.5
      vertex -0.927051 2.85317 1.5
      vertex -0.874999 1.51554 1.5
    endloop
  endfacet
  facet normal -0 0 1
    outer loop
      vertex -1.5 2.59808 1.5
      vertex -0.874999 1.51554 1.5
      vertex -0.927051 2.85317 1.5
    endloop
  endfacet
  facet normal 0 0 1
    outer loop
      vertex -0.874999 1.51554 1.5
      vertex -1.5 2.59808 1.5
      vertex -1.17098 1.3005 1.5
    endloop
  endfacet
  facet normal -0 0 1
    outer loop
      vertex -2.00739 2.22943 1.5
      vertex -1.17098 1.3005 1.5
      vertex -1.5 2.59808 1.5
    endloop
  endfacet
  facet normal 0 0 1
    outer loop
      vertex -1.17098 1.3005 1.5
      vertex -2.00739 2.22943 1.5
      vertex -1.41578 1.02862 1.5
    endloop
  endfacet
  facet normal -0 0 1
    outer loop
      vertex -2.42705 1.76336 1.5
      vertex -1.41578 1.02862 1.5
      vertex -2.00739 2.22943 1.5
    endloop
  endfacet
  facet normal 0 0 1
    outer loop
      vertex -1.41578 1.02862 1.5
      vertex -2.42705 1.76336 1.5
      vertex -1.5987 0.711788 1.5
    endloop
  endfacet
  facet normal -0 0 1
    outer loop
      vertex -2.74064 1.22021 1.5
      vertex -1.5987 0.711788 1.5
      vertex -2.42705 1.76336 1.5
    endloop
  endfacet
  facet normal 0 0 1
    outer loop
      vertex 2.74064 -1.22021 1.5
      vertex 1.5987 -0.711788 1.5
      vertex 2.42705 -1.76336 1.5
    endloop
  endfacet
  facet normal -0 0 1
    outer loop
      vertex 1.41578 -1.02862 1.5
      vertex 2.42705 -1.76336 1.5
      vertex 1.5987 -0.711788 1.5
    endloop
  endfacet
  facet normal 0 0 1
    outer loop
      vertex 2.42705 -1.76336 1.5
      vertex 1.41578 -1.02862 1.5
      vertex 2.00739 -2.22943 1.5
    endloop
  endfacet
  facet normal -0 0 1
    outer loop
      vertex 1.17098 -1.3005 1.5
      vertex 2.00739 -2.22943 1.5
      vertex 1.41578 -1.02862 1.5
    endloop
  endfacet
  facet normal 0 0 1
    outer loop
      vertex 2.00739 -2.22943 1.5
      vertex 1.17098 -1.3005 1.5
      vertex 1.5 -2.59808 1.5
    endloop
  endfacet
  facet normal -0 0 1
    outer loop
      vertex 0.875 -1.51554 1.5
      vertex 1.5 -2.59808 1.5
      vertex 1.17098 -1.3005 1.5
    endloop
  endfacet
  facet normal 0 0 1
    outer loop
      vertex 1.5 -2.59808 1.5
      vertex 0.875 -1.51554 1.5
      vertex 0.927051 -2.85317 1.5
    endloop
  endfacet
  facet normal -0 0 1
    outer loop
      vertex 0.540779 -1.66435 1.5
      vertex 0.927051 -2.85317 1.5
      vertex 0.875 -1.51554 1.5
    endloop
  endfacet
  facet normal 0 0 1
    outer loop
      vertex 0.540779 -1.66435 1.5
      vertex 0.313585 -2.98357 1.5
      vertex 0.927051 -2.85317 1.5
    endloop
  endfacet
  facet normal -0 0 1
    outer loop
      vertex 0.182924 -1.74041 1.5
      vertex 0.313585 -2.98357 1.5
      vertex 0.540779 -1.66435 1.5
    endloop
  endfacet
  facet normal -0 0 1
    outer loop
      vertex -0.182924 -1.74041 1.5
      vertex 0.313585 -2.98357 1.5
      vertex 0.182924 -1.74041 1.5
    endloop
  endfacet
  facet normal 0 0 1
    outer loop
      vertex -0.182924 -1.74041 1.5
      vertex -0.313585 -2.98357 1.5
      vertex 0.313585 -2.98357 1.5
    endloop
  endfacet
  facet normal 0 0 1
    outer loop
      vertex -0.540779 -1.66435 1.5
      vertex -0.313585 -2.98357 1.5
      vertex -0.182924 -1.74041 1.5
    endloop
  endfacet
  facet normal 0 0 1
    outer loop
      vertex -0.927051 -2.85317 1.5
      vertex -0.540779 -1.66435 1.5
      vertex -0.875 -1.51554 1.5
    endloop
  endfacet
  facet normal 0 0 1
    outer loop
      vertex -0.540779 -1.66435 1.5
      vertex -0.927051 -2.85317 1.5
      vertex -0.313585 -2.98357 1.5
    endloop
  endfacet
  facet normal 0 0 1
    outer loop
      vertex -1.5 -2.59808 1.5
      vertex -0.875 -1.51554 1.5
      vertex -1.17098 -1.3005 1.5
    endloop
  endfacet
  facet normal 0 0 1
    outer loop
      vertex -2.00739 -2.22943 1.5
      vertex -1.17098 -1.3005 1.5
      vertex -1.41578 -1.02862 1.5
    endloop
  endfacet
  facet normal 0 0 1
    outer loop
      vertex -0.875 -1.51554 1.5
      vertex -1.5 -2.59808 1.5
      vertex -0.927051 -2.85317 1.5
    endloop
  endfacet
  facet normal 0 0 1
    outer loop
      vertex -2.42705 -1.76336 1.5
      vertex -1.41578 -1.02862 1.5
      vertex -1.5987 -0.711788 1.5
    endloop
  endfacet
  facet normal 0 0 1
    outer loop
      vertex -2.74064 -1.22021 1.5
      vertex -1.5987 -0.711788 1.5
      vertex -1.71176 -0.363845 1.5
    endloop
  endfacet
  facet normal 0 0 1
    outer loop
      vertex -2.93444 -0.623734 1.5
      vertex -1.71176 -0.363845 1.5
      vertex -1.75 0 1.5
    endloop
  endfacet
  facet normal 0 0 1
    outer loop
      vertex -1.5987 0.711788 1.5
      vertex -2.74064 1.22021 1.5
      vertex -1.71176 0.363845 1.5
    endloop
  endfacet
  facet normal 0 0 1
    outer loop
      vertex -1.17098 -1.3005 1.5
      vertex -2.00739 -2.22943 1.5
      vertex -1.5 -2.59808 1.5
    endloop
  endfacet
  facet normal -0 0 1
    outer loop
      vertex -2.93444 0.623734 1.5
      vertex -1.71176 0.363845 1.5
      vertex -2.74064 1.22021 1.5
    endloop
  endfacet
  facet normal 0 0 1
    outer loop
      vertex -1.41578 -1.02862 1.5
      vertex -2.42705 -1.76336 1.5
      vertex -2.00739 -2.22943 1.5
    endloop
  endfacet
  facet normal 0 0 1
    outer loop
      vertex -1.71176 0.363845 1.5
      vertex -2.93444 0.623734 1.5
      vertex -1.75 0 1.5
    endloop
  endfacet
  facet normal 0 0 1
    outer loop
      vertex -1.5987 -0.711788 1.5
      vertex -2.74064 -1.22021 1.5
      vertex -2.42705 -1.76336 1.5
    endloop
  endfacet
  facet normal 0 0 1
    outer loop
      vertex -3 0 1.5
      vertex -1.75 0 1.5
      vertex -2.93444 0.623734 1.5
    endloop
  endfacet
  facet normal 0 0 1
    outer loop
      vertex -1.71176 -0.363845 1.5
      vertex -2.93444 -0.623734 1.5
      vertex -2.74064 -1.22021 1.5
    endloop
  endfacet
  facet normal 0 0 1
    outer loop
      vertex -1.75 0 1.5
      vertex -3 0 1.5
      vertex -2.93444 -0.623734 1.5
    endloop
  endfacet
  facet normal -0.406737 0.913545 0
    outer loop
      vertex -0.927051 2.85317 -1.5
      vertex -1.5 2.59808 1.5
      vertex -0.927051 2.85317 1.5
    endloop
  endfacet
  facet normal -0.406737 0.913545 0
    outer loop
      vertex -1.5 2.59808 1.5
      vertex -0.927051 2.85317 -1.5
      vertex -1.5 2.59808 -1.5
    endloop
  endfacet
  facet normal 0.866026 0.5 0
    outer loop
      vertex 2.74064 1.22021 1.5
      vertex 2.42705 1.76336 -1.5
      vertex 2.42705 1.76336 1.5
    endloop
  endfacet
  facet normal 0.866026 0.5 0
    outer loop
      vertex 2.42705 1.76336 -1.5
      vertex 2.74064 1.22021 1.5
      vertex 2.74064 1.22021 -1.5
    endloop
  endfacet
  facet normal 0.951056 0.309017 0
    outer loop
      vertex 2.93444 0.623734 1.5
      vertex 2.74064 1.22021 -1.5
      vertex 2.74064 1.22021 1.5
    endloop
  endfacet
  facet normal 0.951056 0.309017 0
    outer loop
      vertex 2.74064 1.22021 -1.5
      vertex 2.93444 0.623734 1.5
      vertex 2.93444 0.623734 -1.5
    endloop
  endfacet
  facet normal 0.743144 0.669131 0
    outer loop
      vertex 2.42705 1.76336 1.5
      vertex 2.00739 2.22943 -1.5
      vertex 2.00739 2.22943 1.5
    endloop
  endfacet
  facet normal 0.743144 0.669131 0
    outer loop
      vertex 2.00739 2.22943 -1.5
      vertex 2.42705 1.76336 1.5
      vertex 2.42705 1.76336 -1.5
    endloop
  endfacet
  facet normal 0.207911 0.978148 -0
    outer loop
      vertex 0.927051 2.85317 -1.5
      vertex 0.313585 2.98357 1.5
      vertex 0.927051 2.85317 1.5
    endloop
  endfacet
  facet normal 0.207911 0.978148 0
    outer loop
      vertex 0.313585 2.98357 1.5
      vertex 0.927051 2.85317 -1.5
      vertex 0.313585 2.98357 -1.5
    endloop
  endfacet
  facet normal -0.866026 0.5 0
    outer loop
      vertex -2.74064 1.22021 -1.5
      vertex -2.42705 1.76336 1.5
      vertex -2.42705 1.76336 -1.5
    endloop
  endfacet
  facet normal -0.866026 0.5 0
    outer loop
      vertex -2.42705 1.76336 1.5
      vertex -2.74064 1.22021 -1.5
      vertex -2.74064 1.22021 1.5
    endloop
  endfacet
  facet normal -0.951056 0.309017 0
    outer loop
      vertex -2.93444 0.623734 -1.5
      vertex -2.74064 1.22021 1.5
      vertex -2.74064 1.22021 -1.5
    endloop
  endfacet
  facet normal -0.951056 0.309017 0
    outer loop
      vertex -2.74064 1.22021 1.5
      vertex -2.93444 0.623734 -1.5
      vertex -2.93444 0.623734 1.5
    endloop
  endfacet
  facet normal -0.587785 0.809017 0
    outer loop
      vertex -1.5 2.59808 -1.5
      vertex -2.00739 2.22943 1.5
      vertex -1.5 2.59808 1.5
    endloop
  endfacet
  facet normal -0.587785 0.809017 0
    outer loop
      vertex -2.00739 2.22943 1.5
      vertex -1.5 2.59808 -1.5
      vertex -2.00739 2.22943 -1.5
    endloop
  endfacet
  facet normal -0.207911 0.978148 0
    outer loop
      vertex -0.313585 2.98357 -1.5
      vertex -0.927051 2.85317 1.5
      vertex -0.313585 2.98357 1.5
    endloop
  endfacet
  facet normal -0.207911 0.978148 0
    outer loop
      vertex -0.927051 2.85317 1.5
      vertex -0.313585 2.98357 -1.5
      vertex -0.927051 2.85317 -1.5
    endloop
  endfacet
  facet normal 0.994522 -0.104529 0
    outer loop
      vertex 2.93444 -0.623734 1.5
      vertex 3 0 -1.5
      vertex 3 0 1.5
    endloop
  endfacet
  facet normal 0.994522 -0.104529 0
    outer loop
      vertex 3 0 -1.5
      vertex 2.93444 -0.623734 1.5
      vertex 2.93444 -0.623734 -1.5
    endloop
  endfacet
  facet normal -0.207911 -0.978148 0
    outer loop
      vertex -0.927051 -2.85317 -1.5
      vertex -0.313585 -2.98357 1.5
      vertex -0.927051 -2.85317 1.5
    endloop
  endfacet
  facet normal -0.207911 -0.978148 -0
    outer loop
      vertex -0.313585 -2.98357 1.5
      vertex -0.927051 -2.85317 -1.5
      vertex -0.313585 -2.98357 -1.5
    endloop
  endfacet
  facet normal -0.994522 -0.104529 0
    outer loop
      vertex -2.93444 -0.623734 -1.5
      vertex -3 0 1.5
      vertex -3 0 -1.5
    endloop
  endfacet
  facet normal -0.994522 -0.104529 0
    outer loop
      vertex -3 0 1.5
      vertex -2.93444 -0.623734 -1.5
      vertex -2.93444 -0.623734 1.5
    endloop
  endfacet
  facet normal 0.207911 -0.978148 0
    outer loop
      vertex 0.313585 -2.98357 -1.5
      vertex 0.927051 -2.85317 1.5
      vertex 0.313585 -2.98357 1.5
    endloop
  endfacet
  facet normal 0.207911 -0.978148 0
    outer loop
      vertex 0.927051 -2.85317 1.5
      vertex 0.313585 -2.98357 -1.5
      vertex 0.927051 -2.85317 -1.5
    endloop
  endfacet
  facet normal 0.743144 -0.669131 0
    outer loop
      vertex 2.00739 -2.22943 1.5
      vertex 2.42705 -1.76336 -1.5
      vertex 2.42705 -1.76336 1.5
    endloop
  endfacet
  facet normal 0.743144 -0.669131 0
    outer loop
      vertex 2.42705 -1.76336 -1.5
      vertex 2.00739 -2.22943 1.5
      vertex 2.00739 -2.22943 -1.5
    endloop
  endfacet
  facet normal 0.951056 -0.309017 0
    outer loop
      vertex 2.74064 -1.22021 1.5
      vertex 2.93444 -0.623734 -1.5
      vertex 2.93444 -0.623734 1.5
    endloop
  endfacet
  facet normal 0.951056 -0.309017 0
    outer loop
      vertex 2.93444 -0.623734 -1.5
      vertex 2.74064 -1.22021 1.5
      vertex 2.74064 -1.22021 -1.5
    endloop
  endfacet
  facet normal 0.866026 -0.5 0
    outer loop
      vertex 2.42705 -1.76336 1.5
      vertex 2.74064 -1.22021 -1.5
      vertex 2.74064 -1.22021 1.5
    endloop
  endfacet
  facet normal 0.866026 -0.5 0
    outer loop
      vertex 2.74064 -1.22021 -1.5
      vertex 2.42705 -1.76336 1.5
      vertex 2.42705 -1.76336 -1.5
    endloop
  endfacet
  facet normal -0.866026 -0.5 0
    outer loop
      vertex -2.42705 -1.76336 -1.5
      vertex -2.74064 -1.22021 1.5
      vertex -2.74064 -1.22021 -1.5
    endloop
  endfacet
  facet normal -0.866026 -0.5 0
    outer loop
      vertex -2.74064 -1.22021 1.5
      vertex -2.42705 -1.76336 -1.5
      vertex -2.42705 -1.76336 1.5
    endloop
  endfacet
  facet normal -0.951056 -0.309017 0
    outer loop
      vertex -2.74064 -1.22021 -1.5
      vertex -2.93444 -0.623734 1.5
      vertex -2.93444 -0.623734 -1.5
    endloop
  endfacet
  facet normal -0.951056 -0.309017 0
    outer loop
      vertex -2.93444 -0.623734 1.5
      vertex -2.74064 -1.22021 -1.5
      vertex -2.74064 -1.22021 1.5
    endloop
  endfacet
  facet normal 0.587786 -0.809016 0
    outer loop
      vertex 1.5 -2.59808 -1.5
      vertex 2.00739 -2.22943 1.5
      vertex 1.5 -2.59808 1.5
    endloop
  endfacet
  facet normal 0.587786 -0.809016 0
    outer loop
      vertex 2.00739 -2.22943 1.5
      vertex 1.5 -2.59808 -1.5
      vertex 2.00739 -2.22943 -1.5
    endloop
  endfacet
  facet normal 0.406737 -0.913545 0
    outer loop
      vertex 0.927051 -2.85317 -1.5
      vertex 1.5 -2.59808 1.5
      vertex 0.927051 -2.85317 1.5
    endloop
  endfacet
  facet normal 0.406737 -0.913545 0
    outer loop
      vertex 1.5 -2.59808 1.5
      vertex 0.927051 -2.85317 -1.5
      vertex 1.5 -2.59808 -1.5
    endloop
  endfacet
  facet normal 0 -1 0
    outer loop
      vertex -0.313585 -2.98357 -1.5
      vertex 0.313585 -2.98357 1.5
      vertex -0.313585 -2.98357 1.5
    endloop
  endfacet
  facet normal 0 -1 -0
    outer loop
      vertex 0.313585 -2.98357 1.5
      vertex -0.313585 -2.98357 -1.5
      vertex 0.313585 -2.98357 -1.5
    endloop
  endfacet
  facet normal -0.406737 -0.913545 0
    outer loop
      vertex -1.5 -2.59808 -1.5
      vertex -0.927051 -2.85317 1.5
      vertex -1.5 -2.59808 1.5
    endloop
  endfacet
  facet normal -0.406737 -0.913545 -0
    outer loop
      vertex -0.927051 -2.85317 1.5
      vertex -1.5 -2.59808 -1.5
      vertex -0.927051 -2.85317 -1.5
    endloop
  endfacet
  facet normal -0.743144 -0.669131 0
    outer loop
      vertex -2.00739 -2.22943 -1.5
      vertex -2.42705 -1.76336 1.5
      vertex -2.42705 -1.76336 -1.5
    endloop
  endfacet
  facet normal -0.743144 -0.669131 0
    outer loop
      vertex -2.42705 -1.76336 1.5
      vertex -2.00739 -2.22943 -1.5
      vertex -2.00739 -2.22943 1.5
    endloop
  endfacet
  facet normal 0 0 -1
    outer loop
      vertex 1.75 0 -1.5
      vertex 3 0 -1.5
      vertex 2.93444 -0.623734 -1.5
    endloop
  endfacet
  facet normal 0 0 -1
    outer loop
      vertex 1.71176 -0.363845 -1.5
      vertex 2.93444 -0.623734 -1.5
      vertex 2.74064 -1.22021 -1.5
    endloop
  endfacet
  facet normal 0 0 -1
    outer loop
      vertex 3 0 -1.5
      vertex 1.75 0 -1.5
      vertex 2.93444 0.623734 -1.5
    endloop
  endfacet
  facet normal 0 0 -1
    outer loop
      vertex 1.5987 -0.711788 -1.5
      vertex 2.74064 -1.22021 -1.5
      vertex 2.42705 -1.76336 -1.5
    endloop
  endfacet
  facet normal 0 0 -1
    outer loop
      vertex 1.71176 0.363845 -1.5
      vertex 2.93444 0.623734 -1.5
      vertex 1.75 0 -1.5
    endloop
  endfacet
  facet normal 0 0 -1
    outer loop
      vertex 1.41578 -1.02862 -1.5
      vertex 2.42705 -1.76336 -1.5
      vertex 2.00739 -2.22943 -1.5
    endloop
  endfacet
  facet normal -0 0 -1
    outer loop
      vertex 2.93444 0.623734 -1.5
      vertex 1.71176 0.363845 -1.5
      vertex 2.74064 1.22021 -1.5
    endloop
  endfacet
  facet normal 0 0 -1
    outer loop
      vertex 1.5987 0.711788 -1.5
      vertex 2.74064 1.22021 -1.5
      vertex 1.71176 0.363845 -1.5
    endloop
  endfacet
  facet normal 0 0 -1
    outer loop
      vertex 2.93444 -0.623734 -1.5
      vertex 1.71176 -0.363845 -1.5
      vertex 1.75 0 -1.5
    endloop
  endfacet
  facet normal 0 0 -1
    outer loop
      vertex 2.74064 -1.22021 -1.5
      vertex 1.5987 -0.711788 -1.5
      vertex 1.71176 -0.363845 -1.5
    endloop
  endfacet
  facet normal 0 0 -1
    outer loop
      vertex 1.17098 -1.3005 -1.5
      vertex 2.00739 -2.22943 -1.5
      vertex 1.5 -2.59808 -1.5
    endloop
  endfacet
  facet normal 0 0 -1
    outer loop
      vertex 2.42705 -1.76336 -1.5
      vertex 1.41578 -1.02862 -1.5
      vertex 1.5987 -0.711788 -1.5
    endloop
  endfacet
  facet normal 0 0 -1
    outer loop
      vertex 2.00739 -2.22943 -1.5
      vertex 1.17098 -1.3005 -1.5
      vertex 1.41578 -1.02862 -1.5
    endloop
  endfacet
  facet normal 0 0 -1
    outer loop
      vertex 0.875 -1.51554 -1.5
      vertex 1.5 -2.59808 -1.5
      vertex 0.927051 -2.85317 -1.5
    endloop
  endfacet
  facet normal 0 0 -1
    outer loop
      vertex 1.5 -2.59808 -1.5
      vertex 0.875 -1.51554 -1.5
      vertex 1.17098 -1.3005 -1.5
    endloop
  endfacet
  facet normal 0 0 -1
    outer loop
      vertex 0.927051 -2.85317 -1.5
      vertex 0.540779 -1.66435 -1.5
      vertex 0.875 -1.51554 -1.5
    endloop
  endfacet
  facet normal 0 0 -1
    outer loop
      vertex 0.313585 -2.98357 -1.5
      vertex 0.540779 -1.66435 -1.5
      vertex 0.927051 -2.85317 -1.5
    endloop
  endfacet
  facet normal 0 0 -1
    outer loop
      vertex 0.313585 -2.98357 -1.5
      vertex 0.182924 -1.74041 -1.5
      vertex 0.540779 -1.66435 -1.5
    endloop
  endfacet
  facet normal 0 0 -1
    outer loop
      vertex 0.313585 -2.98357 -1.5
      vertex -0.182924 -1.74041 -1.5
      vertex 0.182924 -1.74041 -1.5
    endloop
  endfacet
  facet normal 0 0 -1
    outer loop
      vertex -0.313585 -2.98357 -1.5
      vertex -0.182924 -1.74041 -1.5
      vertex 0.313585 -2.98357 -1.5
    endloop
  endfacet
  facet normal 0 0 -1
    outer loop
      vertex -0.313585 -2.98357 -1.5
      vertex -0.540779 -1.66435 -1.5
      vertex -0.182924 -1.74041 -1.5
    endloop
  endfacet
  facet normal 0 0 -1
    outer loop
      vertex -0.927051 -2.85317 -1.5
      vertex -0.540779 -1.66435 -1.5
      vertex -0.313585 -2.98357 -1.5
    endloop
  endfacet
  facet normal -0 0 -1
    outer loop
      vertex -0.540779 -1.66435 -1.5
      vertex -0.927051 -2.85317 -1.5
      vertex -0.875 -1.51554 -1.5
    endloop
  endfacet
  facet normal 0 0 -1
    outer loop
      vertex -1.5 -2.59808 -1.5
      vertex -0.875 -1.51554 -1.5
      vertex -0.927051 -2.85317 -1.5
    endloop
  endfacet
  facet normal -0 0 -1
    outer loop
      vertex -0.875 -1.51554 -1.5
      vertex -1.5 -2.59808 -1.5
      vertex -1.17098 -1.3005 -1.5
    endloop
  endfacet
  facet normal 0 0 -1
    outer loop
      vertex -2.00739 -2.22943 -1.5
      vertex -1.17098 -1.3005 -1.5
      vertex -1.5 -2.59808 -1.5
    endloop
  endfacet
  facet normal -0 0 -1
    outer loop
      vertex -1.17098 -1.3005 -1.5
      vertex -2.00739 -2.22943 -1.5
      vertex -1.41578 -1.02862 -1.5
    endloop
  endfacet
  facet normal 0 0 -1
    outer loop
      vertex -2.42705 -1.76336 -1.5
      vertex -1.41578 -1.02862 -1.5
      vertex -2.00739 -2.22943 -1.5
    endloop
  endfacet
  facet normal -0 0 -1
    outer loop
      vertex -1.41578 -1.02862 -1.5
      vertex -2.42705 -1.76336 -1.5
      vertex -1.5987 -0.711788 -1.5
    endloop
  endfacet
  facet normal 0 0 -1
    outer loop
      vertex -2.74064 -1.22021 -1.5
      vertex -1.5987 -0.711788 -1.5
      vertex -2.42705 -1.76336 -1.5
    endloop
  endfacet
  facet normal -0 0 -1
    outer loop
      vertex 2.74064 1.22021 -1.5
      vertex 1.5987 0.711788 -1.5
      vertex 2.42705 1.76336 -1.5
    endloop
  endfacet
  facet normal 0 0 -1
    outer loop
      vertex 1.41578 1.02862 -1.5
      vertex 2.42705 1.76336 -1.5
      vertex 1.5987 0.711788 -1.5
    endloop
  endfacet
  facet normal -0 0 -1
    outer loop
      vertex 2.42705 1.76336 -1.5
      vertex 1.41578 1.02862 -1.5
      vertex 2.00739 2.22943 -1.5
    endloop
  endfacet
  facet normal 0 0 -1
    outer loop
      vertex 1.17098 1.3005 -1.5
      vertex 2.00739 2.22943 -1.5
      vertex 1.41578 1.02862 -1.5
    endloop
  endfacet
  facet normal -0 0 -1
    outer loop
      vertex 2.00739 2.22943 -1.5
      vertex 1.17098 1.3005 -1.5
      vertex 1.5 2.59808 -1.5
    endloop
  endfacet
  facet normal 0 0 -1
    outer loop
      vertex 0.875 1.51554 -1.5
      vertex 1.5 2.59808 -1.5
      vertex 1.17098 1.3005 -1.5
    endloop
  endfacet
  facet normal -0 0 -1
    outer loop
      vertex 1.5 2.59808 -1.5
      vertex 0.875 1.51554 -1.5
      vertex 0.927051 2.85317 -1.5
    endloop
  endfacet
  facet normal 0 0 -1
    outer loop
      vertex 0.540779 1.66435 -1.5
      vertex 0.927051 2.85317 -1.5
      vertex 0.875 1.51554 -1.5
    endloop
  endfacet
  facet normal 0 0 -1
    outer loop
      vertex 0.540779 1.66435 -1.5
      vertex 0.313585 2.98357 -1.5
      vertex 0.927051 2.85317 -1.5
    endloop
  endfacet
  facet normal 0 0 -1
    outer loop
      vertex 0.182924 1.74041 -1.5
      vertex 0.313585 2.98357 -1.5
      vertex 0.540779 1.66435 -1.5
    endloop
  endfacet
  facet normal 0 0 -1
    outer loop
      vertex -0.182924 1.74041 -1.5
      vertex 0.313585 2.98357 -1.5
      vertex 0.182924 1.74041 -1.5
    endloop
  endfacet
  facet normal 0 0 -1
    outer loop
      vertex -0.182924 1.74041 -1.5
      vertex -0.313585 2.98357 -1.5
      vertex 0.313585 2.98357 -1.5
    endloop
  endfacet
  facet normal 0 0 -1
    outer loop
      vertex -0.540779 1.66435 -1.5
      vertex -0.313585 2.98357 -1.5
      vertex -0.182924 1.74041 -1.5
    endloop
  endfacet
  facet normal 0 0 -1
    outer loop
      vertex -0.927051 2.85317 -1.5
      vertex -0.540779 1.66435 -1.5
      vertex -0.874999 1.51554 -1.5
    endloop
  endfacet
  facet normal 0 0 -1
    outer loop
      vertex -0.540779 1.66435 -1.5
      vertex -0.927051 2.85317 -1.5
      vertex -0.313585 2.98357 -1.5
    endloop
  endfacet
  facet normal 0 0 -1
    outer loop
      vertex -1.5 2.59808 -1.5
      vertex -0.874999 1.51554 -1.5
      vertex -1.17098 1.3005 -1.5
    endloop
  endfacet
  facet normal 0 0 -1
    outer loop
      vertex -2.00739 2.22943 -1.5
      vertex -1.17098 1.3005 -1.5
      vertex -1.41578 1.02862 -1.5
    endloop
  endfacet
  facet normal 0 0 -1
    outer loop
      vertex -0.874999 1.51554 -1.5
      vertex -1.5 2.59808 -1.5
      vertex -0.927051 2.85317 -1.5
    endloop
  endfacet
  facet normal 0 0 -1
    outer loop
      vertex -2.42705 1.76336 -1.5
      vertex -1.41578 1.02862 -1.5
      vertex -1.5987 0.711788 -1.5
    endloop
  endfacet
  facet normal 0 0 -1
    outer loop
      vertex -2.74064 1.22021 -1.5
      vertex -1.5987 0.711788 -1.5
      vertex -1.71176 0.363845 -1.5
    endloop
  endfacet
  facet normal 0 0 -1
    outer loop
      vertex -2.93444 0.623734 -1.5
      vertex -1.71176 0.363845 -1.5
      vertex -1.75 0 -1.5
    endloop
  endfacet
  facet normal -0 0 -1
    outer loop
      vertex -1.5987 -0.711788 -1.5
      vertex -2.74064 -1.22021 -1.5
      vertex -1.71176 -0.363845 -1.5
    endloop
  endfacet
  facet normal 0 0 -1
    outer loop
      vertex -1.17098 1.3005 -1.5
      vertex -2.00739 2.22943 -1.5
      vertex -1.5 2.59808 -1.5
    endloop
  endfacet
  facet normal 0 0 -1
    outer loop
      vertex -2.93444 -0.623734 -1.5
      vertex -1.71176 -0.363845 -1.5
      vertex -2.74064 -1.22021 -1.5
    endloop
  endfacet
  facet normal 0 0 -1
    outer loop
      vertex -1.41578 1.02862 -1.5
      vertex -2.42705 1.76336 -1.5
      vertex -2.00739 2.22943 -1.5
    endloop
  endfacet
  facet normal -0 0 -1
    outer loop
      vertex -1.71176 -0.363845 -1.5
      vertex -2.93444 -0.623734 -1.5
      vertex -1.75 0 -1.5
    endloop
  endfacet
  facet normal 0 0 -1
    outer loop
      vertex -1.5987 0.711788 -1.5
      vertex -2.74064 1.22021 -1.5
      vertex -2.42705 1.76336 -1.5
    endloop
  endfacet
  facet normal 0 0 -1
    outer loop
      vertex -3 0 -1.5
      vertex -1.75 0 -1.5
      vertex -2.93444 -0.623734 -1.5
    endloop
  endfacet
  facet normal 0 0 -1
    outer loop
      vertex -1.71176 0.363845 -1.5
      vertex -2.93444 0.623734 -1.5
      vertex -2.74064 1.22021 -1.5
    endloop
  endfacet
  facet normal 0 0 -1
    outer loop
      vertex -1.75 0 -1.5
      vertex -3 0 -1.5
      vertex -2.93444 0.623734 -1.5
    endloop
  endfacet
  facet normal -0.587786 -0.809016 0
    outer loop
      vertex -2.00739 -2.22943 -1.5
      vertex -1.5 -2.59808 1.5
      vertex -2.00739 -2.22943 1.5
    endloop
  endfacet
  facet normal -0.587786 -0.809016 -0
    outer loop
      vertex -1.5 -2.59808 1.5
      vertex -2.00739 -2.22943 -1.5
      vertex -1.5 -2.59808 -1.5
    endloop
  endfacet
  facet normal -0.994522 -0.10453 0
    outer loop
      vertex 1.75 0 -1.5
      vertex 1.71176 0.363845 1.5
      vertex 1.71176 0.363845 -1.5
    endloop
  endfacet
  facet normal -0.994522 -0.10453 0
    outer loop
      vertex 1.71176 0.363845 1.5
      vertex 1.75 0 -1.5
      vertex 1.75 0 1.5
    endloop
  endfacet
  facet normal 0.994522 -0.10453 0
    outer loop
      vertex -1.75 0 1.5
      vertex -1.71176 0.363845 -1.5
      vertex -1.71176 0.363845 1.5
    endloop
  endfacet
  facet normal 0.994522 -0.10453 0
    outer loop
      vertex -1.71176 0.363845 -1.5
      vertex -1.75 0 1.5
      vertex -1.75 0 -1.5
    endloop
  endfacet
  facet normal 0 -1 0
    outer loop
      vertex -0.182924 1.74041 -1.5
      vertex 0.182924 1.74041 1.5
      vertex -0.182924 1.74041 1.5
    endloop
  endfacet
  facet normal 0 -1 -0
    outer loop
      vertex 0.182924 1.74041 1.5
      vertex -0.182924 1.74041 -1.5
      vertex 0.182924 1.74041 -1.5
    endloop
  endfacet
  facet normal -0.587786 -0.809017 0
    outer loop
      vertex 0.875 1.51554 -1.5
      vertex 1.17098 1.3005 1.5
      vertex 0.875 1.51554 1.5
    endloop
  endfacet
  facet normal -0.587786 -0.809017 -0
    outer loop
      vertex 1.17098 1.3005 1.5
      vertex 0.875 1.51554 -1.5
      vertex 1.17098 1.3005 -1.5
    endloop
  endfacet
  facet normal -0.406737 -0.913546 0
    outer loop
      vertex 0.540779 1.66435 -1.5
      vertex 0.875 1.51554 1.5
      vertex 0.540779 1.66435 1.5
    endloop
  endfacet
  facet normal -0.406737 -0.913546 -0
    outer loop
      vertex 0.875 1.51554 1.5
      vertex 0.540779 1.66435 -1.5
      vertex 0.875 1.51554 -1.5
    endloop
  endfacet
  facet normal 0.587784 -0.809018 0
    outer loop
      vertex -1.17098 1.3005 -1.5
      vertex -0.874999 1.51554 1.5
      vertex -1.17098 1.3005 1.5
    endloop
  endfacet
  facet normal 0.587784 -0.809018 0
    outer loop
      vertex -0.874999 1.51554 1.5
      vertex -1.17098 1.3005 -1.5
      vertex -0.874999 1.51554 -1.5
    endloop
  endfacet
  facet normal 0.207911 -0.978148 0
    outer loop
      vertex -0.540779 1.66435 -1.5
      vertex -0.182924 1.74041 1.5
      vertex -0.540779 1.66435 1.5
    endloop
  endfacet
  facet normal 0.207911 -0.978148 0
    outer loop
      vertex -0.182924 1.74041 1.5
      vertex -0.540779 1.66435 -1.5
      vertex -0.182924 1.74041 -1.5
    endloop
  endfacet
  facet normal -0.866025 -0.5 0
    outer loop
      vertex 1.5987 0.711788 -1.5
      vertex 1.41578 1.02862 1.5
      vertex 1.41578 1.02862 -1.5
    endloop
  endfacet
  facet normal -0.866025 -0.5 0
    outer loop
      vertex 1.41578 1.02862 1.5
      vertex 1.5987 0.711788 -1.5
      vertex 1.5987 0.711788 1.5
    endloop
  endfacet
  facet normal -0.951057 -0.309016 0
    outer loop
      vertex 1.71176 0.363845 -1.5
      vertex 1.5987 0.711788 1.5
      vertex 1.5987 0.711788 -1.5
    endloop
  endfacet
  facet normal -0.951057 -0.309016 0
    outer loop
      vertex 1.5987 0.711788 1.5
      vertex 1.71176 0.363845 -1.5
      vertex 1.71176 0.363845 1.5
    endloop
  endfacet
  facet normal -0.743146 -0.66913 0
    outer loop
      vertex 1.41578 1.02862 -1.5
      vertex 1.17098 1.3005 1.5
      vertex 1.17098 1.3005 -1.5
    endloop
  endfacet
  facet normal -0.743146 -0.66913 0
    outer loop
      vertex 1.17098 1.3005 1.5
      vertex 1.41578 1.02862 -1.5
      vertex 1.41578 1.02862 1.5
    endloop
  endfacet
  facet normal -0.207911 -0.978148 0
    outer loop
      vertex 0.182924 1.74041 -1.5
      vertex 0.540779 1.66435 1.5
      vertex 0.182924 1.74041 1.5
    endloop
  endfacet
  facet normal -0.207911 -0.978148 -0
    outer loop
      vertex 0.540779 1.66435 1.5
      vertex 0.182924 1.74041 -1.5
      vertex 0.540779 1.66435 -1.5
    endloop
  endfacet
  facet normal 0.866025 -0.5 0
    outer loop
      vertex -1.5987 0.711788 1.5
      vertex -1.41578 1.02862 -1.5
      vertex -1.41578 1.02862 1.5
    endloop
  endfacet
  facet normal 0.866025 -0.5 0
    outer loop
      vertex -1.41578 1.02862 -1.5
      vertex -1.5987 0.711788 1.5
      vertex -1.5987 0.711788 -1.5
    endloop
  endfacet
  facet normal 0.743146 -0.66913 0
    outer loop
      vertex -1.41578 1.02862 1.5
      vertex -1.17098 1.3005 -1.5
      vertex -1.17098 1.3005 1.5
    endloop
  endfacet
  facet normal 0.743146 -0.66913 0
    outer loop
      vertex -1.17098 1.3005 -1.5
      vertex -1.41578 1.02862 1.5
      vertex -1.41578 1.02862 -1.5
    endloop
  endfacet
  facet normal 0.951057 -0.309016 0
    outer loop
      vertex -1.71176 0.363845 1.5
      vertex -1.5987 0.711788 -1.5
      vertex -1.5987 0.711788 1.5
    endloop
  endfacet
  facet normal 0.951057 -0.309016 0
    outer loop
      vertex -1.5987 0.711788 -1.5
      vertex -1.71176 0.363845 1.5
      vertex -1.71176 0.363845 -1.5
    endloop
  endfacet
  facet normal 0.406737 -0.913545 0
    outer loop
      vertex -0.874999 1.51554 -1.5
      vertex -0.540779 1.66435 1.5
      vertex -0.874999 1.51554 1.5
    endloop
  endfacet
  facet normal 0.406737 -0.913545 0
    outer loop
      vertex -0.540779 1.66435 1.5
      vertex -0.874999 1.51554 -1.5
      vertex -0.540779 1.66435 -1.5
    endloop
  endfacet
  facet normal -0.994522 0.10453 0
    outer loop
      vertex 1.71176 -0.363845 -1.5
      vertex 1.75 0 1.5
      vertex 1.75 0 -1.5
    endloop
  endfacet
  facet normal -0.994522 0.10453 0
    outer loop
      vertex 1.75 0 1.5
      vertex 1.71176 -0.363845 -1.5
      vertex 1.71176 -0.363845 1.5
    endloop
  endfacet
  facet normal 0.207911 0.978148 -0
    outer loop
      vertex -0.182924 -1.74041 -1.5
      vertex -0.540779 -1.66435 1.5
      vertex -0.182924 -1.74041 1.5
    endloop
  endfacet
  facet normal 0.207911 0.978148 0
    outer loop
      vertex -0.540779 -1.66435 1.5
      vertex -0.182924 -1.74041 -1.5
      vertex -0.540779 -1.66435 -1.5
    endloop
  endfacet
  facet normal -0.207911 0.978148 0
    outer loop
      vertex 0.540779 -1.66435 -1.5
      vertex 0.182924 -1.74041 1.5
      vertex 0.540779 -1.66435 1.5
    endloop
  endfacet
  facet normal -0.207911 0.978148 0
    outer loop
      vertex 0.182924 -1.74041 1.5
      vertex 0.540779 -1.66435 -1.5
      vertex 0.182924 -1.74041 -1.5
    endloop
  endfacet
  facet normal -0.743146 0.66913 0
    outer loop
      vertex 1.17098 -1.3005 -1.5
      vertex 1.41578 -1.02862 1.5
      vertex 1.41578 -1.02862 -1.5
    endloop
  endfacet
  facet normal -0.743146 0.66913 0
    outer loop
      vertex 1.41578 -1.02862 1.5
      vertex 1.17098 -1.3005 -1.5
      vertex 1.17098 -1.3005 1.5
    endloop
  endfacet
  facet normal -0.951057 0.309016 0
    outer loop
      vertex 1.5987 -0.711788 -1.5
      vertex 1.71176 -0.363845 1.5
      vertex 1.71176 -0.363845 -1.5
    endloop
  endfacet
  facet normal -0.951057 0.309016 0
    outer loop
      vertex 1.71176 -0.363845 1.5
      vertex 1.5987 -0.711788 -1.5
      vertex 1.5987 -0.711788 1.5
    endloop
  endfacet
  facet normal -0.866025 0.5 0
    outer loop
      vertex 1.41578 -1.02862 -1.5
      vertex 1.5987 -0.711788 1.5
      vertex 1.5987 -0.711788 -1.5
    endloop
  endfacet
  facet normal -0.866025 0.5 0
    outer loop
      vertex 1.5987 -0.711788 1.5
      vertex 1.41578 -1.02862 -1.5
      vertex 1.41578 -1.02862 1.5
    endloop
  endfacet
  facet normal 0.866025 0.5 0
    outer loop
      vertex -1.41578 -1.02862 1.5
      vertex -1.5987 -0.711788 -1.5
      vertex -1.5987 -0.711788 1.5
    endloop
  endfacet
  facet normal 0.866025 0.5 0
    outer loop
      vertex -1.5987 -0.711788 -1.5
      vertex -1.41578 -1.02862 1.5
      vertex -1.41578 -1.02862 -1.5
    endloop
  endfacet
  facet normal 0.994522 0.10453 0
    outer loop
      vertex -1.71176 -0.363845 1.5
      vertex -1.75 0 -1.5
      vertex -1.75 0 1.5
    endloop
  endfacet
  facet normal 0.994522 0.10453 0
    outer loop
      vertex -1.75 0 -1.5
      vertex -1.71176 -0.363845 1.5
      vertex -1.71176 -0.363845 -1.5
    endloop
  endfacet
  facet normal 0.951057 0.309016 0
    outer loop
      vertex -1.5987 -0.711788 1.5
      vertex -1.71176 -0.363845 -1.5
      vertex -1.71176 -0.363845 1.5
    endloop
  endfacet
  facet normal 0.951057 0.309016 0
    outer loop
      vertex -1.71176 -0.363845 -1.5
      vertex -1.5987 -0.711788 1.5
      vertex -1.5987 -0.711788 -1.5
    endloop
  endfacet
  facet normal -0.587786 0.809017 0
    outer loop
      vertex 1.17098 -1.3005 -1.5
      vertex 0.875 -1.51554 1.5
      vertex 1.17098 -1.3005 1.5
    endloop
  endfacet
  facet normal -0.587786 0.809017 0
    outer loop
      vertex 0.875 -1.51554 1.5
      vertex 1.17098 -1.3005 -1.5
      vertex 0.875 -1.51554 -1.5
    endloop
  endfacet
  facet normal -0.406737 0.913546 0
    outer loop
      vertex 0.875 -1.51554 -1.5
      vertex 0.540779 -1.66435 1.5
      vertex 0.875 -1.51554 1.5
    endloop
  endfacet
  facet normal -0.406737 0.913546 0
    outer loop
      vertex 0.540779 -1.66435 1.5
      vertex 0.875 -1.51554 -1.5
      vertex 0.540779 -1.66435 -1.5
    endloop
  endfacet
  facet normal 0 1 -0
    outer loop
      vertex 0.182924 -1.74041 -1.5
      vertex -0.182924 -1.74041 1.5
      vertex 0.182924 -1.74041 1.5
    endloop
  endfacet
  facet normal 0 1 0
    outer loop
      vertex -0.182924 -1.74041 1.5
      vertex 0.182924 -1.74041 -1.5
      vertex -0.182924 -1.74041 -1.5
    endloop
  endfacet
  facet normal 0.587786 0.809017 -0
    outer loop
      vertex -0.875 -1.51554 -1.5
      vertex -1.17098 -1.3005 1.5
      vertex -0.875 -1.51554 1.5
    endloop
  endfacet
  facet normal 0.587786 0.809017 0
    outer loop
      vertex -1.17098 -1.3005 1.5
      vertex -0.875 -1.51554 -1.5
      vertex -1.17098 -1.3005 -1.5
    endloop
  endfacet
  facet normal 0.406737 0.913546 -0
    outer loop
      vertex -0.540779 -1.66435 -1.5
      vertex -0.875 -1.51554 1.5
      vertex -0.540779 -1.66435 1.5
    endloop
  endfacet
  facet normal 0.406737 0.913546 0
    outer loop
      vertex -0.875 -1.51554 1.5
      vertex -0.540779 -1.66435 -1.5
      vertex -0.875 -1.51554 -1.5
    endloop
  endfacet
  facet normal 0.743146 0.66913 0
    outer loop
      vertex -1.17098 -1.3005 1.5
      vertex -1.41578 -1.02862 -1.5
      vertex -1.41578 -1.02862 1.5
    endloop
  endfacet
  facet normal 0.743146 0.66913 0
    outer loop
      vertex -1.41578 -1.02862 -1.5
      vertex -1.17098 -1.3005 1.5
      vertex -1.17098 -1.3005 -1.5
    endloop
  endfacet
endsolid OpenSCAD_Model
