solid OpenSCAD_Model
  facet normal -1 0 0
    outer loop
      vertex 0 0 0
      vertex 0 9 4.6
      vertex 0 9 0
    endloop
  endfacet
  facet normal -1 -0 0
    outer loop
      vertex 0 9 4.6
      vertex 0 0 0
      vertex 0 0 4.6
    endloop
  endfacet
  facet normal -0 0 1
    outer loop
      vertex 25.875 4.48446 4.6
      vertex 26 3 4.6
      vertex 26.171 4.6995 4.6
    endloop
  endfacet
  facet normal -0 0 1
    outer loop
      vertex 25.5408 4.33565 4.6
      vertex 26 3 4.6
      vertex 25.875 4.48446 4.6
    endloop
  endfacet
  facet normal -0 0 1
    outer loop
      vertex 25.1829 4.25959 4.6
      vertex 26 3 4.6
      vertex 25.5408 4.33565 4.6
    endloop
  endfacet
  facet normal -0 0 1
    outer loop
      vertex 24.8171 4.25959 4.6
      vertex 26 3 4.6
      vertex 25.1829 4.25959 4.6
    endloop
  endfacet
  facet normal 0 0 1
    outer loop
      vertex 24.4592 4.33565 4.6
      vertex 26 3 4.6
      vertex 24.8171 4.25959 4.6
    endloop
  endfacet
  facet normal 0 0 1
    outer loop
      vertex 24.125 4.48446 4.6
      vertex 26 3 4.6
      vertex 24.4592 4.33565 4.6
    endloop
  endfacet
  facet normal 0 0 1
    outer loop
      vertex 7.875 4.48446 4.6
      vertex 24.125 4.48446 4.6
      vertex 23.829 4.6995 4.6
    endloop
  endfacet
  facet normal -0 0 1
    outer loop
      vertex 8.75 6 4.6
      vertex 23.2882 5.63615 4.6
      vertex 23.25 6 4.6
    endloop
  endfacet
  facet normal 0 0 1
    outer loop
      vertex 8.71176 5.63615 4.6
      vertex 23.2882 5.63615 4.6
      vertex 8.75 6 4.6
    endloop
  endfacet
  facet normal 0 0 1
    outer loop
      vertex 23.2882 5.63615 4.6
      vertex 8.71176 5.63615 4.6
      vertex 23.4013 5.28821 4.6
    endloop
  endfacet
  facet normal 0 0 1
    outer loop
      vertex 8.5987 5.28821 4.6
      vertex 23.4013 5.28821 4.6
      vertex 8.71176 5.63615 4.6
    endloop
  endfacet
  facet normal 0 0 1
    outer loop
      vertex 23.4013 5.28821 4.6
      vertex 8.5987 5.28821 4.6
      vertex 23.5842 4.97138 4.6
    endloop
  endfacet
  facet normal 0 0 1
    outer loop
      vertex 8.41578 4.97138 4.6
      vertex 23.5842 4.97138 4.6
      vertex 8.5987 5.28821 4.6
    endloop
  endfacet
  facet normal 0 0 1
    outer loop
      vertex 23.5842 4.97138 4.6
      vertex 8.41578 4.97138 4.6
      vertex 23.829 4.6995 4.6
    endloop
  endfacet
  facet normal 0 0 1
    outer loop
      vertex 8.17098 4.6995 4.6
      vertex 23.829 4.6995 4.6
      vertex 8.41578 4.97138 4.6
    endloop
  endfacet
  facet normal 0 0 1
    outer loop
      vertex 7.875 4.48446 4.6
      vertex 23.829 4.6995 4.6
      vertex 8.17098 4.6995 4.6
    endloop
  endfacet
  facet normal 0 0 1
    outer loop
      vertex 24.125 4.48446 4.6
      vertex 7.875 4.48446 4.6
      vertex 26 3 4.6
    endloop
  endfacet
  facet normal 0 0 1
    outer loop
      vertex 6 3 4.6
      vertex 7.875 4.48446 4.6
      vertex 7.54078 4.33565 4.6
    endloop
  endfacet
  facet normal 0 0 1
    outer loop
      vertex 6 3 4.6
      vertex 7.54078 4.33565 4.6
      vertex 7.18292 4.25959 4.6
    endloop
  endfacet
  facet normal 0 0 1
    outer loop
      vertex 6 3 4.6
      vertex 7.18292 4.25959 4.6
      vertex 6.81707 4.25959 4.6
    endloop
  endfacet
  facet normal 0 0 1
    outer loop
      vertex 7.875 4.48446 4.6
      vertex 6 3 4.6
      vertex 26 3 4.6
    endloop
  endfacet
  facet normal 0 0 1
    outer loop
      vertex 6.45922 4.33565 4.6
      vertex 6 3 4.6
      vertex 6.81707 4.25959 4.6
    endloop
  endfacet
  facet normal 0 0 1
    outer loop
      vertex 6.125 4.48446 4.6
      vertex 6 3 4.6
      vertex 6.45922 4.33565 4.6
    endloop
  endfacet
  facet normal 0 0 1
    outer loop
      vertex 5.82902 4.6995 4.6
      vertex 6 3 4.6
      vertex 6.125 4.48446 4.6
    endloop
  endfacet
  facet normal 0 0 1
    outer loop
      vertex 5.58422 4.97138 4.6
      vertex 6 3 4.6
      vertex 5.82902 4.6995 4.6
    endloop
  endfacet
  facet normal 0 0 1
    outer loop
      vertex 6 3 4.6
      vertex 5.58422 4.97138 4.6
      vertex 0 0 4.6
    endloop
  endfacet
  facet normal 0 0 1
    outer loop
      vertex 0 0 4.6
      vertex 5.58422 4.97138 4.6
      vertex 5.40129 5.28821 4.6
    endloop
  endfacet
  facet normal 0 0 1
    outer loop
      vertex 0 0 4.6
      vertex 5.40129 5.28821 4.6
      vertex 5.28824 5.63615 4.6
    endloop
  endfacet
  facet normal 0 0 1
    outer loop
      vertex 0 9 4.6
      vertex 5.28824 5.63615 4.6
      vertex 5.25 6 4.6
    endloop
  endfacet
  facet normal 0 0 1
    outer loop
      vertex 0 0 4.6
      vertex 5.28824 5.63615 4.6
      vertex 0 9 4.6
    endloop
  endfacet
  facet normal 0 0 1
    outer loop
      vertex 6 3 4.6
      vertex 0 0 4.6
      vertex 6 0 4.6
    endloop
  endfacet
  facet normal 0 0 1
    outer loop
      vertex 26.7118 5.63615 4.6
      vertex 32 9 4.6
      vertex 26.75 6 4.6
    endloop
  endfacet
  facet normal 0 0 1
    outer loop
      vertex 32 9 4.6
      vertex 26.7118 6.36384 4.6
      vertex 26.75 6 4.6
    endloop
  endfacet
  facet normal 0 0 1
    outer loop
      vertex 32 9 4.6
      vertex 26.5987 6.71179 4.6
      vertex 26.7118 6.36384 4.6
    endloop
  endfacet
  facet normal 0 0 1
    outer loop
      vertex 32 9 4.6
      vertex 26.4158 7.02862 4.6
      vertex 26.5987 6.71179 4.6
    endloop
  endfacet
  facet normal 0 0 1
    outer loop
      vertex 32 9 4.6
      vertex 26.171 7.3005 4.6
      vertex 26.4158 7.02862 4.6
    endloop
  endfacet
  facet normal 0 0 1
    outer loop
      vertex 32 9 4.6
      vertex 25.875 7.51554 4.6
      vertex 26.171 7.3005 4.6
    endloop
  endfacet
  facet normal 0 0 1
    outer loop
      vertex 32 9 4.6
      vertex 25.5408 7.66435 4.6
      vertex 25.875 7.51554 4.6
    endloop
  endfacet
  facet normal 0 0 1
    outer loop
      vertex 32 9 4.6
      vertex 25.1829 7.74041 4.6
      vertex 25.5408 7.66435 4.6
    endloop
  endfacet
  facet normal 0 0 1
    outer loop
      vertex 32 9 4.6
      vertex 24.8171 7.74041 4.6
      vertex 25.1829 7.74041 4.6
    endloop
  endfacet
  facet normal 0 0 1
    outer loop
      vertex 23.2882 6.36384 4.6
      vertex 8.75 6 4.6
      vertex 23.25 6 4.6
    endloop
  endfacet
  facet normal 0 0 1
    outer loop
      vertex 8.71176 6.36384 4.6
      vertex 23.2882 6.36384 4.6
      vertex 23.4013 6.71179 4.6
    endloop
  endfacet
  facet normal 0 0 1
    outer loop
      vertex 8.5987 6.71179 4.6
      vertex 23.4013 6.71179 4.6
      vertex 23.5842 7.02862 4.6
    endloop
  endfacet
  facet normal 0 0 1
    outer loop
      vertex 8.41578 7.02862 4.6
      vertex 23.5842 7.02862 4.6
      vertex 23.829 7.3005 4.6
    endloop
  endfacet
  facet normal 0 0 1
    outer loop
      vertex 8.17098 7.3005 4.6
      vertex 23.829 7.3005 4.6
      vertex 24.125 7.51554 4.6
    endloop
  endfacet
  facet normal 0 0 1
    outer loop
      vertex 7.875 7.51554 4.6
      vertex 24.125 7.51554 4.6
      vertex 24.4592 7.66435 4.6
    endloop
  endfacet
  facet normal 0 0 1
    outer loop
      vertex 7.54078 7.66435 4.6
      vertex 24.4592 7.66435 4.6
      vertex 24.8171 7.74041 4.6
    endloop
  endfacet
  facet normal 0 0 1
    outer loop
      vertex 7.18292 7.74041 4.6
      vertex 24.8171 7.74041 4.6
      vertex 32 9 4.6
    endloop
  endfacet
  facet normal 0 0 1
    outer loop
      vertex 23.2882 6.36384 4.6
      vertex 8.71176 6.36384 4.6
      vertex 8.75 6 4.6
    endloop
  endfacet
  facet normal 0 0 1
    outer loop
      vertex 23.4013 6.71179 4.6
      vertex 8.5987 6.71179 4.6
      vertex 8.71176 6.36384 4.6
    endloop
  endfacet
  facet normal 0 0 1
    outer loop
      vertex 23.5842 7.02862 4.6
      vertex 8.41578 7.02862 4.6
      vertex 8.5987 6.71179 4.6
    endloop
  endfacet
  facet normal 0 0 1
    outer loop
      vertex 23.829 7.3005 4.6
      vertex 8.17098 7.3005 4.6
      vertex 8.41578 7.02862 4.6
    endloop
  endfacet
  facet normal 0 0 1
    outer loop
      vertex 24.125 7.51554 4.6
      vertex 7.875 7.51554 4.6
      vertex 8.17098 7.3005 4.6
    endloop
  endfacet
  facet normal 0 0 1
    outer loop
      vertex 24.4592 7.66435 4.6
      vertex 7.54078 7.66435 4.6
      vertex 7.875 7.51554 4.6
    endloop
  endfacet
  facet normal 0 0 1
    outer loop
      vertex 24.8171 7.74041 4.6
      vertex 7.18292 7.74041 4.6
      vertex 7.54078 7.66435 4.6
    endloop
  endfacet
  facet normal -0 0 1
    outer loop
      vertex 0 9 4.6
      vertex 7.18292 7.74041 4.6
      vertex 32 9 4.6
    endloop
  endfacet
  facet normal 0 0 1
    outer loop
      vertex 5.28824 6.36384 4.6
      vertex 0 9 4.6
      vertex 5.25 6 4.6
    endloop
  endfacet
  facet normal 0 0 1
    outer loop
      vertex 5.40129 6.71179 4.6
      vertex 0 9 4.6
      vertex 5.28824 6.36384 4.6
    endloop
  endfacet
  facet normal 0 0 1
    outer loop
      vertex 5.58422 7.02862 4.6
      vertex 0 9 4.6
      vertex 5.40129 6.71179 4.6
    endloop
  endfacet
  facet normal 0 0 1
    outer loop
      vertex 5.82902 7.3005 4.6
      vertex 0 9 4.6
      vertex 5.58422 7.02862 4.6
    endloop
  endfacet
  facet normal 0 0 1
    outer loop
      vertex 6.125 7.51554 4.6
      vertex 0 9 4.6
      vertex 5.82902 7.3005 4.6
    endloop
  endfacet
  facet normal 0 0 1
    outer loop
      vertex 6.45922 7.66435 4.6
      vertex 0 9 4.6
      vertex 6.125 7.51554 4.6
    endloop
  endfacet
  facet normal 0 0 1
    outer loop
      vertex 6.81707 7.74041 4.6
      vertex 0 9 4.6
      vertex 6.45922 7.66435 4.6
    endloop
  endfacet
  facet normal 0 0 1
    outer loop
      vertex 7.18292 7.74041 4.6
      vertex 0 9 4.6
      vertex 6.81707 7.74041 4.6
    endloop
  endfacet
  facet normal 0 0 1
    outer loop
      vertex 32 9 4.6
      vertex 26.7118 5.63615 4.6
      vertex 32 0 4.6
    endloop
  endfacet
  facet normal -0 0 1
    outer loop
      vertex 26.5987 5.28821 4.6
      vertex 32 0 4.6
      vertex 26.7118 5.63615 4.6
    endloop
  endfacet
  facet normal -0 0 1
    outer loop
      vertex 26.4158 4.97138 4.6
      vertex 32 0 4.6
      vertex 26.5987 5.28821 4.6
    endloop
  endfacet
  facet normal 0 0 1
    outer loop
      vertex 26 3 4.6
      vertex 26.4158 4.97138 4.6
      vertex 26.171 4.6995 4.6
    endloop
  endfacet
  facet normal 0 0 1
    outer loop
      vertex 26.4158 4.97138 4.6
      vertex 26 3 4.6
      vertex 32 0 4.6
    endloop
  endfacet
  facet normal 0 0 1
    outer loop
      vertex 32 0 4.6
      vertex 26 3 4.6
      vertex 26 0 4.6
    endloop
  endfacet
  facet normal 1 -0 0
    outer loop
      vertex 32 0 4.6
      vertex 32 9 0
      vertex 32 9 4.6
    endloop
  endfacet
  facet normal 1 0 0
    outer loop
      vertex 32 9 0
      vertex 32 0 4.6
      vertex 32 0 0
    endloop
  endfacet
  facet normal 0 1 -0
    outer loop
      vertex 3.46352 9 3.72658
      vertex 0 9 4.6
      vertex 28.5365 9 3.72658
    endloop
  endfacet
  facet normal 0 1 0
    outer loop
      vertex 0 9 4.6
      vertex 3.46352 9 3.72658
      vertex 3.15679 9 3.79178
    endloop
  endfacet
  facet normal 0 1 -0
    outer loop
      vertex 28.25 9 3.59904
      vertex 3.46352 9 3.72658
      vertex 28.5365 9 3.72658
    endloop
  endfacet
  facet normal 0 1 0
    outer loop
      vertex 28.25 9 3.59904
      vertex 3.75 9 3.59904
      vertex 3.46352 9 3.72658
    endloop
  endfacet
  facet normal 0 1 -0
    outer loop
      vertex 27.9963 9 3.41472
      vertex 3.75 9 3.59904
      vertex 28.25 9 3.59904
    endloop
  endfacet
  facet normal 0 1 0
    outer loop
      vertex 27.9963 9 3.41472
      vertex 4.0037 9 3.41472
      vertex 3.75 9 3.59904
    endloop
  endfacet
  facet normal 0 1 -0
    outer loop
      vertex 27.7865 9 3.18168
      vertex 4.0037 9 3.41472
      vertex 27.9963 9 3.41472
    endloop
  endfacet
  facet normal 0 1 0
    outer loop
      vertex 27.7865 9 3.18168
      vertex 4.21352 9 3.18168
      vertex 4.0037 9 3.41472
    endloop
  endfacet
  facet normal 0 1 -0
    outer loop
      vertex 27.6297 9 2.9101
      vertex 4.21352 9 3.18168
      vertex 27.7865 9 3.18168
    endloop
  endfacet
  facet normal 0 1 0
    outer loop
      vertex 27.6297 9 2.9101
      vertex 4.37032 9 2.9101
      vertex 4.21352 9 3.18168
    endloop
  endfacet
  facet normal 0 1 -0
    outer loop
      vertex 27.5328 9 2.61187
      vertex 4.37032 9 2.9101
      vertex 27.6297 9 2.9101
    endloop
  endfacet
  facet normal 0 1 0
    outer loop
      vertex 27.5328 9 2.61187
      vertex 4.46722 9 2.61187
      vertex 4.37032 9 2.9101
    endloop
  endfacet
  facet normal 0 1 -0
    outer loop
      vertex 27.5 9 2.3
      vertex 4.46722 9 2.61187
      vertex 27.5328 9 2.61187
    endloop
  endfacet
  facet normal 0 1 0
    outer loop
      vertex 27.5 9 2.3
      vertex 4.5 9 2.3
      vertex 4.46722 9 2.61187
    endloop
  endfacet
  facet normal 0 1 0
    outer loop
      vertex 27.5328 9 1.98813
      vertex 4.5 9 2.3
      vertex 27.5 9 2.3
    endloop
  endfacet
  facet normal 0 1 0
    outer loop
      vertex 27.5328 9 1.98813
      vertex 4.46722 9 1.98813
      vertex 4.5 9 2.3
    endloop
  endfacet
  facet normal 0 1 0
    outer loop
      vertex 27.6297 9 1.68989
      vertex 4.46722 9 1.98813
      vertex 27.5328 9 1.98813
    endloop
  endfacet
  facet normal 0 1 0
    outer loop
      vertex 27.6297 9 1.68989
      vertex 4.37032 9 1.68989
      vertex 4.46722 9 1.98813
    endloop
  endfacet
  facet normal 0 1 0
    outer loop
      vertex 27.7865 9 1.41832
      vertex 4.37032 9 1.68989
      vertex 27.6297 9 1.68989
    endloop
  endfacet
  facet normal 0 1 0
    outer loop
      vertex 27.7865 9 1.41832
      vertex 4.21352 9 1.41832
      vertex 4.37032 9 1.68989
    endloop
  endfacet
  facet normal 0 1 0
    outer loop
      vertex 27.9963 9 1.18528
      vertex 4.21352 9 1.41832
      vertex 27.7865 9 1.41832
    endloop
  endfacet
  facet normal 0 1 0
    outer loop
      vertex 27.9963 9 1.18528
      vertex 4.0037 9 1.18528
      vertex 4.21352 9 1.41832
    endloop
  endfacet
  facet normal 0 1 0
    outer loop
      vertex 28.25 9 1.00096
      vertex 4.0037 9 1.18528
      vertex 27.9963 9 1.18528
    endloop
  endfacet
  facet normal 0 1 0
    outer loop
      vertex 28.25 9 1.00096
      vertex 3.75 9 1.00096
      vertex 4.0037 9 1.18528
    endloop
  endfacet
  facet normal 0 1 0
    outer loop
      vertex 28.5365 9 0.873415
      vertex 3.75 9 1.00096
      vertex 28.25 9 1.00096
    endloop
  endfacet
  facet normal 0 1 0
    outer loop
      vertex 28.5365 9 0.873415
      vertex 3.46352 9 0.873415
      vertex 3.75 9 1.00096
    endloop
  endfacet
  facet normal 0 1 0
    outer loop
      vertex 32 9 0
      vertex 28.5365 9 0.873415
      vertex 28.8432 9 0.808217
    endloop
  endfacet
  facet normal 0 1 0
    outer loop
      vertex 28.5365 9 0.873415
      vertex 32 9 0
      vertex 3.46352 9 0.873415
    endloop
  endfacet
  facet normal 0 1 0
    outer loop
      vertex 28.8432 9 3.79178
      vertex 32 9 4.6
      vertex 29.1568 9 3.79178
    endloop
  endfacet
  facet normal 0 1 0
    outer loop
      vertex 32 9 4.6
      vertex 29.4635 9 3.72658
      vertex 29.1568 9 3.79178
    endloop
  endfacet
  facet normal 0 1 0
    outer loop
      vertex 32 9 4.6
      vertex 29.75 9 3.59904
      vertex 29.4635 9 3.72658
    endloop
  endfacet
  facet normal 0 1 0
    outer loop
      vertex 32 9 4.6
      vertex 30.0037 9 3.41472
      vertex 29.75 9 3.59904
    endloop
  endfacet
  facet normal 0 1 0
    outer loop
      vertex 32 9 4.6
      vertex 30.2135 9 3.18168
      vertex 30.0037 9 3.41472
    endloop
  endfacet
  facet normal 0 1 0
    outer loop
      vertex 32 9 4.6
      vertex 30.3703 9 2.9101
      vertex 30.2135 9 3.18168
    endloop
  endfacet
  facet normal 0 1 0
    outer loop
      vertex 32 9 4.6
      vertex 30.4672 9 2.61187
      vertex 30.3703 9 2.9101
    endloop
  endfacet
  facet normal 0 1 0
    outer loop
      vertex 32 9 4.6
      vertex 30.5 9 2.3
      vertex 30.4672 9 2.61187
    endloop
  endfacet
  facet normal 0 1 -0
    outer loop
      vertex 32 9 0
      vertex 30.5 9 2.3
      vertex 32 9 4.6
    endloop
  endfacet
  facet normal 0 1 0
    outer loop
      vertex 30.5 9 2.3
      vertex 32 9 0
      vertex 30.4672 9 1.98813
    endloop
  endfacet
  facet normal 0 1 0
    outer loop
      vertex 32 9 0
      vertex 28.8432 9 0.808217
      vertex 29.1568 9 0.808217
    endloop
  endfacet
  facet normal 0 1 0
    outer loop
      vertex 0 9 0
      vertex 3.46352 9 0.873415
      vertex 32 9 0
    endloop
  endfacet
  facet normal 0 1 0
    outer loop
      vertex 3.46352 9 0.873415
      vertex 0 9 0
      vertex 3.15679 9 0.808217
    endloop
  endfacet
  facet normal 0 1 0
    outer loop
      vertex 29.4635 9 0.873415
      vertex 32 9 0
      vertex 29.1568 9 0.808217
    endloop
  endfacet
  facet normal 0 1 0
    outer loop
      vertex 29.75 9 1.00096
      vertex 32 9 0
      vertex 29.4635 9 0.873415
    endloop
  endfacet
  facet normal 0 1 0
    outer loop
      vertex 30.0037 9 1.18528
      vertex 32 9 0
      vertex 29.75 9 1.00096
    endloop
  endfacet
  facet normal 0 1 0
    outer loop
      vertex 30.2135 9 1.41832
      vertex 32 9 0
      vertex 30.0037 9 1.18528
    endloop
  endfacet
  facet normal 0 1 0
    outer loop
      vertex 30.3703 9 1.68989
      vertex 32 9 0
      vertex 30.2135 9 1.41832
    endloop
  endfacet
  facet normal 0 1 0
    outer loop
      vertex 30.4672 9 1.98813
      vertex 32 9 0
      vertex 30.3703 9 1.68989
    endloop
  endfacet
  facet normal 0 1 0
    outer loop
      vertex 28.5365 9 3.72658
      vertex 32 9 4.6
      vertex 28.8432 9 3.79178
    endloop
  endfacet
  facet normal 0 1 0
    outer loop
      vertex 32 9 4.6
      vertex 28.5365 9 3.72658
      vertex 0 9 4.6
    endloop
  endfacet
  facet normal 0 1 -0
    outer loop
      vertex 2.84321 9 3.79178
      vertex 0 9 4.6
      vertex 3.15679 9 3.79178
    endloop
  endfacet
  facet normal 0 1 -0
    outer loop
      vertex 2.53647 9 3.72658
      vertex 0 9 4.6
      vertex 2.84321 9 3.79178
    endloop
  endfacet
  facet normal 0 1 -0
    outer loop
      vertex 2.25 9 3.59904
      vertex 0 9 4.6
      vertex 2.53647 9 3.72658
    endloop
  endfacet
  facet normal 0 1 -0
    outer loop
      vertex 1.9963 9 3.41472
      vertex 0 9 4.6
      vertex 2.25 9 3.59904
    endloop
  endfacet
  facet normal 0 1 -0
    outer loop
      vertex 1.78647 9 3.18168
      vertex 0 9 4.6
      vertex 1.9963 9 3.41472
    endloop
  endfacet
  facet normal 0 1 -0
    outer loop
      vertex 1.62968 9 2.9101
      vertex 0 9 4.6
      vertex 1.78647 9 3.18168
    endloop
  endfacet
  facet normal 0 1 -0
    outer loop
      vertex 1.53278 9 2.61187
      vertex 0 9 4.6
      vertex 1.62968 9 2.9101
    endloop
  endfacet
  facet normal 0 1 -0
    outer loop
      vertex 1.5 9 2.3
      vertex 0 9 4.6
      vertex 1.53278 9 2.61187
    endloop
  endfacet
  facet normal 0 1 0
    outer loop
      vertex 0 9 0
      vertex 1.5 9 2.3
      vertex 1.53278 9 1.98813
    endloop
  endfacet
  facet normal 0 1 0
    outer loop
      vertex 0 9 0
      vertex 1.53278 9 1.98813
      vertex 1.62968 9 1.68989
    endloop
  endfacet
  facet normal 0 1 0
    outer loop
      vertex 1.5 9 2.3
      vertex 0 9 0
      vertex 0 9 4.6
    endloop
  endfacet
  facet normal 0 1 0
    outer loop
      vertex 1.78647 9 1.41832
      vertex 0 9 0
      vertex 1.62968 9 1.68989
    endloop
  endfacet
  facet normal 0 1 0
    outer loop
      vertex 1.9963 9 1.18528
      vertex 0 9 0
      vertex 1.78647 9 1.41832
    endloop
  endfacet
  facet normal 0 1 0
    outer loop
      vertex 2.25 9 1.00096
      vertex 0 9 0
      vertex 1.9963 9 1.18528
    endloop
  endfacet
  facet normal 0 1 0
    outer loop
      vertex 2.53647 9 0.873415
      vertex 0 9 0
      vertex 2.25 9 1.00096
    endloop
  endfacet
  facet normal 0 1 0
    outer loop
      vertex 2.84321 9 0.808217
      vertex 0 9 0
      vertex 2.53647 9 0.873415
    endloop
  endfacet
  facet normal 0 1 0
    outer loop
      vertex 3.15679 9 0.808217
      vertex 0 9 0
      vertex 2.84321 9 0.808217
    endloop
  endfacet
  facet normal 0 0 -1
    outer loop
      vertex 0 0 0
      vertex 6 3 0
      vertex 6 0 0
    endloop
  endfacet
  facet normal 0 -0 -1
    outer loop
      vertex 5.58422 4.97138 0
      vertex 6 3 0
      vertex 0 0 0
    endloop
  endfacet
  facet normal 0 0 -1
    outer loop
      vertex 6 3 0
      vertex 5.58422 4.97138 0
      vertex 5.82902 4.6995 0
    endloop
  endfacet
  facet normal -0 0 -1
    outer loop
      vertex 5.58422 4.97138 0
      vertex 0 0 0
      vertex 5.40129 5.28821 0
    endloop
  endfacet
  facet normal 0 0 -1
    outer loop
      vertex 0 9 0
      vertex 5.28824 5.63615 0
      vertex 0 0 0
    endloop
  endfacet
  facet normal -0 0 -1
    outer loop
      vertex 5.40129 5.28821 0
      vertex 0 0 0
      vertex 5.28824 5.63615 0
    endloop
  endfacet
  facet normal 0 0 -1
    outer loop
      vertex 26.7118 5.63615 0
      vertex 32 9 0
      vertex 32 0 0
    endloop
  endfacet
  facet normal 0 0 -1
    outer loop
      vertex 32 9 0
      vertex 26.7118 5.63615 0
      vertex 26.75 6 0
    endloop
  endfacet
  facet normal 0 0 -1
    outer loop
      vertex 32 0 0
      vertex 26.5987 5.28821 0
      vertex 26.7118 5.63615 0
    endloop
  endfacet
  facet normal 0 0 -1
    outer loop
      vertex 32 0 0
      vertex 26.4158 4.97138 0
      vertex 26.5987 5.28821 0
    endloop
  endfacet
  facet normal 0 0 -1
    outer loop
      vertex 26 3 0
      vertex 26.4158 4.97138 0
      vertex 32 0 0
    endloop
  endfacet
  facet normal 0 0 -1
    outer loop
      vertex 26 3 0
      vertex 32 0 0
      vertex 26 0 0
    endloop
  endfacet
  facet normal 0 0 -1
    outer loop
      vertex 26.4158 4.97138 0
      vertex 26 3 0
      vertex 26.171 4.6995 0
    endloop
  endfacet
  facet normal 0 0 -1
    outer loop
      vertex 26 3 0
      vertex 25.875 4.48446 0
      vertex 26.171 4.6995 0
    endloop
  endfacet
  facet normal 0 0 -1
    outer loop
      vertex 26 3 0
      vertex 25.5408 4.33565 0
      vertex 25.875 4.48446 0
    endloop
  endfacet
  facet normal 0 0 -1
    outer loop
      vertex 26 3 0
      vertex 25.1829 4.25959 0
      vertex 25.5408 4.33565 0
    endloop
  endfacet
  facet normal 0 0 -1
    outer loop
      vertex 26 3 0
      vertex 24.8171 4.25959 0
      vertex 25.1829 4.25959 0
    endloop
  endfacet
  facet normal 0 0 -1
    outer loop
      vertex 26 3 0
      vertex 24.4592 4.33565 0
      vertex 24.8171 4.25959 0
    endloop
  endfacet
  facet normal 0 0 -1
    outer loop
      vertex 26 3 0
      vertex 24.125 4.48446 0
      vertex 24.4592 4.33565 0
    endloop
  endfacet
  facet normal 0 0 -1
    outer loop
      vertex 7.875 4.48446 0
      vertex 24.125 4.48446 0
      vertex 26 3 0
    endloop
  endfacet
  facet normal 0 0 -1
    outer loop
      vertex 23.2882 5.63615 0
      vertex 8.75 6 0
      vertex 23.25 6 0
    endloop
  endfacet
  facet normal 0 0 -1
    outer loop
      vertex 8.71176 5.63615 0
      vertex 23.2882 5.63615 0
      vertex 23.4013 5.28821 0
    endloop
  endfacet
  facet normal 0 0 -1
    outer loop
      vertex 8.5987 5.28821 0
      vertex 23.4013 5.28821 0
      vertex 23.5842 4.97138 0
    endloop
  endfacet
  facet normal 0 0 -1
    outer loop
      vertex 8.41578 4.97138 0
      vertex 23.5842 4.97138 0
      vertex 23.829 4.6995 0
    endloop
  endfacet
  facet normal 0 0 -1
    outer loop
      vertex 24.125 4.48446 0
      vertex 7.875 4.48446 0
      vertex 23.829 4.6995 0
    endloop
  endfacet
  facet normal 0 0 -1
    outer loop
      vertex 23.2882 5.63615 0
      vertex 8.71176 5.63615 0
      vertex 8.75 6 0
    endloop
  endfacet
  facet normal 0 0 -1
    outer loop
      vertex 23.4013 5.28821 0
      vertex 8.5987 5.28821 0
      vertex 8.71176 5.63615 0
    endloop
  endfacet
  facet normal 0 0 -1
    outer loop
      vertex 23.5842 4.97138 0
      vertex 8.41578 4.97138 0
      vertex 8.5987 5.28821 0
    endloop
  endfacet
  facet normal 0 0 -1
    outer loop
      vertex 23.829 4.6995 0
      vertex 8.17098 4.6995 0
      vertex 8.41578 4.97138 0
    endloop
  endfacet
  facet normal -0 0 -1
    outer loop
      vertex 23.829 4.6995 0
      vertex 7.875 4.48446 0
      vertex 8.17098 4.6995 0
    endloop
  endfacet
  facet normal 0 0 -1
    outer loop
      vertex 6 3 0
      vertex 7.875 4.48446 0
      vertex 26 3 0
    endloop
  endfacet
  facet normal 0 0 -1
    outer loop
      vertex 7.875 4.48446 0
      vertex 6 3 0
      vertex 7.54078 4.33565 0
    endloop
  endfacet
  facet normal 0 0 -1
    outer loop
      vertex 7.54078 4.33565 0
      vertex 6 3 0
      vertex 7.18292 4.25959 0
    endloop
  endfacet
  facet normal -0 0 -1
    outer loop
      vertex 7.18292 4.25959 0
      vertex 6 3 0
      vertex 6.81707 4.25959 0
    endloop
  endfacet
  facet normal 0 0 -1
    outer loop
      vertex 6 3 0
      vertex 6.45922 4.33565 0
      vertex 6.81707 4.25959 0
    endloop
  endfacet
  facet normal 0 0 -1
    outer loop
      vertex 6 3 0
      vertex 6.125 4.48446 0
      vertex 6.45922 4.33565 0
    endloop
  endfacet
  facet normal -0 0 -1
    outer loop
      vertex 6.125 4.48446 0
      vertex 6 3 0
      vertex 5.82902 4.6995 0
    endloop
  endfacet
  facet normal 0 0 -1
    outer loop
      vertex 26.7118 6.36384 0
      vertex 32 9 0
      vertex 26.75 6 0
    endloop
  endfacet
  facet normal 0 0 -1
    outer loop
      vertex 26.5987 6.71179 0
      vertex 32 9 0
      vertex 26.7118 6.36384 0
    endloop
  endfacet
  facet normal 0 0 -1
    outer loop
      vertex 26.4158 7.02862 0
      vertex 32 9 0
      vertex 26.5987 6.71179 0
    endloop
  endfacet
  facet normal 0 0 -1
    outer loop
      vertex 26.171 7.3005 0
      vertex 32 9 0
      vertex 26.4158 7.02862 0
    endloop
  endfacet
  facet normal 0 0 -1
    outer loop
      vertex 25.875 7.51554 0
      vertex 32 9 0
      vertex 26.171 7.3005 0
    endloop
  endfacet
  facet normal 0 0 -1
    outer loop
      vertex 25.5408 7.66435 0
      vertex 32 9 0
      vertex 25.875 7.51554 0
    endloop
  endfacet
  facet normal 0 0 -1
    outer loop
      vertex 25.1829 7.74041 0
      vertex 32 9 0
      vertex 25.5408 7.66435 0
    endloop
  endfacet
  facet normal 0 0 -1
    outer loop
      vertex 24.8171 7.74041 0
      vertex 32 9 0
      vertex 25.1829 7.74041 0
    endloop
  endfacet
  facet normal 0 0 -1
    outer loop
      vertex 8.75 6 0
      vertex 23.2882 6.36384 0
      vertex 23.25 6 0
    endloop
  endfacet
  facet normal 0 0 -1
    outer loop
      vertex 8.71176 6.36384 0
      vertex 23.2882 6.36384 0
      vertex 8.75 6 0
    endloop
  endfacet
  facet normal 0 0 -1
    outer loop
      vertex 23.2882 6.36384 0
      vertex 8.71176 6.36384 0
      vertex 23.4013 6.71179 0
    endloop
  endfacet
  facet normal 0 0 -1
    outer loop
      vertex 8.5987 6.71179 0
      vertex 23.4013 6.71179 0
      vertex 8.71176 6.36384 0
    endloop
  endfacet
  facet normal 0 0 -1
    outer loop
      vertex 23.4013 6.71179 0
      vertex 8.5987 6.71179 0
      vertex 23.5842 7.02862 0
    endloop
  endfacet
  facet normal 0 0 -1
    outer loop
      vertex 8.41578 7.02862 0
      vertex 23.5842 7.02862 0
      vertex 8.5987 6.71179 0
    endloop
  endfacet
  facet normal 0 0 -1
    outer loop
      vertex 23.5842 7.02862 0
      vertex 8.41578 7.02862 0
      vertex 23.829 7.3005 0
    endloop
  endfacet
  facet normal 0 0 -1
    outer loop
      vertex 8.17098 7.3005 0
      vertex 23.829 7.3005 0
      vertex 8.41578 7.02862 0
    endloop
  endfacet
  facet normal 0 0 -1
    outer loop
      vertex 23.829 7.3005 0
      vertex 8.17098 7.3005 0
      vertex 24.125 7.51554 0
    endloop
  endfacet
  facet normal 0 0 -1
    outer loop
      vertex 7.875 7.51554 0
      vertex 24.125 7.51554 0
      vertex 8.17098 7.3005 0
    endloop
  endfacet
  facet normal 0 0 -1
    outer loop
      vertex 24.125 7.51554 0
      vertex 7.875 7.51554 0
      vertex 24.4592 7.66435 0
    endloop
  endfacet
  facet normal 0 0 -1
    outer loop
      vertex 7.54078 7.66435 0
      vertex 24.4592 7.66435 0
      vertex 7.875 7.51554 0
    endloop
  endfacet
  facet normal 0 0 -1
    outer loop
      vertex 24.4592 7.66435 0
      vertex 7.54078 7.66435 0
      vertex 24.8171 7.74041 0
    endloop
  endfacet
  facet normal 0 0 -1
    outer loop
      vertex 7.18292 7.74041 0
      vertex 24.8171 7.74041 0
      vertex 7.54078 7.66435 0
    endloop
  endfacet
  facet normal 0 0 -1
    outer loop
      vertex 24.8171 7.74041 0
      vertex 7.18292 7.74041 0
      vertex 32 9 0
    endloop
  endfacet
  facet normal 0 0 -1
    outer loop
      vertex 0 9 0
      vertex 7.18292 7.74041 0
      vertex 6.81707 7.74041 0
    endloop
  endfacet
  facet normal 0 0 -1
    outer loop
      vertex 5.28824 5.63615 0
      vertex 0 9 0
      vertex 5.25 6 0
    endloop
  endfacet
  facet normal 0 0 -1
    outer loop
      vertex 5.25 6 0
      vertex 0 9 0
      vertex 5.28824 6.36384 0
    endloop
  endfacet
  facet normal 0 0 -1
    outer loop
      vertex 5.28824 6.36384 0
      vertex 0 9 0
      vertex 5.40129 6.71179 0
    endloop
  endfacet
  facet normal 0 0 -1
    outer loop
      vertex 7.18292 7.74041 0
      vertex 0 9 0
      vertex 32 9 0
    endloop
  endfacet
  facet normal 0 0 -1
    outer loop
      vertex 6.45922 7.66435 0
      vertex 0 9 0
      vertex 6.81707 7.74041 0
    endloop
  endfacet
  facet normal 0 0 -1
    outer loop
      vertex 6.125 7.51554 0
      vertex 0 9 0
      vertex 6.45922 7.66435 0
    endloop
  endfacet
  facet normal 0 0 -1
    outer loop
      vertex 5.82902 7.3005 0
      vertex 0 9 0
      vertex 6.125 7.51554 0
    endloop
  endfacet
  facet normal 0 0 -1
    outer loop
      vertex 5.58422 7.02862 0
      vertex 0 9 0
      vertex 5.82902 7.3005 0
    endloop
  endfacet
  facet normal 0 0 -1
    outer loop
      vertex 5.40129 6.71179 0
      vertex 0 9 0
      vertex 5.58422 7.02862 0
    endloop
  endfacet
  facet normal 0 -1 0
    outer loop
      vertex 26 0 4.6
      vertex 28.8432 0 3.79178
      vertex 32 0 4.6
    endloop
  endfacet
  facet normal 0 -1 0
    outer loop
      vertex 26 0 4.6
      vertex 28.5365 0 3.72658
      vertex 28.8432 0 3.79178
    endloop
  endfacet
  facet normal 0 -1 0
    outer loop
      vertex 26 0 4.6
      vertex 28.25 0 3.59904
      vertex 28.5365 0 3.72658
    endloop
  endfacet
  facet normal 0 -1 0
    outer loop
      vertex 26 0 4.6
      vertex 27.9963 0 3.41472
      vertex 28.25 0 3.59904
    endloop
  endfacet
  facet normal 0 -1 0
    outer loop
      vertex 26 0 4.6
      vertex 27.7865 0 3.18168
      vertex 27.9963 0 3.41472
    endloop
  endfacet
  facet normal 0 -1 0
    outer loop
      vertex 26 0 4.6
      vertex 27.6297 0 2.9101
      vertex 27.7865 0 3.18168
    endloop
  endfacet
  facet normal 0 -1 0
    outer loop
      vertex 26 0 4.6
      vertex 27.5328 0 2.61187
      vertex 27.6297 0 2.9101
    endloop
  endfacet
  facet normal 0 -1 0
    outer loop
      vertex 26 0 4.6
      vertex 27.5 0 2.3
      vertex 27.5328 0 2.61187
    endloop
  endfacet
  facet normal 0 -1 0
    outer loop
      vertex 26 0 0
      vertex 27.5 0 2.3
      vertex 26 0 4.6
    endloop
  endfacet
  facet normal 0 -1 -0
    outer loop
      vertex 27.5 0 2.3
      vertex 26 0 0
      vertex 27.5328 0 1.98813
    endloop
  endfacet
  facet normal 0 -1 -0
    outer loop
      vertex 28.8432 0 0.808217
      vertex 26 0 0
      vertex 29.1568 0 0.808217
    endloop
  endfacet
  facet normal 0 -1 -0
    outer loop
      vertex 28.5365 0 0.873415
      vertex 26 0 0
      vertex 28.8432 0 0.808217
    endloop
  endfacet
  facet normal 0 -1 -0
    outer loop
      vertex 28.25 0 1.00096
      vertex 26 0 0
      vertex 28.5365 0 0.873415
    endloop
  endfacet
  facet normal 0 -1 -0
    outer loop
      vertex 27.9963 0 1.18528
      vertex 26 0 0
      vertex 28.25 0 1.00096
    endloop
  endfacet
  facet normal 0 -1 -0
    outer loop
      vertex 27.7865 0 1.41832
      vertex 26 0 0
      vertex 27.9963 0 1.18528
    endloop
  endfacet
  facet normal 0 -1 -0
    outer loop
      vertex 27.6297 0 1.68989
      vertex 26 0 0
      vertex 27.7865 0 1.41832
    endloop
  endfacet
  facet normal 0 -1 -0
    outer loop
      vertex 27.5328 0 1.98813
      vertex 26 0 0
      vertex 27.6297 0 1.68989
    endloop
  endfacet
  facet normal 0 -1 0
    outer loop
      vertex 29.1568 0 3.79178
      vertex 32 0 4.6
      vertex 28.8432 0 3.79178
    endloop
  endfacet
  facet normal 0 -1 0
    outer loop
      vertex 29.4635 0 3.72658
      vertex 32 0 4.6
      vertex 29.1568 0 3.79178
    endloop
  endfacet
  facet normal 0 -1 0
    outer loop
      vertex 29.75 0 3.59904
      vertex 32 0 4.6
      vertex 29.4635 0 3.72658
    endloop
  endfacet
  facet normal 0 -1 0
    outer loop
      vertex 30.0037 0 3.41472
      vertex 32 0 4.6
      vertex 29.75 0 3.59904
    endloop
  endfacet
  facet normal 0 -1 0
    outer loop
      vertex 30.2135 0 3.18168
      vertex 32 0 4.6
      vertex 30.0037 0 3.41472
    endloop
  endfacet
  facet normal 0 -1 0
    outer loop
      vertex 30.3703 0 2.9101
      vertex 32 0 4.6
      vertex 30.2135 0 3.18168
    endloop
  endfacet
  facet normal 0 -1 0
    outer loop
      vertex 30.4672 0 2.61187
      vertex 32 0 4.6
      vertex 30.3703 0 2.9101
    endloop
  endfacet
  facet normal 0 -1 0
    outer loop
      vertex 30.5 0 2.3
      vertex 32 0 4.6
      vertex 30.4672 0 2.61187
    endloop
  endfacet
  facet normal 0 -1 0
    outer loop
      vertex 32 0 0
      vertex 30.5 0 2.3
      vertex 30.4672 0 1.98813
    endloop
  endfacet
  facet normal 0 -1 0
    outer loop
      vertex 32 0 0
      vertex 30.4672 0 1.98813
      vertex 30.3703 0 1.68989
    endloop
  endfacet
  facet normal 0 -1 0
    outer loop
      vertex 32 0 0
      vertex 29.1568 0 0.808217
      vertex 26 0 0
    endloop
  endfacet
  facet normal 0 -1 0
    outer loop
      vertex 30.5 0 2.3
      vertex 32 0 0
      vertex 32 0 4.6
    endloop
  endfacet
  facet normal 0 -1 0
    outer loop
      vertex 30.2135 0 1.41832
      vertex 32 0 0
      vertex 30.3703 0 1.68989
    endloop
  endfacet
  facet normal 0 -1 0
    outer loop
      vertex 30.0037 0 1.18528
      vertex 32 0 0
      vertex 30.2135 0 1.41832
    endloop
  endfacet
  facet normal 0 -1 0
    outer loop
      vertex 29.75 0 1.00096
      vertex 32 0 0
      vertex 30.0037 0 1.18528
    endloop
  endfacet
  facet normal 0 -1 0
    outer loop
      vertex 29.4635 0 0.873415
      vertex 32 0 0
      vertex 29.75 0 1.00096
    endloop
  endfacet
  facet normal 0 -1 0
    outer loop
      vertex 29.1568 0 0.808217
      vertex 32 0 0
      vertex 29.4635 0 0.873415
    endloop
  endfacet
  facet normal 0 -1 0
    outer loop
      vertex 0 0 4.6
      vertex 2.84321 0 3.79178
      vertex 6 0 4.6
    endloop
  endfacet
  facet normal 0 -1 0
    outer loop
      vertex 0 0 4.6
      vertex 2.53647 0 3.72658
      vertex 2.84321 0 3.79178
    endloop
  endfacet
  facet normal 0 -1 0
    outer loop
      vertex 0 0 4.6
      vertex 2.25 0 3.59904
      vertex 2.53647 0 3.72658
    endloop
  endfacet
  facet normal 0 -1 0
    outer loop
      vertex 0 0 4.6
      vertex 1.9963 0 3.41472
      vertex 2.25 0 3.59904
    endloop
  endfacet
  facet normal 0 -1 0
    outer loop
      vertex 0 0 4.6
      vertex 1.78647 0 3.18168
      vertex 1.9963 0 3.41472
    endloop
  endfacet
  facet normal 0 -1 0
    outer loop
      vertex 0 0 4.6
      vertex 1.62968 0 2.9101
      vertex 1.78647 0 3.18168
    endloop
  endfacet
  facet normal 0 -1 0
    outer loop
      vertex 0 0 4.6
      vertex 1.53278 0 2.61187
      vertex 1.62968 0 2.9101
    endloop
  endfacet
  facet normal 0 -1 0
    outer loop
      vertex 0 0 4.6
      vertex 1.5 0 2.3
      vertex 1.53278 0 2.61187
    endloop
  endfacet
  facet normal 0 -1 0
    outer loop
      vertex 0 0 0
      vertex 1.5 0 2.3
      vertex 0 0 4.6
    endloop
  endfacet
  facet normal 0 -1 -0
    outer loop
      vertex 1.5 0 2.3
      vertex 0 0 0
      vertex 1.53278 0 1.98813
    endloop
  endfacet
  facet normal 0 -1 -0
    outer loop
      vertex 2.84321 0 0.808217
      vertex 0 0 0
      vertex 3.15679 0 0.808217
    endloop
  endfacet
  facet normal 0 -1 -0
    outer loop
      vertex 2.53647 0 0.873415
      vertex 0 0 0
      vertex 2.84321 0 0.808217
    endloop
  endfacet
  facet normal 0 -1 -0
    outer loop
      vertex 2.25 0 1.00096
      vertex 0 0 0
      vertex 2.53647 0 0.873415
    endloop
  endfacet
  facet normal 0 -1 -0
    outer loop
      vertex 1.9963 0 1.18528
      vertex 0 0 0
      vertex 2.25 0 1.00096
    endloop
  endfacet
  facet normal 0 -1 -0
    outer loop
      vertex 1.78647 0 1.41832
      vertex 0 0 0
      vertex 1.9963 0 1.18528
    endloop
  endfacet
  facet normal 0 -1 -0
    outer loop
      vertex 1.62968 0 1.68989
      vertex 0 0 0
      vertex 1.78647 0 1.41832
    endloop
  endfacet
  facet normal 0 -1 -0
    outer loop
      vertex 1.53278 0 1.98813
      vertex 0 0 0
      vertex 1.62968 0 1.68989
    endloop
  endfacet
  facet normal 0 -1 0
    outer loop
      vertex 3.15679 0 3.79178
      vertex 6 0 4.6
      vertex 2.84321 0 3.79178
    endloop
  endfacet
  facet normal 0 -1 0
    outer loop
      vertex 3.46352 0 3.72658
      vertex 6 0 4.6
      vertex 3.15679 0 3.79178
    endloop
  endfacet
  facet normal 0 -1 0
    outer loop
      vertex 3.75 0 3.59904
      vertex 6 0 4.6
      vertex 3.46352 0 3.72658
    endloop
  endfacet
  facet normal 0 -1 0
    outer loop
      vertex 4.0037 0 3.41472
      vertex 6 0 4.6
      vertex 3.75 0 3.59904
    endloop
  endfacet
  facet normal 0 -1 0
    outer loop
      vertex 4.21352 0 3.18168
      vertex 6 0 4.6
      vertex 4.0037 0 3.41472
    endloop
  endfacet
  facet normal 0 -1 0
    outer loop
      vertex 4.37032 0 2.9101
      vertex 6 0 4.6
      vertex 4.21352 0 3.18168
    endloop
  endfacet
  facet normal 0 -1 0
    outer loop
      vertex 4.46722 0 2.61187
      vertex 6 0 4.6
      vertex 4.37032 0 2.9101
    endloop
  endfacet
  facet normal 0 -1 0
    outer loop
      vertex 4.5 0 2.3
      vertex 6 0 4.6
      vertex 4.46722 0 2.61187
    endloop
  endfacet
  facet normal 0 -1 0
    outer loop
      vertex 6 0 0
      vertex 4.5 0 2.3
      vertex 4.46722 0 1.98813
    endloop
  endfacet
  facet normal 0 -1 0
    outer loop
      vertex 6 0 0
      vertex 4.46722 0 1.98813
      vertex 4.37032 0 1.68989
    endloop
  endfacet
  facet normal 0 -1 0
    outer loop
      vertex 6 0 0
      vertex 3.15679 0 0.808217
      vertex 0 0 0
    endloop
  endfacet
  facet normal 0 -1 0
    outer loop
      vertex 4.5 0 2.3
      vertex 6 0 0
      vertex 6 0 4.6
    endloop
  endfacet
  facet normal 0 -1 0
    outer loop
      vertex 4.21352 0 1.41832
      vertex 6 0 0
      vertex 4.37032 0 1.68989
    endloop
  endfacet
  facet normal 0 -1 0
    outer loop
      vertex 4.0037 0 1.18528
      vertex 6 0 0
      vertex 4.21352 0 1.41832
    endloop
  endfacet
  facet normal 0 -1 0
    outer loop
      vertex 3.75 0 1.00096
      vertex 6 0 0
      vertex 4.0037 0 1.18528
    endloop
  endfacet
  facet normal 0 -1 0
    outer loop
      vertex 3.46352 0 0.873415
      vertex 6 0 0
      vertex 3.75 0 1.00096
    endloop
  endfacet
  facet normal 0 -1 0
    outer loop
      vertex 3.15679 0 0.808217
      vertex 6 0 0
      vertex 3.46352 0 0.873415
    endloop
  endfacet
  facet normal 1 -0 0
    outer loop
      vertex 6 0 4.6
      vertex 6 3 0
      vertex 6 3 4.6
    endloop
  endfacet
  facet normal 1 0 0
    outer loop
      vertex 6 3 0
      vertex 6 0 4.6
      vertex 6 0 0
    endloop
  endfacet
  facet normal -1 0 0
    outer loop
      vertex 26 0 0
      vertex 26 3 4.6
      vertex 26 3 0
    endloop
  endfacet
  facet normal -1 -0 0
    outer loop
      vertex 26 3 4.6
      vertex 26 0 0
      vertex 26 0 4.6
    endloop
  endfacet
  facet normal 0 -1 0
    outer loop
      vertex 6 3 0
      vertex 26 3 4.6
      vertex 6 3 4.6
    endloop
  endfacet
  facet normal 0 -1 -0
    outer loop
      vertex 26 3 4.6
      vertex 6 3 0
      vertex 26 3 0
    endloop
  endfacet
  facet normal -0.866025 -0.5 0
    outer loop
      vertex 8.5987 6.71179 0
      vertex 8.41578 7.02862 4.6
      vertex 8.41578 7.02862 0
    endloop
  endfacet
  facet normal -0.866025 -0.5 0
    outer loop
      vertex 8.41578 7.02862 4.6
      vertex 8.5987 6.71179 0
      vertex 8.5987 6.71179 4.6
    endloop
  endfacet
  facet normal -0.994522 -0.10453 0
    outer loop
      vertex 8.75 6 0
      vertex 8.71176 6.36384 4.6
      vertex 8.71176 6.36384 0
    endloop
  endfacet
  facet normal -0.994522 -0.10453 0
    outer loop
      vertex 8.71176 6.36384 4.6
      vertex 8.75 6 0
      vertex 8.75 6 4.6
    endloop
  endfacet
  facet normal -0.743146 -0.66913 0
    outer loop
      vertex 8.41578 7.02862 0
      vertex 8.17098 7.3005 4.6
      vertex 8.17098 7.3005 0
    endloop
  endfacet
  facet normal -0.743146 -0.66913 0
    outer loop
      vertex 8.17098 7.3005 4.6
      vertex 8.41578 7.02862 0
      vertex 8.41578 7.02862 4.6
    endloop
  endfacet
  facet normal -0.207911 -0.978148 0
    outer loop
      vertex 7.18292 7.74041 0
      vertex 7.54078 7.66435 4.6
      vertex 7.18292 7.74041 4.6
    endloop
  endfacet
  facet normal -0.207911 -0.978148 -0
    outer loop
      vertex 7.54078 7.66435 4.6
      vertex 7.18292 7.74041 0
      vertex 7.54078 7.66435 0
    endloop
  endfacet
  facet normal 0.587784 -0.809018 0
    outer loop
      vertex 5.82902 7.3005 0
      vertex 6.125 7.51554 4.6
      vertex 5.82902 7.3005 4.6
    endloop
  endfacet
  facet normal 0.587784 -0.809018 0
    outer loop
      vertex 6.125 7.51554 4.6
      vertex 5.82902 7.3005 0
      vertex 6.125 7.51554 0
    endloop
  endfacet
  facet normal -0.951057 -0.309016 0
    outer loop
      vertex 8.71176 6.36384 0
      vertex 8.5987 6.71179 4.6
      vertex 8.5987 6.71179 0
    endloop
  endfacet
  facet normal -0.951057 -0.309016 0
    outer loop
      vertex 8.5987 6.71179 4.6
      vertex 8.71176 6.36384 0
      vertex 8.71176 6.36384 4.6
    endloop
  endfacet
  facet normal -0.587786 -0.809017 0
    outer loop
      vertex 7.875 7.51554 0
      vertex 8.17098 7.3005 4.6
      vertex 7.875 7.51554 4.6
    endloop
  endfacet
  facet normal -0.587786 -0.809017 -0
    outer loop
      vertex 8.17098 7.3005 4.6
      vertex 7.875 7.51554 0
      vertex 8.17098 7.3005 0
    endloop
  endfacet
  facet normal 0.207911 -0.978148 0
    outer loop
      vertex 6.45922 7.66435 0
      vertex 6.81707 7.74041 4.6
      vertex 6.45922 7.66435 4.6
    endloop
  endfacet
  facet normal 0.207911 -0.978148 0
    outer loop
      vertex 6.81707 7.74041 4.6
      vertex 6.45922 7.66435 0
      vertex 6.81707 7.74041 0
    endloop
  endfacet
  facet normal -0.406737 -0.913546 0
    outer loop
      vertex 7.54078 7.66435 0
      vertex 7.875 7.51554 4.6
      vertex 7.54078 7.66435 4.6
    endloop
  endfacet
  facet normal -0.406737 -0.913546 -0
    outer loop
      vertex 7.875 7.51554 4.6
      vertex 7.54078 7.66435 0
      vertex 7.875 7.51554 0
    endloop
  endfacet
  facet normal 0.994522 0.104528 0
    outer loop
      vertex 5.28824 5.63615 4.6
      vertex 5.25 6 0
      vertex 5.25 6 4.6
    endloop
  endfacet
  facet normal 0.994522 0.104528 0
    outer loop
      vertex 5.25 6 0
      vertex 5.28824 5.63615 4.6
      vertex 5.28824 5.63615 0
    endloop
  endfacet
  facet normal 0.951057 -0.309016 0
    outer loop
      vertex 5.28824 6.36384 4.6
      vertex 5.40129 6.71179 0
      vertex 5.40129 6.71179 4.6
    endloop
  endfacet
  facet normal 0.951057 -0.309016 0
    outer loop
      vertex 5.40129 6.71179 0
      vertex 5.28824 6.36384 4.6
      vertex 5.28824 6.36384 0
    endloop
  endfacet
  facet normal 0.743146 -0.66913 0
    outer loop
      vertex 5.58422 7.02862 4.6
      vertex 5.82902 7.3005 0
      vertex 5.82902 7.3005 4.6
    endloop
  endfacet
  facet normal 0.743146 -0.66913 0
    outer loop
      vertex 5.82902 7.3005 0
      vertex 5.58422 7.02862 4.6
      vertex 5.58422 7.02862 0
    endloop
  endfacet
  facet normal 0.406737 -0.913545 0
    outer loop
      vertex 6.125 7.51554 0
      vertex 6.45922 7.66435 4.6
      vertex 6.125 7.51554 4.6
    endloop
  endfacet
  facet normal 0.406737 -0.913545 0
    outer loop
      vertex 6.45922 7.66435 4.6
      vertex 6.125 7.51554 0
      vertex 6.45922 7.66435 0
    endloop
  endfacet
  facet normal 0.866025 -0.5 0
    outer loop
      vertex 5.40129 6.71179 4.6
      vertex 5.58422 7.02862 0
      vertex 5.58422 7.02862 4.6
    endloop
  endfacet
  facet normal 0.866025 -0.5 0
    outer loop
      vertex 5.58422 7.02862 0
      vertex 5.40129 6.71179 4.6
      vertex 5.40129 6.71179 0
    endloop
  endfacet
  facet normal -0.951057 0.309016 0
    outer loop
      vertex 8.5987 5.28821 0
      vertex 8.71176 5.63615 4.6
      vertex 8.71176 5.63615 0
    endloop
  endfacet
  facet normal -0.951057 0.309016 0
    outer loop
      vertex 8.71176 5.63615 4.6
      vertex 8.5987 5.28821 0
      vertex 8.5987 5.28821 4.6
    endloop
  endfacet
  facet normal 0.406737 0.913546 -0
    outer loop
      vertex 6.45922 4.33565 0
      vertex 6.125 4.48446 4.6
      vertex 6.45922 4.33565 4.6
    endloop
  endfacet
  facet normal 0.406737 0.913546 0
    outer loop
      vertex 6.125 4.48446 4.6
      vertex 6.45922 4.33565 0
      vertex 6.125 4.48446 0
    endloop
  endfacet
  facet normal 0.743146 0.66913 0
    outer loop
      vertex 5.82902 4.6995 4.6
      vertex 5.58422 4.97138 0
      vertex 5.58422 4.97138 4.6
    endloop
  endfacet
  facet normal 0.743146 0.66913 0
    outer loop
      vertex 5.58422 4.97138 0
      vertex 5.82902 4.6995 4.6
      vertex 5.82902 4.6995 0
    endloop
  endfacet
  facet normal -0.743146 0.66913 0
    outer loop
      vertex 8.17098 4.6995 0
      vertex 8.41578 4.97138 4.6
      vertex 8.41578 4.97138 0
    endloop
  endfacet
  facet normal -0.743146 0.66913 0
    outer loop
      vertex 8.41578 4.97138 4.6
      vertex 8.17098 4.6995 0
      vertex 8.17098 4.6995 4.6
    endloop
  endfacet
  facet normal -0.994522 0.10453 0
    outer loop
      vertex 8.71176 5.63615 0
      vertex 8.75 6 4.6
      vertex 8.75 6 0
    endloop
  endfacet
  facet normal -0.994522 0.10453 0
    outer loop
      vertex 8.75 6 4.6
      vertex 8.71176 5.63615 0
      vertex 8.71176 5.63615 4.6
    endloop
  endfacet
  facet normal 0 -1 0
    outer loop
      vertex 6.81707 7.74041 0
      vertex 7.18292 7.74041 4.6
      vertex 6.81707 7.74041 4.6
    endloop
  endfacet
  facet normal 0 -1 -0
    outer loop
      vertex 7.18292 7.74041 4.6
      vertex 6.81707 7.74041 0
      vertex 7.18292 7.74041 0
    endloop
  endfacet
  facet normal 0.994522 -0.104528 0
    outer loop
      vertex 5.25 6 4.6
      vertex 5.28824 6.36384 0
      vertex 5.28824 6.36384 4.6
    endloop
  endfacet
  facet normal 0.994522 -0.104528 0
    outer loop
      vertex 5.28824 6.36384 0
      vertex 5.25 6 4.6
      vertex 5.25 6 0
    endloop
  endfacet
  facet normal -0.207911 0.978148 0
    outer loop
      vertex 7.54078 4.33565 0
      vertex 7.18292 4.25959 4.6
      vertex 7.54078 4.33565 4.6
    endloop
  endfacet
  facet normal -0.207911 0.978148 0
    outer loop
      vertex 7.18292 4.25959 4.6
      vertex 7.54078 4.33565 0
      vertex 7.18292 4.25959 0
    endloop
  endfacet
  facet normal 0.951057 0.309016 0
    outer loop
      vertex 5.40129 5.28821 4.6
      vertex 5.28824 5.63615 0
      vertex 5.28824 5.63615 4.6
    endloop
  endfacet
  facet normal 0.951057 0.309016 0
    outer loop
      vertex 5.28824 5.63615 0
      vertex 5.40129 5.28821 4.6
      vertex 5.40129 5.28821 0
    endloop
  endfacet
  facet normal 0.587786 0.809017 -0
    outer loop
      vertex 6.125 4.48446 0
      vertex 5.82902 4.6995 4.6
      vertex 6.125 4.48446 4.6
    endloop
  endfacet
  facet normal 0.587786 0.809017 0
    outer loop
      vertex 5.82902 4.6995 4.6
      vertex 6.125 4.48446 0
      vertex 5.82902 4.6995 0
    endloop
  endfacet
  facet normal -0.406737 0.913546 0
    outer loop
      vertex 7.875 4.48446 0
      vertex 7.54078 4.33565 4.6
      vertex 7.875 4.48446 4.6
    endloop
  endfacet
  facet normal -0.406737 0.913546 0
    outer loop
      vertex 7.54078 4.33565 4.6
      vertex 7.875 4.48446 0
      vertex 7.54078 4.33565 0
    endloop
  endfacet
  facet normal -0.587786 0.809017 0
    outer loop
      vertex 8.17098 4.6995 0
      vertex 7.875 4.48446 4.6
      vertex 8.17098 4.6995 4.6
    endloop
  endfacet
  facet normal -0.587786 0.809017 0
    outer loop
      vertex 7.875 4.48446 4.6
      vertex 8.17098 4.6995 0
      vertex 7.875 4.48446 0
    endloop
  endfacet
  facet normal 0.207911 0.978148 -0
    outer loop
      vertex 6.81707 4.25959 0
      vertex 6.45922 4.33565 4.6
      vertex 6.81707 4.25959 4.6
    endloop
  endfacet
  facet normal 0.207911 0.978148 0
    outer loop
      vertex 6.45922 4.33565 4.6
      vertex 6.81707 4.25959 0
      vertex 6.45922 4.33565 0
    endloop
  endfacet
  facet normal 0.866025 0.5 0
    outer loop
      vertex 5.58422 4.97138 4.6
      vertex 5.40129 5.28821 0
      vertex 5.40129 5.28821 4.6
    endloop
  endfacet
  facet normal 0.866025 0.5 0
    outer loop
      vertex 5.40129 5.28821 0
      vertex 5.58422 4.97138 4.6
      vertex 5.58422 4.97138 0
    endloop
  endfacet
  facet normal -0.866025 0.5 0
    outer loop
      vertex 8.41578 4.97138 0
      vertex 8.5987 5.28821 4.6
      vertex 8.5987 5.28821 0
    endloop
  endfacet
  facet normal -0.866025 0.5 0
    outer loop
      vertex 8.5987 5.28821 4.6
      vertex 8.41578 4.97138 0
      vertex 8.41578 4.97138 4.6
    endloop
  endfacet
  facet normal 0 1 -0
    outer loop
      vertex 7.18292 4.25959 0
      vertex 6.81707 4.25959 4.6
      vertex 7.18292 4.25959 4.6
    endloop
  endfacet
  facet normal 0 1 0
    outer loop
      vertex 6.81707 4.25959 4.6
      vertex 7.18292 4.25959 0
      vertex 6.81707 4.25959 0
    endloop
  endfacet
  facet normal -0.994522 -0.10453 0
    outer loop
      vertex 26.75 6 0
      vertex 26.7118 6.36384 4.6
      vertex 26.7118 6.36384 0
    endloop
  endfacet
  facet normal -0.994522 -0.10453 0
    outer loop
      vertex 26.7118 6.36384 4.6
      vertex 26.75 6 0
      vertex 26.75 6 4.6
    endloop
  endfacet
  facet normal 0.994522 0.10453 0
    outer loop
      vertex 23.2882 5.63615 4.6
      vertex 23.25 6 0
      vertex 23.25 6 4.6
    endloop
  endfacet
  facet normal 0.994522 0.10453 0
    outer loop
      vertex 23.25 6 0
      vertex 23.2882 5.63615 4.6
      vertex 23.2882 5.63615 0
    endloop
  endfacet
  facet normal 0.207912 -0.978148 0
    outer loop
      vertex 24.4592 7.66435 0
      vertex 24.8171 7.74041 4.6
      vertex 24.4592 7.66435 4.6
    endloop
  endfacet
  facet normal 0.207912 -0.978148 0
    outer loop
      vertex 24.8171 7.74041 4.6
      vertex 24.4592 7.66435 0
      vertex 24.8171 7.74041 0
    endloop
  endfacet
  facet normal -0.207911 0.978148 0
    outer loop
      vertex 25.5408 4.33565 0
      vertex 25.1829 4.25959 4.6
      vertex 25.5408 4.33565 4.6
    endloop
  endfacet
  facet normal -0.207911 0.978148 0
    outer loop
      vertex 25.1829 4.25959 4.6
      vertex 25.5408 4.33565 0
      vertex 25.1829 4.25959 0
    endloop
  endfacet
  facet normal -0.587786 -0.809017 0
    outer loop
      vertex 25.875 7.51554 0
      vertex 26.171 7.3005 4.6
      vertex 25.875 7.51554 4.6
    endloop
  endfacet
  facet normal -0.587786 -0.809017 -0
    outer loop
      vertex 26.171 7.3005 4.6
      vertex 25.875 7.51554 0
      vertex 26.171 7.3005 0
    endloop
  endfacet
  facet normal 0.866024 -0.500002 0
    outer loop
      vertex 23.4013 6.71179 4.6
      vertex 23.5842 7.02862 0
      vertex 23.5842 7.02862 4.6
    endloop
  endfacet
  facet normal 0.866024 -0.500002 0
    outer loop
      vertex 23.5842 7.02862 0
      vertex 23.4013 6.71179 4.6
      vertex 23.4013 6.71179 0
    endloop
  endfacet
  facet normal 0.951058 -0.309014 0
    outer loop
      vertex 23.2882 6.36384 4.6
      vertex 23.4013 6.71179 0
      vertex 23.4013 6.71179 4.6
    endloop
  endfacet
  facet normal 0.951058 -0.309014 0
    outer loop
      vertex 23.4013 6.71179 0
      vertex 23.2882 6.36384 4.6
      vertex 23.2882 6.36384 0
    endloop
  endfacet
  facet normal 0.587786 -0.809017 0
    outer loop
      vertex 23.829 7.3005 0
      vertex 24.125 7.51554 4.6
      vertex 23.829 7.3005 4.6
    endloop
  endfacet
  facet normal 0.587786 -0.809017 0
    outer loop
      vertex 24.125 7.51554 4.6
      vertex 23.829 7.3005 0
      vertex 24.125 7.51554 0
    endloop
  endfacet
  facet normal -0.866024 -0.500002 0
    outer loop
      vertex 26.5987 6.71179 0
      vertex 26.4158 7.02862 4.6
      vertex 26.4158 7.02862 0
    endloop
  endfacet
  facet normal -0.866024 -0.500002 0
    outer loop
      vertex 26.4158 7.02862 4.6
      vertex 26.5987 6.71179 0
      vertex 26.5987 6.71179 4.6
    endloop
  endfacet
  facet normal -0.951058 -0.309014 0
    outer loop
      vertex 26.7118 6.36384 0
      vertex 26.5987 6.71179 4.6
      vertex 26.5987 6.71179 0
    endloop
  endfacet
  facet normal -0.951058 -0.309014 0
    outer loop
      vertex 26.5987 6.71179 4.6
      vertex 26.7118 6.36384 0
      vertex 26.7118 6.36384 4.6
    endloop
  endfacet
  facet normal -0.743146 -0.66913 0
    outer loop
      vertex 26.4158 7.02862 0
      vertex 26.171 7.3005 4.6
      vertex 26.171 7.3005 0
    endloop
  endfacet
  facet normal -0.743146 -0.66913 0
    outer loop
      vertex 26.171 7.3005 4.6
      vertex 26.4158 7.02862 0
      vertex 26.4158 7.02862 4.6
    endloop
  endfacet
  facet normal -0.207911 -0.978148 0
    outer loop
      vertex 25.1829 7.74041 0
      vertex 25.5408 7.66435 4.6
      vertex 25.1829 7.74041 4.6
    endloop
  endfacet
  facet normal -0.207911 -0.978148 -0
    outer loop
      vertex 25.5408 7.66435 4.6
      vertex 25.1829 7.74041 0
      vertex 25.5408 7.66435 0
    endloop
  endfacet
  facet normal 0 -1 0
    outer loop
      vertex 24.8171 7.74041 0
      vertex 25.1829 7.74041 4.6
      vertex 24.8171 7.74041 4.6
    endloop
  endfacet
  facet normal 0 -1 -0
    outer loop
      vertex 25.1829 7.74041 4.6
      vertex 24.8171 7.74041 0
      vertex 25.1829 7.74041 0
    endloop
  endfacet
  facet normal -0.406737 -0.913546 0
    outer loop
      vertex 25.5408 7.66435 0
      vertex 25.875 7.51554 4.6
      vertex 25.5408 7.66435 4.6
    endloop
  endfacet
  facet normal -0.406737 -0.913546 -0
    outer loop
      vertex 25.875 7.51554 4.6
      vertex 25.5408 7.66435 0
      vertex 25.875 7.51554 0
    endloop
  endfacet
  facet normal 0.994522 -0.10453 0
    outer loop
      vertex 23.25 6 4.6
      vertex 23.2882 6.36384 0
      vertex 23.2882 6.36384 4.6
    endloop
  endfacet
  facet normal 0.994522 -0.10453 0
    outer loop
      vertex 23.2882 6.36384 0
      vertex 23.25 6 4.6
      vertex 23.25 6 0
    endloop
  endfacet
  facet normal 0.743146 -0.66913 0
    outer loop
      vertex 23.5842 7.02862 4.6
      vertex 23.829 7.3005 0
      vertex 23.829 7.3005 4.6
    endloop
  endfacet
  facet normal 0.743146 -0.66913 0
    outer loop
      vertex 23.829 7.3005 0
      vertex 23.5842 7.02862 4.6
      vertex 23.5842 7.02862 0
    endloop
  endfacet
  facet normal 0.406737 -0.913546 0
    outer loop
      vertex 24.125 7.51554 0
      vertex 24.4592 7.66435 4.6
      vertex 24.125 7.51554 4.6
    endloop
  endfacet
  facet normal 0.406737 -0.913546 0
    outer loop
      vertex 24.4592 7.66435 4.6
      vertex 24.125 7.51554 0
      vertex 24.4592 7.66435 0
    endloop
  endfacet
  facet normal -0.994522 0.10453 0
    outer loop
      vertex 26.7118 5.63615 0
      vertex 26.75 6 4.6
      vertex 26.75 6 0
    endloop
  endfacet
  facet normal -0.994522 0.10453 0
    outer loop
      vertex 26.75 6 4.6
      vertex 26.7118 5.63615 0
      vertex 26.7118 5.63615 4.6
    endloop
  endfacet
  facet normal 0.951058 0.309014 0
    outer loop
      vertex 23.4013 5.28821 4.6
      vertex 23.2882 5.63615 0
      vertex 23.2882 5.63615 4.6
    endloop
  endfacet
  facet normal 0.951058 0.309014 0
    outer loop
      vertex 23.2882 5.63615 0
      vertex 23.4013 5.28821 4.6
      vertex 23.4013 5.28821 0
    endloop
  endfacet
  facet normal -0.406737 0.913546 0
    outer loop
      vertex 25.875 4.48446 0
      vertex 25.5408 4.33565 4.6
      vertex 25.875 4.48446 4.6
    endloop
  endfacet
  facet normal -0.406737 0.913546 0
    outer loop
      vertex 25.5408 4.33565 4.6
      vertex 25.875 4.48446 0
      vertex 25.5408 4.33565 0
    endloop
  endfacet
  facet normal -0.951058 0.309014 0
    outer loop
      vertex 26.5987 5.28821 0
      vertex 26.7118 5.63615 4.6
      vertex 26.7118 5.63615 0
    endloop
  endfacet
  facet normal -0.951058 0.309014 0
    outer loop
      vertex 26.7118 5.63615 4.6
      vertex 26.5987 5.28821 0
      vertex 26.5987 5.28821 4.6
    endloop
  endfacet
  facet normal -0.743146 0.66913 0
    outer loop
      vertex 26.171 4.6995 0
      vertex 26.4158 4.97138 4.6
      vertex 26.4158 4.97138 0
    endloop
  endfacet
  facet normal -0.743146 0.66913 0
    outer loop
      vertex 26.4158 4.97138 4.6
      vertex 26.171 4.6995 0
      vertex 26.171 4.6995 4.6
    endloop
  endfacet
  facet normal -0.587786 0.809017 0
    outer loop
      vertex 26.171 4.6995 0
      vertex 25.875 4.48446 4.6
      vertex 26.171 4.6995 4.6
    endloop
  endfacet
  facet normal -0.587786 0.809017 0
    outer loop
      vertex 25.875 4.48446 4.6
      vertex 26.171 4.6995 0
      vertex 25.875 4.48446 0
    endloop
  endfacet
  facet normal 0 1 -0
    outer loop
      vertex 25.1829 4.25959 0
      vertex 24.8171 4.25959 4.6
      vertex 25.1829 4.25959 4.6
    endloop
  endfacet
  facet normal 0 1 0
    outer loop
      vertex 24.8171 4.25959 4.6
      vertex 25.1829 4.25959 0
      vertex 24.8171 4.25959 0
    endloop
  endfacet
  facet normal 0.587786 0.809017 -0
    outer loop
      vertex 24.125 4.48446 0
      vertex 23.829 4.6995 4.6
      vertex 24.125 4.48446 4.6
    endloop
  endfacet
  facet normal 0.587786 0.809017 0
    outer loop
      vertex 23.829 4.6995 4.6
      vertex 24.125 4.48446 0
      vertex 23.829 4.6995 0
    endloop
  endfacet
  facet normal 0.743146 0.66913 0
    outer loop
      vertex 23.829 4.6995 4.6
      vertex 23.5842 4.97138 0
      vertex 23.5842 4.97138 4.6
    endloop
  endfacet
  facet normal 0.743146 0.66913 0
    outer loop
      vertex 23.5842 4.97138 0
      vertex 23.829 4.6995 4.6
      vertex 23.829 4.6995 0
    endloop
  endfacet
  facet normal 0.866024 0.500002 0
    outer loop
      vertex 23.5842 4.97138 4.6
      vertex 23.4013 5.28821 0
      vertex 23.4013 5.28821 4.6
    endloop
  endfacet
  facet normal 0.866024 0.500002 0
    outer loop
      vertex 23.4013 5.28821 0
      vertex 23.5842 4.97138 4.6
      vertex 23.5842 4.97138 0
    endloop
  endfacet
  facet normal -0.866024 0.500002 0
    outer loop
      vertex 26.4158 4.97138 0
      vertex 26.5987 5.28821 4.6
      vertex 26.5987 5.28821 0
    endloop
  endfacet
  facet normal -0.866024 0.500002 0
    outer loop
      vertex 26.5987 5.28821 4.6
      vertex 26.4158 4.97138 0
      vertex 26.4158 4.97138 4.6
    endloop
  endfacet
  facet normal 0.406737 0.913546 -0
    outer loop
      vertex 24.4592 4.33565 0
      vertex 24.125 4.48446 4.6
      vertex 24.4592 4.33565 4.6
    endloop
  endfacet
  facet normal 0.406737 0.913546 0
    outer loop
      vertex 24.125 4.48446 4.6
      vertex 24.4592 4.33565 0
      vertex 24.125 4.48446 0
    endloop
  endfacet
  facet normal 0.207912 0.978148 -0
    outer loop
      vertex 24.8171 4.25959 0
      vertex 24.4592 4.33565 4.6
      vertex 24.8171 4.25959 4.6
    endloop
  endfacet
  facet normal 0.207912 0.978148 0
    outer loop
      vertex 24.4592 4.33565 4.6
      vertex 24.8171 4.25959 0
      vertex 24.4592 4.33565 0
    endloop
  endfacet
  facet normal -0.994522 0 0.104529
    outer loop
      vertex 4.46722 0 1.98813
      vertex 4.5 9 2.3
      vertex 4.46722 9 1.98813
    endloop
  endfacet
  facet normal -0.994522 0 0.104529
    outer loop
      vertex 4.5 9 2.3
      vertex 4.46722 0 1.98813
      vertex 4.5 0 2.3
    endloop
  endfacet
  facet normal 0.207912 0 0.978148
    outer loop
      vertex 2.53647 9 0.873415
      vertex 2.84321 0 0.808217
      vertex 2.84321 9 0.808217
    endloop
  endfacet
  facet normal 0.207912 0 0.978148
    outer loop
      vertex 2.84321 0 0.808217
      vertex 2.53647 9 0.873415
      vertex 2.53647 0 0.873415
    endloop
  endfacet
  facet normal -0.207912 0 -0.978148
    outer loop
      vertex 3.15679 0 3.79178
      vertex 3.46352 9 3.72658
      vertex 3.46352 0 3.72658
    endloop
  endfacet
  facet normal -0.207912 0 -0.978148
    outer loop
      vertex 3.46352 9 3.72658
      vertex 3.15679 0 3.79178
      vertex 3.15679 9 3.79178
    endloop
  endfacet
  facet normal -0.587787 0 0.809016
    outer loop
      vertex 3.75 9 1.00096
      vertex 4.0037 0 1.18528
      vertex 4.0037 9 1.18528
    endloop
  endfacet
  facet normal -0.587787 0 0.809016
    outer loop
      vertex 4.0037 0 1.18528
      vertex 3.75 9 1.00096
      vertex 3.75 0 1.00096
    endloop
  endfacet
  facet normal 0.743145 -0 0.669131
    outer loop
      vertex 1.78647 0 1.41832
      vertex 1.9963 9 1.18528
      vertex 1.78647 9 1.41832
    endloop
  endfacet
  facet normal 0.743145 0 0.669131
    outer loop
      vertex 1.9963 9 1.18528
      vertex 1.78647 0 1.41832
      vertex 1.9963 0 1.18528
    endloop
  endfacet
  facet normal 0.406736 0 0.913546
    outer loop
      vertex 2.25 9 1.00096
      vertex 2.53647 0 0.873415
      vertex 2.53647 9 0.873415
    endloop
  endfacet
  facet normal 0.406736 0 0.913546
    outer loop
      vertex 2.53647 0 0.873415
      vertex 2.25 9 1.00096
      vertex 2.25 0 1.00096
    endloop
  endfacet
  facet normal -0.866026 0 -0.5
    outer loop
      vertex 4.37032 0 2.9101
      vertex 4.21352 9 3.18168
      vertex 4.37032 9 2.9101
    endloop
  endfacet
  facet normal -0.866026 -0 -0.5
    outer loop
      vertex 4.21352 9 3.18168
      vertex 4.37032 0 2.9101
      vertex 4.21352 0 3.18168
    endloop
  endfacet
  facet normal -0.866026 0 0.5
    outer loop
      vertex 4.21352 0 1.41832
      vertex 4.37032 9 1.68989
      vertex 4.21352 9 1.41832
    endloop
  endfacet
  facet normal -0.866026 0 0.5
    outer loop
      vertex 4.37032 9 1.68989
      vertex 4.21352 0 1.41832
      vertex 4.37032 0 1.68989
    endloop
  endfacet
  facet normal -0.951056 0 0.309019
    outer loop
      vertex 4.37032 0 1.68989
      vertex 4.46722 9 1.98813
      vertex 4.37032 9 1.68989
    endloop
  endfacet
  facet normal -0.951056 0 0.309019
    outer loop
      vertex 4.46722 9 1.98813
      vertex 4.37032 0 1.68989
      vertex 4.46722 0 1.98813
    endloop
  endfacet
  facet normal -0.743145 0 0.669131
    outer loop
      vertex 4.0037 0 1.18528
      vertex 4.21352 9 1.41832
      vertex 4.0037 9 1.18528
    endloop
  endfacet
  facet normal -0.743145 0 0.669131
    outer loop
      vertex 4.21352 9 1.41832
      vertex 4.0037 0 1.18528
      vertex 4.21352 0 1.41832
    endloop
  endfacet
  facet normal -0.207912 0 0.978148
    outer loop
      vertex 3.15679 9 0.808217
      vertex 3.46352 0 0.873415
      vertex 3.46352 9 0.873415
    endloop
  endfacet
  facet normal -0.207912 0 0.978148
    outer loop
      vertex 3.46352 0 0.873415
      vertex 3.15679 9 0.808217
      vertex 3.15679 0 0.808217
    endloop
  endfacet
  facet normal -0 0 1
    outer loop
      vertex 2.84321 9 0.808217
      vertex 3.15679 0 0.808217
      vertex 3.15679 9 0.808217
    endloop
  endfacet
  facet normal 0 0 1
    outer loop
      vertex 3.15679 0 0.808217
      vertex 2.84321 9 0.808217
      vertex 2.84321 0 0.808217
    endloop
  endfacet
  facet normal -0.406735 0 0.913546
    outer loop
      vertex 3.46352 9 0.873415
      vertex 3.75 0 1.00096
      vertex 3.75 9 1.00096
    endloop
  endfacet
  facet normal -0.406735 0 0.913546
    outer loop
      vertex 3.75 0 1.00096
      vertex 3.46352 9 0.873415
      vertex 3.46352 0 0.873415
    endloop
  endfacet
  facet normal 0.951056 -0 0.309019
    outer loop
      vertex 1.53278 0 1.98813
      vertex 1.62968 9 1.68989
      vertex 1.53278 9 1.98813
    endloop
  endfacet
  facet normal 0.951056 0 0.309019
    outer loop
      vertex 1.62968 9 1.68989
      vertex 1.53278 0 1.98813
      vertex 1.62968 0 1.68989
    endloop
  endfacet
  facet normal 0.866026 -0 0.5
    outer loop
      vertex 1.62968 0 1.68989
      vertex 1.78647 9 1.41832
      vertex 1.62968 9 1.68989
    endloop
  endfacet
  facet normal 0.866026 0 0.5
    outer loop
      vertex 1.78647 9 1.41832
      vertex 1.62968 0 1.68989
      vertex 1.78647 0 1.41832
    endloop
  endfacet
  facet normal 0.994522 -0 0.104526
    outer loop
      vertex 1.5 0 2.3
      vertex 1.53278 9 1.98813
      vertex 1.5 9 2.3
    endloop
  endfacet
  facet normal 0.994522 0 0.104526
    outer loop
      vertex 1.53278 9 1.98813
      vertex 1.5 0 2.3
      vertex 1.53278 0 1.98813
    endloop
  endfacet
  facet normal 0.587786 0 0.809017
    outer loop
      vertex 1.9963 9 1.18528
      vertex 2.25 0 1.00096
      vertex 2.25 9 1.00096
    endloop
  endfacet
  facet normal 0.587786 0 0.809017
    outer loop
      vertex 2.25 0 1.00096
      vertex 1.9963 9 1.18528
      vertex 1.9963 0 1.18528
    endloop
  endfacet
  facet normal -0.743145 0 -0.669131
    outer loop
      vertex 4.21352 0 3.18168
      vertex 4.0037 9 3.41472
      vertex 4.21352 9 3.18168
    endloop
  endfacet
  facet normal -0.743145 -0 -0.669131
    outer loop
      vertex 4.0037 9 3.41472
      vertex 4.21352 0 3.18168
      vertex 4.0037 0 3.41472
    endloop
  endfacet
  facet normal 0.994522 0 -0.104526
    outer loop
      vertex 1.53278 0 2.61187
      vertex 1.5 9 2.3
      vertex 1.53278 9 2.61187
    endloop
  endfacet
  facet normal 0.994522 0 -0.104526
    outer loop
      vertex 1.5 9 2.3
      vertex 1.53278 0 2.61187
      vertex 1.5 0 2.3
    endloop
  endfacet
  facet normal 0.743145 0 -0.669131
    outer loop
      vertex 1.9963 0 3.41472
      vertex 1.78647 9 3.18168
      vertex 1.9963 9 3.41472
    endloop
  endfacet
  facet normal 0.743145 0 -0.669131
    outer loop
      vertex 1.78647 9 3.18168
      vertex 1.9963 0 3.41472
      vertex 1.78647 0 3.18168
    endloop
  endfacet
  facet normal -0.951056 0 -0.309018
    outer loop
      vertex 4.46722 0 2.61187
      vertex 4.37032 9 2.9101
      vertex 4.46722 9 2.61187
    endloop
  endfacet
  facet normal -0.951056 -0 -0.309018
    outer loop
      vertex 4.37032 9 2.9101
      vertex 4.46722 0 2.61187
      vertex 4.37032 0 2.9101
    endloop
  endfacet
  facet normal -0.994522 0 -0.104529
    outer loop
      vertex 4.5 0 2.3
      vertex 4.46722 9 2.61187
      vertex 4.5 9 2.3
    endloop
  endfacet
  facet normal -0.994522 -0 -0.104529
    outer loop
      vertex 4.46722 9 2.61187
      vertex 4.5 0 2.3
      vertex 4.46722 0 2.61187
    endloop
  endfacet
  facet normal 0 0 -1
    outer loop
      vertex 2.84321 0 3.79178
      vertex 3.15679 9 3.79178
      vertex 3.15679 0 3.79178
    endloop
  endfacet
  facet normal -0 0 -1
    outer loop
      vertex 3.15679 9 3.79178
      vertex 2.84321 0 3.79178
      vertex 2.84321 9 3.79178
    endloop
  endfacet
  facet normal 0.587785 0 -0.809017
    outer loop
      vertex 1.9963 0 3.41472
      vertex 2.25 9 3.59904
      vertex 2.25 0 3.59904
    endloop
  endfacet
  facet normal 0.587785 0 -0.809017
    outer loop
      vertex 2.25 9 3.59904
      vertex 1.9963 0 3.41472
      vertex 1.9963 9 3.41472
    endloop
  endfacet
  facet normal 0.866026 0 -0.5
    outer loop
      vertex 1.78647 0 3.18168
      vertex 1.62968 9 2.9101
      vertex 1.78647 9 3.18168
    endloop
  endfacet
  facet normal 0.866026 0 -0.5
    outer loop
      vertex 1.62968 9 2.9101
      vertex 1.78647 0 3.18168
      vertex 1.62968 0 2.9101
    endloop
  endfacet
  facet normal 0.951056 0 -0.309018
    outer loop
      vertex 1.62968 0 2.9101
      vertex 1.53278 9 2.61187
      vertex 1.62968 9 2.9101
    endloop
  endfacet
  facet normal 0.951056 0 -0.309018
    outer loop
      vertex 1.53278 9 2.61187
      vertex 1.62968 0 2.9101
      vertex 1.53278 0 2.61187
    endloop
  endfacet
  facet normal -0.587785 0 -0.809017
    outer loop
      vertex 3.75 0 3.59904
      vertex 4.0037 9 3.41472
      vertex 4.0037 0 3.41472
    endloop
  endfacet
  facet normal -0.587785 0 -0.809017
    outer loop
      vertex 4.0037 9 3.41472
      vertex 3.75 0 3.59904
      vertex 3.75 9 3.59904
    endloop
  endfacet
  facet normal -0.406737 0 -0.913545
    outer loop
      vertex 3.46352 0 3.72658
      vertex 3.75 9 3.59904
      vertex 3.75 0 3.59904
    endloop
  endfacet
  facet normal -0.406737 0 -0.913545
    outer loop
      vertex 3.75 9 3.59904
      vertex 3.46352 0 3.72658
      vertex 3.46352 9 3.72658
    endloop
  endfacet
  facet normal 0.207912 0 -0.978148
    outer loop
      vertex 2.53647 0 3.72658
      vertex 2.84321 9 3.79178
      vertex 2.84321 0 3.79178
    endloop
  endfacet
  facet normal 0.207912 0 -0.978148
    outer loop
      vertex 2.84321 9 3.79178
      vertex 2.53647 0 3.72658
      vertex 2.53647 9 3.72658
    endloop
  endfacet
  facet normal 0.406737 0 -0.913545
    outer loop
      vertex 2.25 0 3.59904
      vertex 2.53647 9 3.72658
      vertex 2.53647 0 3.72658
    endloop
  endfacet
  facet normal 0.406737 0 -0.913545
    outer loop
      vertex 2.53647 9 3.72658
      vertex 2.25 0 3.59904
      vertex 2.25 9 3.59904
    endloop
  endfacet
  facet normal -0.994522 0 0.104532
    outer loop
      vertex 30.4672 0 1.98813
      vertex 30.5 9 2.3
      vertex 30.4672 9 1.98813
    endloop
  endfacet
  facet normal -0.994522 0 0.104532
    outer loop
      vertex 30.5 9 2.3
      vertex 30.4672 0 1.98813
      vertex 30.5 0 2.3
    endloop
  endfacet
  facet normal 0.207912 0 0.978148
    outer loop
      vertex 28.5365 9 0.873415
      vertex 28.8432 0 0.808217
      vertex 28.8432 9 0.808217
    endloop
  endfacet
  facet normal 0.207912 0 0.978148
    outer loop
      vertex 28.8432 0 0.808217
      vertex 28.5365 9 0.873415
      vertex 28.5365 0 0.873415
    endloop
  endfacet
  facet normal -0.207912 0 -0.978148
    outer loop
      vertex 29.1568 0 3.79178
      vertex 29.4635 9 3.72658
      vertex 29.4635 0 3.72658
    endloop
  endfacet
  facet normal -0.207912 0 -0.978148
    outer loop
      vertex 29.4635 9 3.72658
      vertex 29.1568 0 3.79178
      vertex 29.1568 9 3.79178
    endloop
  endfacet
  facet normal -0.587786 0 0.809017
    outer loop
      vertex 29.75 9 1.00096
      vertex 30.0037 0 1.18528
      vertex 30.0037 9 1.18528
    endloop
  endfacet
  facet normal -0.587786 0 0.809017
    outer loop
      vertex 30.0037 0 1.18528
      vertex 29.75 9 1.00096
      vertex 29.75 0 1.00096
    endloop
  endfacet
  facet normal 0.743145 -0 0.669131
    outer loop
      vertex 27.7865 0 1.41832
      vertex 27.9963 9 1.18528
      vertex 27.7865 9 1.41832
    endloop
  endfacet
  facet normal 0.743145 0 0.669131
    outer loop
      vertex 27.9963 9 1.18528
      vertex 27.7865 0 1.41832
      vertex 27.9963 0 1.18528
    endloop
  endfacet
  facet normal 0.406736 0 0.913546
    outer loop
      vertex 28.25 9 1.00096
      vertex 28.5365 0 0.873415
      vertex 28.5365 9 0.873415
    endloop
  endfacet
  facet normal 0.406736 0 0.913546
    outer loop
      vertex 28.5365 0 0.873415
      vertex 28.25 9 1.00096
      vertex 28.25 0 1.00096
    endloop
  endfacet
  facet normal -0.866024 0 -0.500002
    outer loop
      vertex 30.3703 0 2.9101
      vertex 30.2135 9 3.18168
      vertex 30.3703 9 2.9101
    endloop
  endfacet
  facet normal -0.866024 -0 -0.500002
    outer loop
      vertex 30.2135 9 3.18168
      vertex 30.3703 0 2.9101
      vertex 30.2135 0 3.18168
    endloop
  endfacet
  facet normal -0.866024 0 0.500002
    outer loop
      vertex 30.2135 0 1.41832
      vertex 30.3703 9 1.68989
      vertex 30.2135 9 1.41832
    endloop
  endfacet
  facet normal -0.866024 0 0.500002
    outer loop
      vertex 30.3703 9 1.68989
      vertex 30.2135 0 1.41832
      vertex 30.3703 0 1.68989
    endloop
  endfacet
  facet normal -0.951057 0 0.309016
    outer loop
      vertex 30.3703 0 1.68989
      vertex 30.4672 9 1.98813
      vertex 30.3703 9 1.68989
    endloop
  endfacet
  facet normal -0.951057 0 0.309016
    outer loop
      vertex 30.4672 9 1.98813
      vertex 30.3703 0 1.68989
      vertex 30.4672 0 1.98813
    endloop
  endfacet
  facet normal -0.743148 0 0.669128
    outer loop
      vertex 30.0037 0 1.18528
      vertex 30.2135 9 1.41832
      vertex 30.0037 9 1.18528
    endloop
  endfacet
  facet normal -0.743148 0 0.669128
    outer loop
      vertex 30.2135 9 1.41832
      vertex 30.0037 0 1.18528
      vertex 30.2135 0 1.41832
    endloop
  endfacet
  facet normal -0.207912 0 0.978148
    outer loop
      vertex 29.1568 9 0.808217
      vertex 29.4635 0 0.873415
      vertex 29.4635 9 0.873415
    endloop
  endfacet
  facet normal -0.207912 0 0.978148
    outer loop
      vertex 29.4635 0 0.873415
      vertex 29.1568 9 0.808217
      vertex 29.1568 0 0.808217
    endloop
  endfacet
  facet normal -0 0 1
    outer loop
      vertex 28.8432 9 0.808217
      vertex 29.1568 0 0.808217
      vertex 29.1568 9 0.808217
    endloop
  endfacet
  facet normal 0 0 1
    outer loop
      vertex 29.1568 0 0.808217
      vertex 28.8432 9 0.808217
      vertex 28.8432 0 0.808217
    endloop
  endfacet
  facet normal -0.406734 0 0.913547
    outer loop
      vertex 29.4635 9 0.873415
      vertex 29.75 0 1.00096
      vertex 29.75 9 1.00096
    endloop
  endfacet
  facet normal -0.406734 0 0.913547
    outer loop
      vertex 29.75 0 1.00096
      vertex 29.4635 9 0.873415
      vertex 29.4635 0 0.873415
    endloop
  endfacet
  facet normal 0.951057 -0 0.309016
    outer loop
      vertex 27.5328 0 1.98813
      vertex 27.6297 9 1.68989
      vertex 27.5328 9 1.98813
    endloop
  endfacet
  facet normal 0.951057 0 0.309016
    outer loop
      vertex 27.6297 9 1.68989
      vertex 27.5328 0 1.98813
      vertex 27.6297 0 1.68989
    endloop
  endfacet
  facet normal 0.866024 -0 0.500002
    outer loop
      vertex 27.6297 0 1.68989
      vertex 27.7865 9 1.41832
      vertex 27.6297 9 1.68989
    endloop
  endfacet
  facet normal 0.866024 0 0.500002
    outer loop
      vertex 27.7865 9 1.41832
      vertex 27.6297 0 1.68989
      vertex 27.7865 0 1.41832
    endloop
  endfacet
  facet normal 0.994522 -0 0.104526
    outer loop
      vertex 27.5 0 2.3
      vertex 27.5328 9 1.98813
      vertex 27.5 9 2.3
    endloop
  endfacet
  facet normal 0.994522 0 0.104526
    outer loop
      vertex 27.5328 9 1.98813
      vertex 27.5 0 2.3
      vertex 27.5328 0 1.98813
    endloop
  endfacet
  facet normal 0.587786 0 0.809017
    outer loop
      vertex 27.9963 9 1.18528
      vertex 28.25 0 1.00096
      vertex 28.25 9 1.00096
    endloop
  endfacet
  facet normal 0.587786 0 0.809017
    outer loop
      vertex 28.25 0 1.00096
      vertex 27.9963 9 1.18528
      vertex 27.9963 0 1.18528
    endloop
  endfacet
  facet normal -0.743148 0 -0.669128
    outer loop
      vertex 30.2135 0 3.18168
      vertex 30.0037 9 3.41472
      vertex 30.2135 9 3.18168
    endloop
  endfacet
  facet normal -0.743148 -0 -0.669128
    outer loop
      vertex 30.0037 9 3.41472
      vertex 30.2135 0 3.18168
      vertex 30.0037 0 3.41472
    endloop
  endfacet
  facet normal 0.994522 0 -0.104526
    outer loop
      vertex 27.5328 0 2.61187
      vertex 27.5 9 2.3
      vertex 27.5328 9 2.61187
    endloop
  endfacet
  facet normal 0.994522 0 -0.104526
    outer loop
      vertex 27.5 9 2.3
      vertex 27.5328 0 2.61187
      vertex 27.5 0 2.3
    endloop
  endfacet
  facet normal 0.743145 0 -0.669131
    outer loop
      vertex 27.9963 0 3.41472
      vertex 27.7865 9 3.18168
      vertex 27.9963 9 3.41472
    endloop
  endfacet
  facet normal 0.743145 0 -0.669131
    outer loop
      vertex 27.7865 9 3.18168
      vertex 27.9963 0 3.41472
      vertex 27.7865 0 3.18168
    endloop
  endfacet
  facet normal -0.951057 0 -0.309016
    outer loop
      vertex 30.4672 0 2.61187
      vertex 30.3703 9 2.9101
      vertex 30.4672 9 2.61187
    endloop
  endfacet
  facet normal -0.951057 -0 -0.309016
    outer loop
      vertex 30.3703 9 2.9101
      vertex 30.4672 0 2.61187
      vertex 30.3703 0 2.9101
    endloop
  endfacet
  facet normal -0.994522 0 -0.104532
    outer loop
      vertex 30.5 0 2.3
      vertex 30.4672 9 2.61187
      vertex 30.5 9 2.3
    endloop
  endfacet
  facet normal -0.994522 -0 -0.104532
    outer loop
      vertex 30.4672 9 2.61187
      vertex 30.5 0 2.3
      vertex 30.4672 0 2.61187
    endloop
  endfacet
  facet normal 0 0 -1
    outer loop
      vertex 28.8432 0 3.79178
      vertex 29.1568 9 3.79178
      vertex 29.1568 0 3.79178
    endloop
  endfacet
  facet normal -0 0 -1
    outer loop
      vertex 29.1568 9 3.79178
      vertex 28.8432 0 3.79178
      vertex 28.8432 9 3.79178
    endloop
  endfacet
  facet normal 0.587784 0 -0.809018
    outer loop
      vertex 27.9963 0 3.41472
      vertex 28.25 9 3.59904
      vertex 28.25 0 3.59904
    endloop
  endfacet
  facet normal 0.587784 0 -0.809018
    outer loop
      vertex 28.25 9 3.59904
      vertex 27.9963 0 3.41472
      vertex 27.9963 9 3.41472
    endloop
  endfacet
  facet normal 0.866024 0 -0.500002
    outer loop
      vertex 27.7865 0 3.18168
      vertex 27.6297 9 2.9101
      vertex 27.7865 9 3.18168
    endloop
  endfacet
  facet normal 0.866024 0 -0.500002
    outer loop
      vertex 27.6297 9 2.9101
      vertex 27.7865 0 3.18168
      vertex 27.6297 0 2.9101
    endloop
  endfacet
  facet normal 0.951057 0 -0.309016
    outer loop
      vertex 27.6297 0 2.9101
      vertex 27.5328 9 2.61187
      vertex 27.6297 9 2.9101
    endloop
  endfacet
  facet normal 0.951057 0 -0.309016
    outer loop
      vertex 27.5328 9 2.61187
      vertex 27.6297 0 2.9101
      vertex 27.5328 0 2.61187
    endloop
  endfacet
  facet normal -0.587784 0 -0.809018
    outer loop
      vertex 29.75 0 3.59904
      vertex 30.0037 9 3.41472
      vertex 30.0037 0 3.41472
    endloop
  endfacet
  facet normal -0.587784 0 -0.809018
    outer loop
      vertex 30.0037 9 3.41472
      vertex 29.75 0 3.59904
      vertex 29.75 9 3.59904
    endloop
  endfacet
  facet normal -0.406736 0 -0.913546
    outer loop
      vertex 29.4635 0 3.72658
      vertex 29.75 9 3.59904
      vertex 29.75 0 3.59904
    endloop
  endfacet
  facet normal -0.406736 0 -0.913546
    outer loop
      vertex 29.75 9 3.59904
      vertex 29.4635 0 3.72658
      vertex 29.4635 9 3.72658
    endloop
  endfacet
  facet normal 0.207912 0 -0.978148
    outer loop
      vertex 28.5365 0 3.72658
      vertex 28.8432 9 3.79178
      vertex 28.8432 0 3.79178
    endloop
  endfacet
  facet normal 0.207912 0 -0.978148
    outer loop
      vertex 28.8432 9 3.79178
      vertex 28.5365 0 3.72658
      vertex 28.5365 9 3.72658
    endloop
  endfacet
  facet normal 0.406739 0 -0.913545
    outer loop
      vertex 28.25 0 3.59904
      vertex 28.5365 9 3.72658
      vertex 28.5365 0 3.72658
    endloop
  endfacet
  facet normal 0.406739 0 -0.913545
    outer loop
      vertex 28.5365 9 3.72658
      vertex 28.25 0 3.59904
      vertex 28.25 9 3.59904
    endloop
  endfacet
endsolid OpenSCAD_Model
