solid OpenSCAD_Model
  facet normal -1 0 0
    outer loop
      vertex 0 0 0
      vertex 0 9 9
      vertex 0 9 0
    endloop
  endfacet
  facet normal -1 -0 0
    outer loop
      vertex 0 9 9
      vertex 0 0 0
      vertex 0 0 9
    endloop
  endfacet
  facet normal -0 0 1
    outer loop
      vertex 25.875 4.48446 9
      vertex 26 3 9
      vertex 26.171 4.6995 9
    endloop
  endfacet
  facet normal -0 0 1
    outer loop
      vertex 25.5408 4.33565 9
      vertex 26 3 9
      vertex 25.875 4.48446 9
    endloop
  endfacet
  facet normal -0 0 1
    outer loop
      vertex 25.1829 4.25959 9
      vertex 26 3 9
      vertex 25.5408 4.33565 9
    endloop
  endfacet
  facet normal -0 0 1
    outer loop
      vertex 24.8171 4.25959 9
      vertex 26 3 9
      vertex 25.1829 4.25959 9
    endloop
  endfacet
  facet normal 0 0 1
    outer loop
      vertex 24.4592 4.33565 9
      vertex 26 3 9
      vertex 24.8171 4.25959 9
    endloop
  endfacet
  facet normal 0 0 1
    outer loop
      vertex 24.125 4.48446 9
      vertex 26 3 9
      vertex 24.4592 4.33565 9
    endloop
  endfacet
  facet normal 0 0 1
    outer loop
      vertex 7.875 4.48446 9
      vertex 24.125 4.48446 9
      vertex 23.829 4.6995 9
    endloop
  endfacet
  facet normal -0 0 1
    outer loop
      vertex 8.75 6 9
      vertex 23.2882 5.63615 9
      vertex 23.25 6 9
    endloop
  endfacet
  facet normal 0 0 1
    outer loop
      vertex 8.71176 5.63615 9
      vertex 23.2882 5.63615 9
      vertex 8.75 6 9
    endloop
  endfacet
  facet normal 0 0 1
    outer loop
      vertex 23.2882 5.63615 9
      vertex 8.71176 5.63615 9
      vertex 23.4013 5.28821 9
    endloop
  endfacet
  facet normal 0 0 1
    outer loop
      vertex 8.5987 5.28821 9
      vertex 23.4013 5.28821 9
      vertex 8.71176 5.63615 9
    endloop
  endfacet
  facet normal 0 0 1
    outer loop
      vertex 23.4013 5.28821 9
      vertex 8.5987 5.28821 9
      vertex 23.5842 4.97138 9
    endloop
  endfacet
  facet normal 0 0 1
    outer loop
      vertex 8.41578 4.97138 9
      vertex 23.5842 4.97138 9
      vertex 8.5987 5.28821 9
    endloop
  endfacet
  facet normal 0 0 1
    outer loop
      vertex 23.5842 4.97138 9
      vertex 8.41578 4.97138 9
      vertex 23.829 4.6995 9
    endloop
  endfacet
  facet normal 0 0 1
    outer loop
      vertex 8.17098 4.6995 9
      vertex 23.829 4.6995 9
      vertex 8.41578 4.97138 9
    endloop
  endfacet
  facet normal 0 0 1
    outer loop
      vertex 7.875 4.48446 9
      vertex 23.829 4.6995 9
      vertex 8.17098 4.6995 9
    endloop
  endfacet
  facet normal 0 0 1
    outer loop
      vertex 24.125 4.48446 9
      vertex 7.875 4.48446 9
      vertex 26 3 9
    endloop
  endfacet
  facet normal 0 0 1
    outer loop
      vertex 6 3 9
      vertex 7.875 4.48446 9
      vertex 7.54078 4.33565 9
    endloop
  endfacet
  facet normal 0 0 1
    outer loop
      vertex 6 3 9
      vertex 7.54078 4.33565 9
      vertex 7.18292 4.25959 9
    endloop
  endfacet
  facet normal 0 0 1
    outer loop
      vertex 6 3 9
      vertex 7.18292 4.25959 9
      vertex 6.81707 4.25959 9
    endloop
  endfacet
  facet normal 0 0 1
    outer loop
      vertex 7.875 4.48446 9
      vertex 6 3 9
      vertex 26 3 9
    endloop
  endfacet
  facet normal 0 0 1
    outer loop
      vertex 6.45922 4.33565 9
      vertex 6 3 9
      vertex 6.81707 4.25959 9
    endloop
  endfacet
  facet normal 0 0 1
    outer loop
      vertex 6.125 4.48446 9
      vertex 6 3 9
      vertex 6.45922 4.33565 9
    endloop
  endfacet
  facet normal 0 0 1
    outer loop
      vertex 5.82902 4.6995 9
      vertex 6 3 9
      vertex 6.125 4.48446 9
    endloop
  endfacet
  facet normal 0 0 1
    outer loop
      vertex 5.58422 4.97138 9
      vertex 6 3 9
      vertex 5.82902 4.6995 9
    endloop
  endfacet
  facet normal 0 0 1
    outer loop
      vertex 6 3 9
      vertex 5.58422 4.97138 9
      vertex 0 0 9
    endloop
  endfacet
  facet normal 0 0 1
    outer loop
      vertex 0 0 9
      vertex 5.58422 4.97138 9
      vertex 5.40129 5.28821 9
    endloop
  endfacet
  facet normal 0 0 1
    outer loop
      vertex 0 0 9
      vertex 5.40129 5.28821 9
      vertex 5.28824 5.63615 9
    endloop
  endfacet
  facet normal 0 0 1
    outer loop
      vertex 0 9 9
      vertex 5.28824 5.63615 9
      vertex 5.25 6 9
    endloop
  endfacet
  facet normal 0 0 1
    outer loop
      vertex 0 0 9
      vertex 5.28824 5.63615 9
      vertex 0 9 9
    endloop
  endfacet
  facet normal 0 0 1
    outer loop
      vertex 6 3 9
      vertex 0 0 9
      vertex 6 0 9
    endloop
  endfacet
  facet normal 0 0 1
    outer loop
      vertex 26.7118 5.63615 9
      vertex 32 9 9
      vertex 26.75 6 9
    endloop
  endfacet
  facet normal 0 0 1
    outer loop
      vertex 32 9 9
      vertex 26.7118 6.36384 9
      vertex 26.75 6 9
    endloop
  endfacet
  facet normal 0 0 1
    outer loop
      vertex 32 9 9
      vertex 26.5987 6.71179 9
      vertex 26.7118 6.36384 9
    endloop
  endfacet
  facet normal 0 0 1
    outer loop
      vertex 32 9 9
      vertex 26.4158 7.02862 9
      vertex 26.5987 6.71179 9
    endloop
  endfacet
  facet normal 0 0 1
    outer loop
      vertex 32 9 9
      vertex 26.171 7.3005 9
      vertex 26.4158 7.02862 9
    endloop
  endfacet
  facet normal 0 0 1
    outer loop
      vertex 32 9 9
      vertex 25.875 7.51554 9
      vertex 26.171 7.3005 9
    endloop
  endfacet
  facet normal 0 0 1
    outer loop
      vertex 32 9 9
      vertex 25.5408 7.66435 9
      vertex 25.875 7.51554 9
    endloop
  endfacet
  facet normal 0 0 1
    outer loop
      vertex 32 9 9
      vertex 25.1829 7.74041 9
      vertex 25.5408 7.66435 9
    endloop
  endfacet
  facet normal 0 0 1
    outer loop
      vertex 32 9 9
      vertex 24.8171 7.74041 9
      vertex 25.1829 7.74041 9
    endloop
  endfacet
  facet normal 0 0 1
    outer loop
      vertex 23.2882 6.36384 9
      vertex 8.75 6 9
      vertex 23.25 6 9
    endloop
  endfacet
  facet normal 0 0 1
    outer loop
      vertex 8.71176 6.36384 9
      vertex 23.2882 6.36384 9
      vertex 23.4013 6.71179 9
    endloop
  endfacet
  facet normal 0 0 1
    outer loop
      vertex 8.5987 6.71179 9
      vertex 23.4013 6.71179 9
      vertex 23.5842 7.02862 9
    endloop
  endfacet
  facet normal 0 0 1
    outer loop
      vertex 8.41578 7.02862 9
      vertex 23.5842 7.02862 9
      vertex 23.829 7.3005 9
    endloop
  endfacet
  facet normal 0 0 1
    outer loop
      vertex 8.17098 7.3005 9
      vertex 23.829 7.3005 9
      vertex 24.125 7.51554 9
    endloop
  endfacet
  facet normal 0 0 1
    outer loop
      vertex 7.875 7.51554 9
      vertex 24.125 7.51554 9
      vertex 24.4592 7.66435 9
    endloop
  endfacet
  facet normal 0 0 1
    outer loop
      vertex 7.54078 7.66435 9
      vertex 24.4592 7.66435 9
      vertex 24.8171 7.74041 9
    endloop
  endfacet
  facet normal 0 0 1
    outer loop
      vertex 7.18292 7.74041 9
      vertex 24.8171 7.74041 9
      vertex 32 9 9
    endloop
  endfacet
  facet normal 0 0 1
    outer loop
      vertex 23.2882 6.36384 9
      vertex 8.71176 6.36384 9
      vertex 8.75 6 9
    endloop
  endfacet
  facet normal 0 0 1
    outer loop
      vertex 23.4013 6.71179 9
      vertex 8.5987 6.71179 9
      vertex 8.71176 6.36384 9
    endloop
  endfacet
  facet normal 0 0 1
    outer loop
      vertex 23.5842 7.02862 9
      vertex 8.41578 7.02862 9
      vertex 8.5987 6.71179 9
    endloop
  endfacet
  facet normal 0 0 1
    outer loop
      vertex 23.829 7.3005 9
      vertex 8.17098 7.3005 9
      vertex 8.41578 7.02862 9
    endloop
  endfacet
  facet normal 0 0 1
    outer loop
      vertex 24.125 7.51554 9
      vertex 7.875 7.51554 9
      vertex 8.17098 7.3005 9
    endloop
  endfacet
  facet normal 0 0 1
    outer loop
      vertex 24.4592 7.66435 9
      vertex 7.54078 7.66435 9
      vertex 7.875 7.51554 9
    endloop
  endfacet
  facet normal 0 0 1
    outer loop
      vertex 24.8171 7.74041 9
      vertex 7.18292 7.74041 9
      vertex 7.54078 7.66435 9
    endloop
  endfacet
  facet normal -0 0 1
    outer loop
      vertex 0 9 9
      vertex 7.18292 7.74041 9
      vertex 32 9 9
    endloop
  endfacet
  facet normal 0 0 1
    outer loop
      vertex 5.28824 6.36384 9
      vertex 0 9 9
      vertex 5.25 6 9
    endloop
  endfacet
  facet normal 0 0 1
    outer loop
      vertex 5.40129 6.71179 9
      vertex 0 9 9
      vertex 5.28824 6.36384 9
    endloop
  endfacet
  facet normal 0 0 1
    outer loop
      vertex 5.58422 7.02862 9
      vertex 0 9 9
      vertex 5.40129 6.71179 9
    endloop
  endfacet
  facet normal 0 0 1
    outer loop
      vertex 5.82902 7.3005 9
      vertex 0 9 9
      vertex 5.58422 7.02862 9
    endloop
  endfacet
  facet normal 0 0 1
    outer loop
      vertex 6.125 7.51554 9
      vertex 0 9 9
      vertex 5.82902 7.3005 9
    endloop
  endfacet
  facet normal 0 0 1
    outer loop
      vertex 6.45922 7.66435 9
      vertex 0 9 9
      vertex 6.125 7.51554 9
    endloop
  endfacet
  facet normal 0 0 1
    outer loop
      vertex 6.81707 7.74041 9
      vertex 0 9 9
      vertex 6.45922 7.66435 9
    endloop
  endfacet
  facet normal 0 0 1
    outer loop
      vertex 7.18292 7.74041 9
      vertex 0 9 9
      vertex 6.81707 7.74041 9
    endloop
  endfacet
  facet normal 0 0 1
    outer loop
      vertex 32 9 9
      vertex 26.7118 5.63615 9
      vertex 32 0 9
    endloop
  endfacet
  facet normal -0 0 1
    outer loop
      vertex 26.5987 5.28821 9
      vertex 32 0 9
      vertex 26.7118 5.63615 9
    endloop
  endfacet
  facet normal -0 0 1
    outer loop
      vertex 26.4158 4.97138 9
      vertex 32 0 9
      vertex 26.5987 5.28821 9
    endloop
  endfacet
  facet normal 0 0 1
    outer loop
      vertex 26 3 9
      vertex 26.4158 4.97138 9
      vertex 26.171 4.6995 9
    endloop
  endfacet
  facet normal 0 0 1
    outer loop
      vertex 26.4158 4.97138 9
      vertex 26 3 9
      vertex 32 0 9
    endloop
  endfacet
  facet normal 0 0 1
    outer loop
      vertex 32 0 9
      vertex 26 3 9
      vertex 26 0 9
    endloop
  endfacet
  facet normal 1 -0 0
    outer loop
      vertex 32 0 9
      vertex 32 9 0
      vertex 32 9 9
    endloop
  endfacet
  facet normal 1 0 0
    outer loop
      vertex 32 9 0
      vertex 32 0 9
      vertex 32 0 0
    endloop
  endfacet
  facet normal 0 1 0
    outer loop
      vertex 32 9 9
      vertex 22 9 6
      vertex 0 9 9
    endloop
  endfacet
  facet normal 0 1 -0
    outer loop
      vertex 10 9 6
      vertex 0 9 9
      vertex 22 9 6
    endloop
  endfacet
  facet normal 0 1 0
    outer loop
      vertex 22 9 6
      vertex 28.4592 9 6.16435
      vertex 28.125 9 6.01554
    endloop
  endfacet
  facet normal -0 1 -0
    outer loop
      vertex 3.54078 9 6.16435
      vertex 0 9 9
      vertex 10 9 6
    endloop
  endfacet
  facet normal 0 1 0
    outer loop
      vertex 0 9 9
      vertex 3.54078 9 6.16435
      vertex 3.18292 9 6.24041
    endloop
  endfacet
  facet normal 0 1 -0
    outer loop
      vertex 27.829 9 5.8005
      vertex 22 9 6
      vertex 28.125 9 6.01554
    endloop
  endfacet
  facet normal 0 1 -0
    outer loop
      vertex 27.5842 9 5.52862
      vertex 22 9 6
      vertex 27.829 9 5.8005
    endloop
  endfacet
  facet normal 0 1 -0
    outer loop
      vertex 27.4013 9 5.21179
      vertex 22 9 6
      vertex 27.5842 9 5.52862
    endloop
  endfacet
  facet normal 0 1 -0
    outer loop
      vertex 27.2882 9 4.86384
      vertex 22 9 6
      vertex 27.4013 9 5.21179
    endloop
  endfacet
  facet normal 0 1 -0
    outer loop
      vertex 27.25 9 4.5
      vertex 22 9 6
      vertex 27.2882 9 4.86384
    endloop
  endfacet
  facet normal 0 1 0
    outer loop
      vertex 22 9 3
      vertex 27.25 9 4.5
      vertex 27.2882 9 4.13615
    endloop
  endfacet
  facet normal 0 1 0
    outer loop
      vertex 22 9 3
      vertex 27.2882 9 4.13615
      vertex 27.4013 9 3.78821
    endloop
  endfacet
  facet normal 0 1 0
    outer loop
      vertex 22 9 3
      vertex 27.4013 9 3.78821
      vertex 27.5842 9 3.47138
    endloop
  endfacet
  facet normal 0 1 0
    outer loop
      vertex 22 9 3
      vertex 27.5842 9 3.47138
      vertex 27.829 9 3.1995
    endloop
  endfacet
  facet normal 0 1 0
    outer loop
      vertex 27.25 9 4.5
      vertex 22 9 3
      vertex 22 9 6
    endloop
  endfacet
  facet normal 0 1 0
    outer loop
      vertex 28.4592 9 2.83565
      vertex 22 9 3
      vertex 28.125 9 2.98446
    endloop
  endfacet
  facet normal 0 1 0
    outer loop
      vertex 28.125 9 2.98446
      vertex 22 9 3
      vertex 27.829 9 3.1995
    endloop
  endfacet
  facet normal 0 1 0
    outer loop
      vertex 28.8171 9 6.24041
      vertex 32 9 9
      vertex 29.1829 9 6.24041
    endloop
  endfacet
  facet normal 0 1 0
    outer loop
      vertex 32 9 9
      vertex 29.5408 9 6.16435
      vertex 29.1829 9 6.24041
    endloop
  endfacet
  facet normal 0 1 0
    outer loop
      vertex 32 9 9
      vertex 29.875 9 6.01554
      vertex 29.5408 9 6.16435
    endloop
  endfacet
  facet normal 0 1 0
    outer loop
      vertex 32 9 9
      vertex 30.171 9 5.8005
      vertex 29.875 9 6.01554
    endloop
  endfacet
  facet normal 0 1 0
    outer loop
      vertex 32 9 9
      vertex 30.4158 9 5.52862
      vertex 30.171 9 5.8005
    endloop
  endfacet
  facet normal 0 1 0
    outer loop
      vertex 32 9 9
      vertex 30.5987 9 5.21179
      vertex 30.4158 9 5.52862
    endloop
  endfacet
  facet normal 0 1 0
    outer loop
      vertex 32 9 9
      vertex 30.7118 9 4.86384
      vertex 30.5987 9 5.21179
    endloop
  endfacet
  facet normal 0 1 0
    outer loop
      vertex 32 9 9
      vertex 30.75 9 4.5
      vertex 30.7118 9 4.86384
    endloop
  endfacet
  facet normal 0 1 -0
    outer loop
      vertex 32 9 0
      vertex 30.75 9 4.5
      vertex 32 9 9
    endloop
  endfacet
  facet normal 0 1 0
    outer loop
      vertex 32 9 0
      vertex 28.8171 9 2.75959
      vertex 29.1829 9 2.75959
    endloop
  endfacet
  facet normal 0 1 0
    outer loop
      vertex 28.8171 9 2.75959
      vertex 32 9 0
      vertex 3.18292 9 2.75959
    endloop
  endfacet
  facet normal 0 1 0
    outer loop
      vertex 0 9 0
      vertex 3.18292 9 2.75959
      vertex 32 9 0
    endloop
  endfacet
  facet normal 0 1 0
    outer loop
      vertex 29.5408 9 2.83565
      vertex 32 9 0
      vertex 29.1829 9 2.75959
    endloop
  endfacet
  facet normal 0 1 0
    outer loop
      vertex 29.875 9 2.98446
      vertex 32 9 0
      vertex 29.5408 9 2.83565
    endloop
  endfacet
  facet normal 0 1 0
    outer loop
      vertex 30.171 9 3.1995
      vertex 32 9 0
      vertex 29.875 9 2.98446
    endloop
  endfacet
  facet normal 0 1 0
    outer loop
      vertex 30.4158 9 3.47138
      vertex 32 9 0
      vertex 30.171 9 3.1995
    endloop
  endfacet
  facet normal 0 1 0
    outer loop
      vertex 30.5987 9 3.78821
      vertex 32 9 0
      vertex 30.4158 9 3.47138
    endloop
  endfacet
  facet normal 0 1 0
    outer loop
      vertex 30.7118 9 4.13615
      vertex 32 9 0
      vertex 30.5987 9 3.78821
    endloop
  endfacet
  facet normal 0 1 0
    outer loop
      vertex 30.75 9 4.5
      vertex 32 9 0
      vertex 30.7118 9 4.13615
    endloop
  endfacet
  facet normal 0 1 0
    outer loop
      vertex 28.4592 9 6.16435
      vertex 32 9 9
      vertex 28.8171 9 6.24041
    endloop
  endfacet
  facet normal 0 1 0
    outer loop
      vertex 22 9 6
      vertex 32 9 9
      vertex 28.4592 9 6.16435
    endloop
  endfacet
  facet normal 0 1 -0
    outer loop
      vertex 2.81707 9 6.24041
      vertex 0 9 9
      vertex 3.18292 9 6.24041
    endloop
  endfacet
  facet normal 0 1 -0
    outer loop
      vertex 2.45922 9 6.16435
      vertex 0 9 9
      vertex 2.81707 9 6.24041
    endloop
  endfacet
  facet normal 0 1 -0
    outer loop
      vertex 2.125 9 6.01554
      vertex 0 9 9
      vertex 2.45922 9 6.16435
    endloop
  endfacet
  facet normal 0 1 -0
    outer loop
      vertex 1.82902 9 5.8005
      vertex 0 9 9
      vertex 2.125 9 6.01554
    endloop
  endfacet
  facet normal 0 1 -0
    outer loop
      vertex 1.58422 9 5.52862
      vertex 0 9 9
      vertex 1.82902 9 5.8005
    endloop
  endfacet
  facet normal 0 1 -0
    outer loop
      vertex 1.40129 9 5.21179
      vertex 0 9 9
      vertex 1.58422 9 5.52862
    endloop
  endfacet
  facet normal 0 1 -0
    outer loop
      vertex 1.28824 9 4.86384
      vertex 0 9 9
      vertex 1.40129 9 5.21179
    endloop
  endfacet
  facet normal 0 1 -0
    outer loop
      vertex 1.25 9 4.5
      vertex 0 9 9
      vertex 1.28824 9 4.86384
    endloop
  endfacet
  facet normal 0 1 0
    outer loop
      vertex 0 9 0
      vertex 1.25 9 4.5
      vertex 1.28824 9 4.13615
    endloop
  endfacet
  facet normal 0 1 0
    outer loop
      vertex 1.25 9 4.5
      vertex 0 9 0
      vertex 0 9 9
    endloop
  endfacet
  facet normal 0 1 0
    outer loop
      vertex 1.40129 9 3.78821
      vertex 0 9 0
      vertex 1.28824 9 4.13615
    endloop
  endfacet
  facet normal 0 1 0
    outer loop
      vertex 1.58422 9 3.47138
      vertex 0 9 0
      vertex 1.40129 9 3.78821
    endloop
  endfacet
  facet normal 0 1 0
    outer loop
      vertex 1.82902 9 3.1995
      vertex 0 9 0
      vertex 1.58422 9 3.47138
    endloop
  endfacet
  facet normal 0 1 0
    outer loop
      vertex 2.125 9 2.98446
      vertex 0 9 0
      vertex 1.82902 9 3.1995
    endloop
  endfacet
  facet normal 0 1 0
    outer loop
      vertex 2.45922 9 2.83565
      vertex 0 9 0
      vertex 2.125 9 2.98446
    endloop
  endfacet
  facet normal 0 1 0
    outer loop
      vertex 2.81707 9 2.75959
      vertex 0 9 0
      vertex 2.45922 9 2.83565
    endloop
  endfacet
  facet normal 0 1 0
    outer loop
      vertex 3.18292 9 2.75959
      vertex 0 9 0
      vertex 2.81707 9 2.75959
    endloop
  endfacet
  facet normal 0 1 0
    outer loop
      vertex 3.54078 9 6.16435
      vertex 10 9 6
      vertex 3.875 9 6.01554
    endloop
  endfacet
  facet normal 0 1 0
    outer loop
      vertex 10 9 6
      vertex 4.17098 9 5.8005
      vertex 3.875 9 6.01554
    endloop
  endfacet
  facet normal 0 1 0
    outer loop
      vertex 10 9 6
      vertex 4.41578 9 5.52862
      vertex 4.17098 9 5.8005
    endloop
  endfacet
  facet normal 0 1 0
    outer loop
      vertex 10 9 6
      vertex 4.5987 9 5.21179
      vertex 4.41578 9 5.52862
    endloop
  endfacet
  facet normal 0 1 0
    outer loop
      vertex 10 9 6
      vertex 4.71176 9 4.86384
      vertex 4.5987 9 5.21179
    endloop
  endfacet
  facet normal 0 1 0
    outer loop
      vertex 10 9 6
      vertex 4.75 9 4.5
      vertex 4.71176 9 4.86384
    endloop
  endfacet
  facet normal 0 1 -0
    outer loop
      vertex 10 9 3
      vertex 4.75 9 4.5
      vertex 10 9 6
    endloop
  endfacet
  facet normal 0 1 0
    outer loop
      vertex 4.75 9 4.5
      vertex 10 9 3
      vertex 4.71176 9 4.13615
    endloop
  endfacet
  facet normal 0 1 0
    outer loop
      vertex 4.71176 9 4.13615
      vertex 10 9 3
      vertex 4.5987 9 3.78821
    endloop
  endfacet
  facet normal 0 1 0
    outer loop
      vertex 4.5987 9 3.78821
      vertex 10 9 3
      vertex 4.41578 9 3.47138
    endloop
  endfacet
  facet normal 0 1 0
    outer loop
      vertex 4.41578 9 3.47138
      vertex 10 9 3
      vertex 4.17098 9 3.1995
    endloop
  endfacet
  facet normal 0 1 0
    outer loop
      vertex 10 9 3
      vertex 3.875 9 2.98446
      vertex 4.17098 9 3.1995
    endloop
  endfacet
  facet normal 0 1 0
    outer loop
      vertex 28.8171 9 2.75959
      vertex 22 9 3
      vertex 28.4592 9 2.83565
    endloop
  endfacet
  facet normal 0 1 0
    outer loop
      vertex 22 9 3
      vertex 28.8171 9 2.75959
      vertex 10 9 3
    endloop
  endfacet
  facet normal 0 1 0
    outer loop
      vertex 10 9 3
      vertex 3.54078 9 2.83565
      vertex 3.875 9 2.98446
    endloop
  endfacet
  facet normal 0 1 0
    outer loop
      vertex 3.18292 9 2.75959
      vertex 10 9 3
      vertex 28.8171 9 2.75959
    endloop
  endfacet
  facet normal 0 1 0
    outer loop
      vertex 10 9 3
      vertex 3.18292 9 2.75959
      vertex 3.54078 9 2.83565
    endloop
  endfacet
  facet normal 0 0 -1
    outer loop
      vertex 0 0 0
      vertex 6 3 0
      vertex 6 0 0
    endloop
  endfacet
  facet normal 0 -0 -1
    outer loop
      vertex 5.58422 4.97138 0
      vertex 6 3 0
      vertex 0 0 0
    endloop
  endfacet
  facet normal 0 0 -1
    outer loop
      vertex 6 3 0
      vertex 5.58422 4.97138 0
      vertex 5.82902 4.6995 0
    endloop
  endfacet
  facet normal -0 0 -1
    outer loop
      vertex 5.58422 4.97138 0
      vertex 0 0 0
      vertex 5.40129 5.28821 0
    endloop
  endfacet
  facet normal 0 0 -1
    outer loop
      vertex 0 9 0
      vertex 5.28824 5.63615 0
      vertex 0 0 0
    endloop
  endfacet
  facet normal -0 0 -1
    outer loop
      vertex 5.40129 5.28821 0
      vertex 0 0 0
      vertex 5.28824 5.63615 0
    endloop
  endfacet
  facet normal 0 0 -1
    outer loop
      vertex 26.7118 5.63615 0
      vertex 32 9 0
      vertex 32 0 0
    endloop
  endfacet
  facet normal 0 0 -1
    outer loop
      vertex 32 9 0
      vertex 26.7118 5.63615 0
      vertex 26.75 6 0
    endloop
  endfacet
  facet normal 0 0 -1
    outer loop
      vertex 32 0 0
      vertex 26.5987 5.28821 0
      vertex 26.7118 5.63615 0
    endloop
  endfacet
  facet normal 0 0 -1
    outer loop
      vertex 32 0 0
      vertex 26.4158 4.97138 0
      vertex 26.5987 5.28821 0
    endloop
  endfacet
  facet normal 0 0 -1
    outer loop
      vertex 26 3 0
      vertex 26.4158 4.97138 0
      vertex 32 0 0
    endloop
  endfacet
  facet normal 0 0 -1
    outer loop
      vertex 26 3 0
      vertex 32 0 0
      vertex 26 0 0
    endloop
  endfacet
  facet normal 0 0 -1
    outer loop
      vertex 26.4158 4.97138 0
      vertex 26 3 0
      vertex 26.171 4.6995 0
    endloop
  endfacet
  facet normal 0 0 -1
    outer loop
      vertex 26 3 0
      vertex 25.875 4.48446 0
      vertex 26.171 4.6995 0
    endloop
  endfacet
  facet normal 0 0 -1
    outer loop
      vertex 26 3 0
      vertex 25.5408 4.33565 0
      vertex 25.875 4.48446 0
    endloop
  endfacet
  facet normal 0 0 -1
    outer loop
      vertex 26 3 0
      vertex 25.1829 4.25959 0
      vertex 25.5408 4.33565 0
    endloop
  endfacet
  facet normal 0 0 -1
    outer loop
      vertex 26 3 0
      vertex 24.8171 4.25959 0
      vertex 25.1829 4.25959 0
    endloop
  endfacet
  facet normal 0 0 -1
    outer loop
      vertex 26 3 0
      vertex 24.4592 4.33565 0
      vertex 24.8171 4.25959 0
    endloop
  endfacet
  facet normal 0 0 -1
    outer loop
      vertex 26 3 0
      vertex 24.125 4.48446 0
      vertex 24.4592 4.33565 0
    endloop
  endfacet
  facet normal 0 0 -1
    outer loop
      vertex 7.875 4.48446 0
      vertex 24.125 4.48446 0
      vertex 26 3 0
    endloop
  endfacet
  facet normal 0 0 -1
    outer loop
      vertex 23.2882 5.63615 0
      vertex 8.75 6 0
      vertex 23.25 6 0
    endloop
  endfacet
  facet normal 0 0 -1
    outer loop
      vertex 8.71176 5.63615 0
      vertex 23.2882 5.63615 0
      vertex 23.4013 5.28821 0
    endloop
  endfacet
  facet normal 0 0 -1
    outer loop
      vertex 8.5987 5.28821 0
      vertex 23.4013 5.28821 0
      vertex 23.5842 4.97138 0
    endloop
  endfacet
  facet normal 0 0 -1
    outer loop
      vertex 8.41578 4.97138 0
      vertex 23.5842 4.97138 0
      vertex 23.829 4.6995 0
    endloop
  endfacet
  facet normal 0 0 -1
    outer loop
      vertex 24.125 4.48446 0
      vertex 7.875 4.48446 0
      vertex 23.829 4.6995 0
    endloop
  endfacet
  facet normal 0 0 -1
    outer loop
      vertex 23.2882 5.63615 0
      vertex 8.71176 5.63615 0
      vertex 8.75 6 0
    endloop
  endfacet
  facet normal 0 0 -1
    outer loop
      vertex 23.4013 5.28821 0
      vertex 8.5987 5.28821 0
      vertex 8.71176 5.63615 0
    endloop
  endfacet
  facet normal 0 0 -1
    outer loop
      vertex 23.5842 4.97138 0
      vertex 8.41578 4.97138 0
      vertex 8.5987 5.28821 0
    endloop
  endfacet
  facet normal 0 0 -1
    outer loop
      vertex 23.829 4.6995 0
      vertex 8.17098 4.6995 0
      vertex 8.41578 4.97138 0
    endloop
  endfacet
  facet normal -0 0 -1
    outer loop
      vertex 23.829 4.6995 0
      vertex 7.875 4.48446 0
      vertex 8.17098 4.6995 0
    endloop
  endfacet
  facet normal 0 0 -1
    outer loop
      vertex 6 3 0
      vertex 7.875 4.48446 0
      vertex 26 3 0
    endloop
  endfacet
  facet normal 0 0 -1
    outer loop
      vertex 7.875 4.48446 0
      vertex 6 3 0
      vertex 7.54078 4.33565 0
    endloop
  endfacet
  facet normal 0 0 -1
    outer loop
      vertex 7.54078 4.33565 0
      vertex 6 3 0
      vertex 7.18292 4.25959 0
    endloop
  endfacet
  facet normal -0 0 -1
    outer loop
      vertex 7.18292 4.25959 0
      vertex 6 3 0
      vertex 6.81707 4.25959 0
    endloop
  endfacet
  facet normal 0 0 -1
    outer loop
      vertex 6 3 0
      vertex 6.45922 4.33565 0
      vertex 6.81707 4.25959 0
    endloop
  endfacet
  facet normal 0 0 -1
    outer loop
      vertex 6 3 0
      vertex 6.125 4.48446 0
      vertex 6.45922 4.33565 0
    endloop
  endfacet
  facet normal -0 0 -1
    outer loop
      vertex 6.125 4.48446 0
      vertex 6 3 0
      vertex 5.82902 4.6995 0
    endloop
  endfacet
  facet normal 0 0 -1
    outer loop
      vertex 26.7118 6.36384 0
      vertex 32 9 0
      vertex 26.75 6 0
    endloop
  endfacet
  facet normal 0 0 -1
    outer loop
      vertex 26.5987 6.71179 0
      vertex 32 9 0
      vertex 26.7118 6.36384 0
    endloop
  endfacet
  facet normal 0 0 -1
    outer loop
      vertex 26.4158 7.02862 0
      vertex 32 9 0
      vertex 26.5987 6.71179 0
    endloop
  endfacet
  facet normal 0 0 -1
    outer loop
      vertex 26.171 7.3005 0
      vertex 32 9 0
      vertex 26.4158 7.02862 0
    endloop
  endfacet
  facet normal 0 0 -1
    outer loop
      vertex 25.875 7.51554 0
      vertex 32 9 0
      vertex 26.171 7.3005 0
    endloop
  endfacet
  facet normal 0 0 -1
    outer loop
      vertex 25.5408 7.66435 0
      vertex 32 9 0
      vertex 25.875 7.51554 0
    endloop
  endfacet
  facet normal 0 0 -1
    outer loop
      vertex 25.1829 7.74041 0
      vertex 32 9 0
      vertex 25.5408 7.66435 0
    endloop
  endfacet
  facet normal 0 0 -1
    outer loop
      vertex 24.8171 7.74041 0
      vertex 32 9 0
      vertex 25.1829 7.74041 0
    endloop
  endfacet
  facet normal 0 0 -1
    outer loop
      vertex 8.75 6 0
      vertex 23.2882 6.36384 0
      vertex 23.25 6 0
    endloop
  endfacet
  facet normal 0 0 -1
    outer loop
      vertex 8.71176 6.36384 0
      vertex 23.2882 6.36384 0
      vertex 8.75 6 0
    endloop
  endfacet
  facet normal 0 0 -1
    outer loop
      vertex 23.2882 6.36384 0
      vertex 8.71176 6.36384 0
      vertex 23.4013 6.71179 0
    endloop
  endfacet
  facet normal 0 0 -1
    outer loop
      vertex 8.5987 6.71179 0
      vertex 23.4013 6.71179 0
      vertex 8.71176 6.36384 0
    endloop
  endfacet
  facet normal 0 0 -1
    outer loop
      vertex 23.4013 6.71179 0
      vertex 8.5987 6.71179 0
      vertex 23.5842 7.02862 0
    endloop
  endfacet
  facet normal 0 0 -1
    outer loop
      vertex 8.41578 7.02862 0
      vertex 23.5842 7.02862 0
      vertex 8.5987 6.71179 0
    endloop
  endfacet
  facet normal 0 0 -1
    outer loop
      vertex 23.5842 7.02862 0
      vertex 8.41578 7.02862 0
      vertex 23.829 7.3005 0
    endloop
  endfacet
  facet normal 0 0 -1
    outer loop
      vertex 8.17098 7.3005 0
      vertex 23.829 7.3005 0
      vertex 8.41578 7.02862 0
    endloop
  endfacet
  facet normal 0 0 -1
    outer loop
      vertex 23.829 7.3005 0
      vertex 8.17098 7.3005 0
      vertex 24.125 7.51554 0
    endloop
  endfacet
  facet normal 0 0 -1
    outer loop
      vertex 7.875 7.51554 0
      vertex 24.125 7.51554 0
      vertex 8.17098 7.3005 0
    endloop
  endfacet
  facet normal 0 0 -1
    outer loop
      vertex 24.125 7.51554 0
      vertex 7.875 7.51554 0
      vertex 24.4592 7.66435 0
    endloop
  endfacet
  facet normal 0 0 -1
    outer loop
      vertex 7.54078 7.66435 0
      vertex 24.4592 7.66435 0
      vertex 7.875 7.51554 0
    endloop
  endfacet
  facet normal 0 0 -1
    outer loop
      vertex 24.4592 7.66435 0
      vertex 7.54078 7.66435 0
      vertex 24.8171 7.74041 0
    endloop
  endfacet
  facet normal 0 0 -1
    outer loop
      vertex 7.18292 7.74041 0
      vertex 24.8171 7.74041 0
      vertex 7.54078 7.66435 0
    endloop
  endfacet
  facet normal 0 0 -1
    outer loop
      vertex 24.8171 7.74041 0
      vertex 7.18292 7.74041 0
      vertex 32 9 0
    endloop
  endfacet
  facet normal 0 0 -1
    outer loop
      vertex 0 9 0
      vertex 7.18292 7.74041 0
      vertex 6.81707 7.74041 0
    endloop
  endfacet
  facet normal 0 0 -1
    outer loop
      vertex 5.28824 5.63615 0
      vertex 0 9 0
      vertex 5.25 6 0
    endloop
  endfacet
  facet normal 0 0 -1
    outer loop
      vertex 5.25 6 0
      vertex 0 9 0
      vertex 5.28824 6.36384 0
    endloop
  endfacet
  facet normal 0 0 -1
    outer loop
      vertex 5.28824 6.36384 0
      vertex 0 9 0
      vertex 5.40129 6.71179 0
    endloop
  endfacet
  facet normal 0 0 -1
    outer loop
      vertex 7.18292 7.74041 0
      vertex 0 9 0
      vertex 32 9 0
    endloop
  endfacet
  facet normal 0 0 -1
    outer loop
      vertex 6.45922 7.66435 0
      vertex 0 9 0
      vertex 6.81707 7.74041 0
    endloop
  endfacet
  facet normal 0 0 -1
    outer loop
      vertex 6.125 7.51554 0
      vertex 0 9 0
      vertex 6.45922 7.66435 0
    endloop
  endfacet
  facet normal 0 0 -1
    outer loop
      vertex 5.82902 7.3005 0
      vertex 0 9 0
      vertex 6.125 7.51554 0
    endloop
  endfacet
  facet normal 0 0 -1
    outer loop
      vertex 5.58422 7.02862 0
      vertex 0 9 0
      vertex 5.82902 7.3005 0
    endloop
  endfacet
  facet normal 0 0 -1
    outer loop
      vertex 5.40129 6.71179 0
      vertex 0 9 0
      vertex 5.58422 7.02862 0
    endloop
  endfacet
  facet normal 0 -1 0
    outer loop
      vertex 26 0 9
      vertex 28.8171 0 6.24041
      vertex 32 0 9
    endloop
  endfacet
  facet normal 0 -1 0
    outer loop
      vertex 26 0 9
      vertex 28.4592 0 6.16435
      vertex 28.8171 0 6.24041
    endloop
  endfacet
  facet normal 0 -1 0
    outer loop
      vertex 26 0 9
      vertex 28.125 0 6.01554
      vertex 28.4592 0 6.16435
    endloop
  endfacet
  facet normal 0 -1 0
    outer loop
      vertex 26 0 9
      vertex 27.829 0 5.8005
      vertex 28.125 0 6.01554
    endloop
  endfacet
  facet normal 0 -1 0
    outer loop
      vertex 26 0 9
      vertex 27.5842 0 5.52862
      vertex 27.829 0 5.8005
    endloop
  endfacet
  facet normal 0 -1 0
    outer loop
      vertex 26 0 9
      vertex 27.4013 0 5.21179
      vertex 27.5842 0 5.52862
    endloop
  endfacet
  facet normal 0 -1 0
    outer loop
      vertex 26 0 9
      vertex 27.2882 0 4.86384
      vertex 27.4013 0 5.21179
    endloop
  endfacet
  facet normal 0 -1 0
    outer loop
      vertex 26 0 9
      vertex 27.25 0 4.5
      vertex 27.2882 0 4.86384
    endloop
  endfacet
  facet normal 0 -1 0
    outer loop
      vertex 26 0 0
      vertex 27.25 0 4.5
      vertex 26 0 9
    endloop
  endfacet
  facet normal 0 -1 -0
    outer loop
      vertex 28.8171 0 2.75959
      vertex 26 0 0
      vertex 29.1829 0 2.75959
    endloop
  endfacet
  facet normal 0 -1 -0
    outer loop
      vertex 28.4592 0 2.83565
      vertex 26 0 0
      vertex 28.8171 0 2.75959
    endloop
  endfacet
  facet normal 0 -1 -0
    outer loop
      vertex 28.125 0 2.98446
      vertex 26 0 0
      vertex 28.4592 0 2.83565
    endloop
  endfacet
  facet normal 0 -1 -0
    outer loop
      vertex 27.829 0 3.1995
      vertex 26 0 0
      vertex 28.125 0 2.98446
    endloop
  endfacet
  facet normal 0 -1 -0
    outer loop
      vertex 27.5842 0 3.47138
      vertex 26 0 0
      vertex 27.829 0 3.1995
    endloop
  endfacet
  facet normal 0 -1 -0
    outer loop
      vertex 27.4013 0 3.78821
      vertex 26 0 0
      vertex 27.5842 0 3.47138
    endloop
  endfacet
  facet normal 0 -1 -0
    outer loop
      vertex 27.2882 0 4.13615
      vertex 26 0 0
      vertex 27.4013 0 3.78821
    endloop
  endfacet
  facet normal 0 -1 -0
    outer loop
      vertex 27.25 0 4.5
      vertex 26 0 0
      vertex 27.2882 0 4.13615
    endloop
  endfacet
  facet normal 0 -1 0
    outer loop
      vertex 29.1829 0 6.24041
      vertex 32 0 9
      vertex 28.8171 0 6.24041
    endloop
  endfacet
  facet normal 0 -1 0
    outer loop
      vertex 29.5408 0 6.16435
      vertex 32 0 9
      vertex 29.1829 0 6.24041
    endloop
  endfacet
  facet normal 0 -1 0
    outer loop
      vertex 29.875 0 6.01554
      vertex 32 0 9
      vertex 29.5408 0 6.16435
    endloop
  endfacet
  facet normal 0 -1 0
    outer loop
      vertex 30.171 0 5.8005
      vertex 32 0 9
      vertex 29.875 0 6.01554
    endloop
  endfacet
  facet normal 0 -1 0
    outer loop
      vertex 30.4158 0 5.52862
      vertex 32 0 9
      vertex 30.171 0 5.8005
    endloop
  endfacet
  facet normal 0 -1 0
    outer loop
      vertex 30.5987 0 5.21179
      vertex 32 0 9
      vertex 30.4158 0 5.52862
    endloop
  endfacet
  facet normal 0 -1 0
    outer loop
      vertex 30.7118 0 4.86384
      vertex 32 0 9
      vertex 30.5987 0 5.21179
    endloop
  endfacet
  facet normal 0 -1 0
    outer loop
      vertex 30.75 0 4.5
      vertex 32 0 9
      vertex 30.7118 0 4.86384
    endloop
  endfacet
  facet normal 0 -1 0
    outer loop
      vertex 32 0 0
      vertex 30.75 0 4.5
      vertex 30.7118 0 4.13615
    endloop
  endfacet
  facet normal 0 -1 0
    outer loop
      vertex 32 0 0
      vertex 29.1829 0 2.75959
      vertex 26 0 0
    endloop
  endfacet
  facet normal 0 -1 0
    outer loop
      vertex 29.1829 0 2.75959
      vertex 32 0 0
      vertex 29.5408 0 2.83565
    endloop
  endfacet
  facet normal 0 -1 0
    outer loop
      vertex 29.5408 0 2.83565
      vertex 32 0 0
      vertex 29.875 0 2.98446
    endloop
  endfacet
  facet normal 0 -1 0
    outer loop
      vertex 30.75 0 4.5
      vertex 32 0 0
      vertex 32 0 9
    endloop
  endfacet
  facet normal 0 -1 0
    outer loop
      vertex 30.5987 0 3.78821
      vertex 32 0 0
      vertex 30.7118 0 4.13615
    endloop
  endfacet
  facet normal 0 -1 0
    outer loop
      vertex 30.4158 0 3.47138
      vertex 32 0 0
      vertex 30.5987 0 3.78821
    endloop
  endfacet
  facet normal 0 -1 0
    outer loop
      vertex 30.171 0 3.1995
      vertex 32 0 0
      vertex 30.4158 0 3.47138
    endloop
  endfacet
  facet normal 0 -1 0
    outer loop
      vertex 29.875 0 2.98446
      vertex 32 0 0
      vertex 30.171 0 3.1995
    endloop
  endfacet
  facet normal 0 -1 0
    outer loop
      vertex 0 0 9
      vertex 2.81707 0 6.24041
      vertex 6 0 9
    endloop
  endfacet
  facet normal 0 -1 0
    outer loop
      vertex 0 0 9
      vertex 2.45922 0 6.16435
      vertex 2.81707 0 6.24041
    endloop
  endfacet
  facet normal 0 -1 0
    outer loop
      vertex 0 0 9
      vertex 2.125 0 6.01554
      vertex 2.45922 0 6.16435
    endloop
  endfacet
  facet normal 0 -1 0
    outer loop
      vertex 0 0 9
      vertex 1.82902 0 5.8005
      vertex 2.125 0 6.01554
    endloop
  endfacet
  facet normal 0 -1 0
    outer loop
      vertex 0 0 9
      vertex 1.58422 0 5.52862
      vertex 1.82902 0 5.8005
    endloop
  endfacet
  facet normal 0 -1 0
    outer loop
      vertex 0 0 9
      vertex 1.40129 0 5.21179
      vertex 1.58422 0 5.52862
    endloop
  endfacet
  facet normal 0 -1 0
    outer loop
      vertex 0 0 9
      vertex 1.28824 0 4.86384
      vertex 1.40129 0 5.21179
    endloop
  endfacet
  facet normal 0 -1 0
    outer loop
      vertex 0 0 9
      vertex 1.25 0 4.5
      vertex 1.28824 0 4.86384
    endloop
  endfacet
  facet normal 0 -1 0
    outer loop
      vertex 0 0 0
      vertex 1.25 0 4.5
      vertex 0 0 9
    endloop
  endfacet
  facet normal 0 -1 -0
    outer loop
      vertex 2.81707 0 2.75959
      vertex 0 0 0
      vertex 3.18292 0 2.75959
    endloop
  endfacet
  facet normal 0 -1 -0
    outer loop
      vertex 2.45922 0 2.83565
      vertex 0 0 0
      vertex 2.81707 0 2.75959
    endloop
  endfacet
  facet normal 0 -1 -0
    outer loop
      vertex 2.125 0 2.98446
      vertex 0 0 0
      vertex 2.45922 0 2.83565
    endloop
  endfacet
  facet normal 0 -1 -0
    outer loop
      vertex 1.82902 0 3.1995
      vertex 0 0 0
      vertex 2.125 0 2.98446
    endloop
  endfacet
  facet normal 0 -1 -0
    outer loop
      vertex 1.58422 0 3.47138
      vertex 0 0 0
      vertex 1.82902 0 3.1995
    endloop
  endfacet
  facet normal 0 -1 -0
    outer loop
      vertex 1.40129 0 3.78821
      vertex 0 0 0
      vertex 1.58422 0 3.47138
    endloop
  endfacet
  facet normal 0 -1 -0
    outer loop
      vertex 1.28824 0 4.13615
      vertex 0 0 0
      vertex 1.40129 0 3.78821
    endloop
  endfacet
  facet normal 0 -1 -0
    outer loop
      vertex 1.25 0 4.5
      vertex 0 0 0
      vertex 1.28824 0 4.13615
    endloop
  endfacet
  facet normal 0 -1 0
    outer loop
      vertex 3.18292 0 6.24041
      vertex 6 0 9
      vertex 2.81707 0 6.24041
    endloop
  endfacet
  facet normal 0 -1 0
    outer loop
      vertex 3.54078 0 6.16435
      vertex 6 0 9
      vertex 3.18292 0 6.24041
    endloop
  endfacet
  facet normal 0 -1 0
    outer loop
      vertex 3.875 0 6.01554
      vertex 6 0 9
      vertex 3.54078 0 6.16435
    endloop
  endfacet
  facet normal 0 -1 0
    outer loop
      vertex 4.17098 0 5.8005
      vertex 6 0 9
      vertex 3.875 0 6.01554
    endloop
  endfacet
  facet normal 0 -1 0
    outer loop
      vertex 4.41578 0 5.52862
      vertex 6 0 9
      vertex 4.17098 0 5.8005
    endloop
  endfacet
  facet normal 0 -1 0
    outer loop
      vertex 4.5987 0 5.21179
      vertex 6 0 9
      vertex 4.41578 0 5.52862
    endloop
  endfacet
  facet normal 0 -1 0
    outer loop
      vertex 4.71176 0 4.86384
      vertex 6 0 9
      vertex 4.5987 0 5.21179
    endloop
  endfacet
  facet normal 0 -1 0
    outer loop
      vertex 4.75 0 4.5
      vertex 6 0 9
      vertex 4.71176 0 4.86384
    endloop
  endfacet
  facet normal 0 -1 0
    outer loop
      vertex 6 0 0
      vertex 4.75 0 4.5
      vertex 4.71176 0 4.13615
    endloop
  endfacet
  facet normal 0 -1 0
    outer loop
      vertex 6 0 0
      vertex 3.18292 0 2.75959
      vertex 0 0 0
    endloop
  endfacet
  facet normal 0 -1 0
    outer loop
      vertex 3.18292 0 2.75959
      vertex 6 0 0
      vertex 3.54078 0 2.83565
    endloop
  endfacet
  facet normal 0 -1 0
    outer loop
      vertex 3.54078 0 2.83565
      vertex 6 0 0
      vertex 3.875 0 2.98446
    endloop
  endfacet
  facet normal 0 -1 0
    outer loop
      vertex 4.75 0 4.5
      vertex 6 0 0
      vertex 6 0 9
    endloop
  endfacet
  facet normal 0 -1 0
    outer loop
      vertex 4.5987 0 3.78821
      vertex 6 0 0
      vertex 4.71176 0 4.13615
    endloop
  endfacet
  facet normal 0 -1 0
    outer loop
      vertex 4.41578 0 3.47138
      vertex 6 0 0
      vertex 4.5987 0 3.78821
    endloop
  endfacet
  facet normal 0 -1 0
    outer loop
      vertex 4.17098 0 3.1995
      vertex 6 0 0
      vertex 4.41578 0 3.47138
    endloop
  endfacet
  facet normal 0 -1 0
    outer loop
      vertex 3.875 0 2.98446
      vertex 6 0 0
      vertex 4.17098 0 3.1995
    endloop
  endfacet
  facet normal 1 -0 0
    outer loop
      vertex 6 0 9
      vertex 6 3 0
      vertex 6 3 9
    endloop
  endfacet
  facet normal 1 0 0
    outer loop
      vertex 6 3 0
      vertex 6 0 9
      vertex 6 0 0
    endloop
  endfacet
  facet normal -1 0 0
    outer loop
      vertex 26 0 0
      vertex 26 3 9
      vertex 26 3 0
    endloop
  endfacet
  facet normal -1 -0 0
    outer loop
      vertex 26 3 9
      vertex 26 0 0
      vertex 26 0 9
    endloop
  endfacet
  facet normal 0 -1 0
    outer loop
      vertex 6 3 9
      vertex 10 3 6
      vertex 26 3 9
    endloop
  endfacet
  facet normal 0 -1 0
    outer loop
      vertex 6 3 9
      vertex 10 3 3
      vertex 10 3 6
    endloop
  endfacet
  facet normal 0 -1 -0
    outer loop
      vertex 10 3 3
      vertex 6 3 0
      vertex 22 3 3
    endloop
  endfacet
  facet normal 0 -1 0
    outer loop
      vertex 6 3 0
      vertex 10 3 3
      vertex 6 3 9
    endloop
  endfacet
  facet normal 0 -1 0
    outer loop
      vertex 22 3 6
      vertex 26 3 9
      vertex 10 3 6
    endloop
  endfacet
  facet normal 0 -1 0
    outer loop
      vertex 22 3 3
      vertex 26 3 9
      vertex 22 3 6
    endloop
  endfacet
  facet normal 0 -1 0
    outer loop
      vertex 22 3 3
      vertex 26 3 0
      vertex 26 3 9
    endloop
  endfacet
  facet normal 0 -1 0
    outer loop
      vertex 26 3 0
      vertex 22 3 3
      vertex 6 3 0
    endloop
  endfacet
  facet normal 1 -0 0
    outer loop
      vertex 10 3 6
      vertex 10 9 3
      vertex 10 9 6
    endloop
  endfacet
  facet normal 1 0 0
    outer loop
      vertex 10 9 3
      vertex 10 3 6
      vertex 10 3 3
    endloop
  endfacet
  facet normal 0 0 -1
    outer loop
      vertex 10 3 6
      vertex 22 9 6
      vertex 22 3 6
    endloop
  endfacet
  facet normal -0 0 -1
    outer loop
      vertex 22 9 6
      vertex 10 3 6
      vertex 10 9 6
    endloop
  endfacet
  facet normal -1 0 0
    outer loop
      vertex 22 3 3
      vertex 22 9 6
      vertex 22 9 3
    endloop
  endfacet
  facet normal -1 -0 0
    outer loop
      vertex 22 9 6
      vertex 22 3 3
      vertex 22 3 6
    endloop
  endfacet
  facet normal -0 0 1
    outer loop
      vertex 10 9 3
      vertex 22 3 3
      vertex 22 9 3
    endloop
  endfacet
  facet normal 0 0 1
    outer loop
      vertex 22 3 3
      vertex 10 9 3
      vertex 10 3 3
    endloop
  endfacet
  facet normal -0.994522 -0.10453 0
    outer loop
      vertex 8.75 6 0
      vertex 8.71176 6.36384 9
      vertex 8.71176 6.36384 0
    endloop
  endfacet
  facet normal -0.994522 -0.10453 0
    outer loop
      vertex 8.71176 6.36384 9
      vertex 8.75 6 0
      vertex 8.75 6 9
    endloop
  endfacet
  facet normal 0.207911 -0.978148 0
    outer loop
      vertex 6.45922 7.66435 0
      vertex 6.81707 7.74041 9
      vertex 6.45922 7.66435 9
    endloop
  endfacet
  facet normal 0.207911 -0.978148 0
    outer loop
      vertex 6.81707 7.74041 9
      vertex 6.45922 7.66435 0
      vertex 6.81707 7.74041 0
    endloop
  endfacet
  facet normal -0.587786 -0.809017 0
    outer loop
      vertex 7.875 7.51554 0
      vertex 8.17098 7.3005 9
      vertex 7.875 7.51554 9
    endloop
  endfacet
  facet normal -0.587786 -0.809017 -0
    outer loop
      vertex 8.17098 7.3005 9
      vertex 7.875 7.51554 0
      vertex 8.17098 7.3005 0
    endloop
  endfacet
  facet normal 0.866025 -0.5 0
    outer loop
      vertex 5.40129 6.71179 9
      vertex 5.58422 7.02862 0
      vertex 5.58422 7.02862 9
    endloop
  endfacet
  facet normal 0.866025 -0.5 0
    outer loop
      vertex 5.58422 7.02862 0
      vertex 5.40129 6.71179 9
      vertex 5.40129 6.71179 0
    endloop
  endfacet
  facet normal 0.951057 -0.309016 0
    outer loop
      vertex 5.28824 6.36384 9
      vertex 5.40129 6.71179 0
      vertex 5.40129 6.71179 9
    endloop
  endfacet
  facet normal 0.951057 -0.309016 0
    outer loop
      vertex 5.40129 6.71179 0
      vertex 5.28824 6.36384 9
      vertex 5.28824 6.36384 0
    endloop
  endfacet
  facet normal 0.587784 -0.809018 0
    outer loop
      vertex 5.82902 7.3005 0
      vertex 6.125 7.51554 9
      vertex 5.82902 7.3005 9
    endloop
  endfacet
  facet normal 0.587784 -0.809018 0
    outer loop
      vertex 6.125 7.51554 9
      vertex 5.82902 7.3005 0
      vertex 6.125 7.51554 0
    endloop
  endfacet
  facet normal -0.866025 0.5 0
    outer loop
      vertex 8.41578 4.97138 0
      vertex 8.5987 5.28821 9
      vertex 8.5987 5.28821 0
    endloop
  endfacet
  facet normal -0.866025 0.5 0
    outer loop
      vertex 8.5987 5.28821 9
      vertex 8.41578 4.97138 0
      vertex 8.41578 4.97138 9
    endloop
  endfacet
  facet normal -0.866025 -0.5 0
    outer loop
      vertex 8.5987 6.71179 0
      vertex 8.41578 7.02862 9
      vertex 8.41578 7.02862 0
    endloop
  endfacet
  facet normal -0.866025 -0.5 0
    outer loop
      vertex 8.41578 7.02862 9
      vertex 8.5987 6.71179 0
      vertex 8.5987 6.71179 9
    endloop
  endfacet
  facet normal -0.951057 -0.309016 0
    outer loop
      vertex 8.71176 6.36384 0
      vertex 8.5987 6.71179 9
      vertex 8.5987 6.71179 0
    endloop
  endfacet
  facet normal -0.951057 -0.309016 0
    outer loop
      vertex 8.5987 6.71179 9
      vertex 8.71176 6.36384 0
      vertex 8.71176 6.36384 9
    endloop
  endfacet
  facet normal -0.743146 -0.66913 0
    outer loop
      vertex 8.41578 7.02862 0
      vertex 8.17098 7.3005 9
      vertex 8.17098 7.3005 0
    endloop
  endfacet
  facet normal -0.743146 -0.66913 0
    outer loop
      vertex 8.17098 7.3005 9
      vertex 8.41578 7.02862 0
      vertex 8.41578 7.02862 9
    endloop
  endfacet
  facet normal -0.207911 -0.978148 0
    outer loop
      vertex 7.18292 7.74041 0
      vertex 7.54078 7.66435 9
      vertex 7.18292 7.74041 9
    endloop
  endfacet
  facet normal -0.207911 -0.978148 -0
    outer loop
      vertex 7.54078 7.66435 9
      vertex 7.18292 7.74041 0
      vertex 7.54078 7.66435 0
    endloop
  endfacet
  facet normal 0 -1 0
    outer loop
      vertex 6.81707 7.74041 0
      vertex 7.18292 7.74041 9
      vertex 6.81707 7.74041 9
    endloop
  endfacet
  facet normal 0 -1 -0
    outer loop
      vertex 7.18292 7.74041 9
      vertex 6.81707 7.74041 0
      vertex 7.18292 7.74041 0
    endloop
  endfacet
  facet normal -0.406737 -0.913546 0
    outer loop
      vertex 7.54078 7.66435 0
      vertex 7.875 7.51554 9
      vertex 7.54078 7.66435 9
    endloop
  endfacet
  facet normal -0.406737 -0.913546 -0
    outer loop
      vertex 7.875 7.51554 9
      vertex 7.54078 7.66435 0
      vertex 7.875 7.51554 0
    endloop
  endfacet
  facet normal 0.994522 -0.104528 0
    outer loop
      vertex 5.25 6 9
      vertex 5.28824 6.36384 0
      vertex 5.28824 6.36384 9
    endloop
  endfacet
  facet normal 0.994522 -0.104528 0
    outer loop
      vertex 5.28824 6.36384 0
      vertex 5.25 6 9
      vertex 5.25 6 0
    endloop
  endfacet
  facet normal 0.743146 -0.66913 0
    outer loop
      vertex 5.58422 7.02862 9
      vertex 5.82902 7.3005 0
      vertex 5.82902 7.3005 9
    endloop
  endfacet
  facet normal 0.743146 -0.66913 0
    outer loop
      vertex 5.82902 7.3005 0
      vertex 5.58422 7.02862 9
      vertex 5.58422 7.02862 0
    endloop
  endfacet
  facet normal 0.406737 -0.913545 0
    outer loop
      vertex 6.125 7.51554 0
      vertex 6.45922 7.66435 9
      vertex 6.125 7.51554 9
    endloop
  endfacet
  facet normal 0.406737 -0.913545 0
    outer loop
      vertex 6.45922 7.66435 9
      vertex 6.125 7.51554 0
      vertex 6.45922 7.66435 0
    endloop
  endfacet
  facet normal -0.994522 0.10453 0
    outer loop
      vertex 8.71176 5.63615 0
      vertex 8.75 6 9
      vertex 8.75 6 0
    endloop
  endfacet
  facet normal -0.994522 0.10453 0
    outer loop
      vertex 8.75 6 9
      vertex 8.71176 5.63615 0
      vertex 8.71176 5.63615 9
    endloop
  endfacet
  facet normal 0 1 -0
    outer loop
      vertex 7.18292 4.25959 0
      vertex 6.81707 4.25959 9
      vertex 7.18292 4.25959 9
    endloop
  endfacet
  facet normal 0 1 0
    outer loop
      vertex 6.81707 4.25959 9
      vertex 7.18292 4.25959 0
      vertex 6.81707 4.25959 0
    endloop
  endfacet
  facet normal -0.406737 0.913546 0
    outer loop
      vertex 7.875 4.48446 0
      vertex 7.54078 4.33565 9
      vertex 7.875 4.48446 9
    endloop
  endfacet
  facet normal -0.406737 0.913546 0
    outer loop
      vertex 7.54078 4.33565 9
      vertex 7.875 4.48446 0
      vertex 7.54078 4.33565 0
    endloop
  endfacet
  facet normal -0.951057 0.309016 0
    outer loop
      vertex 8.5987 5.28821 0
      vertex 8.71176 5.63615 9
      vertex 8.71176 5.63615 0
    endloop
  endfacet
  facet normal -0.951057 0.309016 0
    outer loop
      vertex 8.71176 5.63615 9
      vertex 8.5987 5.28821 0
      vertex 8.5987 5.28821 9
    endloop
  endfacet
  facet normal 0.994522 0.104528 0
    outer loop
      vertex 5.28824 5.63615 9
      vertex 5.25 6 0
      vertex 5.25 6 9
    endloop
  endfacet
  facet normal 0.994522 0.104528 0
    outer loop
      vertex 5.25 6 0
      vertex 5.28824 5.63615 9
      vertex 5.28824 5.63615 0
    endloop
  endfacet
  facet normal 0.743146 0.66913 0
    outer loop
      vertex 5.82902 4.6995 9
      vertex 5.58422 4.97138 0
      vertex 5.58422 4.97138 9
    endloop
  endfacet
  facet normal 0.743146 0.66913 0
    outer loop
      vertex 5.58422 4.97138 0
      vertex 5.82902 4.6995 9
      vertex 5.82902 4.6995 0
    endloop
  endfacet
  facet normal 0.951057 0.309016 0
    outer loop
      vertex 5.40129 5.28821 9
      vertex 5.28824 5.63615 0
      vertex 5.28824 5.63615 9
    endloop
  endfacet
  facet normal 0.951057 0.309016 0
    outer loop
      vertex 5.28824 5.63615 0
      vertex 5.40129 5.28821 9
      vertex 5.40129 5.28821 0
    endloop
  endfacet
  facet normal 0.866025 0.5 0
    outer loop
      vertex 5.58422 4.97138 9
      vertex 5.40129 5.28821 0
      vertex 5.40129 5.28821 9
    endloop
  endfacet
  facet normal 0.866025 0.5 0
    outer loop
      vertex 5.40129 5.28821 0
      vertex 5.58422 4.97138 9
      vertex 5.58422 4.97138 0
    endloop
  endfacet
  facet normal -0.743146 0.66913 0
    outer loop
      vertex 8.17098 4.6995 0
      vertex 8.41578 4.97138 9
      vertex 8.41578 4.97138 0
    endloop
  endfacet
  facet normal -0.743146 0.66913 0
    outer loop
      vertex 8.41578 4.97138 9
      vertex 8.17098 4.6995 0
      vertex 8.17098 4.6995 9
    endloop
  endfacet
  facet normal -0.587786 0.809017 0
    outer loop
      vertex 8.17098 4.6995 0
      vertex 7.875 4.48446 9
      vertex 8.17098 4.6995 9
    endloop
  endfacet
  facet normal -0.587786 0.809017 0
    outer loop
      vertex 7.875 4.48446 9
      vertex 8.17098 4.6995 0
      vertex 7.875 4.48446 0
    endloop
  endfacet
  facet normal -0.207911 0.978148 0
    outer loop
      vertex 7.54078 4.33565 0
      vertex 7.18292 4.25959 9
      vertex 7.54078 4.33565 9
    endloop
  endfacet
  facet normal -0.207911 0.978148 0
    outer loop
      vertex 7.18292 4.25959 9
      vertex 7.54078 4.33565 0
      vertex 7.18292 4.25959 0
    endloop
  endfacet
  facet normal 0.406737 0.913546 -0
    outer loop
      vertex 6.45922 4.33565 0
      vertex 6.125 4.48446 9
      vertex 6.45922 4.33565 9
    endloop
  endfacet
  facet normal 0.406737 0.913546 0
    outer loop
      vertex 6.125 4.48446 9
      vertex 6.45922 4.33565 0
      vertex 6.125 4.48446 0
    endloop
  endfacet
  facet normal 0.207911 0.978148 -0
    outer loop
      vertex 6.81707 4.25959 0
      vertex 6.45922 4.33565 9
      vertex 6.81707 4.25959 9
    endloop
  endfacet
  facet normal 0.207911 0.978148 0
    outer loop
      vertex 6.45922 4.33565 9
      vertex 6.81707 4.25959 0
      vertex 6.45922 4.33565 0
    endloop
  endfacet
  facet normal 0.587786 0.809017 -0
    outer loop
      vertex 6.125 4.48446 0
      vertex 5.82902 4.6995 9
      vertex 6.125 4.48446 9
    endloop
  endfacet
  facet normal 0.587786 0.809017 0
    outer loop
      vertex 5.82902 4.6995 9
      vertex 6.125 4.48446 0
      vertex 5.82902 4.6995 0
    endloop
  endfacet
  facet normal -0.994522 -0.10453 0
    outer loop
      vertex 26.75 6 0
      vertex 26.7118 6.36384 9
      vertex 26.7118 6.36384 0
    endloop
  endfacet
  facet normal -0.994522 -0.10453 0
    outer loop
      vertex 26.7118 6.36384 9
      vertex 26.75 6 0
      vertex 26.75 6 9
    endloop
  endfacet
  facet normal 0.207912 -0.978148 0
    outer loop
      vertex 24.4592 7.66435 0
      vertex 24.8171 7.74041 9
      vertex 24.4592 7.66435 9
    endloop
  endfacet
  facet normal 0.207912 -0.978148 0
    outer loop
      vertex 24.8171 7.74041 9
      vertex 24.4592 7.66435 0
      vertex 24.8171 7.74041 0
    endloop
  endfacet
  facet normal -0.207911 0.978148 0
    outer loop
      vertex 25.5408 4.33565 0
      vertex 25.1829 4.25959 9
      vertex 25.5408 4.33565 9
    endloop
  endfacet
  facet normal -0.207911 0.978148 0
    outer loop
      vertex 25.1829 4.25959 9
      vertex 25.5408 4.33565 0
      vertex 25.1829 4.25959 0
    endloop
  endfacet
  facet normal -0.587786 -0.809017 0
    outer loop
      vertex 25.875 7.51554 0
      vertex 26.171 7.3005 9
      vertex 25.875 7.51554 9
    endloop
  endfacet
  facet normal -0.587786 -0.809017 -0
    outer loop
      vertex 26.171 7.3005 9
      vertex 25.875 7.51554 0
      vertex 26.171 7.3005 0
    endloop
  endfacet
  facet normal 0.866024 -0.500002 0
    outer loop
      vertex 23.4013 6.71179 9
      vertex 23.5842 7.02862 0
      vertex 23.5842 7.02862 9
    endloop
  endfacet
  facet normal 0.866024 -0.500002 0
    outer loop
      vertex 23.5842 7.02862 0
      vertex 23.4013 6.71179 9
      vertex 23.4013 6.71179 0
    endloop
  endfacet
  facet normal 0.951058 -0.309014 0
    outer loop
      vertex 23.2882 6.36384 9
      vertex 23.4013 6.71179 0
      vertex 23.4013 6.71179 9
    endloop
  endfacet
  facet normal 0.951058 -0.309014 0
    outer loop
      vertex 23.4013 6.71179 0
      vertex 23.2882 6.36384 9
      vertex 23.2882 6.36384 0
    endloop
  endfacet
  facet normal 0.587786 -0.809017 0
    outer loop
      vertex 23.829 7.3005 0
      vertex 24.125 7.51554 9
      vertex 23.829 7.3005 9
    endloop
  endfacet
  facet normal 0.587786 -0.809017 0
    outer loop
      vertex 24.125 7.51554 9
      vertex 23.829 7.3005 0
      vertex 24.125 7.51554 0
    endloop
  endfacet
  facet normal -0.866024 -0.500002 0
    outer loop
      vertex 26.5987 6.71179 0
      vertex 26.4158 7.02862 9
      vertex 26.4158 7.02862 0
    endloop
  endfacet
  facet normal -0.866024 -0.500002 0
    outer loop
      vertex 26.4158 7.02862 9
      vertex 26.5987 6.71179 0
      vertex 26.5987 6.71179 9
    endloop
  endfacet
  facet normal -0.951058 -0.309014 0
    outer loop
      vertex 26.7118 6.36384 0
      vertex 26.5987 6.71179 9
      vertex 26.5987 6.71179 0
    endloop
  endfacet
  facet normal -0.951058 -0.309014 0
    outer loop
      vertex 26.5987 6.71179 9
      vertex 26.7118 6.36384 0
      vertex 26.7118 6.36384 9
    endloop
  endfacet
  facet normal -0.743146 -0.66913 0
    outer loop
      vertex 26.4158 7.02862 0
      vertex 26.171 7.3005 9
      vertex 26.171 7.3005 0
    endloop
  endfacet
  facet normal -0.743146 -0.66913 0
    outer loop
      vertex 26.171 7.3005 9
      vertex 26.4158 7.02862 0
      vertex 26.4158 7.02862 9
    endloop
  endfacet
  facet normal -0.207911 -0.978148 0
    outer loop
      vertex 25.1829 7.74041 0
      vertex 25.5408 7.66435 9
      vertex 25.1829 7.74041 9
    endloop
  endfacet
  facet normal -0.207911 -0.978148 -0
    outer loop
      vertex 25.5408 7.66435 9
      vertex 25.1829 7.74041 0
      vertex 25.5408 7.66435 0
    endloop
  endfacet
  facet normal 0 -1 0
    outer loop
      vertex 24.8171 7.74041 0
      vertex 25.1829 7.74041 9
      vertex 24.8171 7.74041 9
    endloop
  endfacet
  facet normal 0 -1 -0
    outer loop
      vertex 25.1829 7.74041 9
      vertex 24.8171 7.74041 0
      vertex 25.1829 7.74041 0
    endloop
  endfacet
  facet normal -0.406737 -0.913546 0
    outer loop
      vertex 25.5408 7.66435 0
      vertex 25.875 7.51554 9
      vertex 25.5408 7.66435 9
    endloop
  endfacet
  facet normal -0.406737 -0.913546 -0
    outer loop
      vertex 25.875 7.51554 9
      vertex 25.5408 7.66435 0
      vertex 25.875 7.51554 0
    endloop
  endfacet
  facet normal 0.994522 -0.10453 0
    outer loop
      vertex 23.25 6 9
      vertex 23.2882 6.36384 0
      vertex 23.2882 6.36384 9
    endloop
  endfacet
  facet normal 0.994522 -0.10453 0
    outer loop
      vertex 23.2882 6.36384 0
      vertex 23.25 6 9
      vertex 23.25 6 0
    endloop
  endfacet
  facet normal 0.743146 -0.66913 0
    outer loop
      vertex 23.5842 7.02862 9
      vertex 23.829 7.3005 0
      vertex 23.829 7.3005 9
    endloop
  endfacet
  facet normal 0.743146 -0.66913 0
    outer loop
      vertex 23.829 7.3005 0
      vertex 23.5842 7.02862 9
      vertex 23.5842 7.02862 0
    endloop
  endfacet
  facet normal 0.406737 -0.913546 0
    outer loop
      vertex 24.125 7.51554 0
      vertex 24.4592 7.66435 9
      vertex 24.125 7.51554 9
    endloop
  endfacet
  facet normal 0.406737 -0.913546 0
    outer loop
      vertex 24.4592 7.66435 9
      vertex 24.125 7.51554 0
      vertex 24.4592 7.66435 0
    endloop
  endfacet
  facet normal -0.994522 0.10453 0
    outer loop
      vertex 26.7118 5.63615 0
      vertex 26.75 6 9
      vertex 26.75 6 0
    endloop
  endfacet
  facet normal -0.994522 0.10453 0
    outer loop
      vertex 26.75 6 9
      vertex 26.7118 5.63615 0
      vertex 26.7118 5.63615 9
    endloop
  endfacet
  facet normal -0.406737 0.913546 0
    outer loop
      vertex 25.875 4.48446 0
      vertex 25.5408 4.33565 9
      vertex 25.875 4.48446 9
    endloop
  endfacet
  facet normal -0.406737 0.913546 0
    outer loop
      vertex 25.5408 4.33565 9
      vertex 25.875 4.48446 0
      vertex 25.5408 4.33565 0
    endloop
  endfacet
  facet normal -0.951058 0.309014 0
    outer loop
      vertex 26.5987 5.28821 0
      vertex 26.7118 5.63615 9
      vertex 26.7118 5.63615 0
    endloop
  endfacet
  facet normal -0.951058 0.309014 0
    outer loop
      vertex 26.7118 5.63615 9
      vertex 26.5987 5.28821 0
      vertex 26.5987 5.28821 9
    endloop
  endfacet
  facet normal 0.994522 0.10453 0
    outer loop
      vertex 23.2882 5.63615 9
      vertex 23.25 6 0
      vertex 23.25 6 9
    endloop
  endfacet
  facet normal 0.994522 0.10453 0
    outer loop
      vertex 23.25 6 0
      vertex 23.2882 5.63615 9
      vertex 23.2882 5.63615 0
    endloop
  endfacet
  facet normal -0.743146 0.66913 0
    outer loop
      vertex 26.171 4.6995 0
      vertex 26.4158 4.97138 9
      vertex 26.4158 4.97138 0
    endloop
  endfacet
  facet normal -0.743146 0.66913 0
    outer loop
      vertex 26.4158 4.97138 9
      vertex 26.171 4.6995 0
      vertex 26.171 4.6995 9
    endloop
  endfacet
  facet normal -0.587786 0.809017 0
    outer loop
      vertex 26.171 4.6995 0
      vertex 25.875 4.48446 9
      vertex 26.171 4.6995 9
    endloop
  endfacet
  facet normal -0.587786 0.809017 0
    outer loop
      vertex 25.875 4.48446 9
      vertex 26.171 4.6995 0
      vertex 25.875 4.48446 0
    endloop
  endfacet
  facet normal 0 1 -0
    outer loop
      vertex 25.1829 4.25959 0
      vertex 24.8171 4.25959 9
      vertex 25.1829 4.25959 9
    endloop
  endfacet
  facet normal 0 1 0
    outer loop
      vertex 24.8171 4.25959 9
      vertex 25.1829 4.25959 0
      vertex 24.8171 4.25959 0
    endloop
  endfacet
  facet normal 0.587786 0.809017 -0
    outer loop
      vertex 24.125 4.48446 0
      vertex 23.829 4.6995 9
      vertex 24.125 4.48446 9
    endloop
  endfacet
  facet normal 0.587786 0.809017 0
    outer loop
      vertex 23.829 4.6995 9
      vertex 24.125 4.48446 0
      vertex 23.829 4.6995 0
    endloop
  endfacet
  facet normal 0.743146 0.66913 0
    outer loop
      vertex 23.829 4.6995 9
      vertex 23.5842 4.97138 0
      vertex 23.5842 4.97138 9
    endloop
  endfacet
  facet normal 0.743146 0.66913 0
    outer loop
      vertex 23.5842 4.97138 0
      vertex 23.829 4.6995 9
      vertex 23.829 4.6995 0
    endloop
  endfacet
  facet normal 0.866024 0.500002 0
    outer loop
      vertex 23.5842 4.97138 9
      vertex 23.4013 5.28821 0
      vertex 23.4013 5.28821 9
    endloop
  endfacet
  facet normal 0.866024 0.500002 0
    outer loop
      vertex 23.4013 5.28821 0
      vertex 23.5842 4.97138 9
      vertex 23.5842 4.97138 0
    endloop
  endfacet
  facet normal 0.951058 0.309014 0
    outer loop
      vertex 23.4013 5.28821 9
      vertex 23.2882 5.63615 0
      vertex 23.2882 5.63615 9
    endloop
  endfacet
  facet normal 0.951058 0.309014 0
    outer loop
      vertex 23.2882 5.63615 0
      vertex 23.4013 5.28821 9
      vertex 23.4013 5.28821 0
    endloop
  endfacet
  facet normal -0.866024 0.500002 0
    outer loop
      vertex 26.4158 4.97138 0
      vertex 26.5987 5.28821 9
      vertex 26.5987 5.28821 0
    endloop
  endfacet
  facet normal -0.866024 0.500002 0
    outer loop
      vertex 26.5987 5.28821 9
      vertex 26.4158 4.97138 0
      vertex 26.4158 4.97138 9
    endloop
  endfacet
  facet normal 0.406737 0.913546 -0
    outer loop
      vertex 24.4592 4.33565 0
      vertex 24.125 4.48446 9
      vertex 24.4592 4.33565 9
    endloop
  endfacet
  facet normal 0.406737 0.913546 0
    outer loop
      vertex 24.125 4.48446 9
      vertex 24.4592 4.33565 0
      vertex 24.125 4.48446 0
    endloop
  endfacet
  facet normal 0.207912 0.978148 -0
    outer loop
      vertex 24.8171 4.25959 0
      vertex 24.4592 4.33565 9
      vertex 24.8171 4.25959 9
    endloop
  endfacet
  facet normal 0.207912 0.978148 0
    outer loop
      vertex 24.4592 4.33565 9
      vertex 24.8171 4.25959 0
      vertex 24.4592 4.33565 0
    endloop
  endfacet
  facet normal -0.994522 0 0.10453
    outer loop
      vertex 4.71176 0 4.13615
      vertex 4.75 9 4.5
      vertex 4.71176 9 4.13615
    endloop
  endfacet
  facet normal -0.994522 0 0.10453
    outer loop
      vertex 4.75 9 4.5
      vertex 4.71176 0 4.13615
      vertex 4.75 0 4.5
    endloop
  endfacet
  facet normal 0.994522 0 -0.104528
    outer loop
      vertex 1.28824 9 4.86384
      vertex 1.28824 0 4.86384
      vertex 1.25 9 4.5
    endloop
  endfacet
  facet normal 0.207911 0 0.978148
    outer loop
      vertex 2.45922 9 2.83565
      vertex 2.81707 0 2.75959
      vertex 2.81707 9 2.75959
    endloop
  endfacet
  facet normal 0.207911 0 0.978148
    outer loop
      vertex 2.81707 0 2.75959
      vertex 2.45922 9 2.83565
      vertex 2.45922 0 2.83565
    endloop
  endfacet
  facet normal -0.207911 0 -0.978148
    outer loop
      vertex 3.18292 0 6.24041
      vertex 3.54078 9 6.16435
      vertex 3.54078 0 6.16435
    endloop
  endfacet
  facet normal -0.207911 0 -0.978148
    outer loop
      vertex 3.54078 9 6.16435
      vertex 3.18292 0 6.24041
      vertex 3.18292 9 6.24041
    endloop
  endfacet
  facet normal -0.587786 0 0.809017
    outer loop
      vertex 3.875 9 2.98446
      vertex 4.17098 0 3.1995
      vertex 4.17098 9 3.1995
    endloop
  endfacet
  facet normal -0.587786 0 0.809017
    outer loop
      vertex 4.17098 0 3.1995
      vertex 3.875 9 2.98446
      vertex 3.875 0 2.98446
    endloop
  endfacet
  facet normal 0.866025 -0 0.5
    outer loop
      vertex 1.40129 0 3.78821
      vertex 1.58422 9 3.47138
      vertex 1.40129 9 3.78821
    endloop
  endfacet
  facet normal 0.866025 0 0.5
    outer loop
      vertex 1.58422 9 3.47138
      vertex 1.40129 0 3.78821
      vertex 1.58422 0 3.47138
    endloop
  endfacet
  facet normal 0.951057 -0 0.309016
    outer loop
      vertex 1.28824 0 4.13615
      vertex 1.40129 9 3.78821
      vertex 1.28824 9 4.13615
    endloop
  endfacet
  facet normal 0.951057 0 0.309016
    outer loop
      vertex 1.40129 9 3.78821
      vertex 1.28824 0 4.13615
      vertex 1.40129 0 3.78821
    endloop
  endfacet
  facet normal 0.587784 0 0.809018
    outer loop
      vertex 1.82902 9 3.1995
      vertex 2.125 0 2.98446
      vertex 2.125 9 2.98446
    endloop
  endfacet
  facet normal 0.587784 0 0.809018
    outer loop
      vertex 2.125 0 2.98446
      vertex 1.82902 9 3.1995
      vertex 1.82902 0 3.1995
    endloop
  endfacet
  facet normal -0.866025 0 0.5
    outer loop
      vertex 4.41578 0 3.47138
      vertex 4.5987 9 3.78821
      vertex 4.41578 9 3.47138
    endloop
  endfacet
  facet normal -0.866025 0 0.5
    outer loop
      vertex 4.5987 9 3.78821
      vertex 4.41578 0 3.47138
      vertex 4.5987 0 3.78821
    endloop
  endfacet
  facet normal -0.951057 0 0.309016
    outer loop
      vertex 4.5987 0 3.78821
      vertex 4.71176 9 4.13615
      vertex 4.5987 9 3.78821
    endloop
  endfacet
  facet normal -0.951057 0 0.309016
    outer loop
      vertex 4.71176 9 4.13615
      vertex 4.5987 0 3.78821
      vertex 4.71176 0 4.13615
    endloop
  endfacet
  facet normal -0.743146 0 0.66913
    outer loop
      vertex 4.17098 0 3.1995
      vertex 4.41578 9 3.47138
      vertex 4.17098 9 3.1995
    endloop
  endfacet
  facet normal -0.743146 0 0.66913
    outer loop
      vertex 4.41578 9 3.47138
      vertex 4.17098 0 3.1995
      vertex 4.41578 0 3.47138
    endloop
  endfacet
  facet normal -0.207911 0 0.978148
    outer loop
      vertex 3.18292 9 2.75959
      vertex 3.54078 0 2.83565
      vertex 3.54078 9 2.83565
    endloop
  endfacet
  facet normal -0.207911 0 0.978148
    outer loop
      vertex 3.54078 0 2.83565
      vertex 3.18292 9 2.75959
      vertex 3.18292 0 2.75959
    endloop
  endfacet
  facet normal -0 0 1
    outer loop
      vertex 2.81707 9 2.75959
      vertex 3.18292 0 2.75959
      vertex 3.18292 9 2.75959
    endloop
  endfacet
  facet normal 0 0 1
    outer loop
      vertex 3.18292 0 2.75959
      vertex 2.81707 9 2.75959
      vertex 2.81707 0 2.75959
    endloop
  endfacet
  facet normal -0.406737 0 0.913546
    outer loop
      vertex 3.54078 9 2.83565
      vertex 3.875 0 2.98446
      vertex 3.875 9 2.98446
    endloop
  endfacet
  facet normal -0.406737 0 0.913546
    outer loop
      vertex 3.875 0 2.98446
      vertex 3.54078 9 2.83565
      vertex 3.54078 0 2.83565
    endloop
  endfacet
  facet normal 0.994522 -0 0.104528
    outer loop
      vertex 1.28824 0 4.13615
      vertex 1.28824 9 4.13615
      vertex 1.25 0 4.5
    endloop
  endfacet
  facet normal 0.743146 -0 0.66913
    outer loop
      vertex 1.58422 0 3.47138
      vertex 1.82902 9 3.1995
      vertex 1.58422 9 3.47138
    endloop
  endfacet
  facet normal 0.743146 0 0.66913
    outer loop
      vertex 1.82902 9 3.1995
      vertex 1.58422 0 3.47138
      vertex 1.82902 0 3.1995
    endloop
  endfacet
  facet normal 0.406737 0 0.913545
    outer loop
      vertex 2.125 9 2.98446
      vertex 2.45922 0 2.83565
      vertex 2.45922 9 2.83565
    endloop
  endfacet
  facet normal 0.406737 0 0.913545
    outer loop
      vertex 2.45922 0 2.83565
      vertex 2.125 9 2.98446
      vertex 2.125 0 2.98446
    endloop
  endfacet
  facet normal -0.994522 0 -0.10453
    outer loop
      vertex 4.75 0 4.5
      vertex 4.71176 9 4.86384
      vertex 4.75 9 4.5
    endloop
  endfacet
  facet normal -0.994522 -0 -0.10453
    outer loop
      vertex 4.71176 9 4.86384
      vertex 4.75 0 4.5
      vertex 4.71176 0 4.86384
    endloop
  endfacet
  facet normal -0.406737 0 -0.913546
    outer loop
      vertex 3.54078 0 6.16435
      vertex 3.875 9 6.01554
      vertex 3.875 0 6.01554
    endloop
  endfacet
  facet normal -0.406737 0 -0.913546
    outer loop
      vertex 3.875 9 6.01554
      vertex 3.54078 0 6.16435
      vertex 3.54078 9 6.16435
    endloop
  endfacet
  facet normal -0.951057 0 -0.309016
    outer loop
      vertex 4.71176 0 4.86384
      vertex 4.5987 9 5.21179
      vertex 4.71176 9 4.86384
    endloop
  endfacet
  facet normal -0.951057 -0 -0.309016
    outer loop
      vertex 4.5987 9 5.21179
      vertex 4.71176 0 4.86384
      vertex 4.5987 0 5.21179
    endloop
  endfacet
  facet normal 0.994522 -1.10761e-08 0.104528
    outer loop
      vertex 1.28824 9 4.13615
      vertex 1.25 9 4.5
      vertex 1.25 0 4.5
    endloop
  endfacet
  facet normal 0.994522 1.10761e-08 -0.104528
    outer loop
      vertex 1.25 9 4.5
      vertex 1.28824 0 4.86384
      vertex 1.25 0 4.5
    endloop
  endfacet
  facet normal 0.406737 0 -0.913546
    outer loop
      vertex 2.125 0 6.01554
      vertex 2.45922 9 6.16435
      vertex 2.45922 0 6.16435
    endloop
  endfacet
  facet normal 0.406737 0 -0.913546
    outer loop
      vertex 2.45922 9 6.16435
      vertex 2.125 0 6.01554
      vertex 2.125 9 6.01554
    endloop
  endfacet
  facet normal 0.743146 0 -0.66913
    outer loop
      vertex 1.82902 0 5.8005
      vertex 1.58422 9 5.52862
      vertex 1.82902 9 5.8005
    endloop
  endfacet
  facet normal 0.743146 0 -0.66913
    outer loop
      vertex 1.58422 9 5.52862
      vertex 1.82902 0 5.8005
      vertex 1.58422 0 5.52862
    endloop
  endfacet
  facet normal 0.587786 0 -0.809017
    outer loop
      vertex 1.82902 0 5.8005
      vertex 2.125 9 6.01554
      vertex 2.125 0 6.01554
    endloop
  endfacet
  facet normal 0.587786 0 -0.809017
    outer loop
      vertex 2.125 9 6.01554
      vertex 1.82902 0 5.8005
      vertex 1.82902 9 5.8005
    endloop
  endfacet
  facet normal 0.951057 0 -0.309016
    outer loop
      vertex 1.40129 0 5.21179
      vertex 1.28824 9 4.86384
      vertex 1.40129 9 5.21179
    endloop
  endfacet
  facet normal 0.951057 0 -0.309016
    outer loop
      vertex 1.28824 9 4.86384
      vertex 1.40129 0 5.21179
      vertex 1.28824 0 4.86384
    endloop
  endfacet
  facet normal -0.743146 0 -0.66913
    outer loop
      vertex 4.41578 0 5.52862
      vertex 4.17098 9 5.8005
      vertex 4.41578 9 5.52862
    endloop
  endfacet
  facet normal -0.743146 -0 -0.66913
    outer loop
      vertex 4.17098 9 5.8005
      vertex 4.41578 0 5.52862
      vertex 4.17098 0 5.8005
    endloop
  endfacet
  facet normal -0.587786 0 -0.809017
    outer loop
      vertex 3.875 0 6.01554
      vertex 4.17098 9 5.8005
      vertex 4.17098 0 5.8005
    endloop
  endfacet
  facet normal -0.587786 0 -0.809017
    outer loop
      vertex 4.17098 9 5.8005
      vertex 3.875 0 6.01554
      vertex 3.875 9 6.01554
    endloop
  endfacet
  facet normal 0.866025 0 -0.5
    outer loop
      vertex 1.58422 0 5.52862
      vertex 1.40129 9 5.21179
      vertex 1.58422 9 5.52862
    endloop
  endfacet
  facet normal 0.866025 0 -0.5
    outer loop
      vertex 1.40129 9 5.21179
      vertex 1.58422 0 5.52862
      vertex 1.40129 0 5.21179
    endloop
  endfacet
  facet normal -0.866025 0 -0.5
    outer loop
      vertex 4.5987 0 5.21179
      vertex 4.41578 9 5.52862
      vertex 4.5987 9 5.21179
    endloop
  endfacet
  facet normal -0.866025 -0 -0.5
    outer loop
      vertex 4.41578 9 5.52862
      vertex 4.5987 0 5.21179
      vertex 4.41578 0 5.52862
    endloop
  endfacet
  facet normal 0.207911 0 -0.978148
    outer loop
      vertex 2.45922 0 6.16435
      vertex 2.81707 9 6.24041
      vertex 2.81707 0 6.24041
    endloop
  endfacet
  facet normal 0.207911 0 -0.978148
    outer loop
      vertex 2.81707 9 6.24041
      vertex 2.45922 0 6.16435
      vertex 2.45922 9 6.16435
    endloop
  endfacet
  facet normal 0 0 -1
    outer loop
      vertex 2.81707 0 6.24041
      vertex 3.18292 9 6.24041
      vertex 3.18292 0 6.24041
    endloop
  endfacet
  facet normal -0 0 -1
    outer loop
      vertex 3.18292 9 6.24041
      vertex 2.81707 0 6.24041
      vertex 2.81707 9 6.24041
    endloop
  endfacet
  facet normal -0.994522 0 0.10453
    outer loop
      vertex 30.7118 0 4.13615
      vertex 30.75 9 4.5
      vertex 30.7118 9 4.13615
    endloop
  endfacet
  facet normal -0.994522 0 0.10453
    outer loop
      vertex 30.75 9 4.5
      vertex 30.7118 0 4.13615
      vertex 30.75 0 4.5
    endloop
  endfacet
  facet normal 0.994522 0 -0.10453
    outer loop
      vertex 27.2882 9 4.86384
      vertex 27.2882 0 4.86384
      vertex 27.25 9 4.5
    endloop
  endfacet
  facet normal 0.207912 0 0.978148
    outer loop
      vertex 28.4592 9 2.83565
      vertex 28.8171 0 2.75959
      vertex 28.8171 9 2.75959
    endloop
  endfacet
  facet normal 0.207912 0 0.978148
    outer loop
      vertex 28.8171 0 2.75959
      vertex 28.4592 9 2.83565
      vertex 28.4592 0 2.83565
    endloop
  endfacet
  facet normal -0.207911 0 -0.978148
    outer loop
      vertex 29.1829 0 6.24041
      vertex 29.5408 9 6.16435
      vertex 29.5408 0 6.16435
    endloop
  endfacet
  facet normal -0.207911 0 -0.978148
    outer loop
      vertex 29.5408 9 6.16435
      vertex 29.1829 0 6.24041
      vertex 29.1829 9 6.24041
    endloop
  endfacet
  facet normal -0.587786 0 0.809017
    outer loop
      vertex 29.875 9 2.98446
      vertex 30.171 0 3.1995
      vertex 30.171 9 3.1995
    endloop
  endfacet
  facet normal -0.587786 0 0.809017
    outer loop
      vertex 30.171 0 3.1995
      vertex 29.875 9 2.98446
      vertex 29.875 0 2.98446
    endloop
  endfacet
  facet normal 0.866024 -0 0.500002
    outer loop
      vertex 27.4013 0 3.78821
      vertex 27.5842 9 3.47138
      vertex 27.4013 9 3.78821
    endloop
  endfacet
  facet normal 0.866024 0 0.500002
    outer loop
      vertex 27.5842 9 3.47138
      vertex 27.4013 0 3.78821
      vertex 27.5842 0 3.47138
    endloop
  endfacet
  facet normal 0.951058 -0 0.309014
    outer loop
      vertex 27.2882 0 4.13615
      vertex 27.4013 9 3.78821
      vertex 27.2882 9 4.13615
    endloop
  endfacet
  facet normal 0.951058 0 0.309014
    outer loop
      vertex 27.4013 9 3.78821
      vertex 27.2882 0 4.13615
      vertex 27.4013 0 3.78821
    endloop
  endfacet
  facet normal 0.587786 0 0.809017
    outer loop
      vertex 27.829 9 3.1995
      vertex 28.125 0 2.98446
      vertex 28.125 9 2.98446
    endloop
  endfacet
  facet normal 0.587786 0 0.809017
    outer loop
      vertex 28.125 0 2.98446
      vertex 27.829 9 3.1995
      vertex 27.829 0 3.1995
    endloop
  endfacet
  facet normal -0.866024 0 -0.500002
    outer loop
      vertex 30.5987 0 5.21179
      vertex 30.4158 9 5.52862
      vertex 30.5987 9 5.21179
    endloop
  endfacet
  facet normal -0.866024 -0 -0.500002
    outer loop
      vertex 30.4158 9 5.52862
      vertex 30.5987 0 5.21179
      vertex 30.4158 0 5.52862
    endloop
  endfacet
  facet normal -0.866024 0 0.500002
    outer loop
      vertex 30.4158 0 3.47138
      vertex 30.5987 9 3.78821
      vertex 30.4158 9 3.47138
    endloop
  endfacet
  facet normal -0.866024 0 0.500002
    outer loop
      vertex 30.5987 9 3.78821
      vertex 30.4158 0 3.47138
      vertex 30.5987 0 3.78821
    endloop
  endfacet
  facet normal -0.951058 0 0.309014
    outer loop
      vertex 30.5987 0 3.78821
      vertex 30.7118 9 4.13615
      vertex 30.5987 9 3.78821
    endloop
  endfacet
  facet normal -0.951058 0 0.309014
    outer loop
      vertex 30.7118 9 4.13615
      vertex 30.5987 0 3.78821
      vertex 30.7118 0 4.13615
    endloop
  endfacet
  facet normal -0.743146 0 0.66913
    outer loop
      vertex 30.171 0 3.1995
      vertex 30.4158 9 3.47138
      vertex 30.171 9 3.1995
    endloop
  endfacet
  facet normal -0.743146 0 0.66913
    outer loop
      vertex 30.4158 9 3.47138
      vertex 30.171 0 3.1995
      vertex 30.4158 0 3.47138
    endloop
  endfacet
  facet normal -0.207911 0 0.978148
    outer loop
      vertex 29.1829 9 2.75959
      vertex 29.5408 0 2.83565
      vertex 29.5408 9 2.83565
    endloop
  endfacet
  facet normal -0.207911 0 0.978148
    outer loop
      vertex 29.5408 0 2.83565
      vertex 29.1829 9 2.75959
      vertex 29.1829 0 2.75959
    endloop
  endfacet
  facet normal -0 0 1
    outer loop
      vertex 28.8171 9 2.75959
      vertex 29.1829 0 2.75959
      vertex 29.1829 9 2.75959
    endloop
  endfacet
  facet normal 0 0 1
    outer loop
      vertex 29.1829 0 2.75959
      vertex 28.8171 9 2.75959
      vertex 28.8171 0 2.75959
    endloop
  endfacet
  facet normal -0.406737 0 0.913546
    outer loop
      vertex 29.5408 9 2.83565
      vertex 29.875 0 2.98446
      vertex 29.875 9 2.98446
    endloop
  endfacet
  facet normal -0.406737 0 0.913546
    outer loop
      vertex 29.875 0 2.98446
      vertex 29.5408 9 2.83565
      vertex 29.5408 0 2.83565
    endloop
  endfacet
  facet normal 0.994522 -0 0.10453
    outer loop
      vertex 27.2882 0 4.13615
      vertex 27.2882 9 4.13615
      vertex 27.25 0 4.5
    endloop
  endfacet
  facet normal 0.743146 -0 0.66913
    outer loop
      vertex 27.5842 0 3.47138
      vertex 27.829 9 3.1995
      vertex 27.5842 9 3.47138
    endloop
  endfacet
  facet normal 0.743146 0 0.66913
    outer loop
      vertex 27.829 9 3.1995
      vertex 27.5842 0 3.47138
      vertex 27.829 0 3.1995
    endloop
  endfacet
  facet normal 0.406737 0 0.913546
    outer loop
      vertex 28.125 9 2.98446
      vertex 28.4592 0 2.83565
      vertex 28.4592 9 2.83565
    endloop
  endfacet
  facet normal 0.406737 0 0.913546
    outer loop
      vertex 28.4592 0 2.83565
      vertex 28.125 9 2.98446
      vertex 28.125 0 2.98446
    endloop
  endfacet
  facet normal 0.951058 0 -0.309014
    outer loop
      vertex 27.4013 0 5.21179
      vertex 27.2882 9 4.86384
      vertex 27.4013 9 5.21179
    endloop
  endfacet
  facet normal 0.951058 0 -0.309014
    outer loop
      vertex 27.2882 9 4.86384
      vertex 27.4013 0 5.21179
      vertex 27.2882 0 4.86384
    endloop
  endfacet
  facet normal -0.406737 0 -0.913546
    outer loop
      vertex 29.5408 0 6.16435
      vertex 29.875 9 6.01554
      vertex 29.875 0 6.01554
    endloop
  endfacet
  facet normal -0.406737 0 -0.913546
    outer loop
      vertex 29.875 9 6.01554
      vertex 29.5408 0 6.16435
      vertex 29.5408 9 6.16435
    endloop
  endfacet
  facet normal -0.951058 0 -0.309014
    outer loop
      vertex 30.7118 0 4.86384
      vertex 30.5987 9 5.21179
      vertex 30.7118 9 4.86384
    endloop
  endfacet
  facet normal -0.951058 -0 -0.309014
    outer loop
      vertex 30.5987 9 5.21179
      vertex 30.7118 0 4.86384
      vertex 30.5987 0 5.21179
    endloop
  endfacet
  facet normal 0.994522 -1.10764e-08 0.10453
    outer loop
      vertex 27.2882 9 4.13615
      vertex 27.25 9 4.5
      vertex 27.25 0 4.5
    endloop
  endfacet
  facet normal 0.994522 1.10764e-08 -0.10453
    outer loop
      vertex 27.25 9 4.5
      vertex 27.2882 0 4.86384
      vertex 27.25 0 4.5
    endloop
  endfacet
  facet normal 0.743146 0 -0.66913
    outer loop
      vertex 27.829 0 5.8005
      vertex 27.5842 9 5.52862
      vertex 27.829 9 5.8005
    endloop
  endfacet
  facet normal 0.743146 0 -0.66913
    outer loop
      vertex 27.5842 9 5.52862
      vertex 27.829 0 5.8005
      vertex 27.5842 0 5.52862
    endloop
  endfacet
  facet normal -0.743146 0 -0.66913
    outer loop
      vertex 30.4158 0 5.52862
      vertex 30.171 9 5.8005
      vertex 30.4158 9 5.52862
    endloop
  endfacet
  facet normal -0.743146 -0 -0.66913
    outer loop
      vertex 30.171 9 5.8005
      vertex 30.4158 0 5.52862
      vertex 30.171 0 5.8005
    endloop
  endfacet
  facet normal -0.587786 0 -0.809017
    outer loop
      vertex 29.875 0 6.01554
      vertex 30.171 9 5.8005
      vertex 30.171 0 5.8005
    endloop
  endfacet
  facet normal -0.587786 0 -0.809017
    outer loop
      vertex 30.171 9 5.8005
      vertex 29.875 0 6.01554
      vertex 29.875 9 6.01554
    endloop
  endfacet
  facet normal -0.994522 0 -0.10453
    outer loop
      vertex 30.75 0 4.5
      vertex 30.7118 9 4.86384
      vertex 30.75 9 4.5
    endloop
  endfacet
  facet normal -0.994522 -0 -0.10453
    outer loop
      vertex 30.7118 9 4.86384
      vertex 30.75 0 4.5
      vertex 30.7118 0 4.86384
    endloop
  endfacet
  facet normal 0 0 -1
    outer loop
      vertex 28.8171 0 6.24041
      vertex 29.1829 9 6.24041
      vertex 29.1829 0 6.24041
    endloop
  endfacet
  facet normal -0 0 -1
    outer loop
      vertex 29.1829 9 6.24041
      vertex 28.8171 0 6.24041
      vertex 28.8171 9 6.24041
    endloop
  endfacet
  facet normal 0.207912 0 -0.978148
    outer loop
      vertex 28.4592 0 6.16435
      vertex 28.8171 9 6.24041
      vertex 28.8171 0 6.24041
    endloop
  endfacet
  facet normal 0.207912 0 -0.978148
    outer loop
      vertex 28.8171 9 6.24041
      vertex 28.4592 0 6.16435
      vertex 28.4592 9 6.16435
    endloop
  endfacet
  facet normal 0.587786 0 -0.809017
    outer loop
      vertex 27.829 0 5.8005
      vertex 28.125 9 6.01554
      vertex 28.125 0 6.01554
    endloop
  endfacet
  facet normal 0.587786 0 -0.809017
    outer loop
      vertex 28.125 9 6.01554
      vertex 27.829 0 5.8005
      vertex 27.829 9 5.8005
    endloop
  endfacet
  facet normal 0.866024 0 -0.500002
    outer loop
      vertex 27.5842 0 5.52862
      vertex 27.4013 9 5.21179
      vertex 27.5842 9 5.52862
    endloop
  endfacet
  facet normal 0.866024 0 -0.500002
    outer loop
      vertex 27.4013 9 5.21179
      vertex 27.5842 0 5.52862
      vertex 27.4013 0 5.21179
    endloop
  endfacet
  facet normal 0.406737 0 -0.913546
    outer loop
      vertex 28.125 0 6.01554
      vertex 28.4592 9 6.16435
      vertex 28.4592 0 6.16435
    endloop
  endfacet
  facet normal 0.406737 0 -0.913546
    outer loop
      vertex 28.4592 9 6.16435
      vertex 28.125 0 6.01554
      vertex 28.125 9 6.01554
    endloop
  endfacet
endsolid OpenSCAD_Model
